<svg width="210" height="210" viewBox="0 0 210 210" fill="none" xmlns="http://www.w3.org/2000/svg">
<g clip-path="url(#clip0_197_220)">
<path d="M105 209.5C162.714 209.5 209.5 162.714 209.5 105C209.5 47.2862 162.714 0.5 105 0.5C47.2862 0.5 0.5 47.2862 0.5 105C0.5 162.714 47.2862 209.5 105 209.5Z" stroke="white" stroke-opacity="0.2"/>
<path d="M105 169.5C140.622 169.5 169.5 140.622 169.5 105C169.5 69.3776 140.622 40.5 105 40.5C69.3776 40.5 40.5 69.3776 40.5 105C40.5 140.622 69.3776 169.5 105 169.5Z" stroke="white" stroke-opacity="0.2"/>
<path d="M104.308 85.0185C104.405 84.7821 104.57 84.5799 104.782 84.4375C104.994 84.2952 105.244 84.2191 105.5 84.2191C105.755 84.2191 106.005 84.2952 106.217 84.4375C106.429 84.5799 106.594 84.7821 106.691 85.0185L111.561 96.7312C111.652 96.9504 111.802 97.1402 111.994 97.2797C112.186 97.4192 112.413 97.503 112.65 97.5219L125.295 98.5348C126.439 98.6265 126.901 100.054 126.031 100.799L116.396 109.054C116.216 109.208 116.082 109.408 116.009 109.633C115.935 109.858 115.925 110.099 115.979 110.33L118.924 122.671C118.983 122.918 118.968 123.178 118.88 123.417C118.791 123.655 118.634 123.863 118.428 124.012C118.222 124.162 117.977 124.247 117.722 124.257C117.468 124.267 117.216 124.201 116.999 124.069L106.171 117.457C105.969 117.334 105.736 117.269 105.5 117.269C105.263 117.269 105.03 117.334 104.828 117.457L94 124.071C93.7829 124.204 93.5313 124.269 93.2769 124.259C93.0225 124.249 92.7768 124.164 92.5709 124.014C92.3649 123.865 92.2078 123.658 92.1196 123.419C92.0313 123.18 92.0158 122.92 92.075 122.673L95.0198 110.33C95.0744 110.099 95.0644 109.858 94.9908 109.633C94.9172 109.408 94.7829 109.207 94.6027 109.054L84.9686 100.799C84.7756 100.633 84.6361 100.414 84.5674 100.169C84.4987 99.9238 84.504 99.664 84.5827 99.422C84.6613 99.18 84.8097 98.9667 85.0093 98.8088C85.2088 98.6509 85.4506 98.5556 85.7042 98.5348L98.3496 97.5219C98.5862 97.503 98.813 97.4192 99.0051 97.2797C99.1971 97.1402 99.347 96.9504 99.4381 96.7312L104.308 85.0185Z" stroke="#570AD4" stroke-width="1.5" stroke-linecap="round" stroke-linejoin="round"/>
<path d="M106.869 184H109.413L112.245 194.72H110.325L108.581 187.936L108.101 185.664H107.973L107.397 187.936L105.237 194.72H102.725L100.421 187.936L99.813 185.664H99.685L99.237 187.936L97.637 194.72H95.749L98.437 184H100.981L103.141 190.24L103.925 192.992H104.069L104.837 190.24L106.869 184Z" fill="white"/>
<path d="M88.0676 182.3L89.7454 182.714L87.1799 193.122L85.5021 192.709L88.0676 182.3ZM81.4186 180.661L89.2327 182.587L88.8613 184.094L81.0471 182.168L81.4186 180.661ZM80.545 185.208L88.1261 187.077L87.7585 188.568L80.1774 186.7L80.545 185.208ZM79.2245 189.563L87.0387 191.489L86.6672 192.996L78.8531 191.07L79.2245 189.563Z" fill="white"/>
<path d="M66.2109 174.064L71.722 176.956L66.7401 186.448L61.4274 183.66C60.8135 183.338 60.3411 182.975 60.0103 182.573C59.67 182.165 59.4782 181.727 59.4349 181.259C59.3822 180.786 59.4872 180.299 59.75 179.798C60.0424 179.241 60.4556 178.855 60.9894 178.642C61.5137 178.423 62.1618 178.462 62.9337 178.758L62.9858 178.659C62.2231 178.139 61.7524 177.566 61.5739 176.943C61.3903 176.328 61.4622 175.709 61.7893 175.086C62.0719 174.548 62.4353 174.142 62.8796 173.869C63.3239 173.597 63.8273 173.475 64.3897 173.505C64.9521 173.536 65.5592 173.722 66.2109 174.064ZM67.9754 180.411L69.4848 177.535L65.6596 175.527C65.0929 175.23 64.6132 175.122 64.2203 175.205C63.813 175.293 63.4755 175.592 63.2079 176.102C62.9451 176.602 62.8984 177.035 63.0678 177.401C63.2227 177.772 63.5835 178.106 64.1502 178.403L67.9754 180.411ZM65.9455 184.278L67.3136 181.672L63.7293 179.79C63.1909 179.508 62.735 179.401 62.3615 179.47C61.983 179.549 61.6773 179.81 61.4443 180.254C61.2113 180.697 61.1678 181.09 61.3138 181.432C61.4548 181.783 61.7897 182.097 62.3186 182.375L65.9455 184.278Z" fill="white"/>
<path d="M39.9046 150.133L42.3586 153.688L41.0814 154.57L38.6273 151.015C38.1547 150.33 37.669 149.842 37.1702 149.551C36.6565 149.258 36.0987 149.163 35.4968 149.268C34.8861 149.378 34.2033 149.694 33.4484 150.215C32.6846 150.742 32.1472 151.269 31.8362 151.794C31.5251 152.32 31.4201 152.872 31.5212 153.451C31.6074 154.026 31.8869 154.656 32.3595 155.341L34.8135 158.896L33.5363 159.778L31.0822 156.223C30.446 155.301 30.0806 154.387 29.9861 153.48C29.8767 152.57 30.027 151.708 30.4369 150.894C30.8408 150.071 31.4993 149.344 32.4122 148.714C33.3252 148.084 34.2381 147.726 35.151 147.64C36.0578 147.546 36.9214 147.708 37.7419 148.126C38.5475 148.542 39.2684 149.211 39.9046 150.133ZM41.7042 152.74L42.6768 154.149L33.8544 160.239L32.8818 158.83L41.7042 152.74Z" fill="white"/>
<path d="M31.9301 135.588L32.5429 137.203L22.5195 141.005L21.9067 139.389L31.9301 135.588ZM29.5018 129.185L32.3556 136.71L30.9045 137.26L28.0506 129.735L29.5018 129.185ZM25.2634 131.049L28.0321 138.349L26.5959 138.894L23.8272 131.593L25.2634 131.049ZM20.9295 132.436L23.7834 139.961L22.3323 140.511L19.4784 132.986L20.9295 132.436Z" fill="white"/>
<path d="M26.3895 113.721L26.6846 116.152L16.5943 121.986L16.3474 119.953L24.8106 115.186L24.7951 115.059L15.441 112.488L15.1961 110.471L26.3895 113.721Z" fill="white"/>
<path d="M26.2432 98.412L26.0349 100.127L15.393 98.8353L15.6013 97.1199L26.2432 98.412ZM27.0686 91.6139L26.0985 99.6033L24.5578 99.4162L25.5279 91.4269L27.0686 91.6139ZM22.4494 91.2948L21.5082 99.0459L19.9834 98.8608L20.9246 91.1097L22.4494 91.2948ZM17.9674 90.5089L16.9974 98.4982L15.4567 98.3111L16.4268 90.3218L17.9674 90.5089Z" fill="white"/>
<path d="M30.2877 79.6696L29.675 81.2853L19.6516 77.484L20.2644 75.8683L30.2877 79.6696ZM32.631 73.491L29.8565 80.8066L28.4054 80.2563L31.1798 72.9407L32.631 73.491Z" fill="white"/>
<path d="M40.239 60.5909C39.6027 61.5126 38.8609 62.193 38.0135 62.632C37.1634 63.0562 36.2671 63.2281 35.3245 63.1478C34.3793 63.0526 33.4458 62.6869 32.524 62.0507C31.6023 61.4144 30.9337 60.6743 30.5183 59.8303C30.1002 58.9714 29.9431 58.0723 30.0471 57.1331C30.1483 56.1791 30.517 55.2412 31.1532 54.3194C31.8016 53.3801 32.5508 52.6984 33.4009 52.2742C34.2422 51.844 35.1355 51.6765 36.0808 51.7716C37.0234 51.8519 37.9555 52.2102 38.8773 52.8464C39.799 53.4827 40.4689 54.2302 40.887 55.0891C41.3024 55.9332 41.4625 56.8278 41.3674 57.7731C41.2635 58.7123 40.8873 59.6516 40.239 60.5909ZM38.8695 59.6456C39.3482 58.9521 39.6354 58.3014 39.731 57.6934C39.8239 57.0706 39.7165 56.4845 39.4088 55.9351C39.0923 55.3797 38.5697 54.8505 37.8411 54.3476C37.1037 53.8386 36.4236 53.5376 35.8008 53.4447C35.178 53.3518 34.5963 53.4622 34.0557 53.776C33.5124 54.075 33.0014 54.5712 32.5227 55.2647C32.044 55.9582 31.7582 56.6163 31.6653 57.2391C31.5697 57.8471 31.6757 58.4258 31.9834 58.9752C32.2972 59.5158 32.8228 60.0406 33.5602 60.5496C34.2888 61.0525 34.9659 61.3578 35.5914 61.4656C36.2142 61.5585 36.7972 61.4555 37.3406 61.1565C37.8812 60.8427 38.3908 60.3391 38.8695 59.6456Z" fill="white"/>
<path d="M51.2739 43.3763L47.8367 46.4214L46.8076 45.2597L50.125 42.3207C50.7318 41.7831 51.0772 41.2562 51.1613 40.7399C51.2534 40.2165 51.0343 39.6555 50.5038 39.0566C49.9803 38.4658 49.4533 38.1846 48.9226 38.2129C48.3929 38.2262 47.8246 38.5017 47.2178 39.0392L43.9004 41.9782L42.8713 40.8165L46.3084 37.7714C46.9072 37.2409 47.5292 36.8894 48.1744 36.7169C48.8205 36.5293 49.4512 36.5334 50.0665 36.7293C50.6898 36.9181 51.2667 37.312 51.7972 37.9108C52.3206 38.5016 52.6385 39.1178 52.7508 39.7593C52.8711 40.3937 52.8027 41.0243 52.5457 41.6511C52.2966 42.2707 51.8727 42.8458 51.2739 43.3763ZM50.7823 48.1297L49.4889 49.2755L42.3802 41.2515L43.6737 40.1056L50.7823 48.1297Z" fill="white"/>
<path d="M64.2028 37.9169L62.6727 38.7199L57.6909 29.2279L59.7735 28.1348L65.3927 32.1967L67.2905 33.7124L67.4038 33.6529L67.2062 31.2449L67.0271 24.3278L69.1097 23.2348L74.0915 32.7269L72.5615 33.5299L69.5054 27.7072L68.8409 26.3032L68.7275 26.3627L68.8679 28.0418L69.0056 34.6734L67.1638 35.64L61.7843 31.7595L60.4822 30.6902L60.3688 30.7497L61.1467 32.0941L64.2028 37.9169Z" fill="white"/>
<path d="M83.3432 29.7912L81.6655 30.2047L79.1 19.7962L80.7778 19.3827L83.3432 29.7912ZM89.9923 28.1524L82.1781 30.0784L81.8067 28.5715L89.6208 26.6455L89.9923 28.1524ZM88.6526 23.7202L81.0715 25.5887L80.7039 24.0974L88.285 22.2288L88.6526 23.7202ZM87.7982 19.2508L79.9841 21.1768L79.6126 19.6699L87.4268 17.7439L87.7982 19.2508Z" fill="white"/>
<path d="M100.317 27H98.5893V16.28H100.445L105.245 22.552L106.637 24.552H106.765L106.685 22.616V16.28H108.413V27H106.557L101.725 20.744L100.381 18.856H100.253L100.317 20.712V27Z" fill="white"/>
<path d="M124.544 29.5167L122.881 29.107L125.447 18.6985L127.109 19.1082L124.544 29.5167ZM130.823 21.6222L120.974 19.1945L121.346 17.6876L131.195 20.1153L130.823 21.6222Z" fill="white"/>
<path d="M156.936 47.2073C156.145 46.5071 155.578 45.8047 155.233 45.1002C154.896 44.4027 154.772 43.7301 154.862 43.0824C154.958 42.4268 155.254 41.8195 155.749 41.2606L155.812 41.1887L157.106 42.3346L156.936 42.5262C156.653 42.8456 156.488 43.1767 156.441 43.5196C156.401 43.8545 156.499 44.2264 156.735 44.6353C156.978 45.0361 157.395 45.4983 157.986 46.0217C158.497 46.4744 158.936 46.7992 159.303 46.9961C159.677 47.1851 159.999 47.2563 160.268 47.2098C160.553 47.1624 160.804 47.0149 161.024 46.7674C161.335 46.4161 161.449 46.0616 161.367 45.7038C161.285 45.3461 161.035 44.8965 160.617 44.3551L158.939 42.2917C158.57 41.8078 158.284 41.3264 158.081 40.8475C157.886 40.3606 157.815 39.885 157.87 39.4208C157.94 38.9556 158.17 38.5034 158.559 38.0643C158.814 37.7769 159.129 37.55 159.504 37.3838C159.879 37.2175 160.302 37.1428 160.771 37.1598C161.241 37.1767 161.748 37.3123 162.292 37.5665C162.851 37.8198 163.446 38.2258 164.077 38.7846C164.86 39.4778 165.396 40.167 165.687 40.8521C165.978 41.5373 166.059 42.1935 165.931 42.8209C165.818 43.4474 165.528 44.0241 165.061 44.551L164.997 44.6229L163.716 43.4876L163.853 43.3319C164.143 43.0046 164.312 42.6695 164.359 42.3266C164.414 41.9757 164.323 41.6034 164.088 41.2096C163.859 40.8078 163.466 40.3593 162.907 39.8642C162.42 39.4327 161.989 39.1225 161.615 38.9336C161.249 38.7517 160.927 38.6805 160.65 38.7199C160.38 38.7514 160.135 38.8908 159.916 39.1383C159.718 39.3619 159.603 39.588 159.572 39.8166C159.54 40.0452 159.585 40.2918 159.707 40.5564C159.836 40.8131 160.024 41.1153 160.272 41.463L161.927 43.5278C162.377 44.0975 162.693 44.6338 162.875 45.1366C163.064 45.6466 163.116 46.127 163.03 46.578C162.944 47.0291 162.727 47.4502 162.381 47.8414C162.02 48.2486 161.565 48.5293 161.015 48.6834C160.465 48.8376 159.844 48.8072 159.151 48.5922C158.465 48.3692 157.726 47.9076 156.936 47.2073Z" fill="white"/>
<path d="M169.244 61.2902C168.608 60.3684 168.235 59.4335 168.125 58.4855C168.03 57.5403 168.187 56.6412 168.596 55.7884C169.02 54.9383 169.693 54.1951 170.615 53.5589C171.537 52.9227 172.466 52.56 173.402 52.4709C174.354 52.3845 175.25 52.5565 176.091 52.9867C176.947 53.4196 177.694 54.097 178.33 55.0187C178.978 55.958 179.35 56.9003 179.445 57.8456C179.549 58.7848 179.389 59.6795 178.965 60.5296C178.555 61.3824 177.89 62.1269 176.968 62.7631C176.046 63.3994 175.11 63.7607 174.158 63.8471C173.222 63.9362 172.329 63.7686 171.479 63.3444C170.637 62.9142 169.892 62.2295 169.244 61.2902ZM170.613 60.3449C171.092 61.0384 171.599 61.5376 172.133 61.8426C172.683 62.1504 173.269 62.2578 173.892 62.1649C174.523 62.0659 175.203 61.7649 175.932 61.262C176.669 60.753 177.192 60.2238 177.5 59.6745C177.807 59.1251 177.91 58.542 177.809 57.9253C177.722 57.3112 177.439 56.6575 176.96 55.964C176.482 55.2705 175.968 54.7699 175.418 54.4621C174.884 54.1572 174.305 54.0511 173.682 54.144C173.065 54.2457 172.388 54.551 171.651 55.06C170.922 55.5629 170.397 56.0877 170.074 56.6344C169.766 57.1838 169.656 57.7655 169.743 58.3795C169.845 58.9963 170.135 59.6514 170.613 60.3449Z" fill="white"/>
<path d="M177.153 75.5583L176.541 73.9426L186.564 70.1412L187.177 71.7569L177.153 75.5583ZM179.497 81.7369L176.722 74.4213L178.173 73.871L180.948 81.1865L179.497 81.7369Z" fill="white"/>
<path d="M182.305 96.0106C182.176 94.9517 182.247 94.0298 182.517 93.2449C182.787 92.4599 183.237 91.8304 183.867 91.3564C184.508 90.881 185.31 90.5848 186.273 90.4678L192.5 89.7118L192.706 91.4113L186.591 92.1538C185.871 92.2413 185.302 92.4232 184.884 92.6995C184.468 92.9865 184.183 93.3811 184.029 93.8833C183.887 94.3948 183.863 95.037 183.956 95.81C184.052 96.5936 184.229 97.2114 184.488 97.6635C184.759 98.1249 185.13 98.4398 185.602 98.6081C186.073 98.7765 186.669 98.817 187.389 98.7295L193.504 97.987L193.713 99.7024L187.486 100.458C186.523 100.575 185.673 100.48 184.937 100.172C184.212 99.8621 183.624 99.3586 183.174 98.6611C182.724 97.9636 182.434 97.0801 182.305 96.0106Z" fill="white"/>
<path d="M182.309 116.206L182.515 114.507L193.157 115.799L192.951 117.498L182.309 116.206ZM190.903 121.489L192.126 111.419L193.666 111.606L192.443 121.676L190.903 121.489Z" fill="white"/>
<path d="M177.627 134.121L178.239 132.505L188.263 136.306L187.65 137.922L177.627 134.121Z" fill="white"/>
<path d="M168.762 150.336C169.398 149.414 170.14 148.734 170.987 148.295C171.837 147.871 172.733 147.699 173.676 147.779C174.621 147.874 175.555 148.24 176.476 148.876C177.398 149.512 178.067 150.253 178.482 151.097C178.9 151.956 179.057 152.855 178.953 153.794C178.852 154.748 178.483 155.686 177.847 156.608C177.199 157.547 176.45 158.229 175.6 158.653C174.758 159.083 173.865 159.25 172.92 159.155C171.977 159.075 171.045 158.717 170.123 158.081C169.201 157.444 168.532 156.697 168.113 155.838C167.698 154.994 167.538 154.099 167.633 153.154C167.737 152.215 168.113 151.275 168.762 150.336ZM170.131 151.281C169.652 151.975 169.365 152.626 169.269 153.234C169.177 153.856 169.284 154.442 169.592 154.992C169.908 155.547 170.431 156.076 171.159 156.579C171.897 157.088 172.577 157.389 173.2 157.482C173.822 157.575 174.404 157.465 174.945 157.151C175.488 156.852 175.999 156.356 176.478 155.662C176.957 154.969 177.242 154.311 177.335 153.688C177.431 153.08 177.325 152.501 177.017 151.952C176.703 151.411 176.178 150.886 175.44 150.377C174.712 149.874 174.035 149.569 173.409 149.461C172.786 149.368 172.203 149.471 171.66 149.77C171.119 150.084 170.61 150.588 170.131 151.281Z" fill="white"/>
<path d="M158.962 162.138L160.256 160.992L167.364 169.016L165.975 170.247L158.223 168.736L155.855 168.162L155.759 168.246L157.103 169.643L161.304 174.385L160.011 175.531L152.902 167.507L154.292 166.276L162.057 167.755L164.315 168.277L164.411 168.192L163.132 166.845L158.962 162.138Z" fill="white"/>
<path d="M140.376 175.15C141.311 174.659 142.169 174.377 142.95 174.305C143.722 174.237 144.395 174.36 144.969 174.673C145.547 174.995 146.01 175.487 146.357 176.148L146.402 176.233L144.872 177.036L144.753 176.81C144.555 176.432 144.304 176.16 144 175.994C143.701 175.838 143.318 175.798 142.852 175.874C142.391 175.959 141.811 176.185 141.112 176.552C140.508 176.869 140.048 177.165 139.734 177.438C139.425 177.721 139.244 177.996 139.192 178.265C139.136 178.547 139.184 178.835 139.338 179.128C139.556 179.543 139.847 179.776 140.211 179.826C140.574 179.876 141.083 179.802 141.738 179.603L144.262 178.766C144.845 178.592 145.397 178.496 145.917 178.476C146.441 178.466 146.911 178.568 147.325 178.784C147.735 179.015 148.077 179.39 148.349 179.909C148.528 180.249 148.628 180.624 148.651 181.034C148.673 181.444 148.593 181.866 148.411 182.299C148.228 182.732 147.922 183.157 147.491 183.576C147.056 184.009 146.465 184.422 145.719 184.813C144.794 185.299 143.959 185.557 143.215 185.586C142.471 185.615 141.829 185.458 141.288 185.115C140.742 184.787 140.306 184.312 139.979 183.688L139.934 183.603L141.45 182.808L141.547 182.992C141.75 183.379 142.004 183.656 142.307 183.821C142.616 183.997 142.996 184.044 143.448 183.964C143.905 183.893 144.464 183.684 145.125 183.337C145.701 183.034 146.144 182.742 146.453 182.459C146.753 182.181 146.933 181.905 146.995 181.632C147.061 181.369 147.018 181.09 146.864 180.797C146.725 180.533 146.555 180.346 146.352 180.235C146.149 180.124 145.903 180.079 145.612 180.099C145.326 180.129 144.977 180.198 144.564 180.306L142.047 181.121C141.354 181.34 140.741 181.445 140.206 181.437C139.662 181.433 139.195 181.311 138.804 181.071C138.412 180.83 138.095 180.479 137.853 180.016C137.6 179.534 137.499 179.009 137.55 178.44C137.6 177.871 137.849 177.301 138.296 176.729C138.748 176.167 139.441 175.64 140.376 175.15Z" fill="white"/>
</g>
<defs>
<clipPath id="clip0_197_220">
<rect width="210" height="210" fill="white"/>
</clipPath>
</defs>
</svg>
