<svg width="210" height="210" viewBox="0 0 210 210" fill="none" xmlns="http://www.w3.org/2000/svg">
<g clip-path="url(#clip0_246_388)">
<path d="M105 209.5C162.714 209.5 209.5 162.714 209.5 105C209.5 47.2862 162.714 0.5 105 0.5C47.2862 0.5 0.5 47.2862 0.5 105C0.5 162.714 47.2862 209.5 105 209.5Z" stroke="white" stroke-opacity="0.2"/>
<path d="M105 169.5C140.622 169.5 169.5 140.622 169.5 105C169.5 69.3776 140.622 40.5 105 40.5C69.3776 40.5 40.5 69.3776 40.5 105C40.5 140.622 69.3776 169.5 105 169.5Z" stroke="white" stroke-opacity="0.2"/>
<path d="M104.308 85.0185C104.405 84.7821 104.57 84.5799 104.782 84.4375C104.994 84.2952 105.244 84.2191 105.5 84.2191C105.755 84.2191 106.005 84.2952 106.217 84.4375C106.429 84.5799 106.594 84.7821 106.691 85.0185L111.561 96.7312C111.652 96.9504 111.802 97.1402 111.994 97.2797C112.186 97.4192 112.413 97.503 112.65 97.5219L125.295 98.5348C126.439 98.6265 126.901 100.054 126.031 100.799L116.396 109.054C116.216 109.208 116.082 109.408 116.009 109.633C115.935 109.858 115.925 110.099 115.979 110.33L118.924 122.671C118.983 122.918 118.968 123.178 118.88 123.417C118.791 123.655 118.634 123.863 118.428 124.012C118.222 124.162 117.977 124.247 117.722 124.257C117.468 124.267 117.216 124.201 116.999 124.069L106.171 117.457C105.969 117.334 105.736 117.269 105.5 117.269C105.263 117.269 105.03 117.334 104.828 117.457L94 124.071C93.7829 124.204 93.5313 124.269 93.2769 124.259C93.0225 124.249 92.7768 124.164 92.5709 124.014C92.3649 123.865 92.2078 123.658 92.1196 123.419C92.0313 123.18 92.0158 122.92 92.075 122.673L95.0198 110.33C95.0744 110.099 95.0644 109.858 94.9908 109.633C94.9172 109.408 94.7829 109.207 94.6027 109.054L84.9686 100.799C84.7756 100.633 84.6361 100.414 84.5674 100.169C84.4987 99.9238 84.504 99.664 84.5827 99.422C84.6613 99.18 84.8097 98.9667 85.0093 98.8088C85.2088 98.6509 85.4506 98.5556 85.7042 98.5348L98.3496 97.5219C98.5862 97.503 98.813 97.4192 99.0051 97.2797C99.1971 97.1402 99.347 96.9504 99.4381 96.7312L104.308 85.0185Z" stroke="#7f4EFF" stroke-width="1.5" stroke-linecap="round" stroke-linejoin="round"/>
<path d="M103.84 182.8C105.307 182.8 106.58 183.08 107.66 183.64C108.727 184.213 109.553 185.013 110.14 186.04C110.713 187.08 111 188.3 111 189.7C111 191.1 110.713 192.313 110.14 193.34C109.553 194.38 108.727 195.18 107.66 195.74C106.58 196.313 105.307 196.6 103.84 196.6C102.44 196.6 101.233 196.38 100.22 195.94C99.1933 195.5 98.4 194.873 97.84 194.06C97.28 193.247 97 192.267 97 191.12V190.82H100.34V191.12C100.34 192 100.613 192.653 101.16 193.08C101.693 193.507 102.567 193.72 103.78 193.72C104.753 193.72 105.54 193.587 106.14 193.32C106.727 193.067 107.153 192.647 107.42 192.06C107.687 191.487 107.82 190.7 107.82 189.7C107.82 188.713 107.687 187.927 107.42 187.34C107.153 186.753 106.727 186.327 106.14 186.06C105.54 185.807 104.753 185.68 103.78 185.68C102.567 185.68 101.693 185.893 101.16 186.32C100.613 186.747 100.34 187.4 100.34 188.28V188.58H97V188.28C97 187.147 97.28 186.167 97.84 185.34C98.4 184.527 99.1933 183.9 100.22 183.46C101.233 183.02 102.44 182.8 103.84 182.8Z" fill="white"/>
<path d="M87.2 181.134L90.0978 181.91L86.6296 194.854L79.4818 192.938C78.4128 192.652 77.5463 192.254 76.8821 191.745C76.2145 191.248 75.7651 190.659 75.5341 189.976C75.303 189.292 75.2979 188.539 75.5187 187.715C75.7085 187.006 76.006 186.437 76.411 186.007C76.816 185.577 77.3304 185.281 77.9542 185.116C78.5745 184.965 79.3007 184.96 80.1327 185.1L80.1741 184.945C79.636 184.635 79.2667 184.288 79.0662 183.903C78.8656 183.518 78.7034 183.067 78.5795 182.551L77.6374 178.571L80.9988 179.472L81.8754 183.31C81.966 183.693 82.082 184.007 82.2234 184.252C82.3648 184.497 82.5797 184.699 82.8681 184.859C83.1402 185.029 83.5273 185.181 84.0296 185.316L85.9422 185.828L87.2 181.134ZM84.4307 191.469L85.3572 188.011L81.1265 186.877C80.4439 186.695 79.9105 186.676 79.5265 186.821C79.1389 186.98 78.8537 187.4 78.6708 188.083C78.4982 188.727 78.5402 189.214 78.7966 189.545C79.0495 189.889 79.5173 190.153 80.1999 190.335L84.4307 191.469Z" fill="white"/>
<path d="M67.088 173.544L69.6861 175.044L62.9861 186.649L60.388 185.149L67.088 173.544ZM59.8654 169.374L68.9587 174.624L67.6087 176.963L58.5154 171.713L59.8654 169.374ZM57.4252 174.201L66.2587 179.301L64.9187 181.622L56.0852 176.522L57.4252 174.201ZM54.5154 178.641L63.6087 183.891L62.2587 186.229L53.1654 180.979L54.5154 178.641Z" fill="white"/>
<path d="M52.2869 163.303L54.6628 165.679L41.0439 171.01L38.0175 167.984L43.3208 154.337L45.7533 156.769L42.2885 165.438L41.3975 167.489L41.5531 167.645L43.6037 166.754L52.2869 163.303ZM43.632 158.834L50.307 165.509L48.3979 167.418L41.7228 160.743L43.632 158.834Z" fill="white"/>
<path d="M35.766 142.449L37.266 145.047L25.6613 151.747L24.1613 149.149L35.766 142.449ZM24.0095 143.486L30.4895 154.71L28.1513 156.06L21.6713 144.836L24.0095 143.486Z" fill="white"/>
<path d="M28.1728 122.944L28.9493 125.841L16.0059 129.31L15.2294 126.412L28.1728 122.944Z" fill="white"/>
<path d="M26 102.359V106.639L12.6 112.199V108.579L22.96 104.559V104.359L12.6 100.399V96.7991L26 102.359Z" fill="white"/>
<path d="M28.1259 86.233L27.3495 89.1307L14.4061 85.6626L15.1825 82.7648L28.1259 86.233ZM30.2845 78.1771L27.5669 88.3194L24.9589 87.6205L27.6765 77.4783L30.2845 78.1771ZM24.9908 77.0693L22.3509 86.9217L19.7622 86.2281L22.4022 76.3757L24.9908 77.0693ZM19.9491 75.4078L17.2315 85.55L14.6235 84.8512L17.3411 74.709L19.9491 75.4078Z" fill="white"/>
<path d="M49.2568 48.7274L45.2687 52.7155L43.3595 50.8063L47.3476 46.8182C47.9981 46.1677 48.4412 45.5737 48.677 45.0363C48.9127 44.4801 48.9174 43.9097 48.6911 43.3251C48.4648 42.7217 47.9746 42.0429 47.2203 41.2887C46.4566 40.525 45.7778 40.0347 45.1838 39.8179C44.5993 39.5916 44.0336 39.601 43.4868 39.8462C42.94 40.0724 42.3413 40.5108 41.6907 41.1614L37.7027 45.1495L35.7935 43.2403L39.7815 39.2522C40.7998 38.234 41.8652 37.5457 42.9777 37.1874C44.0996 36.8197 45.2168 36.7867 46.3294 37.0884C47.4419 37.3901 48.4931 38.036 49.4831 39.0259C50.473 40.0159 51.1188 41.0671 51.4205 42.1796C51.7222 43.2921 51.6892 44.4094 51.3215 45.5313C50.9633 46.6438 50.275 47.7092 49.2568 48.7274ZM46.8102 51.174L44.6889 53.2953L35.2136 43.8201L37.335 41.6988L46.8102 51.174Z" fill="white"/>
<path d="M66.93 35.547L64.332 37.047L57.632 25.4423L60.23 23.9423L66.93 35.547Z" fill="white"/>
<path d="M83.6317 29.0296C82.318 29.3816 81.1057 29.4165 79.9949 29.1344C78.8934 28.836 77.9523 28.2599 77.1714 27.4063C76.3871 26.5398 75.8137 25.4304 75.4514 24.0781C75.089 22.7258 75.0648 21.4761 75.3786 20.3292C75.689 19.1693 76.3062 18.1757 77.2302 17.3484C78.1637 16.5047 79.3709 15.8844 80.852 15.4876C82.2043 15.1252 83.4315 15.0172 84.5336 15.1636C85.6323 15.2972 86.5522 15.665 87.2932 16.267C88.0308 16.8562 88.5394 17.6724 88.8189 18.7156L88.8604 18.8701L85.6342 19.7346L85.5927 19.58C85.3891 18.8201 84.9686 18.3324 84.331 18.1167C83.6935 17.901 82.7565 17.9588 81.5201 18.2901C80.5413 18.5524 79.7902 18.8917 79.2668 19.308C78.7528 19.708 78.4365 20.2276 78.3179 20.8667C78.1958 21.493 78.2642 22.2891 78.523 23.255C78.7784 24.2081 79.1108 24.9334 79.5202 25.4311C79.9296 25.9287 80.4522 26.2304 81.0879 26.3362C81.733 26.4256 82.5256 26.3443 83.4658 26.0924C84.4961 25.8163 85.2838 25.5363 85.8289 25.2522C86.3705 24.9552 86.7059 24.61 86.8351 24.2165C86.9772 23.8195 86.9671 23.3183 86.8049 22.713L86.6496 22.1335L89.5422 21.3377L89.6199 21.6275L87.7993 24.7242L87.4323 24.8225C87.4296 25.4306 87.3083 26.0084 87.0685 26.5558C86.8287 27.1031 86.4277 27.5902 85.8657 28.0169C85.3165 28.4401 84.5718 28.7776 83.6317 29.0296ZM91.0175 26.8435L88.3322 27.563L87.3953 24.0663L87.0896 23.7755L86.3391 20.9744L89.2368 20.1979L91.0175 26.8435ZM89.7597 22.1491L82.4766 24.1006L81.902 21.9562L89.1851 20.0047L89.7597 22.1491Z" fill="white"/>
<path d="M106.515 26H103.515V12.6L106.515 12.6V26Z" fill="white"/>
<path d="M126.268 29.0636L123.371 28.2871L126.839 15.3437L129.737 16.1202L126.268 29.0636ZM133.848 20.0171L121.33 16.6628L122.028 14.0548L134.547 17.4091L133.848 20.0171Z" fill="white"/>
<path d="M139.714 34.187L136.805 32.507L148.58 23.8323L152.286 25.9723L150.696 40.527L147.717 38.807L148.82 29.5365L149.149 27.3252L148.959 27.2152L147.209 28.6065L139.714 34.187ZM149.231 36.2636L141.056 31.5436L142.406 29.2053L150.581 33.9253L149.231 36.2636Z" fill="white"/>
<path d="M158.686 47.6707L156.565 45.5494L166.04 36.0742L168.162 38.1955L158.686 47.6707ZM164.329 53.3134L157.159 46.1434L159.068 44.2342L166.238 51.4042L164.329 53.3134Z" fill="white"/>
<path d="M179.119 79.6816L178.25 76.4361L192.71 78.6283L193.817 82.7624L182.401 91.9296L181.511 88.6068L188.846 82.8315L190.643 81.5011L190.586 81.2886L188.364 81.0349L179.119 79.6816ZM184.38 87.8793L181.937 78.761L184.545 78.0622L186.988 87.1805L184.38 87.8793Z" fill="white"/>
<path d="M182.8 103.876C182.8 102.516 183.08 101.336 183.64 100.336C184.213 99.3492 185.013 98.5892 186.04 98.0559C187.08 97.5225 188.3 97.2559 189.7 97.2559C191.1 97.2559 192.313 97.5559 193.34 98.1559C194.38 98.7559 195.18 99.6092 195.74 100.716C196.313 101.836 196.6 103.163 196.6 104.696C196.6 106.096 196.387 107.309 195.96 108.336C195.547 109.363 194.953 110.156 194.18 110.716C193.42 111.276 192.5 111.556 191.42 111.556H191.26V108.216H191.42C192.207 108.216 192.787 107.936 193.16 107.376C193.533 106.816 193.72 105.896 193.72 104.616C193.72 103.603 193.587 102.789 193.32 102.176C193.067 101.576 192.647 101.136 192.06 100.856C191.487 100.576 190.7 100.436 189.7 100.436C188.713 100.436 187.927 100.569 187.34 100.836C186.753 101.103 186.327 101.529 186.06 102.116C185.807 102.716 185.68 103.503 185.68 104.476C185.68 105.543 185.747 106.376 185.88 106.976C186.027 107.576 186.273 107.989 186.62 108.216C186.967 108.456 187.453 108.576 188.08 108.576H188.68L188.7 111.576H188.4L185.88 109.016V108.636C185.293 108.476 184.767 108.209 184.3 107.836C183.833 107.463 183.467 106.949 183.2 106.296C182.933 105.656 182.8 104.849 182.8 103.876ZM183 111.576V108.796H186.62L186.98 108.576H189.88V111.576H183ZM187.86 111.576V104.036H190.08V111.576H187.86Z" fill="white"/>
<path d="M180.874 122.767L181.651 119.869L194.594 123.337L193.818 126.235L180.874 122.767ZM178.716 130.823L181.433 120.681L184.041 121.379L181.324 131.522L178.716 130.823ZM184.009 131.931L186.649 122.078L189.238 122.772L186.598 132.624L184.009 131.931ZM189.051 133.592L191.769 123.45L194.377 124.149L191.659 134.291L189.051 133.592Z" fill="white"/>
<path d="M173.998 141.125L175.498 138.527L187.103 145.227L185.503 147.998L177.612 148.985L174.25 149.169L174.14 149.359L176.549 150.588L182.143 153.818L180.643 156.416L169.038 149.716L170.638 146.945L178.651 145.867L181.683 145.655L181.783 145.481L179.593 144.355L173.998 141.125Z" fill="white"/>
<path d="M159.453 160.28C160.49 159.243 161.588 158.541 162.748 158.173C163.908 157.824 165.058 157.805 166.199 158.116C167.339 158.446 168.405 159.106 169.395 160.096C170.385 161.086 171.04 162.147 171.36 163.278C171.681 164.429 171.662 165.579 171.304 166.729C170.946 167.898 170.248 169.001 169.211 170.038C168.221 171.028 167.212 171.726 166.184 172.131C165.147 172.546 164.143 172.664 163.172 172.485C162.201 172.306 161.31 171.811 160.499 171L160.287 170.788L162.649 168.426L162.861 168.638C163.483 169.26 164.139 169.529 164.827 169.444C165.506 169.369 166.274 168.902 167.132 168.044C167.82 167.356 168.282 166.705 168.518 166.093C168.754 165.499 168.758 164.9 168.532 164.297C168.315 163.703 167.853 163.052 167.146 162.345C166.448 161.647 165.798 161.185 165.195 160.959C164.591 160.733 163.988 160.733 163.384 160.959C162.781 161.204 162.135 161.671 161.447 162.359C160.589 163.217 160.122 163.985 160.047 164.664C159.962 165.352 160.231 166.008 160.853 166.63L161.065 166.842L158.703 169.204L158.491 168.992C157.69 168.19 157.195 167.299 157.006 166.319C156.827 165.348 156.945 164.344 157.36 163.307C157.765 162.279 158.463 161.27 159.453 160.28Z" fill="white"/>
<path d="M144.336 177.156L146.847 175.706L156.574 180.553L153.369 182.403L149.192 180.288L147.322 179.289L147.132 179.399L147.062 181.518L146.805 186.193L143.583 188.053L144.336 177.156ZM142.114 173.428L144.729 171.918L147.799 177.235L145.184 178.745L142.114 173.428Z" fill="white"/>
</g>
<defs>
<clipPath id="clip0_246_388">
<rect width="210" height="210" fill="white"/>
</clipPath>
</defs>
</svg>
