<svg width="70" height="70" viewBox="0 0 70 70" fill="none" xmlns="http://www.w3.org/2000/svg">
    <path fill-rule="evenodd" clip-rule="evenodd" d="M58.3104 1.02543C58.9562 0.895969 59.4802 1.07826 59.8827 1.5723C60.0729 3.97277 61.3717 5.24881 63.7792 5.40043C64.3199 6.02068 64.3199 6.63591 63.7792 7.24613C62.7922 7.35596 61.8807 7.67496 61.0448 8.20316C60.744 8.50854 60.4934 8.85033 60.2928 9.22855C60.0958 9.91116 59.9135 10.5948 59.746 11.2793C59.0687 11.8504 58.4307 11.8048 57.8319 11.1426C57.6696 8.79284 56.4163 7.53958 54.0721 7.38285C53.395 6.74812 53.3493 6.06452 53.9354 5.33207C56.4255 5.21174 57.7243 3.91291 57.8319 1.43558C57.9885 1.28022 58.148 1.1435 58.3104 1.02543ZM58.7206 5.53715C59.0115 5.80317 59.3305 6.05382 59.6776 6.2891C59.4247 6.56494 59.1512 6.81559 58.8573 7.04105C58.5634 6.81559 58.2899 6.56494 58.037 6.2891C58.2931 6.05616 58.521 5.8055 58.7206 5.53715Z" fill="#54E0DB"/>
    <path fill-rule="evenodd" clip-rule="evenodd" d="M17.1582 8.95508C28.9616 8.93229 40.765 8.95508 52.5683 9.02344C53.2421 9.28687 53.6749 9.76538 53.8671 10.459C53.979 11.814 53.9561 13.1584 53.7988 14.4922C55.3973 14.5288 56.9924 14.6199 58.5839 14.7656C61.8888 15.6099 63.7345 17.729 64.1211 21.123C64.2754 26.0654 63.1817 30.7139 60.8398 35.0684C58.2948 38.9767 54.7173 41.3693 50.1074 42.2461C48.6511 42.4867 47.1927 42.7146 45.7324 42.9297C44.0138 44.4961 42.0542 45.681 39.8535 46.4844C40.3427 49.7409 41.4821 52.7487 43.2714 55.5078C46.3375 55.3154 47.7959 56.751 47.6464 59.8145C48.661 59.761 49.6636 59.8294 50.6543 60.0195C51.1407 60.2782 51.4825 60.6655 51.6796 61.1816C51.9004 63.1319 51.946 65.0915 51.8164 67.0605C51.6213 67.939 51.0972 68.5087 50.2441 68.7695C39.9902 68.8607 29.7363 68.8607 19.4824 68.7695C18.5908 68.4679 18.0668 67.8527 17.9101 66.9238C17.7832 65.0021 17.8288 63.088 18.0468 61.1816C18.3069 60.5117 18.7854 60.0787 19.4824 59.8828C20.3471 59.8145 21.213 59.7918 22.08 59.8145C21.9321 56.7495 23.3905 55.3139 26.455 55.5078C28.3095 52.7023 29.4488 49.6262 29.873 46.2793C27.6284 45.6501 25.6686 44.5335 23.9941 42.9297C21.2752 42.659 18.632 42.0666 16.0644 41.1523C11.9403 39.2611 9.09196 36.1849 7.51949 31.9238C6.23164 28.435 5.63918 24.8347 5.74215 21.123C6.12868 17.729 7.97438 15.6099 11.2793 14.7656C12.8286 14.6497 14.378 14.5358 15.9277 14.4238C15.7718 13.1543 15.7491 11.8783 15.8593 10.5957C16.0172 9.82341 16.4502 9.27653 17.1582 8.95508ZM18.1152 11.2793C29.2806 11.2793 40.4459 11.2793 51.6113 11.2793C51.6113 12.054 51.6113 12.8288 51.6113 13.6035C40.4459 13.6035 29.2806 13.6035 18.1152 13.6035C18.1152 12.8288 18.1152 12.054 18.1152 11.2793ZM19.4824 16.0645C29.7132 15.9279 39.9671 15.8822 50.2441 15.9277C49.6747 21.5312 49.105 27.1366 48.5351 32.7441C47.7807 37.243 45.4792 40.6838 41.6308 43.0664C40.5052 43.6748 39.3203 44.1305 38.0761 44.4336C37.9166 44.5931 37.7572 44.7526 37.5976 44.9121C37.604 48.714 38.5839 52.2458 40.5371 55.5078C36.7545 55.599 32.972 55.599 29.1894 55.5078C30.9967 52.4274 32.0449 49.1006 32.3339 45.5273C32.2749 45.0579 32.047 44.6934 31.6504 44.4336C25.7583 42.6419 22.272 38.6997 21.1914 32.6074C20.6558 27.0691 20.0861 21.5547 19.4824 16.0645ZM12.5097 16.8848C14.1048 16.8848 15.6998 16.8848 17.2949 16.8848C17.2599 17.1981 17.3054 17.4944 17.4316 17.7734C15.4676 17.7944 13.508 17.8855 11.5527 18.0469C10.3358 18.4892 9.53827 19.3323 9.16012 20.5762C8.82969 24.8362 9.60442 28.8921 11.4843 32.7441C13.5819 36.3862 16.7264 38.5282 20.9179 39.1699C21.155 39.4147 21.3601 39.6881 21.5332 39.9902C15.4216 39.3723 11.3883 36.1365 9.43355 30.2832C8.33137 27.1261 7.92121 23.8905 8.20308 20.5762C8.78272 18.3322 10.2183 17.1017 12.5097 16.8848ZM48.1933 40.127C48.3195 39.6706 48.5929 39.3288 49.0136 39.1016C53.5539 38.4325 56.8123 36.0399 58.789 31.9238C60.3635 28.2909 61.0015 24.5085 60.7031 20.5762C60.3249 19.3323 59.5274 18.4892 58.3105 18.0469C56.3558 17.8627 54.3962 17.7944 52.4316 17.8418C52.4316 17.5228 52.4316 17.2037 52.4316 16.8848C54.0729 16.8619 55.7135 16.8848 57.3535 16.9531C59.9514 17.2267 61.4325 18.6622 61.7968 21.2598C61.9068 25.7242 60.9042 29.9168 58.789 33.8379C56.2949 37.6277 52.763 39.724 48.1933 40.127ZM12.6464 20.166C14.3442 20.0793 16.0075 20.1705 17.6367 20.4395C18.0288 24.5429 18.4389 28.6445 18.8671 32.7441C19.0033 33.9951 19.2996 35.2028 19.7558 36.3672C16.4929 35.5672 14.237 33.5848 12.9882 30.4199C12.0258 27.9094 11.4562 25.3117 11.2793 22.627C11.2466 21.9599 11.3605 21.322 11.6211 20.7129C11.9294 20.4396 12.2712 20.2573 12.6464 20.166ZM52.1582 20.166C53.845 20.1432 55.5311 20.166 57.2168 20.2344C58.0142 20.3027 58.4472 20.7357 58.5156 21.5332C58.5781 25.248 57.7578 28.7572 56.0546 32.0605C54.6615 34.4133 52.6335 35.8489 49.9707 36.3672C50.4052 35.2908 50.7014 34.1742 50.8593 33.0176C51.3015 28.7332 51.7343 24.4494 52.1582 20.166ZM34.7949 24.8145C35.3327 25.7745 35.9251 26.7088 36.5722 27.6172C37.5835 27.816 38.5861 28.0439 39.58 28.3008C38.8717 28.9681 38.2108 29.6744 37.5976 30.4199C37.5663 31.5654 37.6118 32.7048 37.7343 33.8379C36.8071 33.3513 35.8501 32.9412 34.8632 32.6074C33.8929 32.9213 32.9587 33.3315 32.0605 33.8379C32.0146 32.9027 32.1056 31.9685 32.3339 31.0352C32.2656 30.8301 32.1972 30.625 32.1289 30.4199C31.5181 29.6723 30.8574 28.9659 30.1464 28.3008C31.1429 28.0559 32.1454 27.828 33.1543 27.6172C33.825 26.7539 34.3719 25.8197 34.7949 24.8145ZM24.9511 57.9004C31.5593 57.8776 38.1675 57.9004 44.7753 57.9688C44.9804 58.0826 45.14 58.2422 45.2539 58.4473C45.3219 58.9008 45.3448 59.3564 45.3222 59.8145C38.3496 59.8145 31.3769 59.8145 24.4043 59.8145C24.2818 59.0741 24.464 58.4361 24.9511 57.9004ZM20.166 62.1387C29.9642 62.1387 39.7623 62.1387 49.5605 62.1387C49.6043 63.631 49.5587 65.112 49.4238 66.582C39.7168 66.6732 30.0097 66.6732 20.3027 66.582C20.1678 65.112 20.1222 63.631 20.166 62.1387Z" fill="#54E0DB"/>
    <path fill-rule="evenodd" clip-rule="evenodd" d="M34.7949 20.9863C35.2886 21.0254 35.6759 21.2532 35.957 21.6699C36.5765 23.0234 37.2829 24.3223 38.0761 25.5664C39.583 25.8252 41.087 26.0987 42.5879 26.3867C43.2762 26.7987 43.4358 27.3684 43.0664 28.0957C42.068 29.2309 41.0198 30.3246 39.9218 31.377C40.0683 32.8807 40.2733 34.3846 40.5371 35.8887C40.304 36.985 39.6659 37.3268 38.623 36.9141C37.3782 36.2802 36.1249 35.665 34.8632 35.0684C33.5104 35.7105 32.1661 36.3714 30.83 37.0508C29.9169 37.231 29.37 36.8663 29.1894 35.957C29.4712 34.4405 29.6763 32.9139 29.8046 31.377C28.6134 30.2185 27.5197 28.9881 26.5234 27.6855C26.4497 27.1264 26.6548 26.6934 27.1386 26.3867C28.6923 26.1051 30.2417 25.8088 31.7871 25.498C32.4935 24.1764 33.1998 22.8549 33.9062 21.5332C34.1512 21.2423 34.4473 21.06 34.7949 20.9863ZM34.7949 24.8145C34.3719 25.8197 33.825 26.7539 33.1543 27.6172C32.1454 27.828 31.1429 28.0559 30.1464 28.3008C30.8574 28.9659 31.5181 29.6723 32.1289 30.4199C32.1972 30.625 32.2656 30.8301 32.3339 31.0352C32.1056 31.9685 32.0146 32.9027 32.0605 33.8379C32.9588 33.3315 33.8929 32.9213 34.8632 32.6074C35.8501 32.9412 36.8071 33.3513 37.7343 33.8379C37.6118 32.7048 37.5663 31.5654 37.5976 30.4199C38.2108 29.6744 38.8717 28.9681 39.58 28.3008C38.5861 28.0439 37.5835 27.816 36.5722 27.6172C35.9251 26.7088 35.3327 25.7745 34.7949 24.8145Z" fill="#54E0DB"/>
    <path fill-rule="evenodd" clip-rule="evenodd" d="M17.4317 43.955C17.9364 43.8827 18.3693 44.0194 18.7305 44.3652C18.8034 45.5484 19.2362 46.5738 20.0293 47.4414C20.871 47.9475 21.7825 48.2665 22.7637 48.3984C23.3474 49.0806 23.3018 49.7186 22.627 50.3125C20.2344 50.5175 18.9356 51.8164 18.7305 54.209C18.1021 54.7465 17.4641 54.7465 16.8164 54.209C16.7505 53.0993 16.3632 52.1195 15.6543 51.2695C14.8313 50.7065 13.9198 50.3874 12.9199 50.3125C12.2998 49.7123 12.2543 49.0742 12.7832 48.3984C14.0466 48.3396 15.1176 47.8611 15.9961 46.9629C16.4342 46.3057 16.6621 45.5765 16.6797 44.7754C16.8193 44.3857 17.0699 44.1123 17.4317 43.955ZM17.7051 48.4668C18.0212 48.6918 18.2946 48.9652 18.5254 49.2871C18.3 49.581 18.0494 49.8545 17.7735 50.1074C17.4976 49.8545 17.247 49.581 17.0215 49.2871C17.3516 49.0942 17.5795 48.8207 17.7051 48.4668Z" fill="#54E0DB"/>
    <path fill-rule="evenodd" clip-rule="evenodd" d="M23.037 63.0957C30.9213 63.0729 38.8053 63.0957 46.6893 63.1641C47.5999 63.5045 47.8505 64.1197 47.4413 65.0098C47.3274 65.1237 47.2134 65.2377 47.0995 65.3516C38.9876 65.4428 30.8755 65.4428 22.7636 65.3516C22.0752 64.9396 21.9156 64.3699 22.285 63.6426C22.4901 63.3734 22.7407 63.1912 23.037 63.0957Z" fill="#54E0DB"/>
</svg>
