<svg width="50" height="50" viewBox="0 0 50 50" fill="none" xmlns="http://www.w3.org/2000/svg">
<path fill-rule="evenodd" clip-rule="evenodd" d="M42.9146 3.125C42.1313 3.125 41.3667 3.35625 40.7167 3.79167L30.1334 10.8437C27.4777 12.6148 25.0492 14.7047 22.9021 17.0667C27.3123 19.1398 30.8602 22.6877 32.9334 27.0979C35.2955 24.9502 37.3854 22.521 39.1563 19.8646L46.2104 9.28333C46.6076 8.68668 46.8356 7.99347 46.8699 7.27753C46.9043 6.56158 46.7439 5.84972 46.4056 5.21777C46.0674 4.58581 45.5641 4.05742 44.9494 3.68889C44.3346 3.32035 43.6314 3.12547 42.9146 3.125ZM25.6229 32.3437C26.9887 31.5853 28.3077 30.7456 29.5729 29.8292C28.7321 27.7023 27.4638 25.7706 25.8467 24.1534C24.2295 22.5362 22.2977 21.2679 20.1709 20.4271C19.2545 21.6916 18.4148 23.0099 17.6563 24.375L17.0771 25.4167C18.8607 25.9298 20.4848 26.8876 21.797 28.2002C23.1092 29.5127 24.0665 31.1371 24.5792 32.9208L25.625 32.3417L25.6229 32.3437ZM14.0625 28.125C11.9905 28.125 10.0034 28.9481 8.53825 30.4132C7.07313 31.8784 6.25003 33.8655 6.25003 35.9375C6.25014 36.3657 6.16226 36.7893 5.99185 37.1821C5.82143 37.5749 5.57211 37.9285 5.25935 38.2209C4.9466 38.5134 4.57708 38.7384 4.17373 38.8821C3.77039 39.0258 3.34181 39.0851 2.91461 39.0562C2.63214 39.0373 2.34982 39.0954 2.09781 39.2244C1.8458 39.3534 1.63358 39.5484 1.48382 39.7887C1.33406 40.029 1.2524 40.3054 1.24754 40.5885C1.24269 40.8715 1.31484 41.1506 1.45628 41.3958C2.65813 43.4837 4.51568 45.1163 6.74052 46.0403C8.96536 46.9643 11.433 47.1279 13.7603 46.5057C16.0877 45.8834 18.1445 44.5103 19.6114 42.5993C21.0783 40.6884 21.8733 38.3466 21.8729 35.9375C21.8729 34.9115 21.6709 33.8956 21.2783 32.9478C20.8856 31.9999 20.3102 31.1387 19.5847 30.4132C18.8593 29.6878 17.998 29.1123 17.0502 28.7197C16.1023 28.3271 15.0885 28.125 14.0625 28.125Z" fill="#54E0DB"/>
</svg>
