<?xml version="1.0" standalone="no"?>
<!DOCTYPE svg PUBLIC "-//W3C//DTD SVG 20010904//EN"
 "http://www.w3.org/TR/2001/REC-SVG-20010904/DTD/svg10.dtd">
<svg version="1.0" xmlns="http://www.w3.org/2000/svg"
 width="50" height="50" viewBox="0 0 512.000000 512.000000"
 preserveAspectRatio="xMidYMid meet">

<g transform="translate(0.000000,512.000000) scale(0.100000,-0.100000)"
fill="#54E0DB" stroke="none">
<path d="M3223 5021 c-23 -11 -63 -39 -88 -62 l-46 -43 -88 17 c-163 31 -199
20 -317 -104 -184 -192 -194 -206 -194 -274 0 -49 16 -84 56 -121 l35 -33 -17
-33 c-28 -52 -24 -127 9 -176 35 -54 59 -65 246 -117 316 -88 497 -161 563
-227 67 -67 167 -302 228 -536 15 -59 35 -65 151 -41 119 24 139 33 185 77 55
53 71 100 84 247 6 71 13 131 15 133 3 3 364 61 388 62 4 0 7 -17 7 -38 0 -52
23 -82 63 -82 48 0 459 52 485 61 12 5 26 19 31 31 11 30 -4 465 -24 670 -25
261 -58 438 -86 464 -17 15 -36 15 -271 -11 -139 -15 -260 -31 -269 -36 -20
-10 -29 -31 -29 -65 0 -29 -4 -30 -167 -43 -69 -6 -135 -6 -151 -1 -17 4 -64
31 -105 59 -143 96 -311 171 -484 216 -114 30 -154 31 -210 6z m209 -131 c162
-45 261 -91 433 -201 122 -78 145 -83 334 -66 106 9 154 10 156 2 8 -26 68
-706 62 -711 -3 -3 -108 -21 -234 -40 -173 -26 -231 -38 -244 -51 -12 -14 -19
-54 -28 -176 -12 -175 -22 -206 -77 -232 -18 -8 -52 -18 -76 -21 l-43 -6 -43
134 c-23 73 -67 184 -97 245 -93 191 -159 240 -459 342 -79 27 -179 59 -222
71 -204 56 -214 60 -225 87 -12 33 31 113 58 107 113 -25 250 -63 350 -96 134
-44 167 -45 183 -2 14 36 -3 62 -53 84 -68 30 -271 89 -429 125 -81 18 -152
36 -158 40 -20 12 -9 52 23 83 l33 32 79 -14 c187 -33 362 -86 495 -148 78
-37 87 -39 110 -26 27 15 35 37 26 72 -13 51 -356 181 -558 211 -27 4 -48 11
-48 15 0 4 18 24 40 44 49 44 57 44 225 7 153 -35 281 -78 387 -133 67 -34 80
-38 100 -27 50 26 52 68 5 103 -38 29 -158 85 -237 111 -72 23 -78 30 -44 49
40 21 56 20 176 -14z m1412 -214 c29 -187 48 -428 49 -636 l2 -205 -168 -20
-168 -21 -4 20 c-5 26 -85 883 -85 912 0 20 9 22 138 36 75 9 156 16 178 17
l41 1 17 -104z"/>
<path d="M4707 4052 c-36 -39 -7 -102 45 -102 24 0 58 35 58 60 0 27 -35 60
-63 60 -13 0 -31 -8 -40 -18z"/>
<path d="M1358 4233 l-378 -378 0 -531 c0 -502 1 -532 18 -547 25 -23 55 -21
78 4 18 20 19 45 22 505 l3 484 272 0 c272 0 273 0 324 25 57 29 100 82 114
142 5 21 9 154 9 296 l0 257 235 0 c222 0 236 1 255 20 25 25 25 41 -1 74
l-20 26 -277 0 -276 0 -378 -377z m337 -260 c-3 -18 -19 -43 -36 -57 l-31 -26
-221 0 -222 0 255 255 255 255 3 -197 c2 -109 0 -212 -3 -230z"/>
<path d="M2475 3646 c-315 -61 -570 -260 -706 -551 -64 -135 -83 -234 -83
-410 1 -165 15 -238 74 -376 64 -150 210 -328 340 -413 98 -65 90 -38 90 -312
0 -215 2 -249 20 -308 48 -155 176 -257 351 -279 287 -36 495 94 540 338 6 32
9 112 7 177 -4 151 -1 148 -155 148 l-113 0 0 102 c0 124 18 169 85 217 116
83 234 228 275 339 63 165 39 362 -57 489 -57 75 -199 131 -297 118 -55 -7
-130 -36 -158 -62 -27 -24 -23 -69 8 -90 22 -14 30 -15 58 -4 98 41 116 44
169 32 70 -16 119 -52 151 -111 33 -60 48 -170 35 -249 -18 -112 -103 -241
-224 -338 -140 -114 -158 -148 -163 -320 l-4 -123 -64 0 -64 0 0 95 c0 178
-23 227 -159 340 -44 36 -103 95 -131 131 -46 56 -56 64 -86 64 -27 0 -37 -5
-45 -24 -7 -14 -9 -35 -6 -48 10 -38 101 -141 194 -220 104 -87 112 -104 112
-240 l1 -98 -79 0 -79 0 -4 103 c-4 124 -18 152 -112 213 -383 248 -505 737
-283 1134 58 103 205 252 312 314 240 139 525 152 782 36 205 -93 384 -301
452 -524 87 -286 7 -615 -204 -831 -38 -40 -104 -95 -146 -123 -86 -57 -110
-88 -117 -149 -5 -50 16 -83 55 -83 30 0 63 33 63 64 0 19 16 35 73 72 213
142 370 380 418 637 15 82 15 267 0 342 -43 212 -135 380 -287 525 -131 125
-257 195 -430 241 -102 27 -309 34 -409 15z m513 -2208 c-6 -124 -30 -190 -90
-244 -57 -51 -115 -74 -205 -80 -137 -11 -231 17 -302 89 -59 59 -81 126 -81
242 l0 95 341 0 342 0 -5 -102z"/>
<path d="M4282 3629 c-12 -5 -27 -20 -32 -35 -7 -17 -10 -299 -10 -780 l1
-754 -493 -705 -493 -705 -830 0 c-921 0 -875 3 -875 -64 0 -17 5 -37 12 -44
9 -9 202 -12 805 -12 436 0 793 -3 793 -8 0 -4 -11 -24 -25 -44 -79 -117 -29
-266 102 -304 48 -14 58 -14 106 0 33 10 64 27 83 48 17 18 204 281 414 583
211 303 387 554 392 559 4 6 8 -138 8 -318 l0 -328 -34 -34 -34 -34 -126 0
c-121 0 -128 -1 -151 -25 -29 -28 -31 -42 -9 -73 14 -21 22 -22 157 -22 160 0
197 11 254 71 68 72 68 68 71 539 l3 425 221 315 c122 173 237 344 255 380 24
47 41 101 58 195 14 71 25 143 25 161 0 34 -26 64 -55 64 -29 0 -266 -140
-316 -187 -26 -24 -78 -88 -115 -143 -38 -55 -72 -100 -76 -100 -5 0 -8 305
-8 679 0 531 -3 681 -12 688 -22 17 -42 21 -66 12z m497 -1194 c-6 -33 -18
-77 -26 -98 -15 -38 -1374 -1991 -1413 -2031 -24 -24 -74 -25 -100 -1 -50 45
-68 16 666 1068 378 540 703 999 723 1020 31 33 150 111 158 103 2 -1 -2 -29
-8 -61z"/>
<path d="M2260 2800 c-107 -37 -180 -153 -184 -293 -1 -74 13 -97 59 -97 35 0
52 30 59 100 8 73 36 132 78 163 28 21 154 39 147 21 -2 -5 -17 -36 -34 -69
-26 -53 -30 -71 -30 -145 0 -72 4 -93 27 -141 35 -71 88 -104 155 -96 59 6 92
32 123 93 21 41 25 62 24 134 -1 116 -28 186 -103 261 -88 88 -199 112 -321
69z m285 -223 c52 -125 -1 -287 -58 -177 -22 42 -18 129 7 178 21 41 34 40 51
-1z"/>
<path d="M595 2653 c-49 -27 -261 -190 -284 -219 -34 -43 -43 -97 -36 -208 l7
-101 -51 -43 c-78 -66 -95 -106 -88 -217 10 -173 61 -354 157 -554 33 -68 60
-133 60 -144 0 -12 -12 -83 -27 -159 l-27 -138 -36 0 c-20 0 -44 -6 -53 -12
-11 -9 -33 -91 -71 -263 -54 -243 -55 -251 -38 -274 41 -56 420 -147 885 -213
226 -32 227 -32 247 -13 24 25 136 479 127 517 -7 25 -43 48 -77 48 -10 0 -22
4 -25 10 -5 8 55 256 86 355 l9 30 132 -3 c166 -4 206 6 269 67 41 40 51 59
78 144 35 111 38 142 14 157 -10 6 -65 30 -123 53 -221 88 -406 210 -450 297
-41 81 -98 325 -139 594 -12 76 -28 151 -36 166 -37 72 -144 101 -222 61 l-41
-20 -25 33 c-14 18 -41 41 -60 50 -44 20 -123 20 -162 -1z m124 -117 c6 -7 20
-87 31 -177 21 -164 61 -384 80 -433 18 -47 78 -54 106 -12 12 20 11 35 -11
132 -23 101 -69 394 -63 399 16 13 92 45 108 45 26 0 34 -22 50 -135 34 -250
109 -558 157 -646 50 -93 139 -164 333 -267 52 -28 125 -62 162 -77 l66 -26
-19 -58 c-11 -32 -31 -69 -45 -82 -25 -23 -30 -24 -209 -24 -120 0 -188 -4
-195 -11 -6 -6 -38 -115 -72 -243 -50 -191 -64 -231 -77 -226 -14 4 -689 145
-696 145 -1 0 10 62 26 138 42 203 41 212 -35 372 -36 74 -76 169 -90 210 -32
97 -66 265 -66 327 0 45 20 93 39 93 5 0 14 -28 21 -62 16 -82 74 -245 97
-270 24 -27 73 -21 92 13 13 23 11 31 -14 94 -42 105 -73 240 -90 396 -20 171
-16 198 33 239 20 16 39 30 42 30 4 0 12 -51 18 -112 24 -229 93 -485 138
-515 31 -20 71 -10 86 21 8 20 5 40 -20 108 -47 131 -78 303 -95 536 -4 47 -1
55 21 72 29 23 74 26 91 6z m56 -1892 c253 -52 461 -96 462 -97 2 -3 -77 -330
-82 -335 -9 -9 -339 41 -555 84 -182 37 -361 85 -367 100 -2 7 11 85 31 173
20 88 36 163 36 166 0 8 -8 10 475 -91z"/>
<path d="M954 414 c-37 -55 25 -117 80 -80 18 11 26 25 26 45 0 59 -75 84
-106 35z"/>
</g>
</svg>
