<svg width="50" height="50" viewBox="0 0 50 50" fill="none" xmlns="http://www.w3.org/2000/svg">
<g clip-path="url(#clip0_368_67)">
<path d="M4.3457 0.136719C3.94531 0.322266 3.53516 0.78125 3.41797 1.18164C3.35938 1.38672 3.32031 7.59766 3.32031 18.2227V34.9316L2.58789 34.9902C1.43555 35.0879 0.830078 35.4395 0.3125 36.3184L0.0488281 36.7676V42.4805C0.0488281 48.1543 0.0488281 48.1934 0.263672 48.584C0.507812 49.043 0.986328 49.5117 1.46484 49.7656C1.78711 49.9414 2.2168 49.9512 10.8398 49.9512C19.4629 49.9512 19.8926 49.9414 20.2148 49.7656C20.6934 49.5117 21.1719 49.043 21.416 48.584C21.6211 48.2129 21.6309 48.0566 21.6602 44.9414L21.6895 41.6992H26.6895C29.9805 41.6992 31.8262 41.6602 32.0801 41.5918C32.5098 41.4746 32.9492 41.1133 33.1641 40.7031C33.2812 40.4785 33.3008 37.9297 33.3008 23.7695V7.08984L29.9121 3.68164C28.0371 1.80664 26.3965 0.214844 26.25 0.136719C25.8691 -0.0585938 4.79492 -0.0585938 4.3457 0.136719ZM25 4.31641C25 7.30469 25.0488 7.55859 25.6934 8.01758C26.0254 8.25195 26.0449 8.25195 28.8379 8.28125L31.6406 8.31055V24.1699V40.0391H26.6602H21.6797V38.6426C21.6797 36.5625 21.3867 35.8594 20.2734 35.2734L19.7754 35.0098L12.3828 34.9805L4.98047 34.9512V18.3105V1.66016H14.9902H25V4.31641ZM28.5645 4.78516L30.4199 6.64062H28.5352H26.6602V4.78516C26.6602 3.75977 26.6699 2.92969 26.6895 2.92969C26.6992 2.92969 27.5488 3.75977 28.5645 4.78516ZM19.4727 36.7578C19.6582 36.8359 19.834 37.002 19.9121 37.168C19.9902 37.3828 20.0195 38.7891 20 42.666L19.9707 47.8711L19.6973 48.1055L19.4238 48.3398H10.8301H2.22656L1.94336 48.0566L1.66016 47.7734V42.5293C1.66016 38.9746 1.68945 37.2266 1.76758 37.0996C2.02148 36.6211 1.94336 36.6309 10.8203 36.6211C17.6758 36.6211 19.1992 36.6406 19.4727 36.7578Z" fill="#54E0DB"/>
<path d="M8.39852 3.46679C6.6407 4.02343 6.11336 6.28905 7.43172 7.60741C7.88094 8.05663 8.27156 8.22265 8.98445 8.28124C9.50203 8.31054 9.72664 8.28124 10.1368 8.10546C10.6837 7.87108 11.2696 7.29491 11.4845 6.77733C11.67 6.34765 11.6602 5.36132 11.4747 4.9121C10.9766 3.71093 9.60945 3.07616 8.39852 3.46679ZM9.56063 5.12694C10.293 5.49804 9.98055 6.64062 9.15047 6.64062C8.32039 6.64062 8.04695 5.47851 8.78914 5.10741C9.10164 4.95116 9.22859 4.95116 9.56063 5.12694Z" fill="#54E0DB"/>
<path d="M7.16801 10.0977C6.75785 10.2734 6.5723 10.7324 6.73832 11.1328C6.80668 11.2988 6.9434 11.4746 7.04105 11.5234C7.13871 11.582 8.56449 11.6211 10.4493 11.6211H13.6817L13.9161 11.377C14.2286 11.0742 14.2286 10.6445 13.9258 10.2832L13.6914 10.0098L10.5762 9.99023C8.12504 9.9707 7.40238 9.99023 7.16801 10.0977Z" fill="#54E0DB"/>
<path d="M4.69737 38.6328C3.36925 39.2968 2.93956 41.0644 3.8087 42.2753C4.7462 43.5644 6.44542 43.6816 7.57823 42.5488C8.28136 41.8457 8.47667 40.9961 8.1837 40C8.02745 39.4628 7.2169 38.6523 6.67979 38.4961C5.9962 38.3007 5.27354 38.3496 4.69737 38.6328ZM6.43565 40.2929C6.88487 40.8593 6.52354 41.6406 5.81065 41.6406C5.18565 41.6406 4.82432 41.0156 5.11729 40.4492C5.29307 40.1074 5.39073 40.0586 5.87901 40.0488C6.15245 40.039 6.2794 40.0976 6.43565 40.2929Z" fill="#54E0DB"/>
<path d="M3.70106 45.1465C3.25184 45.4883 3.21278 46.0059 3.6034 46.3965L3.88661 46.6797H7.07997H10.2733L10.5565 46.3965C10.9472 46.0059 10.9081 45.4883 10.4589 45.1465C10.2343 44.9707 3.92567 44.9707 3.70106 45.1465Z" fill="#54E0DB"/>
<path d="M36.6798 10.9864C35.8692 11.2696 35.2345 12.002 35.0587 12.8223C34.9903 13.1836 34.961 15.9473 34.9805 21.9825L35.0098 30.6153L35.3028 31.1426C35.6544 31.7872 36.1329 32.1875 36.7579 32.3731C37.5001 32.5977 47.4903 32.5879 48.2325 32.3633C48.8282 32.1875 49.4337 31.6895 49.7364 31.1133L49.9513 30.7129V21.6797V12.6465L49.7364 12.2461C49.463 11.7286 49.043 11.3086 48.5645 11.0743C48.213 10.8985 47.8712 10.8887 42.627 10.8692C38.0274 10.8497 36.9923 10.8692 36.6798 10.9864ZM46.6798 12.5489C46.6798 12.6563 42.5489 17.3926 42.4708 17.3633C42.4122 17.3438 39.0528 13.4668 38.3888 12.6661C38.2618 12.5098 38.5352 12.5 42.4708 12.5C44.7852 12.5 46.6798 12.5196 46.6798 12.5489ZM40.0391 17.1387C41.6602 19.0137 43.0567 20.6836 43.1446 20.8497C43.3985 21.3282 43.3595 22.1582 43.047 22.6172C42.7247 23.1055 36.8458 29.9219 36.7188 29.961C36.6505 29.9903 36.6212 27.0899 36.6212 21.6211V13.2325L36.8555 13.4766C36.9923 13.6133 38.418 15.2539 40.0391 17.1387ZM48.3204 25.8692L48.2911 30.0586L46.0059 27.4024C44.7462 25.9375 43.7013 24.6973 43.6817 24.6485C43.6622 24.5997 43.838 24.336 44.0528 24.0723C44.7364 23.252 44.9708 22.6465 44.9708 21.6797C44.9708 20.9864 44.922 20.7618 44.6973 20.2832C44.5509 19.961 44.2579 19.4922 44.0333 19.2286C43.7696 18.9063 43.6622 18.711 43.7208 18.6231C43.7598 18.545 44.8145 17.3145 46.045 15.8789L48.2911 13.2715L48.3204 17.4805C48.3302 19.7852 48.3302 23.5645 48.3204 25.8692ZM46.6602 30.7715C46.6798 30.8204 44.9805 30.8594 42.4805 30.8594C38.4766 30.8594 38.2618 30.8497 38.3888 30.6934C38.4669 30.5957 39.4239 29.4727 40.5079 28.2032L42.5001 25.8887L44.5606 28.2813C45.7032 29.5997 46.6505 30.7227 46.6602 30.7715Z" fill="#54E0DB"/>
<path d="M24.7266 43.6133C24.1211 43.916 23.6915 44.4043 23.4766 45.0391C23.2618 45.7129 23.3106 48.0469 23.5645 48.5449C23.7989 49.0039 24.2579 49.4727 24.7461 49.7363L25.1465 49.9512L35.3418 49.9805C43.7891 50 45.6251 49.9805 46.0059 49.8731C46.6309 49.6875 49.2383 48.1152 49.5997 47.6953C50.0782 47.1485 50.1172 46.416 49.6973 45.7422C49.5118 45.4395 47.9102 44.3848 46.4844 43.6426L46.045 43.4082L35.6446 43.3789L25.2442 43.3594L24.7266 43.6133ZM27.5391 46.6797V48.3399H26.5528C25.5958 48.3399 25.5665 48.3301 25.2833 48.0567C25.0098 47.7735 25.0001 47.7442 25.0001 46.7285C25.0001 45.6934 25.127 45.2051 25.4102 45.0879C25.4786 45.0586 25.9864 45.0293 26.543 45.0293L27.5391 45.0195V46.6797ZM30.8594 46.6797V48.3399H30.0293H29.1993V46.6797V45.0195H30.0293H30.8594V46.6797ZM46.9043 45.8106C47.6368 46.25 48.2422 46.6309 48.2422 46.6699C48.2422 46.6992 47.6563 47.0801 46.9532 47.5098L45.6543 48.291L39.0918 48.3203L32.5196 48.3399V46.6797V45.0195H39.043H45.5665L46.9043 45.8106Z" fill="#54E0DB"/>
</g>
<defs>
<clipPath id="clip0_368_67">
<rect width="50" height="50" fill="white"/>
</clipPath>
</defs>
</svg>
