<svg width="30" height="30" viewBox="0 0 50 50" fill="none" xmlns="http://www.w3.org/2000/svg">
<path d="M4.6875 4.6875C4.2731 4.6875 3.87567 4.85212 3.58265 5.14515C3.28962 5.43817 3.125 5.8356 3.125 6.25C3.125 6.6644 3.28962 7.06183 3.58265 7.35485C3.87567 7.64788 4.2731 7.8125 4.6875 7.8125H7.575C7.92917 7.8125 8.2375 8.05 8.32917 8.39167L13.6583 28.375C11.9845 28.8111 10.5026 29.7901 9.44478 31.1586C8.38693 32.5271 7.81286 34.2078 7.8125 35.9375C7.8125 36.8 8.5125 37.5 9.375 37.5H42.1875C42.6019 37.5 42.9993 37.3354 43.2924 37.0424C43.5854 36.7493 43.75 36.3519 43.75 35.9375C43.75 35.5231 43.5854 35.1257 43.2924 34.8326C42.9993 34.5396 42.6019 34.375 42.1875 34.375H11.2042C11.5274 33.4609 12.1261 32.6694 12.9178 32.1098C13.7096 31.5501 14.6554 31.2497 15.625 31.25H38.9958C39.2885 31.25 39.5754 31.1678 39.8236 31.0127C40.0719 30.8576 40.2716 30.636 40.4 30.3729C42.7785 25.4919 44.8384 20.4619 46.5667 15.3146C46.6349 15.111 46.6605 14.8954 46.6418 14.6815C46.623 14.4675 46.5604 14.2598 46.4578 14.0711C46.3551 13.8824 46.2147 13.717 46.0453 13.585C45.8758 13.4531 45.681 13.3575 45.4729 13.3042C34.485 10.5024 23.1709 9.1872 11.8333 9.39375L11.35 7.5875C11.1282 6.75571 10.6379 6.02047 9.95528 5.49604C9.27262 4.97161 8.43584 4.68737 7.575 4.6875H4.6875ZM7.8125 42.1875C7.8125 41.3587 8.14174 40.5638 8.72779 39.9778C9.31384 39.3917 10.1087 39.0625 10.9375 39.0625C11.7663 39.0625 12.5612 39.3917 13.1472 39.9778C13.7333 40.5638 14.0625 41.3587 14.0625 42.1875C14.0625 43.0163 13.7333 43.8112 13.1472 44.3972C12.5612 44.9833 11.7663 45.3125 10.9375 45.3125C10.1087 45.3125 9.31384 44.9833 8.72779 44.3972C8.14174 43.8112 7.8125 43.0163 7.8125 42.1875ZM34.375 42.1875C34.375 41.3587 34.7042 40.5638 35.2903 39.9778C35.8763 39.3917 36.6712 39.0625 37.5 39.0625C38.3288 39.0625 39.1237 39.3917 39.7097 39.9778C40.2958 40.5638 40.625 41.3587 40.625 42.1875C40.625 43.0163 40.2958 43.8112 39.7097 44.3972C39.1237 44.9833 38.3288 45.3125 37.5 45.3125C36.6712 45.3125 35.8763 44.9833 35.2903 44.3972C34.7042 43.8112 34.375 43.0163 34.375 42.1875Z" fill="#54E0DB"/>
</svg>
