<svg width="30" height="30" viewBox="0 0 50 50" fill="none" xmlns="http://www.w3.org/2000/svg">
<path d="M8.50011 10.8896C8.85498 9.55887 9.63944 8.38262 10.7316 7.54362C11.8238 6.70463 13.1625 6.24986 14.5397 6.25H35.4584C36.836 6.2494 38.1752 6.70396 39.2678 7.54299C40.3604 8.38202 41.1452 9.55852 41.5001 10.8896L45.9022 27.4021C43.9635 25.8439 41.5499 24.9963 39.0626 25H10.9376C8.44964 24.9958 6.03521 25.8435 4.09595 27.4021L8.50011 10.8896Z" fill="#54E0DB"/>
<path fill-rule="evenodd" clip-rule="evenodd" d="M10.9375 28.125C9.91155 28.125 8.89564 28.3271 7.94779 28.7197C6.99993 29.1123 6.13869 29.6878 5.41323 30.4132C4.68777 31.1387 4.11231 31.9999 3.71969 32.9478C3.32708 33.8956 3.125 34.9115 3.125 35.9375C3.125 36.9635 3.32708 37.9794 3.71969 38.9272C4.11231 39.8751 4.68777 40.7363 5.41323 41.4618C6.13869 42.1872 6.99993 42.7627 7.94779 43.1553C8.89564 43.5479 9.91155 43.75 10.9375 43.75H39.0625C40.0885 43.75 41.1044 43.5479 42.0522 43.1553C43.0001 42.7627 43.8613 42.1872 44.5868 41.4618C45.3122 40.7363 45.8877 39.8751 46.2803 38.9272C46.6729 37.9794 46.875 36.9635 46.875 35.9375C46.875 34.9115 46.6729 33.8956 46.2803 32.9478C45.8877 31.9999 45.3122 31.1387 44.5868 30.4132C43.8613 29.6878 43.0001 29.1123 42.0522 28.7197C41.1044 28.3271 40.0885 28.125 39.0625 28.125H10.9375ZM32.8125 37.5C33.2269 37.5 33.6243 37.3354 33.9174 37.0424C34.2104 36.7493 34.375 36.3519 34.375 35.9375C34.375 35.5231 34.2104 35.1257 33.9174 34.8326C33.6243 34.5396 33.2269 34.375 32.8125 34.375C32.3981 34.375 32.0007 34.5396 31.7076 34.8326C31.4146 35.1257 31.25 35.5231 31.25 35.9375C31.25 36.3519 31.4146 36.7493 31.7076 37.0424C32.0007 37.3354 32.3981 37.5 32.8125 37.5ZM40.625 35.9375C40.625 36.3519 40.4604 36.7493 40.1674 37.0424C39.8743 37.3354 39.4769 37.5 39.0625 37.5C38.6481 37.5 38.2507 37.3354 37.9576 37.0424C37.6646 36.7493 37.5 36.3519 37.5 35.9375C37.5 35.5231 37.6646 35.1257 37.9576 34.8326C38.2507 34.5396 38.6481 34.375 39.0625 34.375C39.4769 34.375 39.8743 34.5396 40.1674 34.8326C40.4604 35.1257 40.625 35.5231 40.625 35.9375Z" fill="#54E0DB"/>
</svg>
