<svg width="30" height="30" viewBox="0 0 50 50" fill="none" xmlns="http://www.w3.org/2000/svg">
<path d="M24.9997 1.5625C21.2175 1.56165 17.5406 2.80839 14.539 5.10949C11.5373 7.4106 9.37845 10.6376 8.39705 14.2902C7.41564 17.9429 7.66648 21.8173 9.11069 25.3129C10.5549 28.8085 13.1118 31.7302 16.3851 33.625C17.8143 34.4542 18.7081 35.725 18.7476 37.0063C18.7586 37.3494 18.8822 37.6795 19.0995 37.9453C19.3168 38.2112 19.6156 38.3981 19.9497 38.4771C20.6831 38.65 21.4289 38.7854 22.1872 38.8833C22.8601 38.9688 23.4372 38.4292 23.4372 37.75V28.0396C22.7789 27.9672 22.1266 27.8481 21.4851 27.6833C21.2864 27.6322 21.0996 27.5424 20.9356 27.419C20.7715 27.2957 20.6334 27.1413 20.529 26.9646C20.4246 26.7878 20.3561 26.5923 20.3273 26.3891C20.2985 26.1859 20.31 25.979 20.3612 25.7802C20.4123 25.5814 20.5021 25.3947 20.6255 25.2307C20.7488 25.0666 20.9032 24.9284 21.08 24.8241C21.2567 24.7197 21.4522 24.6512 21.6554 24.6224C21.8586 24.5936 22.0655 24.6051 22.2643 24.6563C24.0586 25.1187 25.9408 25.1187 27.7351 24.6563C27.9359 24.5984 28.1462 24.5814 28.3537 24.6063C28.5611 24.6311 28.7615 24.6973 28.9429 24.801C29.1243 24.9046 29.2831 25.0436 29.4098 25.2097C29.5366 25.3758 29.6287 25.5656 29.6809 25.7679C29.733 25.9703 29.744 26.181 29.7132 26.3876C29.6825 26.5943 29.6106 26.7927 29.5018 26.9711C29.3931 27.1495 29.2496 27.3042 29.08 27.4262C28.9104 27.5482 28.718 27.6349 28.5143 27.6813C27.8729 27.8468 27.2206 27.9665 26.5622 28.0396V37.7479C26.5622 38.4292 27.1393 38.9688 27.8122 38.8833C28.5706 38.7854 29.3164 38.65 30.0497 38.4771C30.3839 38.3981 30.6827 38.2112 30.8999 37.9453C31.1172 37.6795 31.2409 37.3494 31.2518 37.0063C31.2935 35.725 32.1851 34.4542 33.6143 33.625C36.8876 31.7302 39.4445 28.8085 40.8887 25.3129C42.333 21.8173 42.5838 17.9429 41.6024 14.2902C40.621 10.6376 38.4622 7.4106 35.4605 5.10949C32.4588 2.80839 28.7819 1.56165 24.9997 1.5625Z" fill="#54E0DB"/>
<path fill-rule="evenodd" clip-rule="evenodd" d="M18.7771 41.4583C18.8154 41.2567 18.893 41.0645 19.0056 40.8929C19.1181 40.7212 19.2633 40.5734 19.433 40.4579C19.6027 40.3424 19.7934 40.2615 19.9944 40.2197C20.1954 40.178 20.4026 40.1762 20.6042 40.2146C23.5089 40.7657 26.4913 40.7657 29.3959 40.2146C29.6 40.1697 29.811 40.1661 30.0165 40.2042C30.222 40.2423 30.4178 40.3212 30.5922 40.4363C30.7666 40.5513 30.9162 40.7002 31.0321 40.8741C31.148 41.0481 31.2278 41.2434 31.2668 41.4488C31.3059 41.6541 31.3033 41.8651 31.2593 42.0694C31.2153 42.2737 31.1308 42.4671 31.0108 42.6382C30.8907 42.8092 30.7376 42.9545 30.5604 43.0653C30.3832 43.1761 30.1856 43.2502 29.9792 43.2833C26.6891 43.9077 23.311 43.9077 20.0209 43.2833C19.6141 43.206 19.2545 42.9704 19.0213 42.6282C18.7881 42.286 18.7003 41.8652 18.7771 41.4583ZM20.3209 46.55C20.3422 46.3459 20.4035 46.148 20.5014 45.9676C20.5992 45.7872 20.7316 45.6278 20.891 45.4986C21.0504 45.3694 21.2337 45.2728 21.4304 45.2144C21.6272 45.156 21.8335 45.137 22.0376 45.1583C24.0072 45.3642 25.9929 45.3642 27.9626 45.1583C28.3748 45.1152 28.7872 45.2376 29.1091 45.4986C29.4311 45.7596 29.6361 46.1378 29.6792 46.55C29.7223 46.9622 29.5999 47.3746 29.3389 47.6966C29.0779 48.0185 28.6998 48.2236 28.2876 48.2667C26.1019 48.4955 23.8983 48.4955 21.7126 48.2667C21.5085 48.2453 21.3106 48.184 21.1302 48.0862C20.9498 47.9884 20.7904 47.856 20.6612 47.6966C20.5319 47.5372 20.4354 47.3539 20.377 47.1571C20.3186 46.9604 20.2995 46.7541 20.3209 46.55Z" fill="#54E0DB"/>
</svg>
