<svg width="30" height="30" viewBox="0 0 50 50" fill="none" xmlns="http://www.w3.org/2000/svg">
<path fill-rule="evenodd" clip-rule="evenodd" d="M24.9999 14.0625C24.9994 12.3542 25.3992 10.6695 26.167 9.14344C26.9349 7.61741 28.0495 6.29246 29.4217 5.27476C30.7938 4.25707 32.3852 3.57493 34.0684 3.28301C35.7516 2.9911 37.4798 3.09752 39.1145 3.59375C39.3728 3.67202 39.6065 3.81589 39.7927 4.01135C39.9789 4.20681 40.1113 4.44718 40.177 4.70903C40.2427 4.97088 40.2394 5.24528 40.1675 5.50549C40.0955 5.76569 39.9574 6.00281 39.7666 6.19375L32.8499 13.1083C32.9811 14.0979 33.4249 15.0542 34.1853 15.8146C34.9457 16.575 35.902 17.0187 36.8936 17.1479L43.8061 10.2333C43.9971 10.0425 44.2342 9.90436 44.4944 9.83242C44.7546 9.76049 45.029 9.75719 45.2909 9.82287C45.5527 9.88854 45.7931 10.0209 45.9885 10.2072C46.184 10.3934 46.3279 10.627 46.4061 10.8854C46.9253 12.5955 47.0176 14.4068 46.6748 16.1608C46.332 17.9148 45.5646 19.5581 44.4397 20.9469C43.3149 22.3357 41.8668 23.4277 40.2223 24.1274C38.5777 24.827 36.7868 25.1131 35.0061 24.9604C32.8853 24.7812 31.1103 25.1687 30.1957 26.2812L15.2999 44.375C14.69 45.112 13.9329 45.7135 13.0771 46.141C12.2213 46.5685 11.2856 46.8126 10.33 46.8577C9.37442 46.9027 8.41996 46.7477 7.52775 46.4025C6.63553 46.0574 5.82521 45.5298 5.14869 44.8534C4.47216 44.177 3.94434 43.3668 3.59901 42.4747C3.25368 41.5825 3.09846 40.6281 3.14329 39.6725C3.18812 38.7169 3.432 37.7812 3.85933 36.9253C4.28666 36.0694 4.88801 35.3122 5.62489 34.7021L23.7166 19.8042C24.827 18.8875 25.2166 17.1146 25.0374 14.9937C25.0119 14.684 24.9994 14.3733 24.9999 14.0625ZM8.57697 39.8437C8.57697 39.4293 8.74159 39.0319 9.03461 38.7389C9.32764 38.4459 9.72507 38.2812 10.1395 38.2812H10.1561C10.5705 38.2812 10.968 38.4459 11.261 38.7389C11.554 39.0319 11.7186 39.4293 11.7186 39.8437V39.8604C11.7186 40.2748 11.554 40.6722 11.261 40.9653C10.968 41.2583 10.5705 41.4229 10.1561 41.4229H10.1395C9.72507 41.4229 9.32764 41.2583 9.03461 40.9653C8.74159 40.6722 8.57697 40.2748 8.57697 39.8604V39.8437Z" fill="#54E0DB"/>
<path d="M20.9916 18L16.4062 13.4167V10.1542C16.4062 9.88441 16.3363 9.61926 16.2034 9.38451C16.0705 9.14976 15.8791 8.95341 15.6478 8.81458L7.83534 4.12708C7.53653 3.94796 7.18643 3.87384 6.84067 3.91649C6.49491 3.95914 6.17332 4.11613 5.927 4.3625L4.3645 5.925C4.11813 6.17131 3.96115 6.4929 3.9185 6.83866C3.87584 7.18442 3.94996 7.53452 4.12909 7.83333L8.81659 15.6458C8.95542 15.8771 9.15176 16.0685 9.38651 16.2014C9.62126 16.3343 9.88642 16.4041 10.1562 16.4042H13.4145L17.7103 20.7L20.9916 17.9979V18Z" fill="#54E0DB"/>
<path fill-rule="evenodd" clip-rule="evenodd" d="M26.1582 36.1021L34.8728 44.8146C35.5257 45.4675 36.3008 45.9854 37.1539 46.3388C38.007 46.6921 38.9213 46.874 39.8447 46.874C40.768 46.874 41.6823 46.6921 42.5354 46.3388C43.3885 45.9854 44.1636 45.4675 44.8165 44.8146C45.4695 44.1617 45.9874 43.3865 46.3407 42.5335C46.6941 41.6804 46.876 40.7661 46.876 39.8427C46.876 38.9193 46.6941 38.005 46.3407 37.1519C45.9874 36.2989 45.4695 35.5237 44.8165 34.8708L37.929 27.9854C36.8733 28.1351 35.804 28.1651 34.7415 28.075C33.9207 28.0042 33.3207 28.0625 32.9353 28.1625C32.8133 28.1883 32.696 28.2326 32.5874 28.2937L26.1582 36.1021ZM33.2707 33.2687C33.5637 32.9761 33.9608 32.8118 34.3749 32.8118C34.7889 32.8118 35.1861 32.9761 35.479 33.2687L39.3853 37.1771C39.5388 37.3201 39.6619 37.4926 39.7473 37.6843C39.8327 37.876 39.8787 38.0829 39.8824 38.2927C39.8861 38.5025 39.8475 38.7108 39.7689 38.9054C39.6903 39.1 39.5733 39.2767 39.425 39.4251C39.2766 39.5734 39.0998 39.6904 38.9053 39.769C38.7107 39.8476 38.5023 39.8862 38.2925 39.8825C38.0827 39.8788 37.8758 39.8329 37.6842 39.7475C37.4925 39.6621 37.32 39.5389 37.177 39.3854L33.2707 35.4792C32.9781 35.1862 32.8137 34.7891 32.8137 34.375C32.8137 33.9609 32.9781 33.5638 33.2707 33.2708V33.2687Z" fill="#54E0DB"/>
</svg>
