<svg width="50" height="50" viewBox="0 0 50 50" fill="none" xmlns="http://www.w3.org/2000/svg">
<g clip-path="url(#clip0_368_85)">
<path d="M1.31836 1.21099C0.732422 1.48442 0.46875 1.75786 0.205078 2.3438C0.00976562 2.78325 0 2.89067 0 17.7247V32.6661L0.234375 33.1543C0.507812 33.7403 0.78125 34.004 1.36719 34.2676C1.79688 34.4629 1.96289 34.4727 10.3613 34.4727H18.9062L19.1309 34.9317C19.8535 36.4454 21.5918 38.4278 23.0566 39.4239C25.293 40.9571 27.5195 41.6407 30.2246 41.6407C32.4902 41.6407 34.082 41.25 36.0938 40.1856L37.0801 39.668L37.7246 40.3125L38.3691 40.9668L38.1738 41.2012C37.7637 41.709 37.7734 41.7188 41.1914 45.1465C43.9062 47.8614 44.4727 48.3985 44.9902 48.6524C46.6113 49.4532 48.5449 48.8575 49.541 47.2559C49.834 46.7774 50.0293 45.8985 49.9805 45.2637C49.873 44.004 49.7363 43.8282 46.1621 40.254C42.6953 36.7969 42.6855 36.7872 42.1777 37.1973L41.9434 37.3926L41.2988 36.7481L40.6445 36.1133L41.0742 35.3125L41.4941 34.5215L43.2422 34.4727C44.9805 34.4239 44.9902 34.4239 45.4688 34.1309C45.7617 33.9454 46.0547 33.6524 46.2402 33.3594L46.5332 32.8809V17.7247V2.56841L46.2402 2.08989C45.9082 1.56255 45.4785 1.23052 44.9316 1.07427C44.6973 1.01567 37.2266 0.976611 23.1934 0.976611H1.80664L1.31836 1.21099ZM44.7754 2.78325L45.0195 3.01763V6.00591V8.98442H23.291H1.5625V5.98638C1.5625 3.04692 1.5625 2.98833 1.77734 2.76372L1.98242 2.53911H23.2617H44.541L44.7754 2.78325ZM45.0195 21.4844V32.4317L44.7754 32.6661C44.5508 32.9004 44.4824 32.9102 43.3203 32.9102H42.1094L42.2461 32.461C42.6953 30.9571 42.7734 28.5059 42.4316 26.8067C41.3965 21.7481 37.3926 17.8321 32.3535 16.9434C31.2402 16.7579 29.1797 16.7579 28.0664 16.9434C26.4355 17.2364 24.707 17.9297 23.2031 18.9161C22.3145 19.502 20.4785 21.3379 19.8926 22.2266C18.8867 23.7696 18.2031 25.459 17.9102 27.1875C17.6953 28.4864 17.7637 30.8399 18.0566 32.0118C18.1738 32.461 18.2617 32.8418 18.2617 32.8711C18.2617 32.8907 14.6094 32.9102 10.1367 32.9102H2.01172L1.78711 32.6954L1.5625 32.4903V21.5137V10.5469H23.291H45.0195V21.4844ZM32.1973 18.5059C34.4434 18.9356 36.416 20.0098 38.0566 21.709C40.6738 24.4141 41.6895 28.2911 40.7617 31.9825C40.5273 32.9102 39.873 34.3555 39.2871 35.2442C35.9766 40.2344 29.2773 41.6114 24.2188 38.3399C23.3008 37.7442 21.9141 36.3965 21.2891 35.4883C20.625 34.5313 19.9902 33.1641 19.668 32.0313C19.3066 30.7032 19.2285 28.4864 19.5117 27.1485C20.4395 22.7149 23.6328 19.4922 28.0273 18.5547C29.0918 18.3204 31.123 18.3008 32.1973 18.5059ZM40.332 37.9395L40.8691 38.4766L40.1562 39.1797L39.4531 39.8926L38.916 39.3555C38.623 39.0625 38.3789 38.7891 38.3789 38.75C38.3789 38.6426 39.5801 37.4219 39.6973 37.4122C39.7559 37.4024 40.0391 37.6465 40.332 37.9395ZM42.8516 39.0821C43.0273 39.2579 40.2539 42.0313 40.0684 41.875C40 41.8165 39.9414 41.7286 39.9414 41.6602C39.9414 41.5235 42.4902 38.9649 42.627 38.9649C42.6855 38.9649 42.7832 39.0137 42.8516 39.0821ZM48.1738 44.5313C48.4668 45 48.4668 45.8887 48.1836 46.4356C47.7539 47.2657 46.7188 47.6465 45.8301 47.3145C45.4492 47.168 44.9707 46.7481 43.3301 45.127L41.3086 43.125L42.6953 41.7286L44.0918 40.3321L46.0254 42.2559C47.0898 43.3204 48.0566 44.3457 48.1738 44.5313Z" fill="#54E0DB"/>
<path d="M5.3125 5.20517C5.11719 5.37119 5.04883 5.52744 5.04883 5.76181C5.04883 5.99619 5.11719 6.15244 5.3125 6.31845C5.64453 6.59189 5.94727 6.60166 6.28906 6.33798C6.48438 6.18173 6.54297 6.05478 6.54297 5.76181C6.54297 5.07822 5.83984 4.75595 5.3125 5.20517Z" fill="#54E0DB"/>
<path d="M9.61921 5.22461C9.13093 5.70312 9.47273 6.54297 10.1563 6.54297C10.5567 6.54297 10.9376 6.16211 10.9376 5.76172C10.9376 5.36133 10.5567 4.98047 10.1563 4.98047C9.97077 4.98047 9.76569 5.06836 9.61921 5.22461Z" fill="#54E0DB"/>
<path d="M14.0138 5.22461C13.5255 5.70312 13.8478 6.54297 14.5118 6.54297C14.8732 6.54297 15.2638 6.14258 15.2638 5.76172C15.2638 5.52734 15.1954 5.37109 15.0001 5.20508C14.6583 4.91211 14.3067 4.92188 14.0138 5.22461Z" fill="#54E0DB"/>
<path d="M29.3457 5.22461C29.1895 5.37109 29.1016 5.57617 29.1016 5.76172C29.1016 5.94727 29.1895 6.15234 29.3457 6.29883L29.5801 6.54297H34.6973C39.6387 6.54297 39.8145 6.5332 40.0098 6.34766C40.127 6.25 40.2441 6.06445 40.2832 5.95703C40.3809 5.66406 40.166 5.22461 39.8828 5.08789C39.707 5.00977 38.1445 4.98047 34.6094 4.98047H29.5801L29.3457 5.22461Z" fill="#54E0DB"/>
<path d="M33.8379 24.9121C33.3594 25.1855 33.2617 25.6738 33.6035 26.1133C33.7988 26.3574 33.8477 26.3672 34.7363 26.3672C35.2539 26.3672 35.6445 26.4063 35.625 26.4551C35.5762 26.5918 32.2559 29.7852 32.168 29.7852C32.1191 29.7852 31.3184 29.0137 30.3711 28.0762C29.4238 27.1387 28.5742 26.3672 28.4766 26.3672C28.1055 26.3672 27.6758 26.7578 24.8828 29.5605C22.2754 32.1777 21.9727 32.5195 21.9727 32.8027C21.9727 33.2227 22.3438 33.5938 22.7734 33.5938C23.0566 33.5938 23.3594 33.3203 25.752 30.9375L28.418 28.2813L30.1562 30.0098C31.5527 31.3965 31.9531 31.7383 32.1582 31.7383C32.4609 31.7383 33.6133 30.7129 35.6445 28.6719C36.2598 28.0469 36.7969 27.5391 36.8359 27.5391C36.8848 27.5391 36.9141 27.9785 36.9141 28.5059C36.9141 29.4434 36.9238 29.4824 37.168 29.6777C37.5195 29.9609 37.9004 29.9414 38.1934 29.6289C38.4277 29.3848 38.4277 29.3652 38.4277 27.334C38.4277 24.6387 38.6426 24.8633 36.0059 24.8242C34.6777 24.8145 33.9648 24.8438 33.8379 24.9121Z" fill="#54E0DB"/>
</g>
<defs>
<clipPath id="clip0_368_85">
<rect width="50" height="50" fill="white"/>
</clipPath>
</defs>
</svg>
