<svg width="30" height="30" viewBox="0 0 50 50" fill="none" xmlns="http://www.w3.org/2000/svg">
<path fill-rule="evenodd" clip-rule="evenodd" d="M4.6875 4.6875C4.2731 4.6875 3.87567 4.85212 3.58265 5.14515C3.28962 5.43817 3.125 5.8356 3.125 6.25C3.125 6.6644 3.28962 7.06183 3.58265 7.35485C3.87567 7.64788 4.2731 7.8125 4.6875 7.8125H6.25V29.6875C6.25 31.3451 6.90848 32.9348 8.08058 34.1069C9.25268 35.279 10.8424 35.9375 12.5 35.9375H15.0208L12.5792 43.2562C12.4482 43.6497 12.4789 44.079 12.6645 44.4497C12.8501 44.8205 13.1753 45.1024 13.5687 45.2333C13.9622 45.3643 14.3915 45.3336 14.7622 45.148C15.133 44.9624 15.4149 44.6372 15.5458 44.2437L16.2312 42.1875H33.7687L34.4562 44.2437C34.5985 44.622 34.8818 44.9305 35.2466 45.1043C35.6115 45.2781 36.0295 45.3039 36.4129 45.1761C36.7962 45.0483 37.1152 44.7769 37.3028 44.4189C37.4903 44.0609 37.5319 43.6442 37.4187 43.2562L34.9812 35.9375H37.5C39.1576 35.9375 40.7473 35.279 41.9194 34.1069C43.0915 32.9348 43.75 31.3451 43.75 29.6875V7.8125H45.3125C45.7269 7.8125 46.1243 7.64788 46.4174 7.35485C46.7104 7.06183 46.875 6.6644 46.875 6.25C46.875 5.8356 46.7104 5.43817 46.4174 5.14515C46.1243 4.85212 45.7269 4.6875 45.3125 4.6875H4.6875ZM18.3125 35.9375H31.6875L32.7292 39.0625H17.2708L18.3125 35.9375ZM35.1562 17.1979C35.3354 17.0961 35.4926 16.9598 35.6189 16.7969C35.7451 16.6341 35.8379 16.4479 35.8919 16.249C35.9459 16.0501 35.96 15.8426 35.9334 15.6382C35.9069 15.4339 35.8402 15.2368 35.7371 15.0583C35.6341 14.8799 35.4968 14.7236 35.3331 14.5984C35.1694 14.4732 34.9826 14.3817 34.7834 14.329C34.5841 14.2763 34.3765 14.2636 34.1723 14.2915C33.9681 14.3194 33.7715 14.3875 33.5937 14.4917C30.7532 16.1359 28.2403 18.29 26.1812 20.8458L22.9792 17.6458C22.6862 17.3532 22.2891 17.1889 21.875 17.1889C21.4609 17.1889 21.0638 17.3532 20.7708 17.6458L14.5208 23.8958C14.3673 24.0389 14.2442 24.2114 14.1588 24.403C14.0734 24.5947 14.0275 24.8016 14.0238 25.0114C14.0201 25.2212 14.0587 25.4296 14.1372 25.6242C14.2158 25.8187 14.3328 25.9955 14.4812 26.1438C14.6295 26.2922 14.8063 26.4092 15.0008 26.4878C15.1954 26.5663 15.4038 26.6049 15.6136 26.6012C15.8234 26.5975 16.0303 26.5516 16.222 26.4662C16.4136 26.3808 16.5861 26.2577 16.7292 26.1042L21.875 20.9583L25.2437 24.3292C25.4054 24.4908 25.6005 24.615 25.8153 24.693C26.0301 24.771 26.2595 24.8009 26.4871 24.7807C26.7148 24.7604 26.9352 24.6904 27.1329 24.5757C27.3306 24.461 27.5007 24.3043 27.6312 24.1167C29.6032 21.2876 32.1719 18.9258 35.1562 17.1979Z" fill="#54E0DB"/>
</svg>
