<svg width="50" height="50" viewBox="0 0 50 50" fill="none" xmlns="http://www.w3.org/2000/svg">
<path d="M3.125 1.68945C2.64648 1.8457 1.82617 2.68555 1.67969 3.18359C1.51367 3.75977 1.51367 13.4277 1.67969 14.0039C1.83594 14.541 2.64648 15.3516 3.18359 15.5078C3.75977 15.6738 14.9902 15.6738 15.5664 15.5078C16.1035 15.3516 16.9141 14.541 17.0703 14.0039C17.2363 13.4277 17.2363 3.75977 17.0703 3.18359C16.9141 2.64648 16.1035 1.83594 15.5664 1.67969C15.0293 1.52344 3.63281 1.5332 3.125 1.68945ZM15.3809 3.36914L15.625 3.60352V8.59375V13.584L15.3809 13.8184L15.1465 14.0625H9.375H3.60352L3.36914 13.8184L3.125 13.584V8.59375V3.60352L3.36914 3.36914L3.60352 3.125H9.375H15.1465L15.3809 3.36914Z" fill="#54E0DB"/>
<path d="M6.45506 5.33202C6.25975 5.58593 6.24998 5.70312 6.24998 8.59374C6.24998 12.9004 6.02537 12.7832 10.1367 10.6836C11.6797 9.89257 13.0176 9.16015 13.1055 9.04296C13.3008 8.80859 13.3301 8.47656 13.1836 8.20312C13.1347 8.10546 11.7969 7.36327 10.2148 6.55273C7.08006 4.9414 6.82615 4.86327 6.45506 5.33202ZM9.28709 7.83202C10.0293 8.22265 10.6445 8.57421 10.6445 8.61327C10.6445 8.68163 7.98826 10.0586 7.86131 10.0586C7.83201 10.0586 7.81248 9.39452 7.81248 8.59374C7.81248 7.7832 7.84178 7.1289 7.87108 7.1289C7.90037 7.1289 8.53514 7.45116 9.28709 7.83202Z" fill="#54E0DB"/>
<path d="M32.0801 5.55664C31.2012 5.77148 30.4004 6.43555 29.9805 7.27539L29.7363 7.76367V12.5C29.7363 17.2168 29.7363 17.2363 29.9609 17.6758C30.3027 18.3789 30.6934 18.7891 31.3672 19.1504L31.9824 19.4824H39.0625H46.1426L46.7578 19.1504C47.4414 18.7793 47.7344 18.4766 48.125 17.7344L48.3887 17.2363V12.5V7.76367L48.0566 7.14844C47.6953 6.47461 47.2852 6.08398 46.582 5.74219L46.1426 5.51758L39.2578 5.49805C35.4688 5.48828 32.2461 5.51758 32.0801 5.55664ZM46.0449 7.22656C46.1719 7.36328 45.8496 7.67578 42.9297 10.2539C41.1426 11.8359 39.5605 13.1641 39.4141 13.2129C38.8184 13.4082 38.6426 13.2812 35.2734 10.3125C33.4766 8.73047 32.0117 7.40234 32.0117 7.35351C31.9922 7.05078 32.4609 7.03125 39.1797 7.06055C45.0391 7.08008 45.9082 7.09961 46.0449 7.22656ZM34.6094 11.8164C36.1523 13.1836 37.627 14.4141 37.8711 14.5508C38.5449 14.9023 39.5996 14.8926 40.2832 14.5312C40.5566 14.3848 42.1387 13.0566 43.7988 11.582L46.8262 8.90625L46.8555 12.6758C46.8652 14.7559 46.8555 16.5918 46.8262 16.7676C46.7578 17.168 46.3379 17.666 45.9277 17.832C45.6738 17.9395 44.375 17.9687 39.0625 17.9687C31.8066 17.9687 32.0898 17.9883 31.582 17.3242L31.2988 16.9629L31.2695 12.9102L31.2402 8.86719L31.5137 9.0918C31.6699 9.21875 33.0566 10.4492 34.6094 11.8164Z" fill="#54E0DB"/>
<path d="M19.3359 14.2578C19.0136 14.58 19.0038 14.873 19.2773 15.4101C19.414 15.6835 19.5312 15.9375 19.5312 15.9668C19.5312 15.996 17.373 18.3105 14.7363 21.1132L9.94133 26.2207L6.55266 28.1835C3.03703 30.2246 2.46086 30.6445 2.0507 31.455C1.56242 32.4023 1.455 33.33 1.70891 34.3261C1.89445 35.0292 3.94524 38.6425 4.47258 39.1894C5.50774 40.2539 6.90422 40.6542 8.33 40.2832C8.6425 40.205 8.91594 40.1367 8.93547 40.1367C8.955 40.1367 9.97063 41.8847 11.1913 44.0234C12.4218 46.1523 13.5448 48.0273 13.7011 48.1835C14.0429 48.5351 14.3066 48.496 15.2636 47.9296C16.6796 47.0898 17.3827 46.0351 17.4609 44.6289C17.5292 43.4863 17.3534 43.0566 15.6152 40.039C14.7655 38.5546 14.0624 37.2949 14.0624 37.2363C14.0624 37.1777 14.414 36.9335 14.8534 36.6796C15.5663 36.2597 15.8495 36.1718 18.0956 35.6347C27.1484 33.4863 29.2382 32.998 29.3554 33.0468C29.4238 33.0761 29.5702 33.2617 29.6777 33.4765C29.8632 33.8476 30.2148 34.082 30.5761 34.082C30.8593 34.082 31.2499 33.6523 31.2499 33.3398C31.2499 33.1738 30.5566 31.875 29.4335 29.9218L27.6171 26.7578L27.8808 26.455C28.2714 25.9863 28.5839 25.2929 28.7011 24.6484C29.1308 22.2851 26.9335 20.0683 24.6093 20.5078C24.3261 20.5664 24.082 20.5957 24.0624 20.5859C24.0527 20.5664 23.2421 19.1699 22.2753 17.4804C21.2988 15.791 20.4101 14.3261 20.3027 14.2285C20.0292 14.0039 19.58 14.0136 19.3359 14.2578ZM24.5116 24.5019C26.7187 28.3398 28.4863 31.5039 28.4472 31.5429C28.3788 31.6015 15.9667 34.5703 15.8007 34.5703C15.7714 34.5703 14.7655 32.871 13.5644 30.8007C12.0312 28.1347 11.4159 26.9824 11.4843 26.8945C11.7577 26.5039 20.371 17.4121 20.4296 17.4707C20.4687 17.5 22.3046 20.664 24.5116 24.5019ZM25.7519 22.1191C26.748 22.4121 27.412 23.5449 27.1484 24.5214C27.08 24.7558 26.9726 25.0293 26.9042 25.1269C26.787 25.2929 26.7382 25.2441 26.3671 24.5898C26.1327 24.1992 25.7226 23.4765 25.4394 22.998C25.1562 22.5097 24.9413 22.0898 24.9706 22.041C25.0292 21.9433 25.1952 21.9531 25.7519 22.1191ZM12.1874 31.4941C13.2616 33.3789 14.1796 34.9804 14.2089 35.0683C14.2577 35.1953 13.6034 35.6152 11.1718 37.0214C8.17375 38.75 8.0468 38.8085 7.4511 38.8476C6.93352 38.8867 6.74797 38.8476 6.29875 38.623C5.64446 38.3007 5.55656 38.1933 4.25774 35.9375C3.51555 34.6386 3.20305 34.0039 3.16399 33.6816C3.08586 33.1054 3.32024 32.2851 3.68156 31.8457C3.97453 31.5039 10.0585 27.9003 10.1659 28.0175C10.1952 28.0468 11.1034 29.6191 12.1874 31.4941ZM14.248 40.791C16.0058 43.8378 16.0937 44.0917 15.8202 45.0683C15.6835 45.5566 15.1562 46.2207 14.746 46.4355L14.4726 46.582L12.4316 43.0468C11.3183 41.1035 10.3905 39.4726 10.371 39.414C10.3515 39.3261 12.4023 38.0273 12.5976 37.998C12.6269 37.998 13.3691 39.248 14.248 40.791Z" fill="#54E0DB"/>
<path d="M38.252 31.4062C36.6114 31.6992 35.0196 32.5488 33.7891 33.7891C30.4395 37.1289 30.42 42.4902 33.7403 45.8594C37.1094 49.2773 42.5782 49.2773 45.9473 45.8594C49.2481 42.5195 49.2481 37.168 45.9473 33.8281C43.9356 31.7871 41.0938 30.8887 38.252 31.4062ZM41.9434 33.1445C43.0469 33.4961 43.877 34.0137 44.7755 34.9121C45.6641 35.8008 46.1817 36.6211 46.5528 37.7441C46.7774 38.4375 46.8067 38.6816 46.8067 39.8438C46.8067 41.0059 46.7774 41.25 46.5528 41.9434C46.1817 43.0664 45.6641 43.8867 44.7755 44.7754C43.8868 45.6641 43.0665 46.1816 41.9434 46.5527C41.2501 46.7773 41.0059 46.8066 39.8438 46.8066C38.6817 46.8066 38.4376 46.7773 37.7442 46.5527C36.6309 46.1816 35.8106 45.6738 34.9122 44.7754C34.0235 43.8867 33.5059 43.0664 33.1348 41.9434C32.9102 41.25 32.8809 41.0059 32.8809 39.8438C32.8809 38.6816 32.9102 38.4375 33.1348 37.7441C33.5059 36.6211 34.0235 35.8008 34.9122 34.9121C36.0059 33.8184 37.2071 33.1641 38.6133 32.9102C39.4825 32.7539 41.0645 32.8613 41.9434 33.1445Z" fill="#54E0DB"/>
<path d="M37.2656 36.0449C35.5957 36.4551 34.6777 38.5059 35.4492 40.0977C35.7129 40.6348 39.2969 44.4141 39.6289 44.4922C39.7461 44.5312 39.9414 44.5312 40.0683 44.4922C40.4101 44.4043 43.9746 40.6348 44.2383 40.0781C44.9023 38.6523 44.2969 36.8945 42.9004 36.2207C42.041 35.8105 40.8398 35.9473 40.0195 36.543C39.873 36.6406 39.8144 36.6406 39.6777 36.543C39.0234 36.0742 37.9883 35.8594 37.2656 36.0449ZM38.5351 37.6855C38.7012 37.793 38.9453 38.0664 39.0723 38.3008C39.4922 39.0527 40.1562 39.1211 40.5078 38.457C40.9375 37.6562 41.5527 37.3535 42.2168 37.6367C42.8516 37.9004 43.1738 38.8379 42.8418 39.4141C42.7734 39.5312 42.0801 40.293 41.2793 41.123L39.8437 42.627L38.4473 41.1719C37.6855 40.3809 36.9824 39.5898 36.8945 39.4238C36.6797 39.0332 36.6699 38.6523 36.8848 38.2129C37.1973 37.5586 37.9394 37.3242 38.5351 37.6855Z" fill="#54E0DB"/>
</svg>
