<svg xmlns="http://www.w3.org/2000/svg" width="30" height="30" fill="none" viewBox="0 0 50 50"><path fill="#54E0DB" d="M35.1687 9.05208C29.4506 11.3408 23.3466 12.5113 17.1874 12.5H15.6249C12.8806 12.496 10.2351 13.5239 8.21333 15.3795C6.19153 17.2352 4.94119 19.7831 4.7104 22.5177C4.47961 25.2523 5.28524 27.9737 6.96744 30.1419C8.64964 32.3102 11.0855 33.7669 13.7916 34.2229C14.4812 37.0453 15.4427 39.7943 16.6624 42.4312C17.6291 44.5229 20.1499 45.1812 22.0416 44.0896L23.4104 43.3C25.2437 42.2417 25.8374 39.9812 25.0187 38.1583C24.5266 37.0651 24.0899 35.9477 23.7104 34.8104C27.7062 35.3479 31.5437 36.3729 35.1687 37.8229C36.7177 33.1852 37.5049 28.3271 37.4999 23.4375C37.4999 18.4083 36.6812 13.5729 35.1687 9.05208ZM38.0416 7.79167C39.7575 12.8293 40.6303 18.1156 40.6249 23.4375C40.6308 29.1169 39.6364 34.753 37.6874 40.0875C37.6169 40.2802 37.5849 40.485 37.5935 40.6901C37.602 40.8952 37.6509 41.0966 37.7373 41.2828C37.8236 41.469 37.9458 41.6363 38.0969 41.7753C38.248 41.9143 38.4249 42.0221 38.6177 42.0927C38.8104 42.1633 39.0152 42.1952 39.2202 42.1867C39.4253 42.1781 39.6267 42.1293 39.8129 42.0429C39.9991 41.9565 40.1665 41.8343 40.3054 41.6832C40.4444 41.5322 40.5523 41.3552 40.6229 41.1625C42.2024 36.8498 43.1939 32.344 43.5708 27.7667C44.69 26.6035 45.3143 25.0516 45.3124 23.4375C45.3124 21.7562 44.6479 20.2292 43.5708 19.1083C43.1916 14.5313 42.2001 10.0259 40.6229 5.7125C40.5523 5.51976 40.4444 5.34281 40.3054 5.19175C40.1665 5.04069 39.9991 4.91848 39.8129 4.8321C39.4369 4.65766 39.0069 4.63974 38.6177 4.78229C38.2284 4.92485 37.9117 5.21619 37.7373 5.59224C37.5628 5.96829 37.5449 6.39824 37.6874 6.7875C37.8104 7.12083 37.9291 7.45417 38.0416 7.79167Z"/></svg>