<svg width="30" height="30" viewBox="0 0 50 50" fill="none" xmlns="http://www.w3.org/2000/svg">
<path fill-rule="evenodd" clip-rule="evenodd" d="M17.1875 14.0625C17.1875 11.9905 18.0106 10.0034 19.4757 8.53823C20.9409 7.0731 22.928 6.25 25 6.25C27.072 6.25 29.0591 7.0731 30.5243 8.53823C31.9894 10.0034 32.8125 11.9905 32.8125 14.0625C32.8125 16.1345 31.9894 18.1216 30.5243 19.5868C29.0591 21.0519 27.072 21.875 25 21.875C22.928 21.875 20.9409 21.0519 19.4757 19.5868C18.0106 18.1216 17.1875 16.1345 17.1875 14.0625ZM32.8125 20.3125C32.8125 18.6549 33.471 17.0652 34.6431 15.8931C35.8152 14.721 37.4049 14.0625 39.0625 14.0625C40.7201 14.0625 42.3098 14.721 43.4819 15.8931C44.654 17.0652 45.3125 18.6549 45.3125 20.3125C45.3125 21.9701 44.654 23.5598 43.4819 24.7319C42.3098 25.904 40.7201 26.5625 39.0625 26.5625C37.4049 26.5625 35.8152 25.904 34.6431 24.7319C33.471 23.5598 32.8125 21.9701 32.8125 20.3125ZM4.6875 20.3125C4.6875 18.6549 5.34598 17.0652 6.51808 15.8931C7.69019 14.721 9.2799 14.0625 10.9375 14.0625C12.5951 14.0625 14.1848 14.721 15.3569 15.8931C16.529 17.0652 17.1875 18.6549 17.1875 20.3125C17.1875 21.9701 16.529 23.5598 15.3569 24.7319C14.1848 25.904 12.5951 26.5625 10.9375 26.5625C9.2799 26.5625 7.69019 25.904 6.51808 24.7319C5.34598 23.5598 4.6875 21.9701 4.6875 20.3125ZM13.1458 31.4937C14.4166 29.5021 16.1689 27.863 18.2409 26.728C20.3128 25.593 22.6375 24.9987 25 25C26.9788 24.9982 28.9357 25.4143 30.7425 26.2212C32.5493 27.028 34.1654 28.2074 35.4848 29.682C36.8043 31.1567 37.7975 32.8934 38.3993 34.7784C39.0011 36.6635 39.198 38.6544 38.9771 40.6208C38.9501 40.8651 38.8658 41.0996 38.7312 41.3052C38.5965 41.5108 38.4152 41.6818 38.2021 41.8042C34.1845 44.1094 29.632 45.3192 25 45.3125C20.1979 45.3125 15.6875 44.0375 11.7979 41.8042C11.5848 41.6818 11.4035 41.5108 11.2688 41.3052C11.1342 41.0996 11.0499 40.8651 11.0229 40.6208C10.673 37.4263 11.4218 34.2079 13.1458 31.4958V31.4937Z" fill="#54E0DB"/>
<path d="M10.5874 29.6958C8.53275 32.8675 7.57545 36.6256 7.86242 40.3937C6.6114 40.2041 5.38098 39.8972 4.18742 39.4771L3.94784 39.3938C3.73408 39.3179 3.54691 39.1817 3.40898 39.0016C3.27106 38.8215 3.18831 38.6053 3.17076 38.3792L3.14992 38.1271C3.06577 37.0812 3.19317 36.029 3.52452 35.0334C3.85587 34.0378 4.38438 33.1192 5.07851 32.3323C5.77265 31.5454 6.61819 30.9064 7.56467 30.4535C8.51115 30.0005 9.53919 29.7428 10.5874 29.6958ZM42.1374 40.3937C42.4244 36.6256 41.4671 32.8675 39.4124 29.6958C40.4607 29.7428 41.4887 30.0005 42.4352 30.4535C43.3817 30.9064 44.2272 31.5454 44.9213 32.3323C45.6155 33.1192 46.144 34.0378 46.4753 35.0334C46.8067 36.029 46.9341 37.0812 46.8499 38.1271L46.8291 38.3792C46.8112 38.6049 46.7282 38.8207 46.5903 39.0004C46.4524 39.18 46.2655 39.3159 46.052 39.3917L45.8124 39.475C44.6312 39.8917 43.4041 40.2021 42.1374 40.3937Z" fill="#54E0DB"/>
</svg>
