<?xml version="1.0" standalone="no"?>
<!DOCTYPE svg PUBLIC "-//W3C//DTD SVG 20010904//EN"
 "http://www.w3.org/TR/2001/REC-SVG-20010904/DTD/svg10.dtd">
<svg version="1.0" xmlns="http://www.w3.org/2000/svg"
 width="50" height="50" viewBox="0 0 512.000000 512.000000"
 preserveAspectRatio="xMidYMid meet">

<g transform="translate(0.000000,512.000000) scale(0.100000,-0.100000)"
fill="#54E0DB" stroke="none">
<path d="M2345 4920 l-1730 -5 -52 -22 c-168 -68 -279 -188 -327 -352 -14 -49
-16 -246 -16 -1975 0 -2089 -3 -1963 56 -2083 34 -70 126 -168 198 -212 31
-19 87 -42 124 -52 64 -18 147 -19 1962 -19 1815 0 1898 1 1962 19 178 49 330
210 367 389 16 75 16 3829 0 3904 -38 182 -200 350 -377 392 -91 21 -161 22
-2167 16z m1910 -129 c84 -34 193 -143 226 -226 21 -54 24 -78 27 -252 l4
-193 -2097 0 -2097 0 4 198 3 197 32 65 c52 105 135 181 244 220 53 19 88 19
1824 17 l1770 -2 60 -24z m253 -2478 l-3 -1708 -32 -66 c-67 -136 -189 -221
-343 -239 -110 -13 -3361 -13 -3448 0 -190 27 -338 177 -363 368 -4 37 -8 806
-9 1710 l0 1642 2100 0 2100 0 -2 -1707z"/>
<path d="M687 4560 c-43 -34 -53 -102 -22 -151 64 -99 223 -32 201 85 -14 76
-118 114 -179 66z"/>
<path d="M1075 4558 c-52 -46 -49 -126 6 -172 77 -65 194 7 175 108 -15 77
-122 115 -181 64z"/>
<path d="M1459 4551 c-24 -24 -29 -38 -29 -76 0 -40 5 -52 34 -81 24 -24 43
-34 65 -34 68 0 121 53 121 121 0 22 -10 41 -34 65 -29 29 -41 34 -81 34 -38
0 -52 -5 -76 -29z"/>
<path d="M2432 4508 c-17 -17 -15 -54 4 -72 22 -23 259 -23 292 0 27 19 29 60
3 74 -28 15 -284 13 -299 -2z"/>
<path d="M2936 4499 c-16 -23 -12 -47 12 -66 21 -17 1232 -19 1263 -3 22 12
26 59 7 78 -9 9 -165 12 -639 12 l-628 0 -15 -21z"/>
<path d="M695 3730 c-22 -11 -51 -36 -65 -57 l-25 -37 0 -365 c0 -351 1 -367
21 -401 28 -48 75 -78 137 -85 29 -4 217 -5 418 -3 l366 3 40 27 c73 48 73 50
73 461 0 361 0 364 -22 397 -13 18 -36 43 -51 54 -28 20 -40 21 -440 24 -396
2 -414 2 -452 -18z m849 -96 c9 -8 18 -25 21 -37 3 -12 5 -170 3 -350 l-3
-329 -24 -19 c-22 -18 -44 -19 -406 -19 -372 0 -383 1 -409 21 l-26 20 0 343
c0 293 2 345 16 364 l15 22 399 0 c349 0 401 -2 414 -16z"/>
<path d="M1985 3736 c-35 -15 -82 -67 -90 -99 -3 -12 -5 -186 -3 -387 3 -364
3 -365 26 -398 49 -68 42 -67 497 -67 455 0 448 -1 497 67 23 33 23 33 26 409
l3 375 -23 34 c-13 18 -36 43 -51 54 -28 20 -40 21 -440 23 -327 2 -418 0
-442 -11z m841 -100 c18 -14 19 -31 22 -360 l3 -346 -25 -25 -25 -25 -386 0
-386 0 -25 25 -25 25 3 346 c3 329 4 346 22 360 29 21 793 21 822 0z"/>
<path d="M3265 3736 c-37 -16 -70 -52 -84 -89 -7 -18 -11 -156 -11 -384 0
-348 0 -356 22 -395 12 -21 38 -49 58 -61 34 -21 44 -22 400 -25 201 -2 388
-1 417 3 62 7 109 37 137 85 20 34 21 50 21 400 0 359 0 366 -22 400 -12 20
-40 46 -61 58 -39 22 -45 22 -443 22 -314 -1 -411 -4 -434 -14z m849 -108 c14
-19 16 -71 16 -364 l0 -343 -26 -20 c-26 -20 -37 -21 -409 -21 -362 0 -384 1
-406 19 l-24 19 -3 319 c-2 175 0 332 3 350 12 65 -4 63 435 63 l399 0 15 -22z"/>
<path d="M705 2596 c-42 -18 -82 -68 -95 -118 -8 -26 -10 -130 -8 -293 3 -249
3 -252 28 -288 13 -20 41 -45 61 -57 37 -20 44 -20 852 -18 806 3 816 3 843
24 15 11 37 33 48 48 20 26 21 40 21 319 l0 292 -24 34 c-13 18 -42 42 -65 52
-39 18 -82 19 -836 18 -639 0 -801 -2 -825 -13z m1637 -103 c17 -15 18 -37 18
-276 0 -228 -2 -263 -17 -279 -15 -17 -54 -18 -814 -18 l-798 0 -15 22 c-14
19 -16 63 -16 275 0 240 1 254 20 273 20 20 33 20 812 20 722 0 793 -1 810
-17z"/>
<path d="M2790 2599 c-14 -6 -36 -20 -48 -32 -54 -50 -52 -7 -52 -975 l0 -899
23 -33 c12 -19 38 -43 57 -54 34 -21 50 -21 663 -24 440 -2 640 1 669 9 52 14
103 63 117 114 15 56 15 1724 0 1780 -13 47 -52 92 -96 111 -26 11 -150 14
-670 13 -399 0 -647 -4 -663 -10z m1320 -109 c20 -20 20 -33 20 -892 l0 -872
-22 -23 -21 -23 -633 0 -633 0 -20 26 c-21 27 -21 32 -21 895 0 856 0 869 20
889 20 20 33 20 655 20 622 0 635 0 655 -20z"/>
<path d="M611 1478 c-6 -15 -5 -30 4 -43 11 -18 25 -20 171 -23 88 -1 169 0
181 3 27 6 38 37 23 65 -10 19 -20 20 -191 20 -177 0 -180 0 -188 -22z"/>
<path d="M1108 1475 c-9 -21 -8 -28 7 -45 18 -20 30 -20 670 -20 493 0 654 3
663 12 15 15 15 51 0 66 -9 9 -172 12 -670 12 l-658 0 -12 -25z"/>
<path d="M616 1069 c-9 -14 -12 -29 -7 -43 l8 -21 616 -3 616 -2 12 21 c8 16
8 28 0 45 l-11 24 -609 0 c-610 0 -610 0 -625 -21z"/>
<path d="M2006 1074 c-19 -18 -20 -28 -6 -55 10 -18 23 -19 223 -19 224 0 237
3 237 45 0 42 -14 45 -231 45 -175 0 -210 -2 -223 -16z"/>
<path d="M616 659 c-16 -23 -12 -47 12 -66 12 -10 141 -13 567 -13 482 0 553
2 573 16 24 17 29 53 10 72 -9 9 -151 12 -579 12 -567 0 -568 0 -583 -21z"/>
</g>
</svg>
