<svg width="50" height="50" viewBox="0 0 50 50" fill="none" xmlns="http://www.w3.org/2000/svg">
<g clip-path="url(#clip0_368_93)">
<path d="M1.76754 0.791016C1.32808 0.927734 0.761678 1.30859 0.498006 1.66992C-0.0293373 2.38281 -4.04133e-05 1.39648 -4.04133e-05 19.9121C-4.04133e-05 39.0234 -0.0488685 37.6074 0.673788 38.3594C0.8691 38.5645 1.2109 38.8184 1.41598 38.916C1.79683 39.1016 2.08004 39.1113 9.98043 39.1406L18.164 39.1602V42.0801C18.164 44.2969 18.1347 45.0195 18.0468 45.0879C17.9785 45.1367 17.3046 45.459 16.5527 45.8008C15.8007 46.1426 15.1074 46.4844 15.0097 46.5625C14.873 46.6895 14.8437 46.8848 14.8437 47.8516C14.8437 48.6035 14.8828 49.0234 14.9609 49.1016C15.0488 49.1895 17.4023 49.2188 24.9609 49.2188C33.2812 49.2188 34.8535 49.1992 34.9511 49.082C35.0293 48.9941 35.0586 48.5449 35.039 47.7441L35.0097 46.5527L33.4277 45.8203L31.8359 45.0879V42.1289V39.1602H39.7753C48.4863 39.1602 48.3203 39.1699 49.0429 38.5742C49.2382 38.418 49.5117 38.0566 49.6484 37.7734L49.9023 37.2656V19.8828C49.9023 3.19336 49.8925 2.4707 49.7168 2.09961C49.4824 1.5918 49.1503 1.24023 48.623 0.957031L48.1933 0.732422L25.1464 0.712891C10.498 0.703125 1.98238 0.732422 1.76754 0.791016ZM48.3398 1.72852C48.5351 1.8457 48.789 2.11914 48.9062 2.32422L49.1211 2.71484V17.3242V31.9336H24.9511H0.78121V17.3828C0.78121 5.23438 0.800741 2.77344 0.917928 2.50977C1.08394 2.10938 1.55269 1.67969 1.91402 1.5625C2.07027 1.51367 12.3242 1.48438 25.0976 1.49414L47.998 1.51367L48.3398 1.72852ZM49.2187 34.8535C49.2187 36.1328 49.1796 37.1094 49.1113 37.2754C48.9648 37.6855 48.4472 38.1738 48.0468 38.2812C47.5781 38.418 2.42183 38.418 1.95308 38.2812C1.55269 38.1738 1.03512 37.6855 0.888631 37.2754C0.820272 37.1094 0.78121 36.1328 0.78121 34.8535V32.7148H25H49.2187V34.8535ZM31.0546 42.1387V45.0195H25H18.9453V42.1387V39.2578H25H31.0546V42.1387ZM32.8711 46.4941L34.375 47.1973V47.9102V48.6328H25H15.625V47.9199V47.1973L17.0703 46.5039L18.5058 45.8105H24.9316L31.3671 45.8008L32.8711 46.4941Z" fill="#54E0DB" stroke="#54E0DB"/>
<path d="M8.57422 4.99023C8.4082 5.07812 8.39844 5.53711 8.39844 12.334C8.4082 18.2031 8.42773 19.6094 8.53516 19.7461C8.65234 19.9121 9.22852 19.9219 18.1836 19.9219C25.4492 19.9219 27.7246 19.8926 27.8125 19.8047C27.9004 19.7168 27.9297 17.959 27.9297 12.4805C27.9297 5.40039 27.9297 5.27344 27.7344 5.07812C27.5391 4.88281 27.4121 4.88281 18.1445 4.88281C11.9336 4.89258 8.68164 4.92188 8.57422 4.99023ZM27.1484 11.9336C27.1484 15.3809 27.1289 18.1738 27.1094 18.1543C27.0898 18.1348 26.0547 16.5332 24.8145 14.5996C23.5645 12.666 22.4902 11.0254 22.4121 10.9473C22.3438 10.8789 22.207 10.8496 22.1094 10.8789C22.002 10.9082 21.3281 11.8945 20.5566 13.1348C19.8047 14.3359 19.1699 15.332 19.1406 15.332C19.1113 15.332 18.2715 13.9746 17.2559 12.3145C16.25 10.6543 15.3516 9.26758 15.2637 9.23828C15.1562 9.19922 15.0195 9.25781 14.8828 9.39453C14.7754 9.52148 13.4766 11.5234 12.0117 13.8477C10.5469 16.1621 9.31641 18.0957 9.26758 18.125C9.16992 18.1836 9.14062 5.83008 9.24805 5.73242C9.27734 5.69336 13.3203 5.66406 18.2324 5.66406H27.1484V11.9336ZM17.8613 14.7754C19.3164 17.1777 20.5078 19.1699 20.5078 19.1895C20.5078 19.2188 18.0469 19.2383 15.0391 19.2383C12.0312 19.2383 9.57031 19.2188 9.57031 19.1992C9.57031 19.1699 10.6738 17.4023 12.0215 15.2637C15.2832 10.1074 15.1465 10.3223 15.1758 10.3613C15.1953 10.3809 16.4062 12.373 17.8613 14.7754ZM24.0527 14.6289C25.0098 16.1133 26.0449 17.7441 26.3672 18.2324L26.9531 19.1406H24.1895H21.4355L20.5273 17.6172L19.6094 16.1035L20.918 14.0137C21.6309 12.8613 22.2363 11.9238 22.2656 11.9238C22.2949 11.9238 23.0957 13.1348 24.0527 14.6289Z" fill="#54E0DB" stroke="#54E0DB" stroke-width="0.5"/>
<path d="M30.7226 5.00977C30.6152 5.08789 30.5566 5.23438 30.5859 5.38086L30.6152 5.61523H35.9765C40.9082 5.61523 41.3476 5.60547 41.4355 5.44922C41.5234 5.32227 41.5039 5.23438 41.3671 5.08789C41.1816 4.88281 41.1035 4.88281 36.0351 4.88281C31.9628 4.88281 30.8593 4.91211 30.7226 5.00977Z" fill="#54E0DB" stroke="#54E0DB" stroke-width="0.5"/>
<path d="M30.7226 9.69726C30.6152 9.77539 30.5566 9.92187 30.5859 10.0684L30.6152 10.3027L35.9277 10.332C39.7656 10.3418 41.2792 10.3223 41.3671 10.2441C41.5429 10.0977 41.5429 9.91211 41.3476 9.72656C41.2109 9.58984 40.5957 9.57031 36.0449 9.57031C31.9628 9.57031 30.8593 9.59961 30.7226 9.69726Z" fill="#54E0DB" stroke="#54E0DB" stroke-width="0.5"/>
<path d="M30.7226 14.3848C30.6152 14.4629 30.5566 14.6094 30.5859 14.7559L30.6152 14.9902L35.9277 15.0195C39.7656 15.0293 41.2792 15.0098 41.3671 14.9316C41.5429 14.7852 41.5429 14.5996 41.3476 14.4141C41.2109 14.2773 40.5957 14.2578 36.0449 14.2578C31.9628 14.2578 30.8593 14.2871 30.7226 14.3848Z" fill="#54E0DB" stroke="#54E0DB" stroke-width="0.5"/>
<path d="M30.6348 19.0137C30.4981 19.1406 30.5762 19.5312 30.752 19.6289C30.879 19.6875 32.7247 19.7266 36.0743 19.7266C40.6055 19.7266 41.211 19.707 41.3477 19.5703C41.4356 19.4922 41.504 19.3652 41.504 19.2969C41.504 18.9551 41.3672 18.9453 35.9864 18.9453C33.0762 18.9453 30.6641 18.9746 30.6348 19.0137Z" fill="#54E0DB" stroke="#54E0DB" stroke-width="0.5"/>
<path d="M11.0449 23.7403C10.3809 23.8672 9.82422 24.1895 9.32617 24.7168C8.69141 25.3907 8.4668 25.9571 8.4668 26.8262C8.47656 28.0176 9.15039 29.0821 10.2344 29.5997C10.918 29.9219 12.0801 29.9708 12.8027 29.6973C13.5352 29.4141 14.1797 28.8379 14.5215 28.1446C14.8828 27.4122 14.9121 26.2793 14.5801 25.5665C13.9746 24.2481 12.4512 23.4668 11.0449 23.7403ZM12.6465 24.6973C13.5352 25.0879 14.0039 25.8204 14.0137 26.8165C14.0137 27.4122 13.9746 27.5684 13.7207 27.9883C12.9297 29.2481 11.1816 29.4825 9.99023 28.4766C9.27734 27.8809 9.02344 26.6504 9.45312 25.8204C9.80469 25.127 10.4102 24.6876 11.2793 24.4825C11.5723 24.4043 12.207 24.5118 12.6465 24.6973Z" fill="#54E0DB" stroke="#54E0DB" stroke-width="0.5"/>
<path d="M19.9609 23.7304C18.9355 23.9355 17.8516 24.8437 17.5391 25.7519C17.4512 26.0058 17.3828 26.4746 17.3828 26.8066C17.3828 27.6269 17.6074 28.2226 18.1348 28.8086C18.7695 29.5215 19.3848 29.8047 20.3613 29.8633C21.416 29.9121 22.0801 29.6679 22.8027 28.9551C24.3652 27.3828 23.8867 24.8828 21.8359 23.9746C21.25 23.7109 20.5273 23.623 19.9609 23.7304ZM21.7188 24.7851C23.5156 25.7519 23.2715 28.3691 21.3184 29.0136C21.1328 29.0722 20.7031 29.1015 20.3613 29.082C18.3887 28.9551 17.4316 26.6211 18.7793 25.2148C19.5605 24.3945 20.6836 24.2383 21.7188 24.7851Z" fill="#54E0DB" stroke="#54E0DB" stroke-width="0.5"/>
<path d="M28.8965 23.7305C27.9688 23.8867 27.0898 24.5312 26.6016 25.4102C26.3477 25.8789 26.3184 26.0156 26.3184 26.8066C26.3184 27.5977 26.3477 27.7344 26.6016 28.2031C26.9336 28.7891 27.4316 29.2871 28.0469 29.6094C28.4082 29.8047 28.6133 29.834 29.4434 29.834C30.3125 29.834 30.4688 29.8047 30.918 29.5703C31.5527 29.2383 32.2656 28.4473 32.4609 27.8613C32.6758 27.2363 32.6562 26.3867 32.4219 25.7422C31.9043 24.3652 30.3613 23.4766 28.8965 23.7305ZM30.4297 24.6582C31.2598 25 31.8359 25.8691 31.8359 26.7871C31.8359 27.7539 31.377 28.4668 30.5176 28.8672C29.2676 29.4531 27.793 28.9258 27.2363 27.6855C26.377 25.791 28.4473 23.8281 30.4297 24.6582Z" fill="#54E0DB" stroke="#54E0DB" stroke-width="0.5"/>
<path d="M37.6953 23.7598C36.123 24.1114 35.0488 25.5274 35.1855 27.0704C35.293 28.2422 36.0742 29.2774 37.1973 29.6973C37.998 30 39.1113 29.9317 39.834 29.5411C41.2891 28.7403 41.9238 27.0606 41.2891 25.6641C40.6055 24.1895 39.1894 23.4375 37.6953 23.7598ZM39.3164 24.6582C39.7851 24.8536 40.3516 25.4004 40.5566 25.8789C40.9766 26.8262 40.7324 27.8711 39.9219 28.5547C39.4238 28.9844 38.916 29.1309 38.1152 29.0821C37.6367 29.0528 37.4121 28.9844 37.0996 28.7598C35.9082 27.9102 35.6152 26.6309 36.3574 25.5176C36.9922 24.5801 38.2324 24.209 39.3164 24.6582Z" fill="#54E0DB" stroke="#54E0DB" stroke-width="0.5"/>
<path d="M24.5928 35.085C23.6781 35.5036 23.863 36.7939 24.8653 36.986C25.5028 37.1091 26.1353 36.3999 25.9747 35.7499C25.8288 35.1638 25.1378 34.8339 24.5928 35.085ZM25.24 35.4051C25.6585 35.6218 25.7363 36.1488 25.3908 36.4393C25.2011 36.6018 24.9724 36.6412 24.7486 36.5526C24.2814 36.3556 24.262 35.6711 24.7194 35.4248C24.914 35.3165 25.0648 35.3116 25.24 35.4051Z" fill="#54E0DB" stroke="#54E0DB" stroke-width="0.5"/>
</g>
<defs>
<clipPath id="clip0_368_93">
<rect width="50" height="50" fill="white"/>
</clipPath>
</defs>
</svg>
