<svg width="30" height="30" viewBox="0 0 50 50" fill="none" xmlns="http://www.w3.org/2000/svg">
<path fill-rule="evenodd" clip-rule="evenodd" d="M4.6875 10.9375C4.6875 9.2799 5.34598 7.69019 6.51808 6.51808C7.69019 5.34598 9.2799 4.6875 10.9375 4.6875H39.0625C40.7201 4.6875 42.3098 5.34598 43.4819 6.51808C44.654 7.69019 45.3125 9.2799 45.3125 10.9375V31.25C45.3125 32.9076 44.654 34.4973 43.4819 35.6694C42.3098 36.8415 40.7201 37.5 39.0625 37.5H32.8125V38.0354C32.8125 39.2792 33.3062 40.4729 34.1854 41.35L35.4792 42.6458C35.6974 42.8643 35.846 43.1426 35.9062 43.4455C35.9664 43.7485 35.9354 44.0624 35.8173 44.3478C35.6991 44.6331 35.4991 44.877 35.2424 45.0487C34.9857 45.2204 34.6838 45.3122 34.375 45.3125H15.625C15.3162 45.3122 15.0143 45.2204 14.7576 45.0487C14.5009 44.877 14.3009 44.6331 14.1827 44.3478C14.0646 44.0624 14.0336 43.7485 14.0938 43.4455C14.154 43.1426 14.3026 42.8643 14.5208 42.6458L15.8146 41.35C16.6931 40.4714 17.187 39.28 17.1875 38.0375V37.5H10.9375C9.2799 37.5 7.69019 36.8415 6.51808 35.6694C5.34598 34.4973 4.6875 32.9076 4.6875 31.25V10.9375ZM7.8125 10.9375V26.5625C7.8125 27.3913 8.14174 28.1862 8.72779 28.7722C9.31384 29.3583 10.1087 29.6875 10.9375 29.6875H39.0625C39.8913 29.6875 40.6862 29.3583 41.2722 28.7722C41.8583 28.1862 42.1875 27.3913 42.1875 26.5625V10.9375C42.1875 10.1087 41.8583 9.31384 41.2722 8.72779C40.6862 8.14174 39.8913 7.8125 39.0625 7.8125H10.9375C10.1087 7.8125 9.31384 8.14174 8.72779 8.72779C8.14174 9.31384 7.8125 10.1087 7.8125 10.9375Z" fill="#54E0DB"/>
</svg>
