<svg xmlns="http://www.w3.org/2000/svg" width="165" height="165" fill="none" viewBox="0 0 165 165"><g clip-path="url(#clip0_246_597)"><path fill="#7f4EFF" d="M54 88.0058C54 88.7031 54.0888 89.3788 54.2568 90.0232L54 88.0058Z"/><path fill="#7f4EFF" d="M108.71 83C109.407 82.1335 109.927 81.1194 110.215 80.0116C110.383 79.3672 110.472 78.6915 110.472 77.9942C110.472 77.2969 110.383 76.6212 110.215 75.9767C109.321 72.5383 106.196 70 102.478 70H54V75.9767H102.478C103.591 75.9767 104.495 76.8804 104.495 77.9942C104.495 79.1079 103.591 80.0116 102.478 80.0116H92.4659C88.7479 80.0116 85.6227 82.5499 84.7298 85.9884C84.5606 86.6328 84.4717 87.3085 84.4717 88.0058C84.4717 88.7031 84.5606 89.3788 84.7286 90.0233C85.6227 93.4617 88.7479 96 92.4659 96H102.478C106.196 96 109.321 93.4617 110.215 90.0233C110.383 89.3788 110.472 88.7031 110.472 88.0058C110.472 87.3085 110.383 86.6328 110.214 85.9884C109.927 84.8806 109.406 83.8665 108.71 83ZM102.478 90.0233H92.4659C91.351 90.0233 90.4485 89.1208 90.4485 88.0058C90.4485 86.8909 91.351 85.9884 92.4659 85.9884H102.478C103.591 85.9884 104.495 86.8921 104.495 88.0058C104.495 89.1196 103.591 90.0233 102.478 90.0233Z"/><path fill="#7f4EFF" d="M59.9755 88.0058C59.9755 89.1207 60.8792 90.0232 61.9942 90.0232H80.4368V96H61.9942C58.2761 96 55.1509 93.4617 54.2568 90.0232C54.0888 89.3788 54 88.7031 54 88.0058C54 87.3085 54.0888 86.6328 54.258 85.9883C55.1509 82.5499 58.2761 80.0116 61.9942 80.0116H80.4368V85.9883H61.9942C60.8792 85.9883 59.9755 86.892 59.9755 88.0058Z"/></g><defs><clipPath id="clip0_246_597"><rect width="56.472" height="26" fill="#fff" transform="translate(54 70)"/></clipPath></defs></svg>