<svg xmlns="http://www.w3.org/2000/svg" width="30" height="30" fill="none" viewBox="0 0 70 70"><path fill="#54E0DB" fill-rule="evenodd" d="M27.1687 22.12C35.5687 11.3254 48.6938 4.375 63.4375 4.375C64.0177 4.375 64.5741 4.60547 64.9843 5.0157C65.3945 5.42594 65.625 5.98234 65.625 6.5625C65.625 21.3092 58.6746 34.4313 47.88 42.8342C48.3289 45.6465 48.1623 48.5228 47.3917 51.2646C46.6211 54.0063 45.2648 56.5482 43.4165 58.7149C41.5681 60.8816 39.2717 62.6214 36.6856 63.8144C34.0996 65.0074 31.2855 65.6252 28.4375 65.625C27.8573 65.625 27.3009 65.3945 26.8907 64.9843C26.4805 64.5741 26.25 64.0177 26.25 63.4375V51.3887C23.4148 49.1498 20.852 46.5861 18.6142 43.75H6.5625C5.98234 43.75 5.42594 43.5195 5.0157 43.1093C4.60547 42.6991 4.375 42.1427 4.375 41.5625C4.37477 38.7142 4.99256 35.8998 6.18573 33.3135C7.37891 30.7273 9.11905 28.4307 11.2861 26.5822C13.4531 24.7338 15.9954 23.3776 18.7375 22.6072C21.4796 21.8368 24.3562 21.6706 27.1687 22.12ZM43.75 19.6875C42.0095 19.6875 40.3403 20.3789 39.1096 21.6096C37.8789 22.8403 37.1875 24.5095 37.1875 26.25C37.1875 27.9905 37.8789 29.6597 39.1096 30.8904C40.3403 32.1211 42.0095 32.8125 43.75 32.8125C45.4905 32.8125 47.1597 32.1211 48.3904 30.8904C49.6211 29.6597 50.3125 27.9905 50.3125 26.25C50.3125 24.5095 49.6211 22.8403 48.3904 21.6096C47.1597 20.3789 45.4905 19.6875 43.75 19.6875Z" clip-rule="evenodd"/><path fill="#54E0DB" d="M15.3417 50.2892C15.5721 50.1174 15.7664 49.9019 15.9135 49.655C16.0606 49.4081 16.1577 49.1347 16.1991 48.8503C16.2405 48.566 16.2256 48.2762 16.155 47.9976C16.0845 47.719 15.9597 47.4571 15.788 47.2267C15.6162 46.9963 15.4007 46.802 15.1538 46.6549C14.9069 46.5078 14.6335 46.4107 14.3491 46.3693C14.0648 46.3278 13.775 46.3428 13.4964 46.4134C13.2178 46.4839 12.9558 46.6086 12.7255 46.7804C10.4881 48.4447 8.74832 50.6891 7.69445 53.2708C6.64059 55.8526 6.31271 58.6733 6.7463 61.4279C6.81681 61.8867 7.03144 62.3112 7.35914 62.6399C7.68685 62.9687 8.11064 63.1847 8.56921 63.2567C11.3241 63.6899 14.145 63.3616 16.7268 62.3072C19.3085 61.2528 21.5528 59.5125 23.2167 57.2746C23.394 57.0448 23.5239 56.782 23.5986 56.5016C23.6734 56.2211 23.6916 55.9286 23.6522 55.6411C23.6128 55.3535 23.5165 55.0767 23.369 54.8267C23.2216 54.5767 23.0258 54.3586 22.7932 54.185C22.5606 54.0114 22.2958 53.8858 22.0142 53.8156C21.7326 53.7454 21.4398 53.7319 21.1529 53.776C20.866 53.82 20.5908 53.9207 20.3432 54.0722C20.0956 54.2237 19.8807 54.4229 19.7109 54.6583C18.6937 56.0263 17.3705 57.1371 15.847 57.9018C14.3235 58.6666 12.6422 59.0641 10.9375 59.0625C10.9375 55.475 12.6642 52.2871 15.3417 50.2892Z"/></svg>