<svg width="70" height="70" viewBox="0 0 70 70" fill="none" xmlns="http://www.w3.org/2000/svg">
<g clip-path="url(#clip0_368_148)">
<path d="M32.2656 0.0820198C22.1758 0.998036 13.043 6.02929 7.05469 13.9453C5.12695 16.5019 3.25391 19.9609 2.11914 23.0234C1.43555 24.8965 0.628906 28.1504 0.314453 30.2832C-0.0273437 32.6894 -0.0273437 37.543 0.314453 39.7851C1.47656 47.373 4.78516 54.0859 9.9668 59.3769C12.8652 62.3437 15.6406 64.3945 19.1133 66.1445C27.8223 70.5605 37.9394 71.1894 46.9902 67.8672C50.1484 66.7187 54.1406 64.4766 56.7793 62.3848C58.2012 61.2637 60.9766 58.5019 62.1387 57.0801C68.8789 48.7949 71.4492 37.8164 69.125 27.3437C68.5781 24.9238 68.3594 24.3086 67.8535 23.8027C67.4297 23.3789 67.3476 23.3516 66.6504 23.4062C65.7891 23.4746 65.3105 23.8301 65.0781 24.541C64.9551 24.9101 65.0098 25.293 65.4062 26.8379C66.1445 29.6953 66.4453 32.0332 66.4453 35C66.4316 39.9629 65.5156 44.1328 63.4375 48.4941C61.0723 53.4707 57.4492 57.7637 52.9785 60.8672C47.6601 64.5723 41.5898 66.4727 35.0684 66.4727C32.416 66.4727 31.1855 66.3633 28.7793 65.8848C19.2227 63.9707 10.9512 57.6133 6.71289 48.8906C3.70508 42.6973 2.77539 35.9434 4.0332 29.2578C4.97656 24.1582 7.23242 19.25 10.459 15.2578C11.5527 13.8906 13.959 11.4707 15.2305 10.4453C17.8418 8.33983 21.7793 6.20702 24.9785 5.15429C28.8066 3.89647 31.7324 3.48632 35.9297 3.59569C38.8691 3.66405 40.7422 3.93749 43.4492 4.6621C44.7754 5.01757 45.0625 5.05858 45.459 4.92186C46.1973 4.67577 46.6211 4.07421 46.6211 3.2539C46.6211 2.666 46.5664 2.51561 46.1699 2.11913C45.8828 1.83202 45.4453 1.5996 44.9121 1.43554C43.5859 1.05272 41.2891 0.560535 39.7578 0.328114C38.4043 0.136707 33.5371 -0.0273552 32.2656 0.0820198Z" fill="#54E0DB"/>
<path d="M56.6562 3.95117C56.3691 4.16992 53.8125 6.67188 50.9687 9.51563C46.6348 13.877 45.8008 14.7793 45.6777 15.2441C45.5957 15.5586 45.5273 17.0762 45.5273 18.8672V21.9297L39.5254 27.959C34.2754 33.209 33.5098 34.043 33.4277 34.4805C33.291 35.1777 33.4277 35.6426 33.8926 36.1074C34.3574 36.5723 34.8223 36.709 35.5195 36.5723C35.957 36.4902 36.7773 35.7246 42.041 30.4746L48.0703 24.4727H51.1328C52.9238 24.4727 54.4414 24.4043 54.7559 24.3223C55.2207 24.1992 56.123 23.3652 60.4844 19.0313C63.3281 16.1875 65.8301 13.6309 66.0488 13.3438C66.5 12.7285 66.5684 11.9902 66.2402 11.3477C65.8848 10.6504 65.6523 10.5957 62.4805 10.5273L59.541 10.459L59.4727 7.51953C59.4043 4.34766 59.3496 4.11523 58.6523 3.75977C58.0098 3.43164 57.2715 3.5 56.6562 3.95117ZM56.3008 13.0977C56.6836 13.7676 57.2168 13.9453 58.9258 13.9453H60.498L57.0117 17.4316L53.5254 20.918H51.3105H49.082V18.7031V16.4746L52.541 13.0156L55.9863 9.57031L56.0547 11.1699C56.0957 12.127 56.1914 12.9063 56.3008 13.0977Z" fill="#54E0DB"/>
<path d="M31.5137 10.7461C22.4219 12.1543 15.0391 18.3203 12.0449 26.9609C9.93945 33.0723 10.3496 39.7715 13.207 45.5957C18.5117 56.4785 31.1035 61.8242 42.6563 58.1055C44.4063 57.5449 47.0859 56.2324 48.6719 55.166C54.0313 51.584 57.7773 45.9648 59.0762 39.5801C59.3633 38.1309 59.582 33.9473 59.418 33.0312C59.2129 31.9375 58.0508 31.2266 57.1211 31.623C56.875 31.7324 56.5195 31.9785 56.3418 32.1836C56.0137 32.5254 56 32.6074 55.9863 34.9727C55.959 36.791 55.8906 37.7344 55.6719 38.7871C53.9492 47.2363 47.7559 53.5254 39.293 55.3984C38.1582 55.6445 37.502 55.6992 35.1367 55.6992C32.7441 55.6992 32.1426 55.6582 30.9941 55.3984C26.7012 54.4414 23.3652 52.6367 20.3574 49.6289C17.3359 46.6211 15.3945 42.9844 14.5332 38.7324C14.1641 36.9004 14.2051 32.5391 14.6016 30.7207C15.0391 28.7656 15.627 27.0977 16.4883 25.4023C19.4688 19.6055 24.7188 15.6543 31.2129 14.3281C32.2656 14.1094 33.209 14.041 35.0547 14.0137L37.502 14L37.9531 13.4941C38.5273 12.8789 38.582 12.168 38.1035 11.4707C37.5566 10.6504 37.1191 10.5273 34.7949 10.541C33.6738 10.5547 32.1973 10.6367 31.5137 10.7461Z" fill="#54E0DB"/>
<path d="M33.168 21.0684C28.7246 21.7519 24.7734 24.541 22.7773 28.4238C19.3594 35.082 21.6972 43.2168 28.082 46.9082C30.4746 48.2891 32.8535 48.8769 35.6152 48.7676C37.8711 48.6719 39.2519 48.3301 41.2207 47.373C45.8008 45.1445 48.9043 40.4414 48.9863 35.5879C49.0137 34.2207 49 34.1934 48.6172 33.7832C47.6191 32.7305 46.0469 33.0996 45.664 34.4668C45.582 34.7266 45.5273 35.2461 45.5273 35.6289C45.5273 36.5859 45.0762 38.2949 44.5019 39.457C43.1758 42.1641 40.6601 44.2285 37.7754 44.9941C36.5039 45.3359 34.248 45.4043 33.0176 45.1309C29.1074 44.2832 26.0312 41.3574 24.9922 37.4883C24.6094 36.0391 24.6094 33.7012 24.9922 32.2519C25.9765 28.5605 28.9023 25.6758 32.5937 24.7461C33.1953 24.5957 33.9883 24.4727 34.3711 24.4727C35.7519 24.4727 36.5039 24.0488 36.7637 23.1328C36.9414 22.5449 36.7363 21.875 36.2305 21.3965C35.8613 21.041 35.6972 20.9863 34.8906 20.9727C34.3847 20.9453 33.6055 21 33.168 21.0684Z" fill="#54E0DB"/>
</g>
<defs>
<clipPath id="clip0_368_148">
<rect width="70" height="70" fill="white"/>
</clipPath>
</defs>
</svg>
