<svg viewBox="0 0 221 220" fill="none" xmlns="http://www.w3.org/2000/svg">
      <g class="will-change-rotate">
        <path d="M110.475 200.8C111.822 200.8 112.968 200.973 113.915 201.32C114.862 201.68 115.582 202.207 116.075 202.9C116.568 203.607 116.815 204.48 116.815 205.52V205.64H113.815V205.28C113.815 204.867 113.728 204.533 113.555 204.28C113.368 204.027 113.035 203.84 112.555 203.72C112.075 203.6 111.382 203.54 110.475 203.54C109.675 203.54 109.062 203.58 108.635 203.66C108.208 203.753 107.915 203.893 107.755 204.08C107.595 204.267 107.515 204.507 107.515 204.8C107.515 205.213 107.655 205.513 107.935 205.7C108.202 205.887 108.675 206.04 109.355 206.16L113.115 206.7C113.915 206.833 114.602 207.053 115.175 207.36C115.735 207.667 116.168 208.073 116.475 208.58C116.782 209.1 116.935 209.727 116.935 210.46C116.935 210.967 116.828 211.467 116.615 211.96C116.388 212.453 116.035 212.893 115.555 213.28C115.075 213.68 114.448 214 113.675 214.24C112.888 214.48 111.928 214.6 110.795 214.6C109.422 214.6 108.295 214.4 107.415 214C106.522 213.613 105.855 213.06 105.415 212.34C104.975 211.633 104.755 210.813 104.755 209.88V209.76H107.775V210.04C107.775 210.467 107.868 210.813 108.055 211.08C108.228 211.347 108.555 211.54 109.035 211.66C109.515 211.793 110.202 211.86 111.095 211.86C111.815 211.86 112.382 211.813 112.795 211.72C113.195 211.627 113.482 211.487 113.655 211.3C113.828 211.113 113.915 210.873 113.915 210.58C113.915 210.327 113.862 210.113 113.755 209.94C113.648 209.78 113.482 209.653 113.255 209.56C113.028 209.467 112.728 209.387 112.355 209.32L108.595 208.72C107.595 208.56 106.802 208.3 106.215 207.94C105.615 207.58 105.182 207.14 104.915 206.62C104.648 206.113 104.515 205.553 104.515 204.94C104.515 204.22 104.715 203.54 105.115 202.9C105.515 202.273 106.155 201.767 107.035 201.38C107.915 200.993 109.062 200.8 110.475 200.8Z" fill="white" fill-opacity="0.75" class="will-change-opacity"/>
        <path d="M86.834 197.796C88.2649 198.118 89.422 198.664 90.3054 199.435C91.1718 200.215 91.7351 201.159 91.9954 202.266C92.2386 203.382 92.1474 204.607 91.7218 205.941C91.2962 207.275 90.6477 208.368 89.7763 209.22C88.8878 210.082 87.8381 210.663 86.6272 210.962C85.3993 211.271 84.0699 211.265 82.639 210.943C81.2731 210.636 80.1627 210.161 79.3079 209.519C78.44 208.875 77.8565 208.104 77.5574 207.206C77.2583 206.308 77.2831 205.313 77.6316 204.221L77.7228 203.935L80.9814 204.668L80.8902 204.954C80.6227 205.792 80.6907 206.475 81.0944 207.001C81.485 207.525 82.2722 207.92 83.4559 208.186C84.4055 208.4 85.2135 208.445 85.8799 208.323C86.5293 208.21 87.0732 207.904 87.5117 207.404C87.9462 206.916 88.3154 206.196 88.6194 205.243C88.9193 204.303 89.0284 203.524 88.9465 202.907C88.8647 202.289 88.5782 201.789 88.0869 201.407C87.5785 201.033 86.8495 200.74 85.8999 200.526C84.7162 200.26 83.7993 200.272 83.1493 200.561C82.4863 200.847 82.021 201.41 81.7535 202.248L81.6623 202.534L78.4038 201.801L78.495 201.515C78.8395 200.435 79.4106 199.563 80.2082 198.899C81.0018 198.247 81.9663 197.824 83.1016 197.63C84.224 197.433 85.4681 197.489 86.834 197.796Z" fill="white" fill-opacity="0.75" class="will-change-opacity"/>
        <path d="M68.6519 190.046L71.3387 191.38L63.8713 202.507L57.2438 199.215C56.2526 198.723 55.4999 198.172 54.9856 197.562C54.4639 196.963 54.1911 196.326 54.1672 195.65C54.1433 194.974 54.3692 194.281 54.8447 193.573C55.2534 192.964 55.728 192.506 56.2685 192.199C56.8091 191.891 57.4193 191.729 58.0991 191.713C58.7716 191.707 59.5063 191.858 60.3032 192.165L60.3923 192.033C59.9441 191.633 59.6778 191.235 59.5934 190.839C59.509 190.442 59.4834 189.994 59.5166 189.494L59.7852 185.642L62.902 187.19L62.6106 190.898C62.5846 191.269 62.6055 191.582 62.6731 191.837C62.7408 192.092 62.8957 192.324 63.1377 192.533C63.3603 192.746 63.7045 192.969 64.1702 193.2L65.9435 194.081L68.6519 190.046ZM62.6891 198.93L64.6841 195.958L60.7613 194.009C60.1284 193.695 59.5958 193.563 59.1635 193.614C58.7238 193.676 58.3071 194.001 57.9133 194.588C57.5418 195.141 57.4347 195.597 57.592 195.956C57.742 196.326 58.1334 196.668 58.7663 196.982L62.6891 198.93Z" fill="white" fill-opacity="0.75" class="will-change-opacity"/>
        <path d="M47.6809 173.817C48.7826 174.785 49.5338 175.815 49.9344 176.906C50.315 177.997 50.3401 179.076 50.0095 180.14C49.659 181.205 48.9579 182.2 47.9062 183.124C46.8546 184.048 45.7278 184.66 44.5259 184.959C43.304 185.258 42.0771 185.236 40.8452 184.893C39.5932 184.55 38.4164 183.894 37.3146 182.926C36.1729 181.923 35.4117 180.875 35.0311 179.784C34.6405 178.701 34.6154 177.623 34.9559 176.55C35.2865 175.485 35.9776 174.49 37.0292 173.566C38.0808 172.642 39.2176 172.03 40.4395 171.731C41.6514 171.44 42.8784 171.462 44.1203 171.797C45.3522 172.14 46.5391 172.813 47.6809 173.817ZM45.5175 175.718C44.7763 175.066 44.0903 174.631 43.4593 174.411C42.8083 174.191 42.1622 174.186 41.5212 174.398C40.8702 174.6 40.1741 175.027 39.433 175.678C38.6818 176.338 38.196 176.95 37.9757 177.513C37.7353 178.077 37.7453 178.64 38.0057 179.203C38.2461 179.766 38.7369 180.374 39.478 181.025C40.2092 181.668 40.8953 182.094 41.5363 182.306C42.1672 182.526 42.8032 182.53 43.4442 182.319C44.0752 182.116 44.7663 181.685 45.5175 181.025C46.2587 180.374 46.7494 179.766 46.9898 179.203C47.2302 178.64 47.2302 178.077 46.9898 177.513C46.7394 176.959 46.2486 176.36 45.5175 175.718Z" fill="white" fill-opacity="0.75" class="will-change-opacity"/>
        <path d="M34.5696 156.557L36.221 159.061L24.2622 165.107L22.6108 162.602L34.5696 156.557ZM30.1767 149.895L35.7586 158.36L33.349 159.578L27.7671 151.113L30.1767 149.895Z" fill="white" fill-opacity="0.75" class="will-change-opacity"/>
        <path d="M24.682 135.169L25.5622 138.037L12.5145 141.089L11.6343 138.221L24.682 135.169ZM22.3407 127.54L25.3157 137.234L22.6867 137.849L19.7117 128.155L22.3407 127.54Z" fill="white" fill-opacity="0.75" class="will-change-opacity"/>
        <path d="M24.4908 86.12C24.0653 87.5097 23.4829 88.6166 22.7436 89.4407C22.0043 90.2649 21.1406 90.8139 20.1524 91.0877C19.1642 91.3616 18.0859 91.3615 16.9176 91.0876L9.32356 89.3069L10.2019 86.4383L17.5817 88.1688C18.3216 88.3423 18.95 88.3803 19.4668 88.2829C19.9745 88.1697 20.4019 87.8873 20.7488 87.4357C21.0867 86.9684 21.3864 86.3076 21.648 85.4534C21.9173 84.5737 22.0372 83.8639 22.0077 83.3241C21.9653 82.7812 21.7546 82.3561 21.3757 82.0486C20.9838 81.7381 20.4179 81.496 19.6779 81.3225L12.2981 79.5921L13.1764 76.7235L20.7704 78.5042C21.9387 78.7782 22.8726 79.2499 23.5719 79.9195C24.2713 80.5891 24.7056 81.4425 24.875 82.4797C25.0483 83.5042 24.9202 84.7176 24.4908 86.12Z" fill="white" fill-opacity="0.75" class="will-change-opacity"/>
        <path d="M30.9439 62.2528L27.668 67.2318L25.2594 66.0116L28.3595 61.3C28.8212 60.5982 29.0275 60.0196 28.9783 59.564C28.9246 59.0912 28.5231 58.665 27.7738 58.2854C27.0483 57.9178 26.4388 57.8318 25.9454 58.0274C25.4593 58.2118 24.9854 58.6549 24.5237 59.3566L21.4236 64.0683L19.0151 62.8481L22.291 57.8691C22.8626 57.0003 23.5298 56.3358 24.2924 55.8757C25.0432 55.4095 25.8533 55.1664 26.7228 55.1465C27.5996 55.1155 28.4959 55.332 29.4118 55.7959C30.3276 56.2599 30.9953 56.8358 31.415 57.5237C31.8301 58.1944 32.0012 58.9346 31.9284 59.7442C31.8437 60.5478 31.5155 61.384 30.9439 62.2528ZM32.0459 67.2666L30.3969 69.7727L18.4434 63.7169L20.0924 61.2107L32.0459 67.2666Z" fill="white" fill-opacity="0.75" class="will-change-opacity"/>
        <path d="M67.0328 25.5174L60.3135 28.7581L58.8466 26.6357L65.5659 23.395L67.0328 25.5174Z" fill="white" fill-opacity="0.75" class="will-change-opacity"/>
        <path d="M110.973 19.2C109.627 19.2 108.48 19.0267 107.533 18.68C106.586 18.32 105.867 17.7933 105.373 17.1C104.88 16.3933 104.633 15.52 104.633 14.48V14.36H107.633V14.72C107.633 15.1333 107.72 15.4667 107.893 15.72C108.08 15.9733 108.413 16.16 108.893 16.28C109.373 16.4 110.067 16.46 110.973 16.46C111.773 16.46 112.387 16.42 112.813 16.34C113.24 16.2467 113.533 16.1067 113.693 15.92C113.853 15.7333 113.933 15.4933 113.933 15.2C113.933 14.7867 113.793 14.4867 113.513 14.3C113.247 14.1133 112.773 13.96 112.093 13.84L108.333 13.3C107.533 13.1667 106.847 12.9467 106.273 12.64C105.713 12.3333 105.28 11.9267 104.973 11.42C104.667 10.9 104.513 10.2733 104.513 9.53999C104.513 9.03333 104.62 8.53333 104.833 8.03999C105.06 7.54666 105.413 7.10666 105.893 6.71999C106.373 6.31999 107 5.99999 107.773 5.75999C108.56 5.51999 109.52 5.39999 110.653 5.39999C112.027 5.39999 113.153 5.59999 114.033 5.99999C114.926 6.38666 115.593 6.93999 116.033 7.65999C116.473 8.36666 116.693 9.18666 116.693 10.12V10.24H113.673V9.95999C113.673 9.53333 113.58 9.18666 113.393 8.91999C113.22 8.65333 112.893 8.45999 112.413 8.33999C111.933 8.20666 111.246 8.13999 110.353 8.13999C109.633 8.13999 109.067 8.18666 108.653 8.27999C108.253 8.37333 107.967 8.51333 107.793 8.69999C107.62 8.88666 107.533 9.12666 107.533 9.41999C107.533 9.67333 107.587 9.88666 107.693 10.06C107.8 10.22 107.967 10.3467 108.193 10.44C108.42 10.5333 108.72 10.6133 109.093 10.68L112.853 11.28C113.853 11.44 114.647 11.7 115.233 12.06C115.833 12.42 116.266 12.86 116.533 13.38C116.8 13.8867 116.933 14.4467 116.933 15.06C116.933 15.78 116.733 16.46 116.333 17.1C115.933 17.7267 115.293 18.2333 114.413 18.62C113.533 19.0067 112.387 19.2 110.973 19.2Z" fill="white" fill-opacity="0.75" class="will-change-opacity"/>
        <path d="M134.614 22.2041C133.183 21.8821 132.026 21.3359 131.143 20.5653C130.276 19.7849 129.713 18.8413 129.453 17.7344C129.209 16.6178 129.301 15.3926 129.726 14.0589C130.152 12.7251 130.8 11.6321 131.672 10.7799C132.56 9.9179 133.61 9.33723 134.821 9.03788C136.049 8.72876 137.378 8.73518 138.809 9.05715C140.175 9.36447 141.285 9.83895 142.14 10.4806C143.008 11.1251 143.592 11.8963 143.891 12.7941C144.19 13.6918 144.165 14.6869 143.816 15.7793L143.725 16.0651L140.467 15.3319L140.558 15.0461C140.825 14.2078 140.757 13.5254 140.354 12.9989C139.963 12.4753 139.176 12.0804 137.992 11.814C137.043 11.6004 136.235 11.5547 135.568 11.677C134.919 11.7896 134.375 12.0961 133.936 12.5964C133.502 13.0841 133.133 13.8043 132.829 14.7569C132.529 15.6969 132.42 16.4756 132.502 17.0931C132.583 17.7105 132.87 18.2106 133.361 18.5935C133.87 18.9665 134.599 19.2599 135.548 19.4735C136.732 19.7399 137.649 19.7284 138.299 19.439C138.962 19.1525 139.427 18.5901 139.695 17.7517L139.786 17.4659L143.044 18.1991L142.953 18.4849C142.609 19.5646 142.038 20.4368 141.24 21.1014C140.446 21.7533 139.482 22.1762 138.346 22.37C137.224 22.5667 135.98 22.5114 134.614 22.2041Z" fill="white" fill-opacity="0.75" class="will-change-opacity"/>
        <path d="M152.796 29.9543L150.109 28.6198L157.577 17.4934L164.204 20.7851C165.195 21.2774 165.948 21.8283 166.462 22.4381C166.984 23.0367 167.257 23.6741 167.281 24.3502C167.305 25.0263 167.079 25.7187 166.603 26.4272C166.195 27.0361 165.72 27.4942 165.18 27.8014C164.639 28.1087 164.029 28.2706 163.349 28.2872C162.676 28.2927 161.942 28.1419 161.145 27.8346L161.056 27.9675C161.504 28.3672 161.77 28.7652 161.855 29.1614C161.939 29.5576 161.965 30.0058 161.931 30.5059L161.663 34.3581L158.546 32.8101L158.837 29.1021C158.863 28.7312 158.843 28.4182 158.775 28.1632C158.707 27.9082 158.552 27.6763 158.31 27.4675C158.088 27.2536 157.744 27.031 157.278 26.7997L155.505 25.9189L152.796 29.9543ZM158.759 21.0697L156.764 24.0423L160.687 25.9907C161.32 26.305 161.852 26.4367 162.285 26.3857C162.724 26.3236 163.141 25.9992 163.535 25.4124C163.906 24.8589 164.013 24.4028 163.856 24.0442C163.706 23.6745 163.315 23.3324 162.682 23.0181L158.759 21.0697Z" fill="white" fill-opacity="0.75" class="will-change-opacity"/>
        <path d="M173.767 46.1833C172.666 45.2151 171.914 44.1854 171.514 43.094C171.133 42.0026 171.108 40.9245 171.439 39.8595C171.789 38.7946 172.49 37.8 173.542 36.8759C174.594 35.9517 175.72 35.34 176.922 35.0408C178.144 34.7415 179.371 34.7635 180.603 35.1068C181.855 35.45 183.032 36.1057 184.133 37.0739C185.275 38.0772 186.036 39.1246 186.417 40.216C186.808 41.2985 186.833 42.3767 186.492 43.4505C186.162 44.5154 185.471 45.51 184.419 46.4341C183.367 47.3583 182.23 47.97 181.009 48.2692C179.797 48.5597 178.57 48.5377 177.328 48.2032C176.096 47.8599 174.909 47.1866 173.767 46.1833ZM175.931 44.2822C176.672 44.9335 177.358 45.3692 177.989 45.5892C178.64 45.8092 179.286 45.8136 179.927 45.6024C180.578 45.4 181.274 44.9731 182.015 44.3218C182.766 43.6617 183.252 43.05 183.472 42.4867C183.713 41.9234 183.703 41.3602 183.442 40.7969C183.202 40.2336 182.711 39.6263 181.97 38.975C181.239 38.3325 180.553 37.9056 179.912 37.6944C179.281 37.4744 178.645 37.47 178.004 37.6812C177.373 37.8836 176.682 38.3149 175.931 38.975C175.189 39.6263 174.699 40.2336 174.458 40.7969C174.218 41.3601 174.218 41.9234 174.458 42.4867C174.709 43.0412 175.199 43.6397 175.931 44.2822Z" fill="white" fill-opacity="0.75" class="will-change-opacity"/>
        <path d="M186.879 63.4434L185.227 60.9389L197.186 54.8935L198.837 57.398L186.879 63.4434ZM191.271 70.1055L185.689 61.6401L188.099 60.422L193.681 68.8874L191.271 70.1055Z" fill="white" fill-opacity="0.75" class="will-change-opacity"/>
        <path d="M196.766 84.8314L195.886 81.9634L208.934 78.9111L209.814 81.7791L196.766 84.8314ZM199.107 92.4602L196.132 82.7665L198.761 82.1515L201.736 91.8452L199.107 92.4602Z" fill="white" fill-opacity="0.75" class="will-change-opacity"/>
        <path d="M196.957 133.88C197.383 132.49 197.965 131.383 198.704 130.559C199.444 129.735 200.307 129.186 201.296 128.912C202.284 128.638 203.362 128.638 204.53 128.912L212.124 130.693L211.246 133.562L203.866 131.831C203.126 131.658 202.498 131.62 201.981 131.717C201.474 131.83 201.046 132.113 200.699 132.564C200.361 133.032 200.062 133.692 199.8 134.547C199.531 135.426 199.411 136.136 199.44 136.676C199.483 137.219 199.693 137.644 200.072 137.951C200.464 138.262 201.03 138.504 201.77 138.677L209.15 140.408L208.272 143.276L200.678 141.496C199.509 141.222 198.575 140.75 197.876 140.08C197.177 139.411 196.742 138.558 196.573 137.52C196.4 136.496 196.528 135.282 196.957 133.88Z" fill="white" fill-opacity="0.75" class="will-change-opacity"/>
        <path d="M190.504 157.747L193.78 152.768L196.189 153.988L193.089 158.7C192.627 159.402 192.421 159.98 192.47 160.436C192.523 160.909 192.925 161.335 193.674 161.715C194.4 162.082 195.009 162.168 195.503 161.973C195.989 161.788 196.463 161.345 196.924 160.643L200.024 155.932L202.433 157.152L199.157 162.131C198.585 163 197.918 163.664 197.156 164.124C196.405 164.591 195.595 164.834 194.725 164.853C193.848 164.884 192.952 164.668 192.036 164.204C191.12 163.74 190.453 163.164 190.033 162.476C189.618 161.806 189.447 161.065 189.52 160.256C189.604 159.452 189.933 158.616 190.504 157.747ZM189.402 152.733L191.051 150.227L203.005 156.283L201.356 158.789L189.402 152.733Z" fill="white" fill-opacity="0.75" class="will-change-opacity"/>
        <path d="M154.415 194.483L161.135 191.242L162.602 193.364L155.882 196.605L154.415 194.483Z" fill="white" fill-opacity="0.75" class="will-change-opacity"/>
      </g>
      <circle cx="110.5" cy="109.5" r="57.5" fill="#54E0DB"/>
      <g class="will-change-scale">
        <path d="M80 109.825C80 92.8007 93.8007 79 110.825 79C127.849 79 141.649 92.8007 141.649 109.825C141.649 126.849 127.849 140.649 110.825 140.649C93.8007 140.649 80 126.849 80 109.825Z" fill="black"/>

        <path d="M111.766 98.4008C111.563 98.1977 111.287 98.0836 111 98.0836C110.713 98.0836 110.437 98.1977 110.234 98.4008L103.734 104.901C103.537 105.105 103.428 105.379 103.43 105.663C103.432 105.947 103.546 106.219 103.747 106.419C103.948 106.62 104.22 106.734 104.504 106.737C104.788 106.739 105.062 106.63 105.266 106.433L109.917 101.782V120.833C109.917 121.121 110.031 121.396 110.234 121.599C110.437 121.803 110.713 121.917 111 121.917C111.287 121.917 111.563 121.803 111.766 121.599C111.969 121.396 112.083 121.121 112.083 120.833V101.782L116.734 106.433C116.938 106.63 117.212 106.739 117.496 106.737C117.78 106.734 118.052 106.62 118.253 106.419C118.454 106.219 118.568 105.947 118.57 105.663C118.572 105.379 118.463 105.105 118.266 104.901L111.766 98.4008Z" stroke-width="2" stroke="#54E0DB" fill="#54E0DB"/>
      </g>
</svg>