<svg width="70" height="70" viewBox="0 0 70 70" fill="none" xmlns="http://www.w3.org/2000/svg">
<path d="M34.1523 2.72071L33.7012 3.11719V8.10743V13.0977L34.0293 13.4531C34.6309 14.0957 35.5605 14.0547 36.1211 13.3438C36.3398 13.084 36.3672 12.5918 36.3672 8.09375V3.11719L35.9707 2.72071C35.4238 2.17383 34.7539 2.17383 34.1523 2.72071Z" fill="#54E0DB"/>
<path d="M10.4043 12.5371C10.0078 12.9062 9.92577 13.125 9.96678 13.7949C9.98045 14.1914 14.7109 19.0312 15.3262 19.291C16.1875 19.6328 17.0898 18.9902 17.0898 18.0195C17.0898 17.4453 17.0488 17.4043 14.4512 14.8066C11.9765 12.332 11.7851 12.168 11.3066 12.168C10.9512 12.168 10.6914 12.2773 10.4043 12.5371Z" fill="#54E0DB"/>
<path d="M58.0371 12.4277C57.3125 12.8789 53.0742 17.2676 52.9785 17.6641C52.7188 18.7168 53.6074 19.6055 54.6465 19.3457C55.0293 19.25 59.0762 15.3809 59.7598 14.4375C60.3477 13.6445 60.2246 12.7559 59.459 12.3594C58.9395 12.0996 58.5293 12.1133 58.0371 12.4277Z" fill="#54E0DB"/>
<path d="M34.166 16.2422C33.0449 17.2402 34.2344 19.0312 35.5879 18.3887C36.4629 17.9785 36.6406 16.9121 35.9434 16.2559C35.3828 15.7227 34.7539 15.7227 34.166 16.2422Z" fill="#54E0DB"/>
<path d="M17.336 22.2852C16.7344 22.4629 16.0508 22.9414 15.6953 23.4199C14.8477 24.541 7.72462 35.6426 7.57423 36.0801C7.47853 36.3535 7.3965 36.791 7.38283 37.0645C7.36915 38.3223 7.13673 38.0352 20.2754 52.7734C27.125 60.4707 32.9902 66.9512 33.291 67.1563C33.9746 67.6348 35.0137 67.7852 35.9024 67.5391C36.3672 67.4023 36.7774 67.1289 37.3379 66.5957C38.8281 65.1602 62.0977 38.8965 62.3164 38.418C62.6035 37.748 62.6719 36.9414 62.4942 36.2852C62.3574 35.752 54.7422 23.8301 54.0996 23.1191C53.9356 22.9414 53.4981 22.6543 53.1152 22.4766L52.4317 22.1484L35.0684 22.1621C25.5254 22.1621 17.541 22.2168 17.336 22.2852ZM31.8008 26.0039C28.4238 31.2402 26.209 34.6582 26.1817 34.6992C26.1543 34.7266 20.2207 25.6211 19.9063 25.0469C19.8242 24.9238 21.1231 24.8828 26.168 24.8828H32.5391L31.8008 26.0039ZM50.1758 24.9512C50.1758 25.0469 44.1738 34.3438 43.9824 34.5488C43.8594 34.6719 43.2988 33.9199 41.6445 31.3359C40.4414 29.4766 39.0059 27.2617 38.459 26.4141L37.4609 24.8828H43.8184C47.3184 24.8828 50.1758 24.9102 50.1758 24.9512ZM20.4942 31.0352L23.6387 35.8887L20.4258 35.9297C18.6621 35.9434 15.7774 35.9434 14.0137 35.9297L10.8145 35.8887L13.9863 31.0078C15.7363 28.3145 17.1992 26.127 17.2539 26.1543C17.3086 26.168 18.7578 28.3691 20.4942 31.0352ZM55.8496 30.7207C57.4902 33.2637 58.9258 35.4785 59.0352 35.6426L59.2266 35.957H52.8418C48.166 35.957 46.4707 35.916 46.5117 35.8066C46.6074 35.5332 52.7051 26.1133 52.7871 26.1133C52.8281 26.1133 54.209 28.1914 55.8496 30.7207ZM38.1992 31.0352C39.8945 33.6738 41.2891 35.8613 41.2891 35.8887C41.2891 35.9297 38.459 35.957 35 35.957C31.541 35.957 28.7109 35.9297 28.7109 35.8887C28.7109 35.752 34.9043 26.25 35 26.25C35.0547 26.25 36.4902 28.4102 38.1992 31.0352ZM25.2793 39.1289C25.3477 39.375 26.8926 44.4062 28.7109 50.3125C30.5156 56.2188 32.0879 61.3184 32.2109 61.6602L32.4024 62.2754L32.0879 61.9336C31.6504 61.4688 11.8809 39.2246 11.6348 38.9238C11.457 38.7051 11.8262 38.6914 18.293 38.6914H25.1289L25.2793 39.1289ZM41.9453 38.8555C41.918 38.9512 40.3457 44.0371 38.4727 50.1348C36.5996 56.2461 35.041 61.25 35 61.25C34.959 61.25 33.4004 56.2461 31.5274 50.1348C29.6543 44.0371 28.082 38.9512 28.0547 38.8555C28.0137 38.7324 29.4629 38.6914 35 38.6914C40.5371 38.6914 41.9863 38.7324 41.9453 38.8555ZM58.3652 38.9238C58.1465 39.1973 38.2402 61.5781 37.8438 62.002C37.5977 62.2754 37.584 62.2754 37.7207 61.8652C37.8027 61.6328 39.375 56.5332 41.2207 50.5176C43.0664 44.502 44.6524 39.375 44.7207 39.1289L44.8711 38.6914H51.707C58.1738 38.6914 58.543 38.7051 58.3652 38.9238Z" fill="#54E0DB"/>
<path d="M0.669921 36.1621C-0.0820317 36.5723 -0.164063 37.666 0.492187 38.2949C0.80664 38.582 0.984375 38.6231 2.33789 38.6641C3.1582 38.7051 4.0332 38.6777 4.29297 38.6367C5.42773 38.418 5.86523 37.1465 5.07227 36.3535L4.67578 35.957H2.84375C1.54492 35.9707 0.929687 36.0254 0.669921 36.1621Z" fill="#54E0DB"/>
<path d="M64.9277 36.3535C64.1348 37.1465 64.5723 38.418 65.707 38.6367C65.9668 38.6777 66.8418 38.7051 67.6621 38.6641C69.0156 38.6231 69.1934 38.582 69.5078 38.2949C69.9316 37.8848 70.082 37.2832 69.8633 36.7637C69.5762 36.0938 69.1387 35.957 67.1289 35.957H65.3242L64.9277 36.3535Z" fill="#54E0DB"/>
</svg>
