<svg width="70" height="70" viewBox="0 0 70 70" fill="none" xmlns="http://www.w3.org/2000/svg">
<path d="M34.3301 0.191412C33.6602 0.560552 33.6465 0.697272 33.6328 5.85157C33.6328 11.0879 33.6602 11.2656 34.3848 11.5938C35.082 11.9082 35.8477 11.6895 36.1758 11.0606C36.4355 10.5547 36.4629 1.31251 36.2031 0.751959C35.9023 0.0957087 35 -0.177729 34.3301 0.191412Z" fill="#54E0DB"/>
<path d="M8.44922 10.6094C7.92968 10.8828 7.61523 11.5254 7.72461 12.0723C7.86133 12.7012 13.959 18.7988 14.5879 18.9356C15.4902 19.1133 16.3926 18.2246 16.1875 17.3223C16.1191 16.9941 15.3398 16.1191 13.0703 13.8223C10.3359 11.0606 9.52929 10.377 8.99609 10.3906C8.90039 10.4043 8.65429 10.4863 8.44922 10.6094Z" fill="#54E0DB"/>
<path d="M60.3476 10.6094C60.1152 10.7187 58.5703 12.1816 56.916 13.8496C53.6758 17.1172 53.5117 17.3496 53.9355 18.1699C54.25 18.7852 54.8789 19.0723 55.4941 18.8809C56.2051 18.6758 62.1387 12.7012 62.2617 12.0723C62.3847 11.5117 62.0703 10.8828 61.5234 10.5957C61.0312 10.3359 60.8808 10.3359 60.3476 10.6094Z" fill="#54E0DB"/>
<path d="M32.0059 16.0098C26.209 16.625 19.6055 19.4004 14.2461 23.502C11.334 25.7168 7.99805 28.9434 5.72852 31.7188C4.14258 33.6602 3.55469 34.5488 3.55469 35C3.55469 36.0391 8.09375 41.3027 11.6895 44.4063C14.8066 47.0996 17.623 49 20.9863 50.6543C27.8223 54.0313 34.5898 54.9336 41.5352 53.375C46.5801 52.2402 52.1035 49.4375 56.9434 45.5684C60.7168 42.5469 66.4453 36.1758 66.4453 35C66.4453 33.8242 60.7168 27.4531 56.9434 24.4316C49.0273 18.0879 40.3047 15.1484 32.0059 16.0098ZM37.666 18.7305C45.5137 19.6055 53.7852 24.1992 60.2109 31.2402C62.166 33.373 63.3281 34.8359 63.2734 35.0547C63.1914 35.4375 60.7441 38.2539 58.8574 40.127C55.3438 43.627 51.748 46.252 47.7832 48.207C39.1152 52.4727 30.8848 52.4727 22.2168 48.1934C18.1699 46.1973 14.6973 43.6816 11.1426 40.127C8.99609 37.9941 6.76758 35.3828 6.76758 35C6.76758 34.6172 8.99609 32.0059 11.1426 29.873C14.6973 26.3184 18.1973 23.7754 22.2168 21.8066C27.4805 19.209 32.6895 18.1836 37.666 18.7305Z" fill="#54E0DB"/>
<path d="M32.7989 22.9004C31.3223 23.1738 30.2559 23.6113 29.9824 24.0215C29.6133 24.582 29.709 25.293 30.2285 25.7441C30.7207 26.1953 31.0625 26.1953 32.5391 25.7715C36.8047 24.5547 41.5489 26.7149 43.5313 30.7891C44.9121 33.6055 44.9121 36.3945 43.5313 39.2109C42.2188 41.8906 39.7168 43.8184 36.8184 44.3789C34.6856 44.7891 32.8125 44.5156 30.7617 43.5176C29.6817 42.9981 29.2715 42.6973 28.2871 41.7129C27.3164 40.7422 27.002 40.3184 26.4688 39.2383C25.6074 37.4883 25.375 36.2715 25.4981 34.1113C25.5801 32.457 25.5801 32.457 25.2246 32.1016C24.5137 31.377 23.4063 31.582 23.0098 32.4981C22.6406 33.3184 22.6953 36.627 23.0918 38.0762C24.2949 42.5059 27.7403 45.8691 32.2246 46.9902C33.6328 47.3457 36.6406 47.3047 38.0762 46.9082C42.4102 45.7461 45.7324 42.4102 46.9082 38.0762C47.1543 37.1875 47.209 36.6133 47.209 35C47.209 33.3867 47.1543 32.8125 46.9082 31.9238C45.7324 27.5899 42.3555 24.2129 38.0762 23.1055C36.6406 22.7227 34.2071 22.627 32.7989 22.9004Z" fill="#54E0DB"/>
<path d="M26.1269 26.9883C24.9375 27.6445 25.4433 29.5312 26.7969 29.5312C27.4941 29.5312 28.164 28.8613 28.164 28.1777C28.164 27.1523 27.0293 26.4824 26.1269 26.9883Z" fill="#54E0DB"/>
<path d="M33.7148 29.668C32.8535 29.8867 31.623 30.625 31.0215 31.2676C30.7207 31.5957 30.2695 32.2793 30.0371 32.7852C29.6406 33.6191 29.5996 33.8242 29.5996 35.0137C29.5996 36.2441 29.627 36.3672 30.1055 37.3516C30.7207 38.5957 31.5137 39.3613 32.7852 39.9629C33.6191 40.3594 33.8242 40.4004 35 40.4004C36.1758 40.4004 36.3809 40.3594 37.2148 39.9629C38.4863 39.3613 39.2793 38.5957 39.8945 37.3516C40.373 36.3672 40.4004 36.2441 40.4004 35C40.4004 33.7559 40.373 33.6328 39.8945 32.6484C38.9648 30.7891 37.3242 29.6816 35.3008 29.5859C34.7266 29.5586 34.0156 29.5996 33.7148 29.668ZM36.5039 32.7305C37.3105 33.2637 37.666 33.9473 37.666 35C37.666 36.0664 37.3105 36.7363 36.4629 37.2969C35.6973 37.8027 34.3711 37.8301 33.5918 37.3379C32.5527 36.6953 32.0742 35.4238 32.3887 34.207C32.5801 33.5098 33.4141 32.6074 34.0703 32.416C34.7949 32.1973 35.916 32.334 36.5039 32.7305Z" fill="#54E0DB"/>
<path d="M14.2734 52.582C14.041 52.6914 12.4961 54.1543 10.8418 55.8223C7.60155 59.0898 7.43748 59.3223 7.86131 60.1426C8.17576 60.7578 8.80467 61.0449 9.41991 60.8535C10.1308 60.6484 16.0644 54.6738 16.1875 54.0449C16.3105 53.4844 15.9961 52.8555 15.4492 52.5684C14.957 52.3086 14.8066 52.3086 14.2734 52.582Z" fill="#54E0DB"/>
<path d="M54.5234 52.582C54.0039 52.8555 53.6895 53.498 53.7988 54.0449C53.9355 54.6738 60.0332 60.7715 60.6621 60.9082C61.5645 61.0859 62.4668 60.1973 62.2617 59.2949C62.1934 58.9668 61.4141 58.0918 59.1445 55.7949C56.4102 53.0332 55.6035 52.3496 55.0703 52.3633C54.9746 52.377 54.7285 52.459 54.5234 52.582Z" fill="#54E0DB"/>
<path d="M34.3301 58.4336C33.6602 58.8027 33.6465 58.9395 33.6328 64.0938C33.6328 69.3301 33.6602 69.5078 34.3848 69.8359C35.082 70.1504 35.8477 69.9316 36.1758 69.3027C36.4355 68.7969 36.4629 59.5547 36.2031 58.9941C35.9023 58.3379 35 58.0645 34.3301 58.4336Z" fill="#54E0DB"/>
</svg>
