<svg xmlns="http://www.w3.org/2000/svg" width="30" height="30" fill="none" viewBox="0 0 70 70"><path fill="#54E0DB" d="M35 43.75C37.3206 43.75 39.5462 42.8281 41.1872 41.1872C42.8281 39.5462 43.75 37.3206 43.75 35C43.75 32.6794 42.8281 30.4538 41.1872 28.8128C39.5462 27.1719 37.3206 26.25 35 26.25C32.6794 26.25 30.4538 27.1719 28.8128 28.8128C27.1719 30.4538 26.25 32.6794 26.25 35C26.25 37.3206 27.1719 39.5462 28.8128 41.1872C30.4538 42.8281 32.6794 43.75 35 43.75Z"/><path fill="#54E0DB" fill-rule="evenodd" d="M3.85877 33.3871C8.19877 20.3467 20.4984 10.9375 35.0029 10.9375C49.4988 10.9375 61.7925 20.3379 66.1384 33.3667C66.4884 34.4225 66.4884 35.56 66.1384 36.6129C61.8013 49.6533 49.4988 59.0625 34.9971 59.0625C20.5013 59.0625 8.2046 49.6621 3.86168 36.6333C3.51095 35.5797 3.51095 34.4407 3.86168 33.3871H3.85877ZM50.3125 35C50.3125 39.0611 48.6992 42.9559 45.8276 45.8276C42.9559 48.6992 39.0611 50.3125 35 50.3125C30.9389 50.3125 27.0441 48.6992 24.1724 45.8276C21.3008 42.9559 19.6875 39.0611 19.6875 35C19.6875 30.9389 21.3008 27.0441 24.1724 24.1724C27.0441 21.3008 30.9389 19.6875 35 19.6875C39.0611 19.6875 42.9559 21.3008 45.8276 24.1724C48.6992 27.0441 50.3125 30.9389 50.3125 35Z" clip-rule="evenodd"/></svg>