<svg xmlns="http://www.w3.org/2000/svg" width="100" height="100" fill="none" viewBox="0 0 100 100"><g clip-path="url(#clip0_570_2417)"><g clip-path="url(#clip1_570_2417)"><path fill="#7F4EFF" d="M33.3326 50.0307C33.3164 40.8273 40.7652 33.351 49.9668 33.3349C59.1702 33.317 66.6479 40.7625 66.6659 49.9676C66.6836 59.1727 59.2348 66.6473 50.0299 66.6652C40.8283 66.6828 33.3504 59.2358 33.3326 50.0307ZM24.3271 50.0486C24.3547 64.2287 35.8713 75.6985 50.0479 75.6707C64.226 75.6434 75.7022 64.1299 75.6747 49.9498C75.6471 35.7746 64.1289 24.2982 49.949 24.326C35.7723 24.3535 24.2996 35.8717 24.3271 50.0486ZM70.6366 23.2728C70.643 26.5842 73.3352 29.2654 76.6467 29.259C79.9594 29.2523 82.6407 26.5615 82.6358 23.2502C82.6294 19.9388 79.937 17.256 76.6241 17.2627C73.3112 17.2691 70.6301 19.9615 70.6366 23.2728ZM29.8756 90.7338C25.0009 90.5217 22.3539 89.7116 20.5898 89.0328C18.2537 88.1289 16.5867 87.0452 14.8322 85.3037C13.081 83.5555 11.9939 81.8934 11.0818 79.5621C10.3966 77.7979 9.57202 75.1541 9.3435 70.2795C9.09565 65.0094 9.03901 63.4283 9.01479 50.0777C8.98881 36.7305 9.03745 35.1492 9.26752 29.8744C9.47631 25.0031 10.2914 22.3525 10.9685 20.59C11.8724 18.2507 12.9531 16.5869 14.6978 14.8326C16.4457 13.0781 18.1078 11.9943 20.4406 11.0822C22.2033 10.3935 24.847 9.57535 29.7201 9.3439C34.9932 9.09429 36.5727 9.04098 49.9199 9.015C63.2702 8.98902 64.8512 9.03609 70.1262 9.26773C74.9973 9.47984 77.6477 10.2867 79.4089 10.9687C81.7464 11.8726 83.4134 12.9502 85.1663 14.698C86.919 16.4461 88.0061 18.1048 88.9182 20.4427C89.6065 22.2004 90.4249 24.8474 90.655 29.7189C90.9059 34.992 90.9628 36.5732 90.987 49.9205C91.0128 63.2711 90.9641 64.8524 90.7327 70.124C90.5204 74.9985 89.712 77.6475 89.0317 79.4131C88.1276 81.7477 87.0471 83.4147 85.3007 85.1692C83.5544 86.917 81.8923 88.0073 79.5579 88.9194C77.7983 89.6063 75.1514 90.426 70.2817 90.6576C65.0086 90.9055 63.4289 90.9623 50.077 90.9866C36.7297 91.0125 35.1504 90.9623 29.8756 90.7338ZM29.2924 0.346241C23.9722 0.597413 20.3386 1.44937 17.1632 2.6937C13.8763 3.97515 11.09 5.69234 8.31831 8.47554C5.5431 11.2603 3.8388 14.0515 2.56712 17.3418C1.33607 20.5252 0.50169 24.1605 0.266728 29.484C0.0335248 34.8172 -0.0199909 36.5182 0.00598571 50.0955C0.0319623 63.6713 0.091728 65.3756 0.346025 70.7104C0.600323 76.0289 1.44935 79.661 2.69349 82.8377C3.9765 86.1248 5.69213 88.9098 8.4769 91.6832C11.2601 94.4567 14.0531 96.1594 17.3449 97.4329C20.525 98.6621 24.1617 99.4998 29.4836 99.733C34.8166 99.968 36.5191 100.02 50.0932 99.994C63.6737 99.968 65.3764 99.9081 70.7094 99.6553C76.0295 99.401 79.6598 98.5491 82.8383 97.3079C86.1253 96.0217 88.9116 94.3092 91.6837 91.5245C94.4554 88.7411 96.1597 85.9483 97.4313 82.6565C98.6626 79.4764 99.5001 75.8393 99.7315 70.5209C99.9649 65.1844 100.02 63.4801 99.994 49.9043C99.9681 36.3269 99.9067 34.626 99.654 29.2945C99.4013 23.9711 98.5491 20.3406 97.3065 17.1621C96.022 13.8752 94.3081 11.0918 91.5249 8.31676C88.7417 5.54488 85.9487 3.83726 82.6569 2.5689C79.4753 1.33765 75.8399 0.498584 70.5182 0.268506C65.185 0.0319825 63.4825 -0.0197754 49.9035 0.00600588C36.3279 0.0319825 34.6254 0.0901857 29.2924 0.346241Z"/></g></g><defs><clipPath id="clip0_570_2417"><rect width="100" height="100" fill="#fff"/></clipPath><clipPath id="clip1_570_2417"><rect width="100" height="100" fill="#fff"/></clipPath></defs></svg>