<svg width="100" height="100" viewBox="0 0 100 100" fill="none" xmlns="http://www.w3.org/2000/svg">
<g clip-path="url(#clip0_570_2410)">
<g clip-path="url(#clip1_570_2410)">
<path fill-rule="evenodd" clip-rule="evenodd" d="M33.9961 31.8101H54.284V42.3404H54.5788C57.4045 37.2086 64.3135 31.8101 74.6158 31.8101C96.039 31.8101 100 45.3096 100 62.8708V100H78.8434L78.8402 66.9324C78.8402 59.3712 78.6866 49.6412 67.8386 49.6412C56.8243 49.6412 55.1339 57.8692 55.1339 66.383V100H33.9961V31.8101ZM22.0065 11.14C22.0065 17.288 17.0765 22.2801 11.0048 22.2801C4.93006 22.2801 0 17.288 0 11.14C0 4.98888 4.93006 0 11.0048 0C17.0765 0 22.0065 4.98888 22.0065 11.14ZM0 31.8101H22.0065V100H0V31.8101Z" fill="#7F4EFF"/>
</g>
</g>
<defs>
<clipPath id="clip0_570_2410">
<rect width="100" height="100" fill="white"/>
</clipPath>
<clipPath id="clip1_570_2410">
<rect width="100" height="100" fill="white"/>
</clipPath>
</defs>
</svg>
