<svg xmlns="http://www.w3.org/2000/svg" width="199" height="48" fill="none" viewBox="0 0 199 48"><g clip-path="url(#clip0_221_55)"><path fill="#570AD4" d="M-0.000976562 29.5439C-0.000976562 30.6881 0.144749 31.7968 0.420446 32.8543L-0.000976562 29.5439Z"/><path fill="#570AD4" d="M89.7698 21.3306C90.914 19.9088 91.7667 18.2447 92.2393 16.4271C92.515 15.3696 92.6607 14.2609 92.6607 13.1168C92.6607 11.9726 92.515 10.8639 92.2393 9.80644C90.7722 4.1645 85.6442 -0.000488281 79.5434 -0.000488281H-0.000976562V9.80644H79.5434C81.3709 9.80644 82.8538 11.2893 82.8538 13.1168C82.8538 14.9442 81.3709 16.4271 79.5434 16.4271H63.1159C57.0151 16.4271 51.8871 20.5921 50.422 26.234C50.1443 27.2915 49.9986 28.4002 49.9986 29.5444C49.9986 30.6885 50.1443 31.7972 50.42 32.8547C51.8871 38.4966 57.0151 42.6616 63.1159 42.6616H79.5434C85.6442 42.6616 90.7722 38.4966 92.2393 32.8547C92.515 31.7972 92.6607 30.6885 92.6607 29.5444C92.6607 28.4002 92.515 27.2915 92.2373 26.234C91.7667 24.4164 90.912 22.7524 89.7698 21.3306ZM79.5434 32.8547H63.1159C61.2864 32.8547 59.8055 31.3738 59.8055 29.5444C59.8055 27.7149 61.2864 26.234 63.1159 26.234H79.5434C81.3709 26.234 82.8538 27.7169 82.8538 29.5444C82.8538 31.3718 81.3709 32.8547 79.5434 32.8547Z"/><path fill="#570AD4" d="M9.80398 29.546C9.80398 31.3754 11.2868 32.8563 13.1163 32.8563H43.3779V42.6632H13.1163C7.0155 42.6632 1.88755 38.4982 0.420445 32.8563C0.144749 31.7988 -0.000976562 30.6901 -0.000976562 29.546C-0.000976562 28.4018 0.144749 27.2931 0.422415 26.2356C1.88755 20.5937 7.0155 16.4287 13.1163 16.4287H43.3779V26.2356H13.1163C11.2868 26.2356 9.80398 27.7185 9.80398 29.546Z"/></g><path fill="#570AD4" d="M190.512 18.4598C189.01 18.4598 187.68 18.2064 186.521 17.6996C185.363 17.1929 184.467 16.4147 183.834 15.365C183.2 14.3154 182.884 12.9943 182.884 11.4017C182.884 9.95384 183.2 8.7051 183.834 7.65543C184.467 6.58767 185.345 5.76422 186.467 5.18509C187.607 4.60597 188.928 4.31641 190.431 4.31641C191.915 4.31641 193.209 4.56977 194.312 5.07651C195.435 5.58324 196.303 6.3343 196.919 7.32967C197.534 8.30695 197.842 9.5014 197.842 10.913C197.842 11.1483 197.832 11.3655 197.814 11.5645C197.796 11.7636 197.769 11.9808 197.733 12.216H185.517V10.0715H194.855L193.932 11.4017C193.932 11.2207 193.932 11.0487 193.932 10.8859C193.932 10.723 193.932 10.5601 193.932 10.3972C193.932 9.36566 193.652 8.62366 193.091 8.17122C192.53 7.71877 191.616 7.49255 190.349 7.49255C188.974 7.49255 188.014 7.76402 187.472 8.30695C186.929 8.83178 186.657 9.67332 186.657 10.8316V11.8631C186.657 13.0214 186.929 13.872 187.472 14.4149C188.014 14.9398 188.983 15.2022 190.376 15.2022C191.571 15.2022 192.412 15.0483 192.901 14.7407C193.39 14.433 193.634 13.9896 193.634 13.4105V13.139H197.706V13.4376C197.706 14.4149 197.407 15.2836 196.81 16.0437C196.213 16.8038 195.371 17.401 194.285 17.8354C193.218 18.2516 191.96 18.4598 190.512 18.4598Z"/><path fill="#570AD4" d="M182.58 18.1882H179.214C177.621 18.1882 176.373 17.7991 175.468 17.0209C174.563 16.2427 174.11 14.994 174.11 13.2747V1.95459H178.182V12.8132C178.182 13.5009 178.327 13.9624 178.617 14.1977C178.924 14.4149 179.431 14.5234 180.137 14.5234H182.58V18.1882ZM182.58 7.95398H171.966V4.5878H182.58V7.95398Z"/><path fill="#570AD4" d="M171.748 18.1883H167.948V14.9578L167.73 14.9036V10.1529C167.73 9.26612 167.504 8.6689 167.052 8.36124C166.617 8.05358 165.857 7.89975 164.771 7.89975C163.74 7.89975 162.998 8.05358 162.545 8.36124C162.093 8.6689 161.867 9.21183 161.867 9.99003V10.0986H157.768V10.0172C157.768 8.89512 158.066 7.9088 158.663 7.05821C159.261 6.18952 160.102 5.5199 161.188 5.04936C162.292 4.56073 163.586 4.31641 165.07 4.31641C166.59 4.31641 167.839 4.56073 168.816 5.04936C169.812 5.538 170.545 6.22571 171.015 7.1125C171.504 7.98119 171.748 9.01276 171.748 10.2072V18.1883ZM162.192 18.4598C160.727 18.4598 159.577 18.134 158.745 17.4825C157.912 16.831 157.496 15.9442 157.496 14.8221C157.496 14.1344 157.659 13.5462 157.985 13.0576C158.31 12.569 158.799 12.1799 159.451 11.8903C160.102 11.5826 160.917 11.3745 161.894 11.2659L168.002 10.6416V12.9762L163.007 13.5462C162.518 13.5824 162.156 13.682 161.921 13.8448C161.704 13.9896 161.595 14.2249 161.595 14.5507C161.595 14.9126 161.74 15.175 162.03 15.3379C162.319 15.5008 162.763 15.5822 163.36 15.5822C164.337 15.5822 165.142 15.4917 165.776 15.3108C166.409 15.1298 166.889 14.8402 167.215 14.4421C167.558 14.0258 167.73 13.4738 167.73 12.7861L168.11 12.759V15.0664H167.73C167.423 16.1161 166.798 16.9486 165.857 17.5639C164.934 18.1611 163.713 18.4598 162.192 18.4598Z"/><path fill="#570AD4" d="M151.535 18.1883H146.513L140.323 4.58789H144.857L148.929 14.2249H149.2L153.299 4.58789H157.751L151.535 18.1883Z"/><path fill="#570AD4" d="M133.167 18.4598C131.665 18.4598 130.335 18.2064 129.177 17.6996C128.018 17.1929 127.123 16.4147 126.489 15.365C125.856 14.3154 125.539 12.9943 125.539 11.4017C125.539 9.95384 125.856 8.7051 126.489 7.65543C127.123 6.58767 128 5.76422 129.122 5.18509C130.263 4.60597 131.584 4.31641 133.086 4.31641C134.57 4.31641 135.864 4.56977 136.968 5.07651C138.09 5.58324 138.959 6.3343 139.574 7.32967C140.189 8.30695 140.497 9.5014 140.497 10.913C140.497 11.1483 140.488 11.3655 140.47 11.5645C140.452 11.7636 140.424 11.9808 140.388 12.216H128.172V10.0715H137.511L136.588 11.4017C136.588 11.2207 136.588 11.0487 136.588 10.8859C136.588 10.723 136.588 10.5601 136.588 10.3972C136.588 9.36566 136.307 8.62366 135.746 8.17122C135.185 7.71877 134.271 7.49255 133.004 7.49255C131.629 7.49255 130.67 7.76402 130.127 8.30695C129.584 8.83178 129.312 9.67332 129.312 10.8316V11.8631C129.312 13.0214 129.584 13.872 130.127 14.4149C130.67 14.9398 131.638 15.2022 133.032 15.2022C134.226 15.2022 135.067 15.0483 135.556 14.7407C136.045 14.433 136.289 13.9896 136.289 13.4105V13.139H140.361V13.4376C140.361 14.4149 140.062 15.2836 139.465 16.0437C138.868 16.8038 138.026 17.401 136.941 17.8354C135.873 18.2516 134.615 18.4598 133.167 18.4598Z"/><path fill="#570AD4" d="M124.629 18.1882H120.557V0H124.629V18.1882Z"/><path fill="#570AD4" d="M108.212 18.1882H104.14V0H108.212V18.1882ZM119.532 18.1882H105.28V14.5234H119.532V18.1882ZM119.125 10.8586H105.28V7.22098H119.125V10.8586ZM119.532 3.66478H105.28V0H119.532V3.66478Z"/><path fill="#570AD4" d="M197.612 42.6479H194.708C193.369 42.6479 192.301 42.3312 191.504 41.6977C190.726 41.0643 190.337 39.9604 190.337 38.3859V26.0342H192.292V38.4944C192.292 39.4355 192.527 40.0689 192.997 40.3947C193.468 40.7205 194.192 40.8833 195.169 40.8833H197.612V42.6479ZM197.612 30.8934H187.948V29.2375H197.612V30.8934Z"/><path fill="#570AD4" d="M178.79 42.6477H176.863V35.1009C176.863 33.5626 176.501 32.4496 175.777 31.7619C175.053 31.0742 173.931 30.7303 172.411 30.7303C171.216 30.7303 170.248 30.9656 169.506 31.4361C168.782 31.9067 168.257 32.5672 167.932 33.4178C167.606 34.2503 167.443 35.2276 167.443 36.3497L166.9 36.3768L167.09 33.3364H167.552C167.714 32.5944 168.013 31.8886 168.447 31.219C168.9 30.5493 169.515 30.0064 170.293 29.5902C171.072 29.1739 172.031 28.9658 173.171 28.9658C174.42 28.9658 175.46 29.2282 176.293 29.753C177.125 30.2598 177.75 30.9565 178.166 31.8433C178.582 32.7301 178.79 33.7345 178.79 34.8566V42.6477ZM167.443 42.6477H165.516V24.4595H167.443V42.6477Z"/><path fill="#570AD4" d="M148.081 47.5341C146.868 47.5341 145.773 47.335 144.796 46.9368C143.837 46.5387 143.077 45.9776 142.516 45.2537C141.955 44.5298 141.674 43.643 141.674 42.5934H143.602C143.602 43.3716 143.774 44.005 144.118 44.4936C144.461 44.9823 144.968 45.3352 145.638 45.5524C146.325 45.7695 147.167 45.8781 148.162 45.8781C149.321 45.8781 150.253 45.7424 150.958 45.4709C151.682 45.1995 152.198 44.738 152.506 44.0864C152.832 43.453 152.994 42.5843 152.994 41.4804V33.7708L153.184 33.5264V29.2373H154.922V41.3718C154.922 42.8558 154.632 44.0412 154.053 44.928C153.474 45.8329 152.669 46.4934 151.637 46.9097C150.624 47.3259 149.438 47.5341 148.081 47.5341ZM147.239 41.5618C145.9 41.5618 144.751 41.2903 143.792 40.7474C142.833 40.2045 142.091 39.4625 141.566 38.5214C141.059 37.5803 140.806 36.4945 140.806 35.2638C140.806 34.0332 141.068 32.9473 141.593 32.0062C142.136 31.0652 142.905 30.3231 143.9 29.7802C144.896 29.2373 146.081 28.9658 147.457 28.9658C148.868 28.9658 150.081 29.2916 151.094 29.9431C152.126 30.5946 152.777 31.5085 153.049 32.6849H153.619L153.51 34.8838H152.994C152.994 33.997 152.777 33.2459 152.343 32.6306C151.927 31.9972 151.339 31.5176 150.578 31.1918C149.836 30.848 148.941 30.6761 147.891 30.6761C146.896 30.6761 146.009 30.8208 145.231 31.1104C144.452 31.4 143.837 31.8795 143.385 32.5492C142.95 33.2188 142.733 34.1237 142.733 35.2638C142.733 36.404 142.95 37.3089 143.385 37.9785C143.819 38.6481 144.407 39.1277 145.149 39.4172C145.909 39.7068 146.778 39.8516 147.755 39.8516C149.402 39.8516 150.687 39.4625 151.61 38.6843C152.533 37.888 152.994 36.775 152.994 35.3453H153.51V37.9785H152.859C152.587 39.01 151.963 39.8697 150.986 40.5574C150.026 41.227 148.778 41.5618 147.239 41.5618Z"/><path fill="#570AD4" d="M130.913 42.6477H128.985V29.2373H130.913V42.6477ZM130.913 27.527H128.985V24.4595H130.913V27.527Z"/><path fill="#570AD4" d="M106.067 42.6477H104.14V24.4595H106.067V42.6477ZM117.957 42.6477H104.791V40.8831H117.957V42.6477ZM117.55 34.368H104.791V32.6306H117.55V34.368ZM117.957 26.224H104.791V24.4595H117.957V26.224Z"/><defs><clipPath id="clip0_221_55"><rect width="92.662" height="42.662" fill="#fff"/></clipPath></defs></svg>