<svg width="1920" height="858" viewBox="0 0 1920 858" fill="none" xmlns="http://www.w3.org/2000/svg">
<path opacity="0.54" fill-rule="evenodd" clip-rule="evenodd" d="M1315 0C1308.67 0 1302.33 0 1296 0C1227.98 2.83619 1167.64 25.6695 1115 68.5C1094.44 86.8432 1077.6 108.01 1064.5 132C1055.52 151.303 1045.52 169.969 1034.5 188C1022.14 204.985 1008.14 220.652 992.5 235C963.879 269.568 938.212 306.234 915.5 345C902.17 363.667 888.83 382.333 875.5 401C870.33 406.833 865.17 412.667 860 418.5C828.76 424.244 798.09 421.91 768 411.5C751.53 405.6 735.53 398.6 720 390.5C692.43 373.881 664.1 358.548 635 344.5C611.92 334.188 587.75 328.355 562.5 327C548.95 327.509 535.78 330.009 523 334.5C510.7 335.328 498.7 337.661 487 341.5C429.57 352.461 372.24 363.961 315 376C289.54 350.041 263.87 324.207 238 298.5C218.93 281.107 197.93 266.441 175 254.5C141.92 241.287 109.92 243.62 79 261.5C65.16 269.67 52.16 279.004 40 289.5C26.13 302.2 12.8 315.367 0 329C0 330 0 331 0 332C12.8 318.367 26.13 305.2 40 292.5C56.28 278.019 74.28 266.019 94 256.5C128.75 242.379 161.75 245.712 193 266.5C209.42 277.052 224.75 289.052 239 302.5C263.54 326.543 287.54 351.043 311 376C310.14 377.083 309.14 377.249 308 376.5C276.48 345.967 243.48 317.3 209 290.5C189.68 276.507 168.34 266.84 145 261.5C118.97 258.089 94.64 263.089 72 276.5C45.52 292.804 21.52 312.304 0 335C0 336 0 337 0 338C21.46 315.691 45.13 296.191 71 279.5C103.87 259.437 137.87 257.104 173 272.5C199.59 285.955 223.92 302.621 246 322.5C266.3 340.465 286.3 358.798 306 377.5C305 378.167 304 378.167 303 377.5C272.14 351.302 240.14 326.636 207 303.5C185.83 289.665 162.83 280.331 138 275.5C117.51 273.193 97.85 276.193 79 284.5C65.18 290.906 52.18 298.573 40 307.5C26.08 318.298 12.74 329.798 0 342C0 343 0 344 0 345C22.68 321.815 48.35 302.648 77 287.5C108.65 273.501 140.32 273.501 172 287.5C195.92 298.786 218.25 312.453 239 328.5C257.96 343.12 276.62 358.12 295 373.5C293.59 373.815 292.26 373.482 291 372.5C262.02 350.536 231.69 330.536 200 312.5C178.68 300.838 156.01 293.171 132 289.5C109.26 287.715 87.59 291.715 67 301.5C42.84 314.833 20.51 330.667 0 349C0 350 0 351 0 352C21.23 332.61 44.57 316.11 70 302.5C102.35 287.934 135.02 287.268 168 300.5C191.84 310.418 214.51 322.418 236 336.5C250.51 346.254 264.84 356.254 279 366.5C277.59 366.815 276.26 366.482 275 365.5C245.64 346.319 214.64 329.986 182 316.5C132.6 295.226 85.26 298.893 40 327.5C26.23 336.779 12.89 346.612 0 357C0 358 0 359 0 360C20.28 342.249 42.61 327.416 67 315.5C93.22 304.35 120.22 302.016 148 308.5C172.84 314.42 196.51 323.42 219 335.5C234.83 344.247 250.5 353.247 266 362.5C250.78 355.561 235.45 348.561 220 341.5C187.1 326.484 152.6 317.984 116.5 316C84.17 317.445 54.67 327.278 28 345.5C18.51 352.165 9.17 358.998 0 366C0 366.667 0 367.333 0 368C17.26 354.692 35.59 342.859 55 332.5C83.06 319.161 112.39 315.161 143 320.5C179.46 327.321 214.13 339.321 247 356.5C231.77 351.568 216.43 346.568 201 341.5C161.61 328.883 121.61 326.217 81 333.5C51.17 342.081 24.17 355.915 0 375C0 375.667 0 376.333 0 377C16.45 365.266 33.78 354.766 52 345.5C89.21 330.041 127.55 326.708 167 335.5C189.53 340.01 211.53 346.343 233 354.5C221 352.17 209 349.503 197 346.5C154.81 337.226 112.81 337.893 71 348.5C57.6 352.856 44.6 358.19 32 364.5C21.11 370.771 10.44 377.271 0 384C0 385 0 386 0 387C53.48 347.55 113.15 333.717 179 345.5C190.77 347.321 202.44 349.654 214 352.5C195.27 350.245 176.44 348.745 157.5 348C100.18 347.503 47.68 362.836 0 394C0 395 0 396 0 397C44.22 366.984 93.22 351.484 147 350.5C162.7 350.11 178.37 350.777 194 352.5C124.17 351.621 59.5 369.121 0 405C0 405.667 0 406.333 0 407C54.53 373.55 113.86 356.383 178 355.5C133.09 360.145 90.09 371.811 49 390.5C32.33 398.166 16 406.333 0 415C0 416 0 417 0 418C45.36 390.82 94.03 372.32 146 362.5C124.5 368.419 103.5 375.752 83 384.5C54.75 397.292 27.08 411.125 0 426C0 426.667 0 427.333 0 428C1.33 427.667 2.67 427.333 4 427C3.06 428.474 1.73 429.474 0 430C0 430.667 0 431.333 0 432C47.8 405.344 98.13 384.844 151 370.5C190.03 360.682 229.03 360.682 268 370.5C270.92 372.028 273.92 373.361 277 374.5C234.33 365.589 191.66 365.922 149 375.5C96.89 388.48 47.22 407.646 0 433C0 434 0 435 0 436C1.33 436.333 1.33 436.667 0 437C0 437.667 0 438.333 0 439C2.43 439.286 2.43 439.952 0 441C0 441.667 0 442.333 0 443C1.33 443.333 1.33 443.667 0 444C0 444.667 0 445.333 0 446C2.67 446.333 2.67 446.667 0 447C0 448 0 449 0 450C1.33 450.333 1.33 450.667 0 451C0 451.667 0 452.333 0 453C0.92 452.197 1.92 452.03 3 452.5C2.26 453.539 1.26 454.039 0 454C0 454.667 0 455.333 0 456C2.67 456.333 2.67 456.667 0 457C0 458 0 459 0 460C1.33 460.333 1.33 460.667 0 461C0 461.667 0 462.333 0 463C1.33 463.333 1.33 463.667 0 464C0 464.667 0 465.333 0 466C30.84 447.75 63.51 433.583 98 423.5C104.27 421.514 110.6 420.181 117 419.5C106.75 423.25 96.75 427.583 87 432.5C68.07 443.771 49.4 455.438 31 467.5C20.89 473.22 10.56 478.387 0 483C0 483.667 0 484.333 0 485C9.71 481.313 19.04 476.813 28 471.5C49.83 457.08 72.17 443.414 95 430.5C113.94 421.851 133.61 415.851 154 412.5C143.66 415.837 133.99 420.503 125 426.5C107.98 438.01 91.31 450.01 75 462.5C68.66 467.003 62 471.003 55 474.5C36.59 478.853 18.26 483.353 0 488C0 489.333 0 490.667 0 492C6.49 492.058 6.49 492.724 0 494C0 494.667 0 495.333 0 496C7.67 495.871 7.67 496.871 0 499C0 499.667 0 500.333 0 501C3.65 499.513 7.31 498.013 11 496.5C13.33 495.833 15.67 495.833 18 496.5C12.16 499.17 6.16 501.336 0 503C0 503.667 0 504.333 0 505C7.63 503.019 14.97 500.185 22 496.5C24.33 495.833 26.67 495.833 29 496.5C19.72 501.093 10.05 504.593 0 507C0 507.667 0 508.333 0 509C12.39 505.591 24.39 501.091 36 495.5C38.33 495.333 40.67 495.167 43 495C54.34 496.223 65.68 496.223 77 495C89.52 496.988 102.02 497.321 114.5 496C125.08 498.083 135.74 498.75 146.5 498C189.7 500.52 232.87 503.52 276 507C278.54 506.914 281.04 506.58 283.5 506C318.34 513.498 349.5 505.998 377 483.5C383.8 477.699 390.3 471.532 396.5 465C454.16 524.994 513.99 582.494 576 637.5C637.27 691.1 703.27 738.1 774 778.5C833.54 812.236 896.87 835.903 964 849.5C989.952 854.217 1015.95 857.051 1042 858C1045.67 858 1049.33 858 1053 858C1198.11 851.917 1309.94 788.25 1388.5 667C1508.48 741.913 1637.64 763.747 1776 732.5C1827.5 719.846 1875.5 699.346 1920 671C1920 670.333 1920 669.667 1920 669C1803.61 740.175 1678.61 761.009 1545 731.5C1488.93 718.268 1436.93 695.935 1389 664.5C1394.05 656.551 1399.22 648.718 1404.5 641C1502.55 706.137 1610.38 732.971 1728 721.5C1795.56 714.447 1859.56 695.614 1920 665C1920 664 1920 663 1920 662C1894.92 676.076 1868.59 686.909 1841 694.5C1868.75 683.956 1895.09 670.79 1920 655C1920 654.333 1920 653.667 1920 653C1893.01 664.051 1865.35 673.218 1837 680.5C1834.01 681.368 1831.01 681.701 1828 681.5C1857.28 672.073 1885.28 659.74 1912 644.5C1914.65 643.559 1917.32 642.726 1920 642C1920 640.333 1920 638.667 1920 637C1913.14 642.096 1905.47 645.596 1897 647.5C1877.96 653.429 1858.62 657.762 1839 660.5C1863.69 652.492 1887.36 642.159 1910 629.5C1913.27 628.35 1916.6 627.516 1920 627C1920 626.333 1920 625.667 1920 625C1917.33 624.667 1917.33 624.333 1920 624C1920 623 1920 622 1920 621C1915.71 624.108 1911.04 626.608 1906 628.5C1889.23 633.056 1872.23 636.056 1855 637.5C1865.44 633.777 1875.78 629.777 1886 625.5C1897.28 619.693 1908.61 614.193 1920 609C1920 608 1920 607 1920 606C1904.05 610.922 1887.72 613.755 1871 614.5C1887.95 608.244 1904.28 600.744 1920 592C1920 590.667 1920 589.333 1920 588C1910.01 589.299 1900.01 590.132 1890 590.5C1900.15 585.925 1910.15 581.092 1920 576C1920 575.333 1920 574.667 1920 574C1907.72 580.64 1895.05 586.474 1882 591.5C1862.64 592.326 1843.31 591.992 1824 590.5C1850.3 586.927 1875.63 579.927 1900 569.5C1906.64 568.548 1913.3 568.048 1920 568C1920 567.333 1920 566.667 1920 566C1916.32 566.165 1912.65 565.999 1909 565.5C1912.69 563.653 1916.36 561.82 1920 560C1920 559.333 1920 558.667 1920 558C1914.15 561.092 1908.15 563.926 1902 566.5C1887.31 567.188 1872.65 566.855 1858 565.5C1879.57 560.81 1900.24 553.643 1920 544C1920 543.333 1920 542.667 1920 542C1909.59 541.81 1899.26 540.976 1889 539.5C1899.62 536.35 1909.95 532.516 1920 528C1920 527.333 1920 526.667 1920 526C1907.19 531.937 1893.85 536.271 1880 539C1865.1 537.386 1850.43 534.553 1836 530.5C1860.29 528.951 1883.96 524.285 1907 516.5C1911.34 516.237 1915.67 516.403 1920 517C1920 516.333 1920 515.667 1920 515C1913.5 514.529 1913.5 513.529 1920 512C1920 511.333 1920 510.667 1920 510C1916.09 511.026 1912.26 512.36 1908.5 514C1897.47 512.495 1886.64 510.162 1876 507C1891.04 504.242 1905.7 500.242 1920 495C1920 494.333 1920 493.667 1920 493C1903.28 499.137 1886.12 503.471 1868.5 506C1849.53 499.6 1830.7 492.767 1812 485.5C1837.08 486.063 1861.91 483.896 1886.5 479C1897.51 482.377 1908.67 485.044 1920 487C1920 486.333 1920 485.667 1920 485C1910.37 483.427 1901.04 480.927 1892 477.5C1901.44 474.964 1910.77 472.13 1920 469C1920 468.333 1920 467.667 1920 467C1909.25 470.64 1898.41 473.973 1887.5 477C1873.68 471.505 1859.85 466.005 1846 460.5C1865.68 458.397 1885.02 454.563 1904 449C1909.33 450.667 1914.67 452.334 1920 454C1920 453.333 1920 452.667 1920 452C1915.99 450.607 1911.99 449.107 1908 447.5C1911.91 445.709 1915.91 444.209 1920 443C1920 442.333 1920 441.667 1920 441C1914.94 442.463 1909.94 444.13 1905 446C1893.97 441.599 1882.97 437.099 1872 432.5C1888.45 428.626 1904.45 423.46 1920 417C1920 416.333 1920 415.667 1920 415C1903.46 421.719 1886.46 427.052 1869 431C1856.45 425.557 1843.78 420.39 1831 415.5C1861.82 411.879 1891.49 404.046 1920 392C1920 391 1920 390 1920 389C1890.43 402.478 1859.43 410.811 1827 414C1809.07 406.413 1790.74 399.913 1772 394.5C1823.63 397.606 1872.97 388.44 1920 367C1920 366 1920 365 1920 364C1870.31 387.837 1817.98 397.004 1763 391.5C1745.18 386.937 1727.18 383.27 1709 380.5C1657.84 364.432 1613.5 337.432 1576 299.5C1544.67 267.5 1513.33 235.5 1482 203.5C1455.22 177.714 1425.89 155.381 1394 136.5C1318.02 95.1693 1238.02 84.5026 1154 104.5C1122.41 114.118 1094.08 129.118 1069 149.5C1100.39 117.966 1138.05 97.6331 1182 88.5C1275.82 71.2935 1361.16 90.6269 1438 146.5C1464.59 167.92 1489.76 191.087 1513.5 216C1541.3 246.798 1570.13 276.631 1600 305.5C1678.1 368.684 1766.1 388.017 1864 363.5C1883.34 357.998 1902.01 350.831 1920 342C1920 341.333 1920 340.667 1920 340C1839.72 379.066 1758.06 382.233 1675 349.5C1632.28 330.466 1595.45 303.299 1564.5 268C1537.06 237.894 1508.9 208.394 1480 179.5C1448.81 149.23 1413.47 124.897 1374 106.5C1312.03 80.3547 1248.03 73.6881 1182 86.5C1137.53 96.3847 1099.2 116.551 1067 147C1107.83 102.419 1158.49 76.5855 1219 69.5C1317.96 58.7086 1403.29 87.3753 1475 155.5C1512.6 193.428 1549.1 232.261 1584.5 272C1652.48 338.101 1733.65 363.934 1828 349.5C1860.24 343.474 1890.91 332.974 1920 318C1920 317 1920 316 1920 315C1838.45 358.493 1754.78 362.993 1669 328.5C1637.23 313.723 1609.06 293.889 1584.5 269C1549.77 229.928 1513.93 191.762 1477 154.5C1392.01 75.4139 1292.67 49.0806 1179 75.5C1137.13 87.4209 1101.13 108.254 1071 138C1108.03 94.9692 1154.69 68.1359 1211 57.5C1310.86 39.2868 1398.19 63.9535 1473 131.5C1509.67 167.832 1544.51 205.666 1577.5 245C1636.27 309.604 1709.44 338.77 1797 332.5C1840.86 328.602 1881.86 315.768 1920 294C1920 293.333 1920 292.667 1920 292C1874.58 317.564 1825.75 330.897 1773.5 332C1695.25 330.828 1630.25 301.161 1578.5 243C1546.08 204.41 1511.91 167.243 1476 131.5C1400.59 62.5512 1312.26 37.2179 1211 55.5C1157.63 65.6737 1112.3 90.1737 1075 129C1081.06 120.765 1087.72 112.931 1095 105.5C1141.92 63.8423 1196.92 40.8423 1260 36.5C1340.74 30.3001 1411.07 53.9668 1471 107.5C1483.5 120 1496 132.5 1508.5 145C1531.87 171.372 1554.87 198.038 1577.5 225C1635.11 291.364 1707.94 320.531 1796 312.5C1829.56 308.979 1861.56 299.979 1892 285.5C1901.23 280.386 1910.56 275.552 1920 271C1920 270 1920 269 1920 268C1842.47 315.233 1760.8 324.067 1675 294.5C1636.91 278.758 1604.75 254.925 1578.5 223C1555.54 195.705 1532.21 168.705 1508.5 142C1485.03 116.516 1459.2 94.0155 1431 74.5C1378.69 43.2569 1322.02 29.9236 1261 34.5C1194.92 38.9745 1137.76 63.4745 1089.5 108C1085.17 113 1080.83 118 1076.5 123C1076.33 122.667 1076.17 122.333 1076 122C1104.85 83.0044 1142.19 55.1711 1188 38.5C1259.64 11.8682 1330.97 12.5349 1402 40.5C1437.85 57.6843 1469.35 80.851 1496.5 110C1526.21 144.039 1555.54 178.372 1584.5 213C1631.49 267.32 1691.16 294.653 1763.5 295C1802.99 294.369 1840.82 286.202 1877 270.5C1891.7 263.484 1906.04 255.984 1920 248C1920 247 1920 246 1920 245C1854.99 287.415 1784.33 301.248 1708 286.5C1655.06 273.628 1611.9 245.794 1578.5 203C1548.83 165.984 1517.66 130.151 1485 95.5C1424.52 36.3349 1351.86 10.6682 1267 18.5C1203.67 24.1842 1148.33 47.8509 1101 89.5C1094.13 97.1971 1087.13 104.697 1080 112C1099.71 83.1218 1124.71 59.9551 1155 42.5C1224.63 3.41039 1298.29 -6.92294 1376 11.5C1414.87 22.5932 1448.87 41.9265 1478 69.5C1485.83 77.3333 1493.67 85.1667 1501.5 93C1529.64 125.964 1557.31 159.298 1584.5 193C1629.65 248.151 1688.15 275.817 1760 276C1818.44 274.628 1871.78 257.628 1920 225C1920 224.333 1920 223.667 1920 223C1871.8 255.62 1818.47 272.62 1760 274C1688.58 273.532 1630.41 245.866 1585.5 191C1558.22 156.779 1530.22 123.113 1501.5 90C1472.51 57.6731 1438.01 33.1731 1398 16.5C1371 6.89406 1343.34 1.39406 1315 0ZM1064 159C1108.83 123.779 1160 106.779 1217.5 108C1300.09 109.905 1373.59 136.405 1438 187.5C1453.04 199.694 1467.71 212.361 1482 225.5C1515.03 258.861 1548.36 291.861 1582 324.5C1605.98 346.577 1632.48 365.077 1661.5 380C1674.01 378.887 1686.51 378.72 1699 379.5C1658.71 365.476 1622.71 344.476 1591 316.5C1553.64 279.472 1516.64 242.139 1480 204.5C1448.96 174.464 1414.3 149.464 1376 129.5C1315.63 100.686 1252.3 90.686 1186 99.5C1138.68 106.329 1098.01 126.162 1064 159ZM1062 165C1104.07 134.677 1151.24 119.677 1203.5 120C1289.59 123.466 1366.09 151.966 1433 205.5C1449.63 219.126 1465.96 233.126 1482 247.5C1515.33 279.5 1548.67 311.5 1582 343.5C1597.95 357.138 1614.61 369.804 1632 381.5C1633.53 382.423 1635.2 382.923 1637 383C1643.39 382.064 1649.72 380.897 1656 379.5C1632.1 366.389 1609.77 351.056 1589 333.5C1552.23 298.309 1515.9 262.642 1480 226.5C1449.21 196.782 1415.21 171.448 1378 150.5C1314.22 116.878 1246.56 104.211 1175 112.5C1131.83 118.757 1094.17 136.257 1062 165ZM1080 112C1078.59 112.473 1077.93 113.473 1078 115C1079.41 114.527 1080.07 113.527 1080 112ZM1057 173C1101.51 142.561 1150.85 129.061 1205 132.5C1276.77 138.732 1342.1 162.398 1401 203.5C1419.57 216.736 1437.57 230.736 1455 245.5C1491.94 278.432 1528.27 312.098 1564 346.5C1579.93 361.123 1596.6 374.79 1614 387.5C1619.86 387.498 1625.52 386.331 1631 384C1613.59 371.438 1596.59 358.271 1580 344.5C1546.67 312.5 1513.33 280.5 1480 248.5C1447.53 217.945 1412.2 191.278 1374 168.5C1320.78 139.111 1263.78 123.611 1203 122C1156.69 121.742 1114.02 133.909 1075 158.5C1068.75 163.113 1062.75 167.946 1057 173ZM1075 129C1073.24 129.762 1072.24 131.096 1072 133C1073.76 132.238 1074.76 130.904 1075 129ZM1057 177C1102.2 149.657 1151.2 138.823 1204 144.5C1262.18 151.782 1316.18 170.782 1366 201.5C1400.03 223.527 1432.37 247.86 1463 274.5C1506.44 314.948 1550.78 354.281 1596 392.5C1597.43 392.965 1598.6 393.799 1599.5 395C1603.9 392.976 1608.4 391.142 1613 389.5C1599.15 378.74 1585.48 367.74 1572 356.5C1541 327.5 1510 298.5 1479 269.5C1445.9 238.718 1410.23 211.385 1372 187.5C1321.04 157.403 1266.04 139.736 1207 134.5C1154.69 130.575 1106.69 142.909 1063 171.5C1060.74 173.117 1058.74 174.95 1057 177ZM1051 185C1098.49 157.417 1149.49 147.917 1204 156.5C1245.89 163.28 1285.55 176.613 1323 196.5C1351.02 211.503 1377.69 228.503 1403 247.5C1448.47 283.294 1492.47 320.961 1535 360.5C1551.5 374.333 1568 388.167 1584.5 402C1588.62 399.691 1592.79 397.524 1597 395.5C1583.71 385.211 1570.71 374.545 1558 363.5C1525.97 333.797 1493.63 304.464 1461 275.5C1425.46 243.96 1387.13 216.293 1346 192.5C1297.75 165.528 1246.08 149.861 1191 145.5C1147.73 142.886 1107.07 151.886 1069 172.5C1062.41 175.95 1056.41 180.116 1051 185ZM1187 156C1132.2 151.334 1082.53 164.834 1038 196.5C1033.5 205.01 1030 213.843 1027.5 223C1074.5 191.291 1126.34 178.458 1183 184.5C1236.26 191.142 1285.93 208.142 1332 235.5C1371.31 259.662 1408.31 286.995 1443 317.5C1481.04 351.206 1519.37 384.54 1558 417.5C1565.98 412.993 1573.98 408.16 1582 403C1534.88 362.382 1487.88 321.549 1441 280.5C1399.28 244.458 1353.62 214.125 1304 189.5C1266.71 171.93 1227.71 160.764 1187 156ZM1061 166C1059.47 165.927 1058.47 166.594 1058 168C1059.53 168.073 1060.53 167.406 1061 166ZM1057 177C1055.47 176.927 1054.47 177.594 1054 179C1055.53 179.073 1056.53 178.406 1057 177ZM1016 252C1076.82 213.087 1142.48 202.253 1213 219.5C1264.24 232.29 1311.24 253.957 1354 284.5C1375.91 300.403 1397.24 317.07 1418 334.5C1456.04 368.206 1494.37 401.54 1533 434.5C1534.26 435.482 1535.59 435.815 1537 435.5C1543.67 430.167 1550.33 424.833 1557 419.5C1515.96 384.639 1475.29 349.305 1435 313.5C1398.45 281.618 1359.11 253.618 1317 229.5C1271.5 204.332 1222.83 189.665 1171 185.5C1117.46 182.173 1068.96 196.006 1025.5 227C1021.83 235.174 1018.66 243.507 1016 252ZM1166 214C1110.67 210.283 1060.34 224.117 1015 255.5C1010.74 264.016 1006.74 272.683 1003 281.5C1064.87 242.021 1131.86 230.688 1204 247.5C1250.66 259.002 1293.66 278.336 1333 305.5C1355.72 321.532 1377.72 338.532 1399 356.5C1435.67 388.5 1472.33 420.5 1509 452.5C1510.54 453.687 1512.21 454.02 1514 453.5C1520.22 448.281 1526.72 443.448 1533.5 439C1491.16 400.687 1447.99 362.854 1404 325.5C1380.12 305.622 1355.12 287.288 1329 270.5C1278.99 238.998 1224.66 220.165 1166 214ZM1019 236C1015.78 242.121 1012.78 248.455 1010 255C1010.33 255.333 1010.67 255.667 1011 256C1014.25 249.57 1016.92 242.904 1019 236ZM1154 242C1097.72 239.313 1046.72 254.146 1001 286.5C996.369 295.585 992.202 304.752 988.5 314C1036.67 279.493 1090.51 264.326 1150 268.5C1209.16 273.761 1263.16 293.094 1312 326.5C1329.28 338.781 1346.28 351.448 1363 364.5C1404 400.167 1445 435.833 1486 471.5C1487 472.167 1488 472.167 1489 471.5C1496.75 467.297 1503.75 462.131 1510 456C1470.48 421.313 1430.81 386.813 1391 352.5C1364.79 330.954 1337.46 310.954 1309 292.5C1261.12 263.705 1209.45 246.872 1154 242ZM1009 243C1007.57 244.28 1006.9 245.947 1007 248C1008.43 246.72 1009.1 245.053 1009 243ZM1012 244C1008.94 249.454 1006.44 255.12 1004.5 261C1008.08 255.832 1010.58 250.165 1012 244ZM1004 254C1001.9 257.356 999.901 260.856 998 264.5C998.832 265.188 999.498 265.021 1000 264C1001.91 260.86 1003.24 257.527 1004 254ZM996 256C991.829 262.338 988.163 269.004 985 276C989.678 269.984 993.345 263.317 996 256ZM998 259C995.242 262.178 993.242 265.845 992 270C995.115 267.032 997.115 263.366 998 259ZM991 259C989.594 259.473 988.927 260.473 989 262C990.406 261.527 991.073 260.527 991 259ZM1010 261C1009.31 259.726 1008.48 259.726 1007.5 261C1004.07 269.693 1000.24 278.193 996 286.5C997.496 287.007 998.663 286.507 999.5 285C1002.78 276.793 1006.28 268.793 1010 261ZM990 292C992.208 290.606 993.708 288.606 994.5 286C998.119 278.783 1001.12 271.45 1003.5 264C998.198 272.938 993.698 282.272 990 292ZM984 265C982.594 265.473 981.927 266.473 982 268C983.406 267.527 984.073 266.527 984 265ZM987 266C982.983 271.516 979.316 277.35 976 283.5C976.949 284.117 977.782 283.951 978.5 283C981.594 277.422 984.428 271.756 987 266ZM1151 270C1089.58 266.015 1034.24 282.181 985 318.5C978.052 330.382 970.885 341.882 963.5 353C1018.54 307.771 1081.71 288.938 1153 296.5C1209.83 303.88 1261.16 324.546 1307 358.5C1323.62 370.784 1339.95 383.451 1356 396.5C1390.67 427.167 1425.33 457.833 1460 488.5C1463.88 488.073 1467.55 486.74 1471 484.5C1475.67 480.833 1480.33 477.167 1485 473.5C1445.96 438.794 1406.63 404.461 1367 370.5C1333.65 342.18 1297.32 318.18 1258 298.5C1223.83 282.934 1188.16 273.434 1151 270ZM997 270C996.124 269.869 995.457 270.202 995 271C990.988 279.688 986.988 288.355 983 297C983.876 297.131 984.543 296.798 985 296C989.559 287.551 993.559 278.884 997 270ZM977 271C975.594 271.473 974.927 272.473 975 274C976.406 273.527 977.073 272.527 977 271ZM980 272C978.25 273.159 977.25 274.826 977 277C978.75 275.841 979.75 274.174 980 272ZM975 274C973.25 275.159 972.25 276.826 972 279C973.75 277.841 974.75 276.174 975 274ZM990 276C989.124 275.869 988.457 276.202 988 277C983.307 286.386 978.64 295.72 974 305C975.294 304.21 976.461 303.21 977.5 302C981.951 293.433 986.117 284.767 990 276ZM977 277C973.249 281.495 970.249 286.495 968 292C972.185 287.792 975.185 282.792 977 277ZM966 277C964.594 277.473 963.927 278.473 964 280C965.406 279.527 966.073 278.527 966 277ZM972 279C966.583 286.159 961.917 293.825 958 302C959.951 300.784 961.451 299.118 962.5 297C965.947 291.104 969.114 285.104 972 279ZM964 280C962.594 280.473 961.927 281.473 962 283C963.406 282.527 964.073 281.527 964 280ZM982 283C981.042 283.453 980.208 284.119 979.5 285C974.973 294.053 970.473 303.053 966 312C972.599 303.145 977.932 293.479 982 283ZM966 283C964.594 283.473 963.927 284.473 964 286C965.406 285.527 966.073 284.527 966 283ZM962 283C960.594 283.473 959.927 284.473 960 286C961.406 285.527 962.073 284.527 962 283ZM957 285C955.594 285.473 954.927 286.473 955 288C956.406 287.527 957.073 286.527 957 285ZM964 286C957.252 295.155 951.252 304.822 946 315C947.294 314.21 948.461 313.21 949.5 312C954.611 303.44 959.444 294.774 964 286ZM955 288C953.594 288.473 952.927 289.473 953 291C954.406 290.527 955.073 289.527 955 288ZM974 290C967.246 299.834 961.246 310.167 956 321C958.866 318.954 961.033 316.287 962.5 313C966.872 305.59 970.705 297.923 974 290ZM996 291C995.124 290.869 994.457 291.202 994 292C989.153 301.356 984.653 310.689 980.5 320C987.234 311.201 992.4 301.535 996 291ZM953 291C951.594 291.473 950.927 292.473 951 294C952.406 293.527 953.073 292.527 953 291ZM951 294C946.925 298.476 943.592 303.476 941 309C945.11 304.549 948.444 299.549 951 294ZM989 296C982.324 305.343 976.658 315.343 972 326C979.182 316.982 984.848 306.982 989 296ZM781 523C800.96 514.023 819.29 502.523 836 488.5C868.24 459.93 899.57 430.263 930 399.5C1009.8 324.139 1102.14 303.472 1207 337.5C1231.56 346.279 1254.56 357.945 1276 372.5C1302.57 391.292 1328.24 411.292 1353 432.5C1379.67 456.5 1406.33 480.5 1433 504.5C1436.2 504.414 1439.2 503.414 1442 501.5C1447.5 497.584 1453.16 493.918 1459 490.5C1420.93 455.756 1382.26 421.756 1343 388.5C1319.05 368.886 1293.71 351.219 1267 335.5C1203.6 299.752 1136.27 289.085 1065 303.5C1012.24 317.28 967.906 344.613 932 385.5C928.51 388.411 924.844 391.078 921 393.5C893.94 420.563 866.27 446.897 838 472.5C833 476.167 828 479.833 823 483.5C809.76 497.576 795.76 510.743 781 523ZM965 299C963.049 300.216 961.549 301.882 960.5 304C955.076 313.24 949.91 322.573 945 332C947.336 330.496 949.169 328.496 950.5 326C955.592 317.092 960.425 308.092 965 299ZM963 333C963.996 333.086 964.829 332.752 965.5 332C971.127 322.247 976.627 312.414 982 302.5C980.504 301.993 979.337 302.493 978.5 304C973.308 313.721 968.142 323.387 963 333ZM949 304C947.049 305.216 945.549 306.882 944.5 309C940.056 316.226 935.89 323.559 932 331C938.845 322.805 944.512 313.805 949 304ZM973 309C965.583 319.493 958.916 330.493 953 342C961.248 332.057 967.914 321.057 973 309ZM953 312C951.049 313.216 949.549 314.882 948.5 317C943.389 325.56 938.556 334.226 934 343C941.585 333.51 947.918 323.177 953 312ZM964 317C962.706 317.79 961.539 318.79 960.5 320C954.478 330.83 948.311 341.497 942 352C950.907 341.404 958.241 329.738 964 317ZM1125 323C1058.3 321.95 999.637 342.783 949 385.5C919.06 412.77 889.73 440.77 861 469.5C842.44 486.772 822.44 502.105 801 515.5C791.24 520.713 781.24 525.38 771 529.5C749.16 544.56 725.16 554.56 699 559.5C741.76 560.354 780.43 548.354 815 523.5C822.85 517.741 830.51 511.741 838 505.5C870 474.833 902 444.167 934 413.5C1012.89 347.325 1101.22 330.992 1199 364.5C1216.5 371.252 1233.17 379.585 1249 389.5C1280.72 410.541 1310.72 433.874 1339 459.5C1360.03 479.535 1381.37 499.201 1403 518.5C1404 519.167 1405 519.167 1406 518.5C1413.88 514.394 1421.88 510.561 1430 507C1431.21 506.226 1431.21 505.393 1430 504.5C1399 476.833 1368 449.167 1337 421.5C1314.46 402.293 1290.8 384.627 1266 368.5C1222.71 341.57 1175.71 326.403 1125 323ZM978 325C976.426 325.437 975.259 326.437 974.5 328C969.228 336.892 963.728 345.559 958 354C966.22 345.439 972.887 335.773 978 325ZM941 325C938.613 327.413 936.446 330.08 934.5 333C929.643 341.388 924.81 349.722 920 358C928.245 347.855 935.245 336.855 941 325ZM953 328C951.706 328.79 950.539 329.79 949.5 331C942.811 342.499 935.978 353.833 929 365C933.298 360.429 937.131 355.429 940.5 350C944.944 342.774 949.11 335.441 953 328ZM569 329C556.47 328.92 544.14 330.42 532 333.5C564.72 335.431 595.72 343.764 625 358.5C652.51 372.756 680.18 386.756 708 400.5C742.78 417.196 779.45 426.362 818 428C830.48 427.669 842.81 426.169 855 423.5C856.17 423.081 857.17 422.415 858 421.5C829.66 425.695 801.66 423.695 774 415.5C760.69 411.285 747.69 406.285 735 400.5C713.34 389.007 692.01 377.007 671 364.5C649.66 352.498 627.32 342.831 604 335.5C592.34 332.467 580.68 330.3 569 329ZM970 331C968.706 331.79 967.539 332.79 966.5 334C961.084 341.901 955.917 349.901 951 358C958.493 349.836 964.826 340.836 970 331ZM927 333C921.674 338.976 917.34 345.643 914 353C919.33 347.024 923.659 340.357 927 333ZM538 336C528.72 334.988 520.05 336.821 512 341.5C542.79 344.197 572.12 352.197 600 365.5C626 378.5 652 391.5 678 404.5C717.4 423.226 758.9 433.393 802.5 435C819.01 435.3 835.17 433.133 851 428.5C851.67 427.833 852.33 427.167 853 426.5C820.32 431.857 787.99 429.857 756 420.5C741.04 415.957 726.37 410.624 712 404.5C676.28 386.305 640.28 368.639 604 351.5C582.65 342.935 560.65 337.769 538 336ZM516 338C509.79 337.915 503.46 338.748 497 340.5C503.66 341.671 509.99 340.837 516 338ZM942 339C939.664 340.504 937.831 342.504 936.5 345C929.645 356.056 922.811 367.056 916 378C925.904 365.868 934.571 352.868 942 339ZM960 340C955.27 344.086 951.604 349.086 949 355C953.021 350.304 956.688 345.304 960 340ZM848 432C806.39 440.264 765.39 437.764 725 424.5C706.45 418.873 688.45 411.873 671 403.5C645.64 390.818 620.3 378.151 595 365.5C567.89 352.763 539.39 345.263 509.5 343C505.76 344.784 502.26 346.951 499 349.5C526.69 354.396 553.36 362.729 579 374.5C607.02 388.534 635.02 402.534 663 416.5C707.84 436.8 754.84 445.8 804 443.5C817.65 442.371 830.98 439.704 844 435.5C845.82 434.84 847.16 433.673 848 432ZM505 344C494.56 341.905 484.56 343.405 475 348.5C481.2 348.727 487.37 349.227 493.5 350C497.29 347.854 501.13 345.854 505 344ZM925 344C918.01 352.646 912.01 361.979 907 372C908.29 371.21 909.46 370.21 910.5 369C915.59 360.762 920.421 352.428 925 344ZM476 346C475.58 345.376 474.92 345.043 474 345C468.65 346.103 463.32 347.269 458 348.5C464.17 348.812 470.17 347.978 476 346ZM458 476C504.23 511.636 554.23 541.47 608 565.5C660.36 586.995 713.03 587.995 766 568.5C780.74 562.071 794.74 554.404 808 545.5C822.91 534.591 837.25 522.924 851 510.5C875.67 486.5 900.33 462.5 925 438.5C1007.96 369.285 1099.63 354.952 1200 395.5C1233.4 412.251 1264.06 432.917 1292 457.5C1318.27 480.431 1343.93 504.097 1369 528.5C1379.76 526.138 1390.43 523.138 1401 519.5C1361.81 481.971 1321.15 446.305 1279 412.5C1249.57 389.446 1216.9 372.113 1181 360.5C1089.62 335.505 1007.95 353.505 936 414.5C909.72 438.774 884.06 463.774 859 489.5C841.15 506.024 822.15 521.024 802 534.5C772.19 552.37 739.86 561.37 705 561.5C675.92 563.885 647.26 561.552 619 554.5C578.83 543.077 540.83 526.743 505 505.5C489.28 495.645 473.61 485.812 458 476ZM939 363C943.449 359.072 946.615 354.405 948.5 349C944.571 353.205 941.404 357.872 939 363ZM478 350C471.92 349.554 466.59 351.388 462 355.5C469.17 357.334 476.5 358.334 484 358.5C486.96 356.539 489.63 354.206 492 351.5C487.15 351.326 482.48 350.826 478 350ZM466 351C456.91 350.055 447.91 351.221 439 354.5C448.71 357.608 457.71 356.441 466 351ZM841 439C801.33 448.371 761.66 448.205 722 438.5C703.06 434.298 684.73 428.298 667 420.5C635.21 405.105 603.54 389.438 572 373.5C548.19 362.838 523.35 355.671 497.5 352C493.17 353.654 489.33 356.154 486 359.5C506.23 363.687 525.89 369.687 545 377.5C577.95 393.306 610.61 409.639 643 426.5C700.62 454.37 760.62 461.37 823 447.5C827.38 446.322 831.71 444.988 836 443.5C838.16 442.504 839.83 441.004 841 439ZM436 354C435.76 353.403 435.26 353.07 434.5 353C431 353.833 427.5 354.666 424 355.5C428.15 356.169 432.15 355.669 436 354ZM958 354C956.238 354.762 955.238 356.096 955 358C956.762 357.238 957.762 355.904 958 354ZM928 354C921.677 361.304 916.34 369.304 912 378C918.32 370.696 923.656 362.696 928 354ZM949 355C947.238 355.762 946.238 357.096 946 359C947.762 358.238 948.762 356.904 949 355ZM449 357C439.53 355.552 430.86 357.385 423 362.5C430.22 362.974 437.39 363.807 444.5 365C447.93 363.239 451.1 361.072 454 358.5C452.12 358.302 450.45 357.802 449 357ZM4 427C28.95 414.358 54.28 402.525 80 391.5C122.1 373.141 166.1 362.974 212 361C224.04 361.836 236.04 362.669 248 363.5C212.52 354.408 177.18 355.074 142 365.5C93.47 380.502 47.47 401.002 4 427ZM463 358C460.97 357.838 458.97 358.005 457 358.5C454.33 360.5 451.67 362.5 449 364.5C456.8 366.858 464.8 368.191 473 368.5C475.37 365.794 478.04 363.461 481 361.5C474.95 360.003 468.95 358.837 463 358ZM426 359C418.25 357.455 410.58 358.289 403 361.5C408.25 361.693 413.42 362.193 418.5 363C420.97 361.514 423.47 360.181 426 359ZM954 359C952.594 359.473 951.927 360.473 952 362C953.406 361.527 954.073 360.527 954 359ZM950 359C948.594 359.473 947.927 360.473 948 362C949.406 361.527 950.073 360.527 950 359ZM946 359C944.238 359.762 943.238 361.096 943 363C944.762 362.238 945.762 360.904 946 359ZM397 362C396.76 361.403 396.26 361.07 395.5 361C393.36 361.627 391.2 362.127 389 362.5C391.72 363.102 394.39 362.935 397 362ZM833 447C769.89 463.574 708.56 458.408 649 431.5C619.77 417.272 590.77 402.605 562 387.5C537.99 375.608 512.82 367.108 486.5 362C481.68 362.838 477.84 365.338 475 369.5C493.31 374.827 511.31 381.16 529 388.5C568.05 408.694 607.39 428.361 647 447.5C695.89 467.556 746.23 472.222 798 461.5C805.74 459.031 813.41 456.364 821 453.5C825.46 451.976 829.46 449.809 833 447ZM943 363C941.594 363.473 940.927 364.473 941 366C942.406 365.527 943.073 364.527 943 363ZM939 363C937.238 363.762 936.238 365.096 936 367C937.762 366.238 938.762 364.904 939 363ZM935 363C933.238 363.762 932.238 365.096 932 367C933.762 366.238 934.762 364.904 935 363ZM946 364C944.594 364.473 943.927 365.473 944 367C945.406 366.527 946.073 365.527 946 364ZM416 365C409.18 363.845 402.18 363.679 395 364.5C392.17 365.747 389.5 367.247 387 369C393.33 369.745 399.67 370.411 406 371C409.59 369.408 412.92 367.408 416 365ZM434 365C428.99 364.834 423.99 365.001 419 365.5C416.49 366.921 414.16 368.588 412 370.5C419.49 372.094 426.99 373.594 434.5 375C437.21 372.122 440.04 369.456 443 367C439.86 366.333 436.86 365.666 434 365ZM367 369C372.34 369.166 377.68 368.999 383 368.5C384.83 367.752 386.5 366.752 388 365.5C380.6 364.962 373.6 366.128 367 369ZM907 366C901.34 372.648 896.67 379.981 893 388C898.66 381.352 903.33 374.019 907 366ZM936 367C934.238 367.762 933.238 369.096 933 371C934.762 370.238 935.762 368.904 936 367ZM932 367C930.238 367.762 929.238 369.096 929 371C930.762 370.238 931.762 368.904 932 367ZM450 367C445.31 368.189 441.31 370.689 438 374.5C445.57 376.81 453.23 378.977 461 381C464.52 378.313 467.52 375.147 470 371.5C463.23 369.879 456.56 368.379 450 367ZM914 369C909.89 373.451 906.56 378.451 904 384C908.07 379.524 911.41 374.524 914 369ZM28 422C62.26 406.636 97.59 394.136 134 384.5C184.34 371.599 234.84 370.765 285.5 382C286.56 381.87 287.39 381.37 288 380.5C237.38 366.617 186.72 366.617 136 380.5C98.48 390.722 62.48 404.555 28 422ZM929 371C927.594 371.473 926.927 372.473 927 374C928.406 373.527 929.073 372.527 929 371ZM390 371C387.31 370.836 384.65 371.003 382 371.5C379.33 373.167 376.67 374.833 374 376.5C381.84 378.314 389.84 379.314 398 379.5C400.18 377.15 402.52 374.983 405 373C399.85 372.333 394.85 371.666 390 371ZM378 372C368.11 370.277 358.45 371.444 349 375.5C356.31 376.61 363.64 376.943 371 376.5C373.22 374.777 375.55 373.277 378 372ZM932 372C930.594 372.473 929.927 373.473 930 375C931.406 374.527 932.073 373.527 932 372ZM476 372C474.63 371.843 473.29 372.01 472 372.5C469.7 375.797 467.04 378.797 464 381.5C493.23 389.952 520.9 401.952 547 417.5C575.73 436.539 605.73 453.539 637 468.5C657.44 477.454 678.77 481.121 701 479.5C724.54 477.132 747.87 473.465 771 468.5C735.99 471.196 701.66 467.529 668 457.5C653.01 452.282 638.34 446.282 624 439.5C593.82 423.578 563.49 407.911 533 392.5C514.44 384.149 495.44 377.316 476 372ZM414 373C408.15 373.092 403.49 375.592 400 380.5C407.7 381.808 415.37 383.308 423 385C426.75 382.761 430.08 379.927 433 376.5C426.53 375.313 420.19 374.146 414 373ZM349 373C341.78 372.87 334.78 374.037 328 376.5C333.65 376.447 339.31 376.114 345 375.5C346.57 374.892 347.9 374.058 349 373ZM424 456C464.16 489.753 505.83 521.586 549 551.5C583.99 574.99 621.99 591.99 663 602.5C712.03 615.165 757.03 606.831 798 577.5C820 560.508 840.5 541.675 859.5 521C875.94 502.56 893.11 484.726 911 467.5C960.48 423.104 1018.65 399.604 1085.5 397C1133.23 398.023 1177.06 411.523 1217 437.5C1256.97 465.789 1294.31 497.456 1329 532.5C1330.27 532.809 1331.43 533.309 1332.5 534C1343.9 532.066 1355.4 530.566 1367 529.5C1330.78 493.932 1292.78 460.599 1253 429.5C1221.98 406.492 1187.65 390.158 1150 380.5C1066.03 364.407 991.695 384.074 927 439.5C902.67 463.167 878.33 486.833 854 510.5C829.37 534.117 801.71 553.45 771 568.5C726.6 586.119 681.26 588.785 635 576.5C597.14 564.403 561.48 547.737 528 526.5C517 519.5 506 512.5 495 505.5C471.62 488.488 447.96 471.988 424 456ZM38 421C78.48 403.562 120.48 391.062 164 383.5C201.04 377.335 238.04 377.501 275 384C276.7 383.601 278.36 383.101 280 382.5C231.05 372.84 182.39 374.173 134 386.5C100.78 394.96 68.78 406.46 38 421ZM439 377C437.63 376.843 436.29 377.01 435 377.5C432.33 380.167 429.67 382.833 427 385.5C435.25 387.771 443.42 390.271 451.5 393C454.33 389.5 457.17 386 460 382.5C452.84 380.794 445.84 378.96 439 377ZM912 378C910.59 378.473 909.93 379.473 910 381C911.41 380.527 912.07 379.527 912 378ZM361 378C354.99 377.834 348.99 378.001 343 378.5C340.67 380.167 338.33 381.833 336 383.5C343.35 384.244 350.68 385.077 358 386C361.11 384.061 364.11 381.894 367 379.5C364.79 379.309 362.79 378.809 361 378ZM340 379C338.71 378.342 337.21 378.008 335.5 378C329.5 378.314 323.66 379.147 318 380.5C318.67 381.167 319.33 381.833 320 382.5C323.36 382.837 326.69 383.337 330 384C333.34 382.315 336.68 380.648 340 379ZM919 379C917.59 379.473 916.93 380.473 917 382C918.41 381.527 919.07 380.527 919 379ZM376 379C370.72 379.075 366.39 381.242 363 385.5C371.14 387.801 379.48 389.135 388 389.5C390.33 387.167 392.67 384.833 395 382.5C388.62 380.938 382.29 379.772 376 379ZM1694 381C1683.99 380.834 1673.99 381 1664 381.5C1713.08 406.437 1765.08 417.103 1820 413.5C1801.95 406.374 1783.62 400.04 1765 394.5C1741.11 390.287 1717.44 385.787 1694 381ZM910 381C908.59 381.473 907.93 382.473 908 384C909.41 383.527 910.07 382.527 910 381ZM316 381C315.12 380.869 314.46 381.202 314 382C316.31 383.373 316.98 383.04 316 381ZM46 421C83.4 405.815 122.07 394.982 162 388.5C195.83 383.264 229.66 382.764 263.5 387C264.9 386.273 266.4 385.773 268 385.5C252.04 382.271 235.87 380.771 219.5 381C158.81 382.465 100.98 395.799 46 421ZM1662 382C1654.15 382.106 1646.48 383.272 1639 385.5C1653.03 394.516 1667.69 402.516 1683 409.5C1716.87 414.883 1749.87 423.549 1782 435.5C1809.54 438.207 1836.87 436.874 1864 431.5C1852.08 426.305 1840.08 421.305 1828 416.5C1783.49 419.019 1740.15 413.019 1698 398.5C1685.55 393.772 1673.55 388.272 1662 382ZM400 382C395.82 383.509 392.48 386.176 390 390C398.14 392.41 406.31 394.744 414.5 397C416.96 393.535 419.8 390.369 423 387.5C415.27 385.458 407.6 383.624 400 382ZM824 456C780.32 470.503 735.48 479.17 689.5 482C662.96 480.822 638.12 473.656 615 460.5C587.84 444.752 560.84 428.752 534 412.5C511.19 400.12 487.35 390.287 462.5 383C459.67 386.5 456.83 390 454 393.5C475.41 400.749 496.08 409.749 516 420.5C548.68 440.843 582.01 460.177 616 478.5C641.46 491.615 668.46 497.282 697 495.5C739.62 491.012 780.29 479.679 819 461.5C820.87 459.796 822.54 457.963 824 456ZM904 384C902.59 384.473 901.93 385.473 902 387C903.41 386.527 904.07 385.527 904 384ZM907 385C905.59 385.473 904.93 386.473 905 388C906.41 387.527 907.07 386.527 907 385ZM329 386C327.21 384.878 325.21 384.711 323 385.5C324.84 388.602 326.84 388.769 329 386ZM320 385C319.26 384.869 318.59 385.036 318 385.5C319.58 387.795 321.58 389.128 324 389.5C322.46 388.129 321.13 386.629 320 385ZM1674 408C1661.23 401.114 1648.57 393.947 1636 386.5C1629.77 386.573 1623.77 387.906 1618 390.5C1626.16 396.083 1634.5 401.416 1643 406.5C1653.34 407.033 1663.67 407.533 1674 408ZM346 386C340.99 385.834 335.99 386.001 331 386.5C329.95 387.885 328.62 388.885 327 389.5C328 390.5 329 391.5 330 392.5C336.6 394.11 343.26 394.777 350 394.5C352.18 392.484 354.18 390.317 356 388C352.52 387.333 349.19 386.666 346 386ZM295 386C285.75 386.027 285.75 386.694 295 388C296 387.833 297 387.667 298 387.5C296.76 387.268 295.76 386.768 295 386ZM73 414C131.72 394.157 192.06 385.491 254 388C191.57 382.685 131.24 391.352 73 414ZM898 387C896.59 387.473 895.93 388.473 896 390C897.41 389.527 898.07 388.527 898 387ZM890 387C881.86 395.136 874.86 404.136 869 414C877.9 406.436 884.9 397.436 890 387ZM283 387C280.94 387.187 278.94 387.687 277 388.5C281.61 389.79 286.28 390.124 291 389.5C288.12 388.954 285.45 388.121 283 387ZM429 388C427.63 387.843 426.29 388.01 425 388.5C422.5 391 420 393.5 417.5 396C417.07 397.1 417.57 397.767 419 398C426.2 400.233 433.36 402.566 440.5 405C444.34 402.344 447.5 399.011 450 395C442.97 392.436 435.97 390.103 429 388ZM364 388C358.9 388.574 354.9 391.074 352 395.5C359.98 397.396 367.98 399.23 376 401C379.12 398.377 382.12 395.544 385 392.5C377.93 390.772 370.93 389.272 364 388ZM301 388C300.21 388.283 299.54 388.783 299 389.5C301.32 390.337 303.65 390.67 306 390.5C304.19 389.743 302.52 388.91 301 388ZM269 390C266.2 388.862 263.2 388.695 260 389.5C262.92 391.318 265.92 391.484 269 390ZM896 390C894.59 390.473 893.93 391.473 894 393C895.41 392.527 896.07 391.527 896 390ZM89 412C137.64 397.879 187.3 391.045 238 391.5C187.04 388.755 137.38 395.589 89 412ZM1616 391C1611.05 392.15 1606.38 393.984 1602 396.5C1607.53 400.86 1613.19 405.026 1619 409C1625.62 407.971 1632.29 407.137 1639 406.5C1630.92 401.806 1623.26 396.639 1616 391ZM287 392C283.65 391.835 280.32 392.002 277 392.5C280.97 393.498 284.97 393.831 289 393.5C288.08 393.222 287.42 392.722 287 392ZM894 393C892.59 393.473 891.93 394.473 892 396C893.41 395.527 894.07 394.527 894 393ZM393 393C390.97 392.838 388.97 393.005 387 393.5C384.33 396.167 381.67 398.833 379 401.5C387.64 403.618 396.14 406.118 404.5 409C407.33 405.5 410.17 402 413 398.5C406.21 396.639 399.54 394.806 393 393ZM300 393C304.77 394.941 309.77 396.108 315 396.5C310.2 394.397 305.2 393.231 300 393ZM270 393C267.75 392.681 265.75 393.181 264 394.5C271 395.585 278 396.251 285 396.5C279.94 395.108 274.94 393.941 270 393ZM311 399C304.68 396.254 298.01 394.754 291 394.5C297.58 396.448 304.24 397.948 311 399ZM100 412C141.01 401.546 182.68 395.712 225 394.5C182.31 393.861 140.64 399.695 100 412ZM811 468C770.53 484.991 728.37 494.991 684.5 498C666.36 497.757 648.86 494.257 632 487.5C619.09 482.046 606.42 476.046 594 469.5C568.83 454.752 543.83 439.752 519 424.5C497.73 412.615 475.57 402.782 452.5 395C449.67 398.5 446.83 402 444 405.5C459.54 411.935 474.87 418.935 490 426.5C518.33 442.663 546.33 459.33 574 476.5C598.71 491.403 625.04 502.403 653 509.5C666.91 511.865 680.91 512.532 695 511.5C730.58 507.192 764.24 496.859 796 480.5C801.44 476.791 806.44 472.625 811 468ZM335 395C333.12 394.893 332.79 395.393 334 396.5C336.92 398.209 339.75 400.042 342.5 402C344 400.5 345.5 399 347 397.5C342.83 396.795 338.83 395.961 335 395ZM254 395C249.32 394.834 244.65 395.001 240 395.5C245.3 396.645 250.63 396.978 256 396.5C255.08 396.222 254.42 395.722 254 395ZM289 396C288.21 396.283 287.54 396.783 287 397.5C291.94 398.935 296.94 399.602 302 399.5C297.46 398.633 293.13 397.467 289 396ZM265 396C259.29 395.992 258.96 396.492 264 397.5C267 398.167 270 398.167 273 397.5C270.14 397.317 267.47 396.817 265 396ZM1600 397C1595.41 398.626 1591.08 400.793 1587 403.5C1590.61 406.951 1594.61 409.784 1599 412C1604.07 411.045 1609.07 409.878 1614 408.5C1608.85 405.18 1604.19 401.347 1600 397ZM355 398C350.59 397.123 347.26 398.623 345 402.5C351.49 408.583 359.16 411.583 368 411.5C370.1 408.646 372.43 405.979 375 403.5C368.36 401.342 361.69 399.509 355 398ZM139 406C160.59 402.878 182.26 400.378 204 398.5C181.96 398.798 160.29 401.298 139 406ZM1096 399C1037.84 398.333 985.175 414.833 938 448.5C929.712 454.453 921.712 460.786 914 467.5C885.67 496.5 857.33 525.5 829 554.5C808.89 574.063 785.89 589.396 760 600.5C724.94 612.487 689.6 613.154 654 602.5C628.22 595.278 603.55 585.278 580 572.5C547.44 553.727 516.44 532.727 487 509.5C461.77 488.972 436.27 468.805 410.5 449C410 449.5 409.5 450 409 450.5C446.37 484.87 484.03 518.87 522 552.5C549.42 575.72 579.09 595.72 611 612.5C635.33 624.609 661 632.276 688 635.5C727.5 638.554 762.5 627.554 793 602.5C821.51 577.321 848.01 550.154 872.5 521C909.41 478.787 954.575 448.954 1008 431.5C1079.8 411.411 1146.14 422.745 1207 465.5C1232.13 483.622 1255.8 503.622 1278 525.5C1293.66 530.31 1309.66 532.644 1326 532.5C1296.11 502.597 1264.44 474.93 1231 449.5C1190.83 419.721 1145.83 402.888 1096 399ZM417 399C415.13 399.359 413.63 400.359 412.5 402C410.67 404.5 408.83 407 407 409.5C414.99 411.94 422.82 414.773 430.5 418C433.99 414.885 437.16 411.385 440 407.5C432.37 404.349 424.71 401.516 417 399ZM277 402C269.87 400.319 262.54 399.485 255 399.5C262.26 400.926 269.6 401.76 277 402ZM885 401C883.59 401.473 882.93 402.473 883 404C884.41 403.527 885.07 402.527 885 401ZM908 403C905.23 404.223 902.56 405.723 900 407.5C889 415.833 878 424.167 867 432.5C855.4 445.235 844.4 458.402 834 472C842.44 465.402 850.77 458.569 859 451.5C875.41 435.318 891.74 419.151 908 403ZM1585 404C1576.52 408.408 1568.52 413.575 1561 419.5C1562.23 421.029 1563.73 422.196 1565.5 423C1575.03 418.71 1584.87 415.21 1595 412.5C1591.47 409.802 1588.14 406.969 1585 404ZM883 404C881.59 404.473 880.93 405.473 881 407C882.41 406.527 883.07 405.527 883 404ZM382 404C380.3 403.84 378.63 404.006 377 404.5C374.31 407.057 371.98 409.891 370 413C377.99 415.666 385.99 418.332 394 421C397.58 418.006 400.58 414.506 403 410.5C395.86 408.394 388.86 406.227 382 404ZM237 406C229.99 405.834 222.99 406 216 406.5C208.67 411.833 201.33 417.167 194 422.5C181 434.167 168 445.833 155 457.5C163.76 459.524 172.42 461.524 181 463.5C200.4 444.1 220.4 425.433 241 407.5C239.44 407.29 238.11 406.79 237 406ZM213 407C199.86 404.895 187.53 407.395 176 414.5C156.14 428.019 137.14 442.685 119 458.5C129.99 457.226 140.99 456.893 152 457.5C165.33 445.5 178.67 433.5 192 421.5C198.71 416.153 205.71 411.32 213 407ZM256 407C250.08 406.088 244.74 407.255 240 410.5C220.7 428.134 201.7 446.134 183 464.5C188.42 466.639 193.75 468.972 199 471.5C201.25 472.65 203.59 472.984 206 472.5C210.33 468.833 214.67 465.167 219 461.5C235.64 443.862 252.64 426.528 270 409.5C265.26 408.449 260.59 407.615 256 407ZM444 408C442.48 408.011 441.32 408.677 440.5 410C438.5 412.667 436.5 415.333 434.5 418C448.24 425.121 462.4 432.288 477 439.5C511.41 460.232 546.07 480.565 581 500.5C606.4 514.3 633.4 523.3 662 527.5C707.06 530.911 747.06 518.578 782 490.5C758.17 499.961 733.51 506.961 708 511.5C682.35 516.185 657.18 514.352 632.5 506C608.2 497.101 585.04 485.935 563 472.5C540.6 458.436 517.93 444.769 495 431.5C478.39 422.523 461.39 414.69 444 408ZM183 409C182.4 408.361 181.57 408.028 180.5 408C163.34 410.499 147.17 415.999 132 424.5C109.49 439.921 87.16 455.587 65 471.5C80.99 468.172 96.99 464.505 113 460.5C128.38 447.454 144.04 434.788 160 422.5C167.31 417.347 174.98 412.847 183 409ZM1662 409C1656.99 408.834 1651.99 409.001 1647 409.5C1699.57 441.769 1756.74 458.603 1818.5 460C1824.37 459.943 1830.21 459.443 1836 458.5C1817.78 451.222 1799.44 444.222 1781 437.5C1746.63 433.99 1713.63 425.323 1682 411.5C1675.17 410.77 1668.5 409.937 1662 409ZM1643 409C1635.64 409.058 1628.31 409.558 1621 410.5C1635.66 421.167 1650.99 430.833 1667 439.5C1713.08 450.082 1758.08 464.082 1802 481.5C1829.2 484.368 1856.2 483.035 1883 477.5C1869.67 472.167 1856.33 466.833 1843 461.5C1770.59 465.233 1703.92 447.733 1643 409ZM277 409C275.63 408.843 274.29 409.01 273 409.5C255.64 426.528 238.64 443.862 222 461.5C216.96 466.212 211.62 470.545 206 474.5C212.91 477.538 219.74 480.705 226.5 484C243.32 472.189 258.65 458.522 272.5 443C280.96 432.868 289.8 423.035 299 413.5C291.69 411.578 284.36 410.078 277 409ZM1618 411C1612.1 411.315 1606.43 412.482 1601 414.5C1609.39 421.22 1618.05 427.553 1627 433.5C1638.26 435.825 1649.59 437.492 1661 438.5C1645.96 430.259 1631.62 421.093 1618 411ZM407 411C403.25 413.925 399.91 417.425 397 421.5C405.23 424.801 413.4 428.301 421.5 432C424.46 428.256 427.29 424.422 430 420.5C422.31 417.219 414.64 414.052 407 411ZM100 412C97.35 411.91 95.01 412.576 93 414C95.65 414.09 97.99 413.424 100 412ZM304 413C299.76 415.728 295.93 419.061 292.5 423C273.92 446.243 252.76 466.743 229 484.5C235.26 488.251 241.92 490.584 249 491.5C261.37 485.319 272.7 477.652 283 468.5C298.97 453.041 313.63 436.541 327 419C319.29 416.731 311.62 414.731 304 413ZM86 413C81.58 413.361 77.58 414.694 74 417C78.28 416.239 82.28 414.905 86 413ZM1695 414C1718.92 424.397 1743.92 430.897 1770 433.5C1745.54 424.846 1720.54 418.346 1695 414ZM1598 414C1587.46 416.792 1577.12 420.292 1567 424.5C1571.95 427.785 1576.62 431.452 1581 435.5C1595.65 435.315 1610.31 434.982 1625 434.5C1615.53 428.187 1606.53 421.354 1598 414ZM873 414C872.21 414.283 871.54 414.783 871 415.5C872.32 416.028 872.98 415.528 873 414ZM93 414C90.35 413.91 88.01 414.576 86 416C88.65 416.09 90.99 415.424 93 414ZM370 415C366.5 414.759 366.17 415.592 369 417.5C375.75 420.955 382.25 424.789 388.5 429C390.12 427.259 391.62 425.425 393 423.5C385.37 420.349 377.71 417.516 370 415ZM70 415C66.96 415.233 64.29 416.233 62 418C65.04 417.767 67.71 416.767 70 415ZM332 419C330.13 419.359 328.63 420.359 327.5 422C314.78 438.393 300.95 453.893 286 468.5C275.38 478.782 263.38 487.116 250 493.5C255.44 495.867 260.94 498.034 266.5 500C283.56 494.724 298.73 486.224 312 474.5C328 460.011 342.33 444.178 355 427C347.42 423.862 339.76 421.196 332 419ZM59 419C56.95 418.902 55.28 419.569 54 421C56.05 421.098 57.72 420.431 59 419ZM1545 432C1551.1 429.451 1557.1 426.618 1563 423.5C1561.53 422.865 1560.2 422.031 1559 421C1553.9 424.204 1549.23 427.871 1545 432ZM715 526C677.41 534.093 641.08 530.26 606 514.5C594.21 509.106 582.54 503.439 571 497.5C540.5 479.752 510.17 461.752 480 443.5C464.67 435.332 449 427.832 433 421C429.65 424.351 426.65 428.018 424 432C438.13 438.896 452.13 446.063 466 453.5C496 470.833 526 488.167 556 505.5C578.63 517.982 602.3 527.982 627 535.5C639.73 540.112 652.73 541.112 666 538.5C682.98 536.34 699.31 532.173 715 526ZM54 421C51.95 420.902 50.28 421.569 49 423C51.05 423.098 52.72 422.431 54 421ZM46 421C43.95 420.902 42.28 421.569 41 423C43.05 423.098 44.72 422.431 46 421ZM38 421C35.26 421.207 32.93 422.207 31 424C33.74 423.793 36.07 422.793 38 421ZM26 423C21.41 423.96 17.41 425.96 14 429C18.32 427.508 22.32 425.508 26 423ZM1093 424C1033.9 421.022 980.231 436.522 932 470.5C915.62 482.541 900.12 495.708 885.5 510C866.17 531.333 846.83 552.667 827.5 574C806.59 596.359 782.42 614.192 755 627.5C721.07 640.407 686.74 641.407 652 630.5C615.99 618.997 582.99 601.997 553 579.5C541.82 571.074 530.82 562.408 520 553.5C482.2 520.037 444.7 486.203 407.5 452C406.86 453.466 406.03 454.8 405 456C444.45 498.288 484.45 540.121 525 581.5C547.51 603.082 572.18 621.748 599 637.5C628.41 654.58 660.07 664.08 694 666C722.8 665.233 748.8 656.399 772 639.5C787.36 628.145 801.53 615.312 814.5 601C831.07 582.186 847.4 563.186 863.5 544C896.69 507.133 936.189 479.3 982 460.5C1056 433.882 1125 443.216 1189 488.5C1201.46 494.563 1213.79 500.896 1226 507.5C1236.91 511.247 1247.57 515.58 1258 520.5C1262.96 522.026 1267.96 523.026 1273 523.5C1240.09 489.588 1202.42 462.255 1160 441.5C1138.4 432.351 1116.07 426.518 1093 424ZM398 424C394.49 424.505 392.15 426.505 391 430C397.92 434.71 405.08 439.044 412.5 443C415 439.833 417.5 436.667 420 433.5C412.52 430.406 405.19 427.24 398 424ZM39 424C36.95 423.902 35.28 424.569 34 426C36.05 426.098 37.72 425.431 39 424ZM1565 425C1556.23 429.217 1547.57 433.717 1539 438.5C1540.9 440.905 1543.24 442.739 1546 444C1556.8 440.673 1567.8 438.173 1579 436.5C1574.08 432.887 1569.41 429.054 1565 425ZM27 426C22.41 426.96 18.41 428.96 15 432C19.32 430.508 23.32 428.508 27 426ZM864 427C861.41 426.961 859.41 427.961 858 430C860.32 429.508 862.32 428.508 864 427ZM30 428C24.75 429.293 20.08 431.626 16 435C20.98 433.174 25.65 430.841 30 428ZM358 429C356.48 429.011 355.32 429.677 354.5 431C337.63 453.54 317.79 473.04 295 489.5C287.02 493.991 278.69 497.658 270 500.5C280.21 504.701 290.55 505.035 301 501.5C315.79 497.108 329.12 490.108 341 480.5C353.55 469.781 364.89 457.947 375 445C369.31 439.645 363.65 434.312 358 429ZM35 429C28.41 430.96 22.41 433.96 17 438C23.32 435.508 29.32 432.508 35 429ZM40 430C37.95 429.902 36.28 430.569 35 432C37.05 432.098 38.72 431.431 40 430ZM10 431C7.17 431.579 4.84 432.912 3 435C5.83 434.421 8.16 433.088 10 431ZM1869 433C1842.86 437.82 1816.53 439.653 1790 438.5C1807.99 444.941 1825.82 451.774 1843.5 459C1863.02 456.962 1882.19 453.129 1901 447.5C1890.12 442.891 1879.46 438.058 1869 433ZM858 433C855.41 432.961 853.41 433.961 852 436C854.32 435.508 856.32 434.508 858 433ZM423 434C420.01 437.001 417.34 440.335 415 444C457.95 471.07 502.28 495.903 548 518.5C575.32 531.163 603.99 538.163 634 539.5C600.55 529.939 568.88 516.273 539 498.5C501.37 475.183 462.7 453.683 423 434ZM11 434C8.17 434.579 5.84 435.912 4 438C6.83 437.421 9.16 436.088 11 434ZM1629 437C1614.27 436.568 1599.61 437.068 1585 438.5C1597.83 447.747 1610.83 456.747 1624 465.5C1648.01 469.752 1671.67 475.419 1695 482.5C1738.96 496.707 1782.62 511.707 1826 527.5C1852.68 528.053 1878.68 524.053 1904 515.5C1892.89 513.678 1881.89 511.345 1871 508.5C1797.2 514.216 1728.53 498.216 1665 460.5C1652.56 453.197 1640.56 445.364 1629 437ZM388 437C386.95 436.851 385.95 437.017 385 437.5C390.86 442.602 396.52 447.935 402 453.5C403.7 453.845 405.03 453.178 406 451.5C400.39 446.044 394.39 441.21 388 437ZM1643 438C1639.98 437.835 1636.98 438.002 1634 438.5C1678.67 470.29 1728 491.624 1782 502.5C1808.01 507.407 1834.01 508.407 1860 505.5C1841.26 498.697 1822.59 491.697 1804 484.5C1755.63 480.154 1710.3 466.154 1668 442.5C1659.53 440.979 1651.19 439.479 1643 438ZM1582 438C1570.39 439.523 1559.05 442.189 1548 446C1553.86 451.023 1559.86 455.856 1566 460.5C1583.47 461.176 1600.8 462.509 1618 464.5C1605.76 455.89 1593.76 447.056 1582 438ZM10 438C7.83 438.25 6.16 439.25 5 441C7.17 440.75 8.84 439.75 10 438ZM1525 451C1530.89 449.39 1536.55 447.223 1542 444.5C1540.46 442.622 1538.62 441.122 1536.5 440C1532.16 443.169 1528.33 446.836 1525 451ZM17 441C15.47 440.927 14.47 441.594 14 443C15.53 443.073 16.53 442.406 17 441ZM9 442C6.83 442.25 5.16 443.25 4 445C6.17 444.75 7.84 443.75 9 442ZM400 443C402.1 444.599 404.1 446.432 406 448.5C408.47 448.243 408.47 447.243 406 445.5C404.09 444.378 402.09 443.545 400 443ZM1679 444C1677.95 443.851 1676.95 444.017 1676 444.5C1712.71 464.092 1751.71 476.092 1793 480.5C1755.7 465.786 1717.7 453.619 1679 444ZM22 445C20.47 444.927 19.47 445.594 19 447C20.53 447.073 21.53 446.406 22 445ZM1545 446C1535.25 449.302 1525.92 453.469 1517 458.5C1519.93 460.882 1522.76 463.382 1525.5 466C1537.87 463.474 1550.37 461.641 1563 460.5C1556.81 455.803 1550.81 450.969 1545 446ZM14 446C12.47 445.927 11.47 446.594 11 448C12.53 448.073 13.53 447.406 14 446ZM378 447C368.64 456.864 358.97 466.697 349 476.5C332.4 491.465 313.07 501.132 291 505.5C320.55 510.113 347.21 503.447 371 485.5C379.6 478.904 387.6 471.57 395 463.5C389.44 457.77 383.77 452.27 378 447ZM6 447C4.47 446.927 3.47 447.594 3 449C4.53 449.073 5.53 448.406 6 447ZM606 644C638.62 665.151 674.46 676.818 713.5 679C748.52 677.729 779.69 666.229 807 644.5C834.51 622 860.51 597.667 885 571.5C927.731 529.784 977.731 499.784 1035 481.5C1082.18 467.308 1129.18 467.808 1176 483C1121.56 447.43 1062.9 438.597 1000 456.5C965.429 467.447 934.096 484.114 906 506.5C891.56 518.936 877.73 532.103 864.5 546C843.48 572.358 820.98 597.525 797 621.5C783.06 634.439 767.73 645.439 751 654.5C720 668.833 688 671.5 655 662.5C638.15 657.607 621.82 651.44 606 644ZM842 451C838.61 452.029 835.94 454.029 834 457C837.03 455.484 839.7 453.484 842 451ZM9 452C7.47 451.927 6.47 452.594 6 454C7.53 454.073 8.53 453.406 9 452ZM1519 453C1517.3 453.185 1515.97 454.019 1515 455.5C1516.91 455.779 1518.25 454.946 1519 453ZM420 453C420.76 454.762 422.1 455.762 424 456C423.24 454.238 421.9 453.238 420 453ZM813 471C819.67 468.318 825.34 464.151 830 458.5C827.69 459.142 825.36 460.142 823 461.5C819.17 464.168 815.83 467.335 813 471ZM150 460C139.08 458.652 128.08 459.152 117 461.5C125.37 461.952 133.71 462.785 142 464C144.89 463.105 147.56 461.771 150 460ZM1509 469C1513.58 468.605 1517.92 467.438 1522 465.5C1519.54 464.042 1517.37 462.209 1515.5 460C1513.09 462.897 1510.92 465.897 1509 469ZM1494 474C1497.07 473.478 1500.07 472.645 1503 471.5C1505.96 467.534 1509.3 463.867 1513 460.5C1505.5 463.142 1499.16 467.642 1494 474ZM158 460C153.42 459.293 149.75 460.793 147 464.5C154.91 467.474 162.91 469.807 171 471.5C173.52 469.737 175.85 467.737 178 465.5C171.3 463.329 164.64 461.495 158 460ZM838 462C828.24 469.725 818.24 477.225 808 484.5C802.26 490.016 796.59 495.516 791 501C796.44 498.447 801.77 495.613 807 492.5C817.84 482.828 828.17 472.661 838 462ZM1585 463C1579.99 462.834 1574.99 463.001 1570 463.5C1587.52 476.68 1605.86 488.68 1625 499.5C1677.55 514.016 1729.55 530.35 1781 548.5C1812.69 551.109 1844.03 548.776 1875 541.5C1859.17 538.601 1843.51 534.934 1828 530.5C1753.97 530.155 1686.31 509.488 1625 468.5C1611.64 465.889 1598.3 464.056 1585 463ZM1616 497C1599.3 486.478 1582.96 475.311 1567 463.5C1553.88 463.459 1540.88 464.792 1528 467.5C1536.67 474.167 1545.33 480.833 1554 487.5C1574.83 489.694 1595.5 492.861 1616 497ZM131 464C124.33 463.834 117.66 464 111 464.5C110.17 465.415 109.17 466.081 108 466.5C116.69 467.572 125.19 469.405 133.5 472C136 470.167 138.5 468.333 141 466.5C137.59 465.504 134.26 464.671 131 464ZM106 466C103.77 464.941 101.44 465.108 99 466.5C101.43 467.203 103.76 467.037 106 466ZM182 466C178.55 468.239 175.21 470.739 172 473.5C178.78 476.058 185.45 478.891 192 482C195.2 479.636 198.53 477.47 202 475.5C195.39 472.029 188.73 468.862 182 466ZM148 467C143.44 467.444 139.44 469.277 136 472.5C143.23 474.799 150.4 477.299 157.5 480C160.9 478.381 164.07 476.381 167 474C160.79 471.043 154.45 468.71 148 467ZM1526 468C1519.05 469.113 1512.21 470.78 1505.5 473C1502.65 475.516 1500.15 478.349 1498 481.5C1500.29 482.79 1502.29 484.457 1504 486.5C1519.02 486.21 1534.02 486.21 1549 486.5C1540.86 480.849 1533.19 474.682 1526 468ZM1634 469C1632.63 468.843 1631.29 469.01 1630 469.5C1687.34 507.167 1750.34 526.501 1819 527.5C1780.89 513.575 1742.56 500.242 1704 487.5C1680.8 480.367 1657.46 474.2 1634 469ZM113 469C107.81 468.034 103.47 469.368 100 473C107.27 474.61 114.44 476.61 121.5 479C125.06 477.805 128.23 475.971 131 473.5C124.99 471.537 118.99 470.037 113 469ZM101 470C95.95 468.505 90.95 469.005 86 471.5C88.87 471.815 91.7 472.315 94.5 473C96.78 472.109 98.95 471.109 101 470ZM452 472C452.47 473.406 453.47 474.073 455 474C454.53 472.594 453.53 471.927 452 472ZM619 655C653.67 677.835 691.84 690.168 733.5 692C766.77 691.356 797.27 681.856 825 663.5C855.39 643.118 884.06 620.452 911 595.5C958.611 555.663 1012.28 526.329 1072 507.5C1114.42 494.505 1157.42 492.005 1201 500C1194.5 493.705 1186.84 489.205 1178 486.5C1132.13 470.201 1085.79 468.867 1039 482.5C986.966 497.838 940.966 523.505 901 559.5C880.69 578.805 860.69 598.471 841 618.5C826.09 632.612 810.09 645.278 793 656.5C751.9 682.148 708.23 687.481 662 672.5C647.2 667.736 632.87 661.902 619 655ZM455 474C455.47 475.406 456.47 476.073 458 476C457.53 474.594 456.53 473.927 455 474ZM136 474C132.12 475.274 128.45 477.107 125 479.5C131.39 482.187 137.89 484.687 144.5 487C148.22 485.557 151.72 483.723 155 481.5C148.58 478.946 142.24 476.446 136 474ZM93 475C86.93 473.363 80.93 473.863 75 476.5C77.82 477.754 80.82 478.587 84 479C87.16 477.915 90.16 476.582 93 475ZM74 475C73.58 474.376 72.92 474.043 72 474C69.67 474.83 67.34 475.663 65 476.5C68.18 477.097 71.18 476.597 74 475ZM1500 475C1497.48 475.255 1495.15 476.089 1493 477.5C1496.38 480.716 1498.72 479.883 1500 475ZM1484 478C1486.3 477.978 1487.47 476.978 1487.5 475C1485.98 475.663 1484.81 476.663 1484 478ZM812 475C810.47 474.927 809.47 475.594 809 477C810.53 477.073 811.53 476.406 812 475ZM172 475C167.89 476.095 164.22 478.095 161 481C166.75 483.872 172.75 486.206 179 488C182.89 487.39 186.22 485.724 189 483C183.13 480.563 177.46 477.896 172 475ZM100 475C95.49 475.088 91.49 476.588 88 479.5C94.93 481.44 101.77 483.606 108.5 486C112.38 484.311 116.21 482.478 120 480.5C113.21 478.639 106.54 476.806 100 475ZM206 476C202.56 477.555 199.23 479.388 196 481.5C194.67 482.167 194.67 482.833 196 483.5C201.55 485.963 207.22 488.129 213 490C216.89 489.39 220.22 487.724 223 485C217.17 482.179 211.51 479.179 206 476ZM809 477C805.13 477.763 802.13 479.763 800 483C803.52 481.741 806.52 479.741 809 477ZM1478 491C1481.69 490.719 1485.36 490.219 1489 489.5C1491 486.833 1493 484.167 1495 481.5C1493.13 479.898 1491.13 478.898 1489 478.5C1484.73 482.261 1481.06 486.428 1478 491ZM66 479C61.84 477.97 57.84 478.803 54 481.5C56 482.167 58 482.167 60 481.5C61.91 480.378 63.91 479.545 66 479ZM76 479C71.21 478.47 66.88 479.637 63 482.5C65.81 483.411 68.64 484.244 71.5 485C75.17 483.913 78.67 482.413 82 480.5C79.79 480.309 77.79 479.809 76 479ZM87 481C83.14 481.928 79.47 483.428 76 485.5C81.84 487.626 87.84 489.126 94 490C97.98 489.727 101.65 488.561 105 486.5C98.86 484.727 92.86 482.894 87 481ZM1482 482C1475.38 483.974 1469.72 487.474 1465 492.5C1465.61 493.37 1466.44 493.87 1467.5 494C1469.31 493.422 1471.14 492.922 1473 492.5C1475.84 488.833 1478.84 485.333 1482 482ZM125 482C120.31 482.341 115.97 483.841 112 486.5C118.04 488.234 124.04 490.068 130 492C133.69 490.936 137.36 489.769 141 488.5C135.64 486.218 130.31 484.051 125 482ZM1497 483C1495.72 484.623 1494.39 486.29 1493 488C1493.5 488.333 1494 488.667 1494.5 489C1496.96 488.339 1499.46 487.839 1502 487.5C1500.26 485.983 1498.59 484.483 1497 483ZM806 483C797.32 487.002 789.32 492.002 782 498C790.68 493.998 798.68 488.998 806 483ZM160 483C155.72 483.636 151.72 485.136 148 487.5C157.04 493.439 166.37 494.106 176 489.5C170.46 487.557 165.13 485.39 160 483ZM52 483C49.02 484.154 46.02 485.32 43 486.5C44.43 487.94 46.1 488.274 48 487.5C50 486.5 52 485.5 54 484.5C53.08 484.222 52.42 483.722 52 483ZM45 484C42.47 483.051 40.14 483.718 38 486C38.17 486.333 38.33 486.667 38.5 487C40.49 485.586 42.66 484.586 45 484ZM35 484C34.58 483.376 33.92 483.043 33 483C30.67 483.83 28.34 484.663 26 485.5C29.09 485.751 32.09 485.251 35 484ZM193 484C189.39 485.807 185.72 487.64 182 489.5C187.77 491.536 193.61 493.369 199.5 495C203.24 494.525 206.74 493.358 210 491.5C204.11 489.268 198.44 486.768 193 484ZM60 484C57.03 485.487 54.03 486.987 51 488.5C56.81 489.977 62.48 489.311 68 486.5C65.19 485.718 62.52 484.884 60 484ZM228 486C223.94 487.525 219.94 489.359 216 491.5C221.51 493.836 227.17 495.669 233 497C236.92 496.604 240.59 495.437 244 493.5C238.35 491.461 233.02 488.961 228 486ZM74 487C69.93 487.856 65.93 489.023 62 490.5C70.93 493.131 79.93 493.465 89 491.5C83.84 490.131 78.84 488.631 74 487ZM1631 537C1603.56 523.452 1577.56 507.619 1553 489.5C1537.99 487.794 1522.99 487.794 1508 489.5C1519.39 498.552 1531.05 507.219 1543 515.5C1572.66 521.416 1602 528.582 1631 537ZM111 488C106.81 488.453 102.81 489.619 99 491.5C107.62 494.139 116.28 494.472 125 492.5C120.13 491.263 115.46 489.763 111 488ZM35 489C31.33 487.98 27.66 488.48 24 490.5C25.6 490.773 27.1 491.273 28.5 492C30.49 490.586 32.66 489.586 35 489ZM23 489C21.07 487.791 19.07 487.958 17 489.5C18.99 489.68 20.99 489.514 23 489ZM14 489C13.76 488.403 13.26 488.07 12.5 488C11 488.5 9.5 489 8 489.5C10.05 489.99 12.05 489.823 14 489ZM146 489C142.33 490.056 138.67 491.222 135 492.5C143.11 496.031 151.45 496.698 160 494.5C155.19 492.737 150.53 490.904 146 489ZM44 490C40.23 488.56 36.57 489.06 33 491.5C34.6 491.773 36.1 492.273 37.5 493C39.49 491.586 41.66 490.586 44 490ZM1563 490C1561.3 489.84 1559.63 490.006 1558 490.5C1642.81 553.539 1737.81 578.872 1843 566.5C1821.57 562.892 1800.57 557.558 1780 550.5C1724.12 545.426 1671.78 529.093 1623 501.5C1603.07 496.547 1583.07 492.713 1563 490ZM1536 514C1525.9 506.412 1515.9 498.579 1506 490.5C1500.94 489.839 1495.94 490.172 1491 491.5C1487.42 495.991 1484.09 500.657 1481 505.5C1482.33 506.833 1483.67 508.167 1485 509.5C1502.08 510.249 1519.08 511.749 1536 514ZM50 491C48.41 489.879 46.74 490.046 45 491.5C46.77 492.14 48.43 491.973 50 491ZM786 491C784.47 490.927 783.47 491.594 783 493C784.53 493.073 785.53 492.406 786 491ZM181 491C176.95 491.85 172.95 493.016 169 494.5C177.48 497.978 186.15 498.645 195 496.5C190.19 494.737 185.53 492.904 181 491ZM1487 493C1486.58 492.376 1485.92 492.043 1485 492C1481.32 492.77 1477.65 493.603 1474 494.5C1473 495.5 1472 496.5 1471 497.5C1473.48 499.906 1476.15 502.073 1479 504C1481.72 500.292 1484.39 496.625 1487 493ZM812 492C801.18 499.977 790.18 507.811 779 515.5C766.19 522.902 753.19 529.735 740 536C751.11 534.352 761.78 531.186 772 526.5C786.71 516.631 800.04 505.131 812 492ZM61 492C56.94 491.985 52.94 492.485 49 493.5C54.67 494.167 60.33 494.167 66 493.5C64.12 493.302 62.45 492.802 61 492ZM1460 493C1456.99 494.169 1454.32 495.836 1452 498C1455.64 497.848 1458.31 496.182 1460 493ZM783 493C781.47 492.927 780.47 493.594 780 495C781.53 495.073 782.53 494.406 783 493ZM216 493C211.77 493.278 207.77 494.444 204 496.5C212.15 499.904 220.48 500.57 229 498.5C224.44 496.934 220.11 495.101 216 493ZM99 493C95.6 492.68 92.27 493.013 89 494C93.97 495.162 98.97 495.329 104 494.5C102.12 494.302 100.45 493.802 99 493ZM133 494C129.28 494.064 125.61 494.564 122 495.5C128.34 496.223 134.67 496.557 141 496.5C138.12 495.954 135.45 495.121 133 494ZM793 495C785.36 498.822 777.69 502.656 770 506.5C765.48 509.53 761.15 512.697 757 516C764.42 513.457 771.76 510.624 779 507.5C783.86 503.468 788.53 499.301 793 495ZM249 495C244.95 495.85 240.95 497.016 237 498.5C245.13 502.034 253.46 502.7 262 500.5C257.44 498.934 253.11 497.101 249 495ZM172 498C169.82 496.574 167.32 495.908 164.5 496C162.45 495.923 160.62 496.423 159 497.5C163.32 497.999 167.65 498.166 172 498ZM1468 497C1464.09 496.763 1460.42 497.596 1457 499.5C1452.7 502.798 1448.7 506.465 1445 510.5C1449.78 511.153 1454.45 510.653 1459 509C1462.05 504.963 1465.05 500.963 1468 497ZM634 667C667.24 688.271 703.57 701.105 743 705.5C774.08 707.283 803.75 701.617 832 688.5C870.39 668.654 906.39 645.32 940 618.5C993.925 580.204 1052.59 550.871 1116 530.5C1149.88 519.994 1184.54 514.994 1220 515.5C1215.29 511.12 1210.29 507.12 1205 503.5C1161.6 493.824 1118.6 495.49 1076 508.5C1019.65 525.503 968.649 552.17 923 588.5C895.58 612.698 867.25 635.698 838 657.5C811.17 677.24 781.17 689.24 748 693.5C719.38 695.341 691.71 691.008 665 680.5C654.52 676.286 644.19 671.786 634 667ZM200 497C197.54 497.523 195.21 498.356 193 499.5C199.02 500.092 205.02 500.425 211 500.5C207.07 499.776 203.41 498.609 200 497ZM1203 498C1205.22 501.109 1208.22 502.609 1212 502.5C1209.26 500.462 1206.26 498.962 1203 498ZM1471 500C1470.26 499.869 1469.59 500.036 1469 500.5C1466.33 503.5 1463.67 506.5 1461 509.5C1466.12 510.388 1471.12 510.055 1476 508.5C1476.67 507.833 1477.33 507.167 1478 506.5C1475.59 504.317 1473.26 502.15 1471 500ZM240 502C235.77 499.765 231.44 499.598 227 501.5C231.32 501.999 235.65 502.166 240 502ZM503 501C503.47 502.406 504.47 503.073 506 503C505.53 501.594 504.53 500.927 503 501ZM1450 502C1444.88 502.476 1440.55 504.476 1437 508C1438.33 509 1439.67 510 1441 511C1444.35 508.312 1447.35 505.312 1450 502ZM269 502C265.56 501.801 262.23 502.301 259 503.5C264.65 504.426 270.32 504.759 276 504.5C273.5 503.802 271.16 502.969 269 502ZM1635 505C1676.43 527.945 1720.76 541.778 1768 546.5C1724.16 530.941 1679.83 517.108 1635 505ZM790 505C781.34 507.67 774.01 512.336 768 519C776.02 515.329 783.35 510.662 790 505ZM510 505C523.5 514.086 537.84 521.586 553 527.5C538.93 519.464 524.59 511.964 510 505ZM1213 506C1216.44 508.935 1219.77 512.101 1223 515.5C1227.24 516.957 1231.57 517.291 1236 516.5C1229.04 511.35 1221.37 507.85 1213 506ZM1430 513C1432.82 513.252 1435.49 512.752 1438 511.5C1434.91 508.504 1432.24 509.004 1430 513ZM1528 544C1512.88 533.388 1497.88 522.555 1483 511.5C1480.73 510.742 1478.56 510.909 1476.5 512C1472.67 518.333 1468.83 524.667 1465 531C1486.03 535.205 1507.03 539.539 1528 544ZM1474 511C1469.05 511.728 1464.05 512.228 1459 512.5C1456.18 515.266 1454.35 518.432 1453.5 522C1456.5 524.667 1459.5 527.333 1462.5 530C1466.86 523.944 1470.69 517.61 1474 511ZM1427 511C1423.13 511.934 1419.46 513.434 1416 515.5C1420.52 515.96 1424.18 514.46 1427 511ZM1503 512C1498.32 511.834 1493.66 512.001 1489 512.5C1504.14 524.568 1519.8 535.901 1536 546.5C1606.27 567.369 1676.61 588.036 1747 608.5C1763.78 613.189 1780.78 614.189 1798 611.5C1823.97 608.674 1849.31 603.007 1874 594.5C1854.47 594.306 1834.97 593.473 1815.5 592C1714.82 600.292 1623.32 575.459 1541 517.5C1528.23 515.327 1515.57 513.494 1503 512ZM1456 513C1455.77 512.403 1455.26 512.07 1454.5 512C1450.99 512.558 1447.49 513.224 1444 514C1446.32 515.816 1448.48 517.816 1450.5 520C1452.2 517.48 1454.03 515.147 1456 513ZM1237 513C1236.26 512.869 1235.59 513.036 1235 513.5C1238.91 517.36 1243.58 519.027 1249 518.5C1244.79 516.891 1240.79 515.058 1237 513ZM756 514C755.94 513.457 755.61 513.124 755 513C744.25 517.542 733.58 522.376 723 527.5C735.06 525.646 746.06 521.146 756 514ZM1438 515C1437.94 514.457 1437.61 514.124 1437 514C1433.04 514.939 1429.04 515.772 1425 516.5C1420.38 519.45 1416.05 522.784 1412 526.5C1416.48 528.101 1421.15 528.434 1426 527.5C1429.5 522.831 1433.5 518.664 1438 515ZM770 514C762 516.724 754 519.557 746 522.5C732.72 529.813 719.05 535.98 705 541C729.69 538.785 751.35 529.785 770 514ZM1442 515C1436.9 518.268 1432.56 522.435 1429 527.5C1433.91 528.992 1438.91 529.326 1444 528.5C1445.55 526.243 1447.21 524.076 1449 522C1446.95 519.285 1444.62 516.952 1442 515ZM1418 519C1417.77 518.403 1417.26 518.07 1416.5 518C1413.25 518.77 1410.09 519.77 1407 521C1407.98 522.481 1409.15 523.815 1410.5 525C1412.59 522.406 1415.09 520.406 1418 519ZM647 678C687.14 704.321 731.3 718.321 779.5 720C809.24 719.586 837.74 713.419 865 701.5C878.79 695.105 892.46 688.439 906 681.5C941.837 659.078 978.171 637.411 1015 616.5C1066.42 587.957 1120.08 564.624 1176 546.5C1196.61 540.097 1217.61 535.43 1239 532.5C1233.81 528.065 1228.81 523.399 1224 518.5C1186.08 516.583 1149.08 521.583 1113 533.5C1058.64 551.517 1007.64 576.184 960 607.5C940.471 620.431 921.471 634.098 903 648.5C877.93 666.374 851.27 681.708 823 694.5C775.92 712.672 728.92 712.339 682 693.5C670.08 688.871 658.41 683.704 647 678ZM1552 519C1550.63 518.843 1549.29 519.01 1548 519.5C1625.95 573.24 1712.28 596.906 1807 590.5C1792.81 588.394 1778.81 585.394 1765 581.5C1720.32 567.498 1675.65 553.498 1631 539.5C1604.75 531.855 1578.42 525.022 1552 519ZM1236 519C1233.31 518.836 1230.65 519.003 1228 519.5C1232.52 523.267 1236.86 527.267 1241 531.5C1246.06 532.161 1251.06 531.828 1256 530.5C1251.33 527.167 1246.67 523.833 1242 520.5C1239.79 520.309 1237.79 519.809 1236 519ZM1250 521C1248.95 520.851 1247.95 521.017 1247 521.5C1251 524.5 1255 527.5 1259 530.5C1263.39 531.077 1267.72 530.744 1272 529.5C1265.08 525.192 1257.75 522.359 1250 521ZM1405 522C1390.06 527.578 1390.72 529.412 1407 527.5C1407.46 527.086 1407.79 526.586 1408 526C1406.98 524.648 1405.98 523.315 1405 522ZM1452 523C1449.5 524.67 1447.5 526.836 1446 529.5C1450.68 530.206 1455.34 530.54 1460 530.5C1457.07 528.215 1454.4 525.715 1452 523ZM1395 524C1389.6 525.185 1384.26 526.685 1379 528.5C1385.08 529.221 1390.41 527.721 1395 524ZM1274 526C1272.95 525.851 1271.95 526.017 1271 526.5C1273.58 528.165 1276.24 529.165 1279 529.5C1277.54 527.874 1275.88 526.708 1274 526ZM1432 530C1427.33 529.009 1423.99 530.676 1422 535C1425.38 538.378 1429.04 541.378 1433 544C1436.12 539.922 1439.12 535.755 1442 531.5C1438.47 531.321 1435.14 530.821 1432 530ZM1423 531C1421.21 529.878 1419.21 529.711 1417 530.5C1418.84 533.602 1420.84 533.769 1423 531ZM1414 530C1411.64 529.837 1409.31 530.003 1407 530.5C1402.33 534.5 1397.67 538.5 1393 542.5C1398.64 544.03 1404.31 545.03 1410 545.5C1412.63 541.868 1415.63 538.535 1419 535.5C1417.13 533.796 1415.46 531.963 1414 530ZM1404 531C1394.54 528.19 1386.21 530.19 1379 537C1381.38 540.365 1384.71 542.032 1389 542C1394.29 538.704 1399.29 535.037 1404 531ZM726 530C708.09 534.476 690.09 538.643 672 542.5C691.26 543.574 709.26 539.407 726 530ZM1383 532C1379.52 530.857 1375.86 530.69 1372 531.5C1373.67 532.667 1375.33 533.833 1377 535C1379.03 533.941 1381.03 532.941 1383 532ZM1455 532C1451.32 531.835 1447.65 532.001 1444 532.5C1440.8 536.864 1437.8 541.364 1435 546C1438.19 549.021 1441.52 551.854 1445 554.5C1446.44 555.281 1447.78 555.114 1449 554C1452.62 546.92 1456.62 540.087 1461 533.5C1458.79 533.309 1456.79 532.809 1455 532ZM1370 532C1365.26 533.198 1360.59 534.698 1356 536.5C1360.86 537.241 1365.69 538.074 1370.5 539C1371.99 538.183 1373.49 537.35 1375 536.5C1373.44 534.764 1371.77 533.264 1370 532ZM1295 532C1291.98 531.835 1288.98 532.002 1286 532.5C1292.53 540.674 1300.53 542.341 1310 537.5C1304.93 535.535 1299.93 533.702 1295 532ZM1278 532C1272.9 531.675 1267.9 532.175 1263 533.5C1268.17 537.333 1273.33 541.167 1278.5 545C1282.67 543.747 1286.84 542.414 1291 541C1286.81 537.743 1282.48 534.743 1278 532ZM1358 533C1352.3 533.096 1346.64 533.596 1341 534.5C1344.18 534.907 1347.35 535.407 1350.5 536C1353.37 535.661 1355.87 534.661 1358 533ZM1312 533C1309.64 532.837 1307.31 533.003 1305 533.5C1308.26 534.475 1311.43 535.642 1314.5 537C1317.36 536.327 1320.19 535.493 1323 534.5C1319.14 534.323 1315.48 533.823 1312 533ZM1260 533C1254.61 532.905 1249.28 533.405 1244 534.5C1249.8 539.3 1255.3 544.467 1260.5 550C1265.24 548.308 1270.08 546.808 1275 545.5C1270.1 541.092 1265.1 536.926 1260 533ZM615 550C666.23 567.289 714.9 561.789 761 533.5C735.34 539.811 709.67 546.477 684 553.5C660.8 556.154 637.8 554.987 615 550ZM1465 534C1463.48 534.011 1462.32 534.677 1461.5 536C1458 542.333 1454.5 548.667 1451 555C1476.61 563.151 1502.28 570.984 1528 578.5C1505.88 565.12 1484.88 550.286 1465 534ZM1475 535C1473.3 534.84 1471.63 535.006 1470 535.5C1492.37 553.854 1516.37 569.854 1542 583.5C1598.03 602.341 1654.7 619.007 1712 633.5C1759.21 637.612 1805.55 632.945 1851 619.5C1834 619.167 1817 618.833 1800 618.5C1777.43 615.608 1754.77 614.274 1732 614.5C1660.67 609.056 1595 587.056 1535 548.5C1515.01 543.333 1495.01 538.833 1475 535ZM662 690C705.73 718.241 753.73 733.241 806 735C835.21 734.659 863.54 729.492 891 719.5C904.49 714.558 917.83 709.225 931 703.5C997.95 667.858 1065.62 633.525 1134 600.5C1174.38 581.483 1215.72 564.816 1258 550.5C1252.97 545.133 1247.64 540.133 1242 535.5C1224.33 536.299 1207 539.299 1190 544.5C1137.31 560.179 1086.64 580.845 1038 606.5C999.679 626.988 962.345 648.988 926 672.5C900.86 687.571 874.52 700.238 847 710.5C797.21 726.903 747.88 725.569 699 706.5C686.41 701.537 674.08 696.037 662 690ZM1340 536C1331.3 535.565 1331.14 537.232 1339.5 541C1342.06 539.97 1344.56 538.803 1347 537.5C1344.46 537.314 1342.13 536.814 1340 536ZM1330 536C1326.48 536.305 1323.15 537.138 1320 538.5C1324.51 540.004 1329.01 541.504 1333.5 543C1334.33 542.667 1335.17 542.333 1336 542C1333.97 539.993 1331.97 537.993 1330 536ZM1422 537C1417.9 539.265 1414.57 542.432 1412 546.5C1417.64 548.029 1423.3 549.029 1429 549.5C1430.71 548.367 1431.21 546.867 1430.5 545C1427.17 542.833 1424.33 540.166 1422 537ZM1377 538C1376.12 537.869 1375.46 538.202 1375 539C1377.31 540.373 1377.98 540.04 1377 538ZM1355 538C1349.94 538.527 1345.28 540.193 1341 543C1344.45 547.762 1349.11 549.928 1355 549.5C1359.33 546.5 1363.67 543.5 1368 540.5C1363.49 539.886 1359.15 539.052 1355 538ZM1316 539C1310.52 539.229 1305.19 540.229 1300 542C1304.94 545.386 1310.1 548.386 1315.5 551C1320.72 548.971 1325.89 546.805 1331 544.5C1325.79 542.932 1320.79 541.099 1316 539ZM1375 541C1368.33 542.979 1362.33 546.312 1357 551C1362.43 553.462 1367.93 555.796 1373.5 558C1377.37 553.798 1381.53 549.965 1386 546.5C1384.15 545.407 1382.48 544.074 1381 542.5C1378.79 542.309 1376.79 541.809 1375 541ZM1891 542C1886.99 541.834 1882.99 542.001 1879 542.5C1849.77 549.657 1820.1 552.657 1790 551.5C1810.04 558.042 1830.54 562.542 1851.5 565C1873.2 560.766 1894.04 553.932 1914 544.5C1906.2 543.568 1898.53 542.735 1891 542ZM598 542C600.01 543.424 602.35 544.09 605 544C602.99 542.576 600.65 541.91 598 542ZM1294 543C1289.27 543.849 1284.61 545.015 1280 546.5C1285.83 551 1291.67 555.5 1297.5 560C1300.25 558.373 1303.09 556.873 1306 555.5C1301.8 551.464 1297.8 547.298 1294 543ZM1392 544C1390.87 544.622 1389.87 545.455 1389 546.5C1392.74 550.117 1396.57 553.617 1400.5 557C1402.13 554.372 1404.13 552.039 1406.5 550C1406.98 549.052 1407.15 548.052 1407 547C1401.76 546.618 1396.76 545.618 1392 544ZM1298 544C1301.3 547.798 1304.8 551.464 1308.5 555C1309.92 554.04 1311.42 553.207 1313 552.5C1308.27 549.136 1303.27 546.303 1298 544ZM605 544C640.83 555.76 676.83 555.927 713 544.5C692.43 546.769 671.76 548.269 651 549C635.48 548.942 620.15 547.276 605 544ZM664 544C657.59 543.683 651.26 544.183 645 545.5C655.33 546.167 665.67 546.167 676 545.5C671.81 545.324 667.81 544.824 664 544ZM1336 546C1329.72 547.301 1323.72 549.467 1318 552.5C1324.08 555.623 1329.91 559.123 1335.5 563C1339.94 560.197 1344.1 557.031 1348 553.5C1344.71 549.697 1340.71 547.197 1336 546ZM1278 547C1272.66 548.392 1267.32 549.892 1262 551.5C1267.33 556.833 1272.67 562.167 1278 567.5C1279 568.167 1280 568.167 1281 567.5C1285.7 565.151 1290.36 562.818 1295 560.5C1289.15 556.136 1283.48 551.636 1278 547ZM1438 552C1436.24 547.757 1433.91 547.257 1431 550.5C1433.24 551.477 1435.57 551.977 1438 552ZM1411 548C1407.87 551.308 1404.87 554.808 1402 558.5C1406.5 562.333 1411 566.167 1415.5 570C1419.33 564.333 1423.17 558.667 1427 553C1421.7 551.013 1416.37 549.346 1411 548ZM1388 548C1383.58 550.918 1379.58 554.418 1376 558.5C1381.42 560.863 1386.92 563.029 1392.5 565C1395.32 563.513 1397.49 561.346 1399 558.5C1395.26 554.984 1391.59 551.484 1388 548ZM608 548C610.01 549.424 612.35 550.09 615 550C612.99 548.576 610.65 547.91 608 548ZM1546 551C1544.12 550.893 1543.79 551.393 1545 552.5C1611.38 592.514 1683.38 612.847 1761 613.5C1737.73 608.52 1714.73 602.52 1692 595.5C1643.31 580.333 1594.64 565.5 1546 551ZM677 702C725.19 732.895 778.03 749.228 835.5 751C874.19 750.128 911.69 742.962 948 729.5C969.741 721.475 991.074 712.475 1012 702.5C1101.33 660.004 1189.66 615.67 1277 569.5C1271.15 563.485 1265.15 557.652 1259 552C1207.08 570.125 1156.41 591.292 1107 615.5C1050.2 643.734 993.863 672.734 938 702.5C911.69 714.987 884.35 724.654 856 731.5C811.15 741.089 767.15 738.089 724 722.5C707.94 716.536 692.27 709.703 677 702ZM1433 553C1431.52 552.738 1430.19 553.071 1429 554C1425.08 559.496 1421.42 565.163 1418 571C1421.87 575.774 1426.87 578.774 1433 580C1434.95 578.793 1436.45 577.127 1437.5 575C1440.21 569.406 1443.05 563.906 1446 558.5C1445.59 557.555 1444.93 556.888 1444 556.5C1440.17 555.466 1436.5 554.3 1433 553ZM1356 553C1354.4 552.812 1353.06 553.312 1352 554.5C1356.47 557.965 1360.63 561.798 1364.5 566C1366.7 563.46 1369.2 561.293 1372 559.5C1366.45 557.6 1361.11 555.434 1356 553ZM1317 554C1314.27 553.764 1311.94 554.597 1310 556.5C1314.33 560.833 1318.67 565.167 1323 569.5C1326.92 569.035 1330.25 567.201 1333 564C1327.6 560.642 1322.27 557.308 1317 554ZM1351 556C1346.34 557.801 1342.01 560.301 1338 563.5C1343.84 567.252 1349.84 570.752 1356 574C1358.48 572.017 1360.82 569.85 1363 567.5C1359.11 563.435 1355.11 559.602 1351 556ZM1308 557C1305.2 558.235 1302.53 559.735 1300 561.5C1305.3 566.481 1310.97 570.981 1317 575C1319.13 574.033 1321.13 572.866 1323 571.5C1317.5 567.163 1312.5 562.33 1308 557ZM1452 558C1450.12 557.893 1449.79 558.393 1451 559.5C1562.34 645.496 1687 673.83 1825 644.5C1800.96 645.565 1776.96 644.899 1753 642.5C1729.46 638.26 1705.8 634.926 1682 632.5C1632.28 624.815 1585.28 609.148 1541 585.5C1511.37 575.788 1481.7 566.621 1452 558ZM1557 625C1517.9 608.034 1481.74 586.367 1448.5 560C1444.21 567.085 1440.04 574.251 1436 581.5C1475.93 597.135 1516.27 611.635 1557 625ZM1401 560C1399.47 561.855 1397.8 563.688 1396 565.5C1401.73 568.191 1407.57 570.691 1413.5 573C1414.17 572.333 1414.17 571.667 1413.5 571C1409.14 567.468 1404.97 563.801 1401 560ZM1375 560C1371.58 561.912 1368.58 564.412 1366 567.5C1370.85 571.855 1375.85 576.022 1381 580C1384.82 576.007 1388.49 571.84 1392 567.5C1386.31 564.887 1380.64 562.387 1375 560ZM1297 562C1291.53 564.566 1286.2 567.399 1281 570.5C1286.83 576.333 1292.67 582.167 1298.5 588C1304.26 584.536 1309.76 580.703 1315 576.5C1308.81 571.803 1302.81 566.969 1297 562ZM1336 565C1332.82 567.337 1329.49 569.504 1326 571.5C1331.18 576.848 1336.51 582.015 1342 587C1346 583.333 1350 579.667 1354 576C1347.96 572.272 1341.96 568.605 1336 565ZM1730 568C1757.79 578.367 1786.45 585.7 1816 590C1843.19 586.453 1869.52 579.62 1895 569.5C1880.97 569.115 1866.97 568.281 1853 567C1832.32 570.575 1811.49 572.575 1790.5 573C1770.22 572.556 1750.06 570.889 1730 568ZM1396 568C1393.78 568.703 1391.95 570.036 1390.5 572C1387.81 575.192 1385.31 578.525 1383 582C1387.71 586.881 1392.88 591.215 1398.5 595C1403.24 588.536 1407.74 581.869 1412 575C1406.57 572.645 1401.24 570.312 1396 568ZM1365 569C1362.54 570.961 1360.2 573.128 1358 575.5C1363.67 578.5 1369.33 581.5 1375 584.5C1378.17 585.333 1379.33 584.167 1378.5 581C1373.81 577.135 1369.31 573.135 1365 569ZM690 713C782.43 771.143 880.76 783.31 985 749.5C1096.76 710.625 1200.43 657.125 1296 589C1290.35 582.848 1284.51 576.848 1278.5 571C1188.89 618.721 1098.06 664.221 1006 707.5C972.114 724.106 936.78 736.772 900 745.5C846.78 757.869 794.44 754.869 743 736.5C724.81 729.736 707.14 721.903 690 713ZM1325 573C1322.89 573.94 1320.89 575.106 1319 576.5C1325.23 582.114 1331.9 586.78 1339 590.5C1339.95 589.782 1340.12 588.949 1339.5 588C1334.46 583.131 1329.63 578.131 1325 573ZM1417 576C1415.68 575.83 1414.51 576.163 1413.5 577C1409.08 583.498 1404.92 590.165 1401 597C1406.24 601.21 1412.08 604.543 1418.5 607C1419.27 606.855 1419.94 606.522 1420.5 606C1424.21 599.086 1428.04 592.252 1432 585.5C1427.58 581.296 1422.58 578.13 1417 576ZM1358 577C1352.64 579.842 1347.98 583.675 1344 588.5C1349.22 594.22 1354.88 599.387 1361 604C1366.2 598.965 1370.87 593.465 1375 587.5C1369.27 583.975 1363.6 580.475 1358 577ZM1318 578C1311.9 581.583 1305.9 585.417 1300 589.5C1306.18 595.848 1312.51 602.015 1319 608C1325.12 603.387 1330.78 598.22 1336 592.5C1329.81 587.803 1323.81 582.969 1318 578ZM1436 583C1435.4 583.235 1435.07 583.735 1435 584.5C1501.07 635.177 1575.74 665.51 1659 675.5C1705.31 680.82 1751.31 678.82 1797 669.5C1748.25 672.625 1700.25 667.958 1653 655.5C1578.89 636.186 1506.56 612.019 1436 583ZM1390 592C1387.67 588.834 1384.83 586.167 1381.5 584C1380.67 584.833 1379.83 585.667 1379 586.5C1382.41 588.872 1386.08 590.705 1390 592ZM1435 587C1434 586.914 1433.17 587.248 1432.5 588C1429.2 594.791 1425.7 601.458 1422 608C1502.9 649.021 1588.23 676.521 1678 690.5C1717.41 695.053 1756.74 694.386 1796 688.5C1831.03 680.16 1864.36 667.493 1896 650.5C1878.82 654.792 1861.49 658.792 1844 662.5C1824.85 665.327 1805.85 668.994 1787 673.5C1662.37 693.113 1548.37 667.113 1445 595.5C1441.47 592.802 1438.14 589.969 1435 587ZM1378 588C1373.24 593.936 1368.24 599.769 1363 605.5C1368.85 610.854 1374.85 616.02 1381 621C1386.88 613.94 1392.22 606.44 1397 598.5C1390.28 595.48 1383.95 591.98 1378 588ZM1918 591C1917.58 590.376 1916.92 590.043 1916 590C1905.06 591.694 1894.06 592.861 1883 593.5C1851.67 605.082 1819.34 612.082 1786 614.5C1811.63 618.139 1837.3 618.472 1863 615.5C1882.07 608.966 1900.4 600.799 1918 591ZM1343 590C1339.92 591.164 1339.59 592.664 1342 594.5C1347 598.167 1352 601.833 1357 605.5C1357.67 606.167 1358.33 606.167 1359 605.5C1353.16 600.83 1347.83 595.663 1343 590ZM1557 591C1600.46 612.874 1646.46 626.374 1695 631.5C1648.66 619.107 1602.66 605.607 1557 591ZM710 728C810.03 788.693 916.37 802.526 1029 769.5C1137.06 736.829 1233.06 683.495 1317 609.5C1310.82 603.152 1304.49 596.985 1298 591C1208.47 653.776 1112.14 704.61 1009 743.5C958.058 762.768 905.39 771.435 851 769.5C819.37 767.259 788.7 760.593 759 749.5C742.41 742.871 726.08 735.704 710 728ZM1339 594C1332.72 598.946 1326.72 604.28 1321 610C1327.32 616.156 1333.82 622.156 1340.5 628C1346.33 621.5 1352.17 615 1358 608.5C1351.24 604.131 1344.91 599.298 1339 594ZM1401 600C1399.83 599.781 1398.82 600.114 1398 601C1393.2 608.305 1388.2 615.471 1383 622.5C1389.87 626.866 1396.87 631.032 1404 635C1408.46 627.582 1412.79 620.082 1417 612.5C1411.48 608.47 1406.15 604.303 1401 600ZM1421 610C1419.86 611.293 1420.19 612.459 1422 613.5C1525.81 685.449 1640.48 712.449 1766 694.5C1716 697.889 1666.67 693.555 1618 681.5C1549.5 665.059 1483.83 641.226 1421 610ZM1361 610C1358.78 610.703 1356.95 612.036 1355.5 614C1351 619.167 1346.5 624.333 1342 629.5C1348.86 635.191 1355.86 640.691 1363 646C1369.26 638.987 1374.93 631.487 1380 623.5C1373.49 619.137 1367.15 614.637 1361 610ZM725 740C850.63 815.649 982.301 827.815 1120 776.5C1204.9 744.885 1277.9 695.885 1339 629.5C1332.17 623.333 1325.33 617.167 1318.5 611C1245.97 675.215 1163.81 724.048 1072 757.5C1020.23 777.688 966.561 788.188 911 789C866.61 788.821 823.61 780.988 782 765.5C762.52 758.062 743.52 749.562 725 740ZM1907 613C1906.76 612.403 1906.26 612.07 1905.5 612C1890.42 614.726 1875.25 616.892 1860 618.5C1818.39 631.825 1775.72 638.158 1732 637.5C1767.53 643.433 1803.19 644.433 1839 640.5C1862.69 633.774 1885.35 624.607 1907 613ZM1420 614C1419.12 613.869 1418.46 614.202 1418 615C1414.13 622.247 1410.13 629.414 1406 636.5C1483.91 681.135 1567.57 708.135 1657 717.5C1745.8 725.609 1828.46 706.943 1905 661.5C1886.71 668.261 1868.05 674.261 1849 679.5C1806.85 689.929 1764.19 697.263 1721 701.5C1618.26 706.485 1523.6 681.485 1437 626.5C1431.27 622.312 1425.6 618.146 1420 614ZM1383 625C1376.76 631.933 1371.09 639.433 1366 647.5C1372.56 653.22 1379.56 658.387 1387 663C1392.36 655.457 1397.36 647.624 1402 639.5C1395.6 634.646 1389.26 629.813 1383 625ZM745 755C824.27 803.251 910.44 828.584 1003.5 831C1136.51 826.929 1247.85 776.262 1337.5 679C1345.67 668.833 1353.83 658.667 1362 648.5C1355 642.667 1348 636.833 1341 631C1256.31 721.7 1152.65 779.2 1030 803.5C943.447 817.897 860.11 807.23 780 771.5C768.31 765.988 756.64 760.488 745 755ZM1898 633C1878.81 636.921 1859.47 640.088 1840 642.5C1778.79 659.694 1716.79 663.194 1654 653C1707.73 668.12 1762.4 671.953 1818 664.5C1846.04 657.215 1872.71 646.715 1898 633ZM1411 642C1411.47 643.406 1412.47 644.073 1414 644C1413.53 642.594 1412.53 641.927 1411 642ZM1414 644C1502.59 701.651 1599.92 727.484 1706 721.5C1620.86 720.549 1539.53 702.549 1462 667.5C1445.82 659.912 1429.82 652.078 1414 644ZM758 766C829.45 809.988 906.78 838.488 990 851.5C1089.88 864.859 1182.21 844.526 1267 790.5C1315.6 757.232 1355.27 715.565 1386 665.5C1378.8 660.139 1371.47 654.972 1364 650C1281.02 757.014 1171.69 817.514 1036 831.5C953.541 836.408 874.87 821.408 800 786.5C785.82 779.912 771.82 773.078 758 766ZM705 725C706.16 726.75 707.83 727.75 710 728C708.84 726.25 707.17 725.25 705 725ZM738 751C739.16 752.75 740.83 753.75 743 754C741.84 752.25 740.17 751.25 738 751Z" fill="#7f4EFF" fill-opacity="0.3"/>
</svg>
