<svg width="1918" height="858" viewBox="0 0 1918 858" fill="none" xmlns="http://www.w3.org/2000/svg">
<path opacity="0.54" fill-rule="evenodd" clip-rule="evenodd" d="M603 0C609.333 0 615.667 0 622 0C690.022 2.83619 750.356 25.6695 803 68.5C823.563 86.8432 840.396 108.01 853.5 132C862.482 151.303 872.482 169.969 883.5 188C895.858 204.985 909.858 220.652 925.5 235C954.121 269.568 979.788 306.234 1002.5 345C1015.83 363.667 1029.17 382.333 1042.5 401C1047.67 406.833 1052.83 412.667 1058 418.5C1089.24 424.244 1119.91 421.91 1150 411.5C1166.47 405.6 1182.47 398.6 1198 390.5C1225.57 373.881 1253.9 358.548 1283 344.5C1306.08 334.188 1330.25 328.355 1355.5 327C1369.05 327.509 1382.22 330.009 1395 334.5C1407.3 335.328 1419.3 337.661 1431 341.5C1488.43 352.461 1545.76 363.961 1603 376C1628.46 350.041 1654.13 324.207 1680 298.5C1699.07 281.107 1720.07 266.441 1743 254.5C1776.08 241.287 1808.08 243.62 1839 261.5C1852.84 269.67 1865.84 279.004 1878 289.5C1891.87 302.2 1905.2 315.367 1918 329C1918 330 1918 331 1918 332C1905.2 318.367 1891.87 305.2 1878 292.5C1861.72 278.019 1843.72 266.019 1824 256.5C1789.25 242.379 1756.25 245.712 1725 266.5C1708.58 277.052 1693.25 289.052 1679 302.5C1654.46 326.543 1630.46 351.043 1607 376C1607.86 377.083 1608.86 377.249 1610 376.5C1641.52 345.967 1674.52 317.3 1709 290.5C1728.32 276.507 1749.66 266.84 1773 261.5C1799.03 258.089 1823.36 263.089 1846 276.5C1872.48 292.804 1896.48 312.304 1918 335C1918 336 1918 337 1918 338C1896.54 315.691 1872.87 296.191 1847 279.5C1814.13 259.437 1780.13 257.104 1745 272.5C1718.41 285.955 1694.08 302.621 1672 322.5C1651.7 340.465 1631.7 358.798 1612 377.5C1613 378.167 1614 378.167 1615 377.5C1645.86 351.302 1677.86 326.636 1711 303.5C1732.17 289.665 1755.17 280.331 1780 275.5C1800.49 273.193 1820.15 276.193 1839 284.5C1852.82 290.906 1865.82 298.573 1878 307.5C1891.92 318.298 1905.26 329.798 1918 342C1918 343 1918 344 1918 345C1895.32 321.815 1869.65 302.648 1841 287.5C1809.35 273.501 1777.68 273.501 1746 287.5C1722.08 298.786 1699.75 312.453 1679 328.5C1660.04 343.12 1641.38 358.12 1623 373.5C1624.41 373.815 1625.74 373.482 1627 372.5C1655.98 350.536 1686.31 330.536 1718 312.5C1739.32 300.838 1761.99 293.171 1786 289.5C1808.74 287.715 1830.41 291.715 1851 301.5C1875.16 314.833 1897.49 330.667 1918 349C1918 350 1918 351 1918 352C1896.77 332.61 1873.43 316.11 1848 302.5C1815.65 287.934 1782.98 287.268 1750 300.5C1726.16 310.418 1703.49 322.418 1682 336.5C1667.49 346.254 1653.16 356.254 1639 366.5C1640.41 366.815 1641.74 366.482 1643 365.5C1672.36 346.319 1703.36 329.986 1736 316.5C1785.4 295.226 1832.74 298.893 1878 327.5C1891.77 336.779 1905.11 346.612 1918 357C1918 358 1918 359 1918 360C1897.72 342.249 1875.39 327.416 1851 315.5C1824.78 304.35 1797.78 302.016 1770 308.5C1745.16 314.42 1721.49 323.42 1699 335.5C1683.17 344.247 1667.5 353.247 1652 362.5C1667.22 355.561 1682.55 348.561 1698 341.5C1730.9 326.484 1765.4 317.984 1801.5 316C1833.83 317.445 1863.33 327.278 1890 345.5C1899.49 352.165 1908.83 358.998 1918 366C1918 366.667 1918 367.333 1918 368C1900.74 354.692 1882.41 342.859 1863 332.5C1834.94 319.161 1805.61 315.161 1775 320.5C1738.54 327.321 1703.87 339.321 1671 356.5C1686.23 351.568 1701.57 346.568 1717 341.5C1756.39 328.883 1796.39 326.217 1837 333.5C1866.83 342.081 1893.83 355.915 1918 375C1918 375.667 1918 376.333 1918 377C1901.55 365.266 1884.22 354.766 1866 345.5C1828.79 330.041 1790.45 326.708 1751 335.5C1728.47 340.01 1706.47 346.343 1685 354.5C1697 352.17 1709 349.503 1721 346.5C1763.19 337.226 1805.19 337.893 1847 348.5C1860.4 352.856 1873.4 358.19 1886 364.5C1896.89 370.771 1907.56 377.271 1918 384C1918 385 1918 386 1918 387C1864.52 347.55 1804.85 333.717 1739 345.5C1727.23 347.321 1715.56 349.654 1704 352.5C1722.73 350.245 1741.56 348.745 1760.5 348C1817.82 347.503 1870.32 362.836 1918 394C1918 395 1918 396 1918 397C1873.78 366.984 1824.78 351.484 1771 350.5C1755.3 350.11 1739.63 350.777 1724 352.5C1793.83 351.621 1858.5 369.121 1918 405C1918 405.667 1918 406.333 1918 407C1863.47 373.55 1804.14 356.383 1740 355.5C1784.91 360.145 1827.91 371.811 1869 390.5C1885.67 398.166 1902 406.333 1918 415C1918 416 1918 417 1918 418C1872.64 390.82 1823.97 372.32 1772 362.5C1793.5 368.419 1814.5 375.752 1835 384.5C1863.25 397.292 1890.92 411.125 1918 426C1918 426.667 1918 427.333 1918 428C1916.67 427.667 1915.33 427.333 1914 427C1914.94 428.474 1916.27 429.474 1918 430C1918 430.667 1918 431.333 1918 432C1870.2 405.344 1819.87 384.844 1767 370.5C1727.97 360.682 1688.97 360.682 1650 370.5C1647.08 372.028 1644.08 373.361 1641 374.5C1683.67 365.589 1726.34 365.922 1769 375.5C1821.11 388.48 1870.78 407.646 1918 433C1918 434 1918 435 1918 436C1916.67 436.333 1916.67 436.667 1918 437C1918 437.667 1918 438.333 1918 439C1915.57 439.286 1915.57 439.952 1918 441C1918 441.667 1918 442.333 1918 443C1916.67 443.333 1916.67 443.667 1918 444C1918 444.667 1918 445.333 1918 446C1915.33 446.333 1915.33 446.667 1918 447C1918 448 1918 449 1918 450C1916.67 450.333 1916.67 450.667 1918 451C1918 451.667 1918 452.333 1918 453C1917.08 452.197 1916.08 452.03 1915 452.5C1915.74 453.539 1916.74 454.039 1918 454C1918 454.667 1918 455.333 1918 456C1915.33 456.333 1915.33 456.667 1918 457C1918 458 1918 459 1918 460C1916.67 460.333 1916.67 460.667 1918 461C1918 461.667 1918 462.333 1918 463C1916.67 463.333 1916.67 463.667 1918 464C1918 464.667 1918 465.333 1918 466C1887.16 447.75 1854.49 433.583 1820 423.5C1813.73 421.514 1807.4 420.181 1801 419.5C1811.25 423.25 1821.25 427.583 1831 432.5C1849.93 443.771 1868.6 455.438 1887 467.5C1897.11 473.22 1907.44 478.387 1918 483C1918 483.667 1918 484.333 1918 485C1908.29 481.313 1898.96 476.813 1890 471.5C1868.17 457.08 1845.83 443.414 1823 430.5C1804.06 421.851 1784.39 415.851 1764 412.5C1774.34 415.837 1784.01 420.503 1793 426.5C1810.02 438.01 1826.69 450.01 1843 462.5C1849.34 467.003 1856 471.003 1863 474.5C1881.41 478.853 1899.74 483.353 1918 488C1918 489.333 1918 490.667 1918 492C1911.51 492.058 1911.51 492.724 1918 494C1918 494.667 1918 495.333 1918 496C1910.33 495.871 1910.33 496.871 1918 499C1918 499.667 1918 500.333 1918 501C1914.35 499.513 1910.69 498.013 1907 496.5C1904.67 495.833 1902.33 495.833 1900 496.5C1905.84 499.17 1911.84 501.336 1918 503C1918 503.667 1918 504.333 1918 505C1910.37 503.019 1903.03 500.185 1896 496.5C1893.67 495.833 1891.33 495.833 1889 496.5C1898.28 501.093 1907.95 504.593 1918 507C1918 507.667 1918 508.333 1918 509C1905.61 505.591 1893.61 501.091 1882 495.5C1879.67 495.333 1877.33 495.167 1875 495C1863.66 496.223 1852.32 496.223 1841 495C1828.48 496.988 1815.98 497.321 1803.5 496C1792.92 498.083 1782.26 498.75 1771.5 498C1728.3 500.52 1685.13 503.52 1642 507C1639.46 506.914 1636.96 506.58 1634.5 506C1599.66 513.498 1568.5 505.998 1541 483.5C1534.2 477.699 1527.7 471.532 1521.5 465C1463.84 524.994 1404.01 582.494 1342 637.5C1280.73 691.1 1214.73 738.1 1144 778.5C1084.46 812.236 1021.13 835.903 954 849.5C928.048 854.217 902.048 857.051 876 858C872.333 858 868.667 858 865 858C719.891 851.917 608.058 788.25 529.5 667C409.523 741.913 280.356 763.747 142 732.5C90.5032 719.846 42.5032 699.346 -2 671C-2 670.333 -2 669.667 -2 669C114.386 740.175 239.386 761.009 373 731.5C429.067 718.268 481.067 695.935 529 664.5C523.947 656.551 518.78 648.718 513.5 641C415.449 706.137 307.616 732.971 190 721.5C122.441 714.447 58.4414 695.614 -2 665C-2 664 -2 663 -2 662C23.076 676.076 49.4093 686.909 77 694.5C49.2457 683.956 22.9124 670.79 -2 655C-2 654.333 -2 653.667 -2 653C24.9872 664.051 52.6539 673.218 81 680.5C83.9853 681.368 86.9853 681.701 90 681.5C60.7203 672.073 32.7203 659.74 6 644.5C3.34605 643.559 0.67938 642.726 -2 642C-2 640.333 -2 638.667 -2 637C4.86336 642.096 12.53 645.596 21 647.5C40.0425 653.429 59.3759 657.762 79 660.5C54.3064 652.492 30.6398 642.159 8 629.5C4.73209 628.35 1.39876 627.516 -2 627C-2 626.333 -2 625.667 -2 625C0.66667 624.667 0.66667 624.333 -2 624C-2 623 -2 622 -2 621C2.29232 624.108 6.95898 626.608 12 628.5C28.7748 633.056 45.7748 636.056 63 637.5C52.5555 633.777 42.2222 629.777 32 625.5C20.7214 619.693 9.3881 614.193 -2 609C-2 608 -2 607 -2 606C13.9452 610.922 30.2786 613.755 47 614.5C30.0532 608.244 13.7199 600.744 -2 592C-2 590.667 -2 589.333 -2 588C7.987 589.299 17.987 590.132 28 590.5C17.8515 585.925 7.8515 581.092 -2 576C-2 575.333 -2 574.667 -2 574C10.2815 580.64 22.9482 586.474 36 591.5C55.3562 592.326 74.6896 591.992 94 590.5C67.7047 586.927 42.3713 579.927 18 569.5C11.3639 568.548 4.69719 568.048 -2 568C-2 567.333 -2 566.667 -2 566C1.68174 566.165 5.34841 565.999 9 565.5C5.30678 563.653 1.64011 561.82 -2 560C-2 559.333 -2 558.667 -2 558C3.85279 561.092 9.8528 563.926 16 566.5C30.6876 567.188 45.3542 566.855 60 565.5C38.4271 560.81 17.7604 553.643 -2 544C-2 543.333 -2 542.667 -2 542C8.41042 541.81 18.7438 540.976 29 539.5C18.3791 536.35 8.04578 532.516 -2 528C-2 527.333 -2 526.667 -2 526C10.8117 531.937 24.1451 536.271 38 539C52.9024 537.386 67.5691 534.553 82 530.5C57.7068 528.951 34.0402 524.285 11 516.5C6.66489 516.237 2.33156 516.403 -2 517C-2 516.333 -2 515.667 -2 515C4.49598 514.529 4.49598 513.529 -2 512C-2 511.333 -2 510.667 -2 510C1.91078 511.026 5.74412 512.36 9.5 514C20.5257 512.495 31.359 510.162 42 507C26.9634 504.242 12.2968 500.242 -2 495C-2 494.333 -2 493.667 -2 493C14.7159 499.137 31.8826 503.471 49.5 506C68.4708 499.6 87.3041 492.767 106 485.5C80.9186 486.063 56.0853 483.896 31.5 479C20.4919 482.377 9.3252 485.044 -2 487C-2 486.333 -2 485.667 -2 485C7.62713 483.427 16.9605 480.927 26 477.5C16.5587 474.964 7.22542 472.13 -2 469C-2 468.333 -2 467.667 -2 467C8.7521 470.64 19.5854 473.973 30.5 477C44.3165 471.505 58.1498 466.005 72 460.5C52.316 458.397 32.9826 454.563 14 449C8.6658 450.667 3.33243 452.334 -2 454C-2 453.333 -2 452.667 -2 452C2.01021 450.607 6.01021 449.107 10 447.5C6.08852 445.709 2.08852 444.209 -2 443C-2 442.333 -2 441.667 -2 441C3.05591 442.463 8.05591 444.13 13 446C24.0346 441.599 35.0346 437.099 46 432.5C29.5471 428.626 13.5471 423.46 -2 417C-2 416.333 -2 415.667 -2 415C14.5363 421.719 31.5363 427.052 49 431C61.553 425.557 74.2197 420.39 87 415.5C56.1809 411.879 26.5142 404.046 -2 392C-2 391 -2 390 -2 389C27.574 402.478 58.574 410.811 91 414C108.928 406.413 127.261 399.913 146 394.5C94.367 397.606 45.0337 388.44 -2 367C-2 366 -2 365 -2 364C47.6873 387.837 100.021 397.004 155 391.5C172.816 386.937 190.816 383.27 209 380.5C260.163 364.432 304.496 337.432 342 299.5C373.333 267.5 404.667 235.5 436 203.5C462.776 177.714 492.109 155.381 524 136.5C599.978 95.1693 679.978 84.5026 764 104.5C795.587 114.118 823.921 129.118 849 149.5C817.614 117.966 779.947 97.6331 736 88.5C642.176 71.2935 556.843 90.6269 480 146.5C453.41 167.92 428.243 191.087 404.5 216C376.703 246.798 347.869 276.631 318 305.5C239.905 368.684 151.905 388.017 54 363.5C34.6551 357.998 15.9884 350.831 -2 342C-2 341.333 -2 340.667 -2 340C78.2763 379.066 159.943 382.233 243 349.5C285.719 330.466 322.553 303.299 353.5 268C380.937 237.894 409.104 208.394 438 179.5C469.192 149.23 504.526 124.897 544 106.5C605.974 80.3547 669.974 73.6881 736 86.5C780.466 96.3847 818.799 116.551 851 147C810.175 102.419 759.509 76.5855 699 69.5C600.038 58.7086 514.705 87.3753 443 155.5C405.401 193.428 368.901 232.261 333.5 272C265.519 338.101 184.352 363.934 90 349.5C57.7553 343.474 27.0886 332.974 -2 318C-2 317 -2 316 -2 315C79.55 358.493 163.217 362.993 249 328.5C280.769 313.723 308.936 293.889 333.5 269C368.234 229.928 404.068 191.762 441 154.5C525.993 75.4139 625.326 49.0806 739 75.5C780.87 87.4209 816.87 108.254 847 138C809.973 94.9692 763.307 68.1359 707 57.5C607.141 39.2868 519.808 63.9535 445 131.5C408.326 167.832 373.493 205.666 340.5 245C281.73 309.604 208.563 338.77 121 332.5C77.142 328.602 36.142 315.768 -2 294C-2 293.333 -2 292.667 -2 292C43.4168 317.564 92.2501 330.897 144.5 332C222.751 330.828 287.751 301.161 339.5 243C371.92 204.41 406.086 167.243 442 131.5C517.411 62.5512 605.744 37.2179 707 55.5C760.365 65.6737 805.698 90.1737 843 129C836.941 120.765 830.275 112.931 823 105.5C776.085 63.8423 721.085 40.8423 658 36.5C577.263 30.3001 506.93 53.9668 447 107.5C434.5 120 422 132.5 409.5 145C386.126 171.372 363.126 198.038 340.5 225C282.889 291.364 210.056 320.531 122 312.5C88.4385 308.979 56.4385 299.979 26 285.5C16.7702 280.386 7.43683 275.552 -2 271C-2 270 -2 269 -2 268C75.5309 315.233 157.198 324.067 243 294.5C281.087 278.758 313.254 254.925 339.5 223C362.46 195.705 385.793 168.705 409.5 142C432.967 116.516 458.801 94.0155 487 74.5C539.313 43.2569 595.98 29.9236 657 34.5C723.078 38.9745 780.245 63.4745 828.5 108C832.833 113 837.167 118 841.5 123C841.667 122.667 841.833 122.333 842 122C813.146 83.0044 775.813 55.1711 730 38.5C658.358 11.8682 587.025 12.5349 516 40.5C480.145 57.6843 448.645 80.851 421.5 110C391.792 144.039 362.459 178.372 333.5 213C286.507 267.32 226.841 294.653 154.5 295C115.01 294.369 77.1764 286.202 41 270.5C26.2978 263.484 11.9645 255.984 -2 248C-2 247 -2 246 -2 245C63.0052 287.415 133.672 301.248 210 286.5C262.935 273.628 306.101 245.794 339.5 203C369.174 165.984 400.341 130.151 433 95.5C493.478 36.3349 566.144 10.6682 651 18.5C714.333 24.1842 769.666 47.8509 817 89.5C823.866 97.1971 830.866 104.697 838 112C818.289 83.1218 793.289 59.9551 763 42.5C693.373 3.41039 619.706 -6.92294 542 11.5C503.128 22.5932 469.128 41.9265 440 69.5C432.167 77.3333 424.333 85.1667 416.5 93C388.356 125.964 360.69 159.298 333.5 193C288.351 248.151 229.851 275.817 158 276C99.556 274.628 46.2228 257.628 -2 225C-2 224.333 -2 223.667 -2 223C46.198 255.62 99.531 272.62 158 274C229.424 273.532 287.591 245.866 332.5 191C359.785 156.779 387.785 123.113 416.5 90C445.485 57.6731 479.985 33.1731 520 16.5C546.995 6.89406 574.662 1.39406 603 0ZM854 159C809.169 123.779 758.003 106.779 700.5 108C617.908 109.905 544.408 136.405 480 187.5C464.96 199.694 450.293 212.361 436 225.5C402.972 258.861 369.639 291.861 336 324.5C312.017 346.577 285.517 365.077 256.5 380C243.993 378.887 231.493 378.72 219 379.5C259.29 365.476 295.29 344.476 327 316.5C364.361 279.472 401.361 242.139 438 204.5C469.036 174.464 503.703 149.464 542 129.5C602.365 100.686 665.699 90.686 732 99.5C779.319 106.329 819.985 126.162 854 159ZM856 165C813.926 134.677 766.759 119.677 714.5 120C628.408 123.466 551.908 151.966 485 205.5C468.372 219.126 452.039 233.126 436 247.5C402.667 279.5 369.333 311.5 336 343.5C320.052 357.138 303.385 369.804 286 381.5C284.466 382.423 282.799 382.923 281 383C274.613 382.064 268.279 380.897 262 379.5C285.897 366.389 308.231 351.056 329 333.5C365.77 298.309 402.103 262.642 438 226.5C468.787 196.782 502.787 171.448 540 150.5C603.777 116.878 671.443 104.211 743 112.5C786.166 118.757 823.832 136.257 856 165ZM838 112C839.406 112.473 840.073 113.473 840 115C838.594 114.527 837.927 113.527 838 112ZM861 173C816.487 142.561 767.154 129.061 713 132.5C641.231 138.732 575.898 162.398 517 203.5C498.428 216.736 480.428 230.736 463 245.5C426.065 278.432 389.732 312.098 354 346.5C338.069 361.123 321.402 374.79 304 387.5C298.142 387.498 292.476 386.331 287 384C304.405 371.438 321.405 358.271 338 344.5C371.333 312.5 404.667 280.5 438 248.5C470.465 217.945 505.799 191.278 544 168.5C597.222 139.111 654.222 123.611 715 122C761.314 121.742 803.981 133.909 843 158.5C849.253 163.113 855.253 167.946 861 173ZM843 129C844.762 129.762 845.762 131.096 846 133C844.238 132.238 843.238 130.904 843 129ZM861 177C815.797 149.657 766.797 138.823 714 144.5C655.818 151.782 601.818 170.782 552 201.5C517.968 223.527 485.634 247.86 455 274.5C411.559 314.948 367.225 354.281 322 392.5C320.569 392.965 319.403 393.799 318.5 395C314.097 392.976 309.597 391.142 305 389.5C318.85 378.74 332.516 367.74 346 356.5C377 327.5 408 298.5 439 269.5C472.104 238.718 507.77 211.385 546 187.5C596.96 157.403 651.96 139.736 711 134.5C763.305 130.575 811.305 142.909 855 171.5C857.263 173.117 859.263 174.95 861 177ZM867 185C819.515 157.417 768.515 147.917 714 156.5C672.112 163.28 632.446 176.613 595 196.5C566.978 211.503 540.312 228.503 515 247.5C469.528 283.294 425.528 320.961 383 360.5C366.5 374.333 350 388.167 333.5 402C329.381 399.691 325.214 397.524 321 395.5C334.291 385.211 347.291 374.545 360 363.5C392.034 333.797 424.368 304.464 457 275.5C492.54 243.96 530.873 216.293 572 192.5C620.249 165.528 671.915 149.861 727 145.5C770.266 142.886 810.933 151.886 849 172.5C855.59 175.95 861.59 180.116 867 185ZM731 156C785.803 151.334 835.47 164.834 880 196.5C884.499 205.01 887.999 213.843 890.5 223C843.497 191.291 791.664 178.458 735 184.5C681.739 191.142 632.072 208.142 586 235.5C546.686 259.662 509.686 286.995 475 317.5C436.962 351.206 398.629 384.54 360 417.5C352.019 412.993 344.019 408.16 336 403C383.123 362.382 430.123 321.549 477 280.5C518.715 244.458 564.381 214.125 614 189.5C651.295 171.93 690.295 160.764 731 156ZM857 166C858.527 165.927 859.527 166.594 860 168C858.473 168.073 857.473 167.406 857 166ZM861 177C862.527 176.927 863.527 177.594 864 179C862.473 179.073 861.473 178.406 861 177ZM902 252C841.184 213.087 775.518 202.253 705 219.5C653.762 232.29 606.762 253.957 564 284.5C542.094 300.403 520.76 317.07 500 334.5C461.962 368.206 423.629 401.54 385 434.5C383.741 435.482 382.408 435.815 381 435.5C374.333 430.167 367.667 424.833 361 419.5C402.041 384.639 442.707 349.305 483 313.5C519.552 281.618 558.886 253.618 601 229.5C646.504 204.332 695.17 189.665 747 185.5C800.544 182.173 849.044 196.006 892.5 227C896.168 235.174 899.335 243.507 902 252ZM752 214C807.325 210.283 857.658 224.117 903 255.5C907.257 264.016 911.257 272.683 915 281.5C853.135 242.021 786.135 230.688 714 247.5C667.34 259.002 624.34 278.336 585 305.5C562.278 321.532 540.278 338.532 519 356.5C482.333 388.5 445.667 420.5 409 452.5C407.456 453.687 405.789 454.02 404 453.5C397.782 448.281 391.282 443.448 384.5 439C426.841 400.687 470.008 362.854 514 325.5C537.877 305.622 562.877 287.288 589 270.5C639.007 238.998 693.341 220.165 752 214ZM899 236C902.225 242.121 905.225 248.455 908 255C907.667 255.333 907.333 255.667 907 256C903.746 249.57 901.079 242.904 899 236ZM764 242C820.277 239.313 871.277 254.146 917 286.5C921.631 295.585 925.798 304.752 929.5 314C881.329 279.493 827.495 264.326 768 268.5C708.841 273.761 654.841 293.094 606 326.5C588.718 338.781 571.718 351.448 555 364.5C514 400.167 473 435.833 432 471.5C431 472.167 430 472.167 429 471.5C421.25 467.297 414.25 462.131 408 456C447.519 421.313 487.185 386.813 527 352.5C553.211 330.954 580.544 310.954 609 292.5C656.882 263.705 708.549 246.872 764 242ZM909 243C910.431 244.28 911.098 245.947 911 248C909.569 246.72 908.902 245.053 909 243ZM906 244C909.062 249.454 911.562 255.12 913.5 261C909.917 255.832 907.417 250.165 906 244ZM914 254C916.099 257.356 918.099 260.856 920 264.5C919.168 265.188 918.502 265.021 918 264C916.094 260.86 914.76 257.527 914 254ZM922 256C926.171 262.338 929.837 269.004 933 276C928.322 269.984 924.655 263.317 922 256ZM920 259C922.758 262.178 924.758 265.845 926 270C922.885 267.032 920.885 263.366 920 259ZM927 259C928.406 259.473 929.073 260.473 929 262C927.594 261.527 926.927 260.527 927 259ZM908 261C908.689 259.726 909.523 259.726 910.5 261C913.93 269.693 917.764 278.193 922 286.5C920.504 287.007 919.337 286.507 918.5 285C915.224 276.793 911.724 268.793 908 261ZM928 292C925.792 290.606 924.292 288.606 923.5 286C919.881 278.783 916.881 271.45 914.5 264C919.802 272.938 924.302 282.272 928 292ZM934 265C935.406 265.473 936.073 266.473 936 268C934.594 267.527 933.927 266.527 934 265ZM931 266C935.017 271.516 938.684 277.35 942 283.5C941.051 284.117 940.218 283.951 939.5 283C936.406 277.422 933.572 271.756 931 266ZM767 270C828.422 266.015 883.755 282.181 933 318.5C939.948 330.382 947.115 341.882 954.5 353C899.461 307.771 836.294 288.938 765 296.5C708.169 303.88 656.836 324.546 611 358.5C594.381 370.784 578.047 383.451 562 396.5C527.333 427.167 492.667 457.833 458 488.5C454.119 488.073 450.453 486.74 447 484.5C442.333 480.833 437.667 477.167 433 473.5C472.037 438.794 511.371 404.461 551 370.5C584.351 342.18 620.684 318.18 660 298.5C694.174 282.934 729.841 273.434 767 270ZM921 270C921.876 269.869 922.543 270.202 923 271C927.012 279.688 931.012 288.355 935 297C934.124 297.131 933.457 296.798 933 296C928.441 287.551 924.441 278.884 921 270ZM941 271C942.406 271.473 943.073 272.473 943 274C941.594 273.527 940.927 272.527 941 271ZM938 272C939.75 273.159 940.75 274.826 941 277C939.25 275.841 938.25 274.174 938 272ZM943 274C944.75 275.159 945.75 276.826 946 279C944.25 277.841 943.25 276.174 943 274ZM928 276C928.876 275.869 929.543 276.202 930 277C934.693 286.386 939.36 295.72 944 305C942.706 304.21 941.539 303.21 940.5 302C936.049 293.433 931.883 284.767 928 276ZM941 277C944.751 281.495 947.751 286.495 950 292C945.815 287.792 942.815 282.792 941 277ZM952 277C953.406 277.473 954.073 278.473 954 280C952.594 279.527 951.927 278.527 952 277ZM946 279C951.417 286.159 956.083 293.825 960 302C958.049 300.784 956.549 299.118 955.5 297C952.053 291.104 948.886 285.104 946 279ZM954 280C955.406 280.473 956.073 281.473 956 283C954.594 282.527 953.927 281.527 954 280ZM936 283C936.958 283.453 937.792 284.119 938.5 285C943.027 294.053 947.527 303.053 952 312C945.401 303.145 940.068 293.479 936 283ZM952 283C953.406 283.473 954.073 284.473 954 286C952.594 285.527 951.927 284.527 952 283ZM956 283C957.406 283.473 958.073 284.473 958 286C956.594 285.527 955.927 284.527 956 283ZM961 285C962.406 285.473 963.073 286.473 963 288C961.594 287.527 960.927 286.527 961 285ZM954 286C960.748 295.155 966.748 304.822 972 315C970.706 314.21 969.539 313.21 968.5 312C963.389 303.44 958.556 294.774 954 286ZM963 288C964.406 288.473 965.073 289.473 965 291C963.594 290.527 962.927 289.527 963 288ZM944 290C950.754 299.834 956.754 310.167 962 321C959.134 318.954 956.967 316.287 955.5 313C951.128 305.59 947.295 297.923 944 290ZM922 291C922.876 290.869 923.543 291.202 924 292C928.847 301.356 933.347 310.689 937.5 320C930.766 311.201 925.6 301.535 922 291ZM965 291C966.406 291.473 967.073 292.473 967 294C965.594 293.527 964.927 292.527 965 291ZM967 294C971.075 298.476 974.408 303.476 977 309C972.89 304.549 969.556 299.549 967 294ZM929 296C935.676 305.343 941.342 315.343 946 326C938.818 316.982 933.152 306.982 929 296ZM1137 523C1117.04 514.023 1098.71 502.523 1082 488.5C1049.76 459.93 1018.43 430.263 988 399.5C908.199 324.139 815.865 303.472 711 337.5C686.442 346.279 663.442 357.945 642 372.5C615.428 391.292 589.761 411.292 565 432.5C538.333 456.5 511.667 480.5 485 504.5C481.798 504.414 478.798 503.414 476 501.5C470.504 497.584 464.837 493.918 459 490.5C497.074 455.756 535.74 421.756 575 388.5C598.952 368.886 624.286 351.219 651 335.5C714.399 299.752 781.733 289.085 853 303.5C905.761 317.28 950.094 344.613 986 385.5C989.49 388.411 993.156 391.078 997 393.5C1024.06 420.563 1051.73 446.897 1080 472.5C1085 476.167 1090 479.833 1095 483.5C1108.24 497.576 1122.24 510.743 1137 523ZM953 299C954.951 300.216 956.451 301.882 957.5 304C962.924 313.24 968.09 322.573 973 332C970.664 330.496 968.831 328.496 967.5 326C962.408 317.092 957.575 308.092 953 299ZM955 333C954.004 333.086 953.171 332.752 952.5 332C946.873 322.247 941.373 312.414 936 302.5C937.496 301.993 938.663 302.493 939.5 304C944.692 313.721 949.858 323.387 955 333ZM969 304C970.951 305.216 972.451 306.882 973.5 309C977.944 316.226 982.11 323.559 986 331C979.155 322.805 973.488 313.805 969 304ZM945 309C952.417 319.493 959.084 330.493 965 342C956.752 332.057 950.086 321.057 945 309ZM965 312C966.951 313.216 968.451 314.882 969.5 317C974.611 325.56 979.444 334.226 984 343C976.415 333.51 970.082 323.177 965 312ZM954 317C955.294 317.79 956.461 318.79 957.5 320C963.522 330.83 969.689 341.497 976 352C967.093 341.404 959.759 329.738 954 317ZM793 323C859.696 321.95 918.363 342.783 969 385.5C998.94 412.77 1028.27 440.77 1057 469.5C1075.56 486.772 1095.56 502.105 1117 515.5C1126.76 520.713 1136.76 525.38 1147 529.5C1168.84 544.56 1192.84 554.56 1219 559.5C1176.24 560.354 1137.57 548.354 1103 523.5C1095.15 517.741 1087.49 511.741 1080 505.5C1048 474.833 1016 444.167 984 413.5C905.112 347.325 816.779 330.992 719 364.5C701.497 371.252 684.83 379.585 669 389.5C637.283 410.541 607.283 433.874 579 459.5C557.967 479.535 536.634 499.201 515 518.5C514 519.167 513 519.167 512 518.5C504.122 514.394 496.122 510.561 488 507C486.789 506.226 486.789 505.393 488 504.5C519 476.833 550 449.167 581 421.5C603.537 402.293 627.204 384.627 652 368.5C695.289 341.57 742.289 326.403 793 323ZM940 325C941.574 325.437 942.741 326.437 943.5 328C948.772 336.892 954.272 345.559 960 354C951.78 345.439 945.113 335.773 940 325ZM977 325C979.387 327.413 981.554 330.08 983.5 333C988.357 341.388 993.19 349.722 998 358C989.755 347.855 982.755 336.855 977 325ZM965 328C966.294 328.79 967.461 329.79 968.5 331C975.189 342.499 982.022 353.833 989 365C984.702 360.429 980.869 355.429 977.5 350C973.056 342.774 968.89 335.441 965 328ZM1349 329C1361.53 328.92 1373.86 330.42 1386 333.5C1353.28 335.431 1322.28 343.764 1293 358.5C1265.49 372.756 1237.82 386.756 1210 400.5C1175.22 417.196 1138.55 426.362 1100 428C1087.52 427.669 1075.19 426.169 1063 423.5C1061.83 423.081 1060.83 422.415 1060 421.5C1088.34 425.695 1116.34 423.695 1144 415.5C1157.31 411.285 1170.31 406.285 1183 400.5C1204.66 389.007 1225.99 377.007 1247 364.5C1268.34 352.498 1290.68 342.831 1314 335.5C1325.66 332.467 1337.32 330.3 1349 329ZM948 331C949.294 331.79 950.461 332.79 951.5 334C956.916 341.901 962.083 349.901 967 358C959.507 349.836 953.174 340.836 948 331ZM991 333C996.326 338.976 1000.66 345.643 1004 353C998.67 347.024 994.341 340.357 991 333ZM1380 336C1389.28 334.988 1397.95 336.821 1406 341.5C1375.21 344.197 1345.88 352.197 1318 365.5C1292 378.5 1266 391.5 1240 404.5C1200.6 423.226 1159.1 433.393 1115.5 435C1098.99 435.3 1082.83 433.133 1067 428.5C1066.33 427.833 1065.67 427.167 1065 426.5C1097.68 431.857 1130.01 429.857 1162 420.5C1176.96 415.957 1191.63 410.624 1206 404.5C1241.72 386.305 1277.72 368.639 1314 351.5C1335.35 342.935 1357.35 337.769 1380 336ZM1402 338C1408.21 337.915 1414.54 338.748 1421 340.5C1414.34 341.671 1408.01 340.837 1402 338ZM976 339C978.336 340.504 980.169 342.504 981.5 345C988.355 356.056 995.189 367.056 1002 378C992.096 365.868 983.429 352.868 976 339ZM958 340C962.73 344.086 966.396 349.086 969 355C964.979 350.304 961.312 345.304 958 340ZM1070 432C1111.61 440.264 1152.61 437.764 1193 424.5C1211.55 418.873 1229.55 411.873 1247 403.5C1272.36 390.818 1297.7 378.151 1323 365.5C1350.11 352.763 1378.61 345.263 1408.5 343C1412.24 344.784 1415.74 346.951 1419 349.5C1391.31 354.396 1364.64 362.729 1339 374.5C1310.98 388.534 1282.98 402.534 1255 416.5C1210.16 436.8 1163.16 445.8 1114 443.5C1100.35 442.371 1087.02 439.704 1074 435.5C1072.18 434.84 1070.84 433.673 1070 432ZM1413 344C1423.44 341.905 1433.44 343.405 1443 348.5C1436.8 348.727 1430.63 349.227 1424.5 350C1420.71 347.854 1416.87 345.854 1413 344ZM993 344C999.99 352.646 1005.99 361.979 1011 372C1009.71 371.21 1008.54 370.21 1007.5 369C1002.41 360.762 997.579 352.428 993 344ZM1442 346C1442.42 345.376 1443.08 345.043 1444 345C1449.35 346.103 1454.68 347.269 1460 348.5C1453.83 348.812 1447.83 347.978 1442 346ZM1460 476C1413.77 511.636 1363.77 541.47 1310 565.5C1257.64 586.995 1204.97 587.995 1152 568.5C1137.26 562.071 1123.26 554.404 1110 545.5C1095.09 534.591 1080.75 522.924 1067 510.5C1042.33 486.5 1017.67 462.5 993 438.5C910.039 369.285 818.373 354.952 718 395.5C684.603 412.251 653.936 432.917 626 457.5C599.733 480.431 574.066 504.097 549 528.5C538.236 526.138 527.569 523.138 517 519.5C556.185 481.971 596.852 446.305 639 412.5C668.432 389.446 701.099 372.113 737 360.5C828.381 335.505 910.047 353.505 982 414.5C1008.28 438.774 1033.94 463.774 1059 489.5C1076.85 506.024 1095.85 521.024 1116 534.5C1145.81 552.37 1178.14 561.37 1213 561.5C1242.08 563.885 1270.74 561.552 1299 554.5C1339.17 543.077 1377.17 526.743 1413 505.5C1428.72 495.645 1444.39 485.812 1460 476ZM979 363C974.551 359.072 971.385 354.405 969.5 349C973.429 353.205 976.596 357.872 979 363ZM1440 350C1446.08 349.554 1451.41 351.388 1456 355.5C1448.83 357.334 1441.5 358.334 1434 358.5C1431.04 356.539 1428.37 354.206 1426 351.5C1430.85 351.326 1435.52 350.826 1440 350ZM1452 351C1461.09 350.055 1470.09 351.221 1479 354.5C1469.29 357.608 1460.29 356.441 1452 351ZM1077 439C1116.67 448.371 1156.34 448.205 1196 438.5C1214.94 434.298 1233.27 428.298 1251 420.5C1282.79 405.105 1314.46 389.438 1346 373.5C1369.81 362.838 1394.65 355.671 1420.5 352C1424.83 353.654 1428.67 356.154 1432 359.5C1411.77 363.687 1392.11 369.687 1373 377.5C1340.05 393.306 1307.39 409.639 1275 426.5C1217.38 454.37 1157.38 461.37 1095 447.5C1090.62 446.322 1086.29 444.988 1082 443.5C1079.84 442.504 1078.17 441.004 1077 439ZM1482 354C1482.24 353.403 1482.74 353.07 1483.5 353C1487 353.833 1490.5 354.666 1494 355.5C1489.85 356.169 1485.85 355.669 1482 354ZM960 354C961.762 354.762 962.762 356.096 963 358C961.238 357.238 960.238 355.904 960 354ZM990 354C996.323 361.304 1001.66 369.304 1006 378C999.68 370.696 994.344 362.696 990 354ZM969 355C970.762 355.762 971.762 357.096 972 359C970.238 358.238 969.238 356.904 969 355ZM1469 357C1478.47 355.552 1487.14 357.385 1495 362.5C1487.78 362.974 1480.61 363.807 1473.5 365C1470.07 363.239 1466.9 361.072 1464 358.5C1465.88 358.302 1467.55 357.802 1469 357ZM1914 427C1889.05 414.358 1863.72 402.525 1838 391.5C1795.9 373.141 1751.9 362.974 1706 361C1693.96 361.836 1681.96 362.669 1670 363.5C1705.48 354.408 1740.82 355.074 1776 365.5C1824.53 380.502 1870.53 401.002 1914 427ZM1455 358C1457.03 357.838 1459.03 358.005 1461 358.5C1463.67 360.5 1466.33 362.5 1469 364.5C1461.2 366.858 1453.2 368.191 1445 368.5C1442.63 365.794 1439.96 363.461 1437 361.5C1443.05 360.003 1449.05 358.837 1455 358ZM1492 359C1499.75 357.455 1507.42 358.289 1515 361.5C1509.75 361.693 1504.58 362.193 1499.5 363C1497.03 361.514 1494.53 360.181 1492 359ZM964 359C965.406 359.473 966.073 360.473 966 362C964.594 361.527 963.927 360.527 964 359ZM968 359C969.406 359.473 970.073 360.473 970 362C968.594 361.527 967.927 360.527 968 359ZM972 359C973.762 359.762 974.762 361.096 975 363C973.238 362.238 972.238 360.904 972 359ZM1521 362C1521.24 361.403 1521.74 361.07 1522.5 361C1524.64 361.627 1526.8 362.127 1529 362.5C1526.28 363.102 1523.61 362.935 1521 362ZM1085 447C1148.11 463.574 1209.44 458.408 1269 431.5C1298.23 417.272 1327.23 402.605 1356 387.5C1380.01 375.608 1405.18 367.108 1431.5 362C1436.32 362.838 1440.16 365.338 1443 369.5C1424.69 374.827 1406.69 381.16 1389 388.5C1349.95 408.694 1310.61 428.361 1271 447.5C1222.11 467.556 1171.77 472.222 1120 461.5C1112.26 459.031 1104.59 456.364 1097 453.5C1092.54 451.976 1088.54 449.809 1085 447ZM975 363C976.406 363.473 977.073 364.473 977 366C975.594 365.527 974.927 364.527 975 363ZM979 363C980.762 363.762 981.762 365.096 982 367C980.238 366.238 979.238 364.904 979 363ZM983 363C984.762 363.762 985.762 365.096 986 367C984.238 366.238 983.238 364.904 983 363ZM972 364C973.406 364.473 974.073 365.473 974 367C972.594 366.527 971.927 365.527 972 364ZM1502 365C1508.82 363.845 1515.82 363.679 1523 364.5C1525.83 365.747 1528.5 367.247 1531 369C1524.67 369.745 1518.33 370.411 1512 371C1508.41 369.408 1505.08 367.408 1502 365ZM1484 365C1489.01 364.834 1494.01 365.001 1499 365.5C1501.51 366.921 1503.84 368.588 1506 370.5C1498.51 372.094 1491.01 373.594 1483.5 375C1480.79 372.122 1477.96 369.456 1475 367C1478.14 366.333 1481.14 365.666 1484 365ZM1551 369C1545.66 369.166 1540.32 368.999 1535 368.5C1533.17 367.752 1531.5 366.752 1530 365.5C1537.4 364.962 1544.4 366.128 1551 369ZM1011 366C1016.66 372.648 1021.33 379.981 1025 388C1019.34 381.352 1014.67 374.019 1011 366ZM982 367C983.762 367.762 984.762 369.096 985 371C983.238 370.238 982.238 368.904 982 367ZM986 367C987.762 367.762 988.762 369.096 989 371C987.238 370.238 986.238 368.904 986 367ZM1468 367C1472.69 368.189 1476.69 370.689 1480 374.5C1472.43 376.81 1464.77 378.977 1457 381C1453.48 378.313 1450.48 375.147 1448 371.5C1454.77 369.879 1461.44 368.379 1468 367ZM1004 369C1008.11 373.451 1011.44 378.451 1014 384C1009.93 379.524 1006.59 374.524 1004 369ZM1890 422C1855.74 406.636 1820.41 394.136 1784 384.5C1733.66 371.599 1683.16 370.765 1632.5 382C1631.44 381.87 1630.61 381.37 1630 380.5C1680.62 366.617 1731.28 366.617 1782 380.5C1819.52 390.722 1855.52 404.555 1890 422ZM989 371C990.406 371.473 991.073 372.473 991 374C989.594 373.527 988.927 372.527 989 371ZM1528 371C1530.69 370.836 1533.35 371.003 1536 371.5C1538.67 373.167 1541.33 374.833 1544 376.5C1536.16 378.314 1528.16 379.314 1520 379.5C1517.82 377.15 1515.48 374.983 1513 373C1518.15 372.333 1523.15 371.666 1528 371ZM1540 372C1549.89 370.277 1559.55 371.444 1569 375.5C1561.69 376.61 1554.36 376.943 1547 376.5C1544.78 374.777 1542.45 373.277 1540 372ZM986 372C987.406 372.473 988.073 373.473 988 375C986.594 374.527 985.927 373.527 986 372ZM1442 372C1443.37 371.843 1444.71 372.01 1446 372.5C1448.3 375.797 1450.96 378.797 1454 381.5C1424.77 389.952 1397.1 401.952 1371 417.5C1342.27 436.539 1312.27 453.539 1281 468.5C1260.56 477.454 1239.23 481.121 1217 479.5C1193.46 477.132 1170.13 473.465 1147 468.5C1182.01 471.196 1216.34 467.529 1250 457.5C1264.99 452.282 1279.66 446.282 1294 439.5C1324.18 423.578 1354.51 407.911 1385 392.5C1403.56 384.149 1422.56 377.316 1442 372ZM1504 373C1509.85 373.092 1514.51 375.592 1518 380.5C1510.3 381.808 1502.63 383.308 1495 385C1491.25 382.761 1487.92 379.927 1485 376.5C1491.47 375.313 1497.81 374.146 1504 373ZM1569 373C1576.22 372.87 1583.22 374.037 1590 376.5C1584.35 376.447 1578.69 376.114 1573 375.5C1571.43 374.892 1570.1 374.058 1569 373ZM1494 456C1453.84 489.753 1412.17 521.586 1369 551.5C1334.01 574.99 1296.01 591.99 1255 602.5C1205.97 615.165 1160.97 606.831 1120 577.5C1098 560.508 1077.5 541.675 1058.5 521C1042.06 502.56 1024.89 484.726 1007 467.5C957.52 423.104 899.354 399.604 832.5 397C784.769 398.023 740.935 411.523 701 437.5C661.025 465.789 623.691 497.456 589 532.5C587.734 532.809 586.567 533.309 585.5 534C574.105 532.066 562.605 530.566 551 529.5C587.222 493.932 625.222 460.599 665 429.5C696.022 406.492 730.355 390.158 768 380.5C851.971 364.407 926.305 384.074 991 439.5C1015.33 463.167 1039.67 486.833 1064 510.5C1088.63 534.117 1116.29 553.45 1147 568.5C1191.4 586.119 1236.74 588.785 1283 576.5C1320.86 564.403 1356.52 547.737 1390 526.5C1401 519.5 1412 512.5 1423 505.5C1446.38 488.488 1470.04 471.988 1494 456ZM1880 421C1839.52 403.562 1797.52 391.062 1754 383.5C1716.96 377.335 1679.96 377.501 1643 384C1641.3 383.601 1639.64 383.101 1638 382.5C1686.95 372.84 1735.61 374.173 1784 386.5C1817.22 394.96 1849.22 406.46 1880 421ZM1479 377C1480.37 376.843 1481.71 377.01 1483 377.5C1485.67 380.167 1488.33 382.833 1491 385.5C1482.75 387.771 1474.58 390.271 1466.5 393C1463.67 389.5 1460.83 386 1458 382.5C1465.16 380.794 1472.16 378.96 1479 377ZM1006 378C1007.41 378.473 1008.07 379.473 1008 381C1006.59 380.527 1005.93 379.527 1006 378ZM1557 378C1563.01 377.834 1569.01 378.001 1575 378.5C1577.33 380.167 1579.67 381.833 1582 383.5C1574.65 384.244 1567.32 385.077 1560 386C1556.89 384.061 1553.89 381.894 1551 379.5C1553.21 379.309 1555.21 378.809 1557 378ZM1578 379C1579.29 378.342 1580.79 378.008 1582.5 378C1588.5 378.314 1594.34 379.147 1600 380.5C1599.33 381.167 1598.67 381.833 1598 382.5C1594.64 382.837 1591.31 383.337 1588 384C1584.66 382.315 1581.32 380.648 1578 379ZM999 379C1000.41 379.473 1001.07 380.473 1001 382C999.59 381.527 998.93 380.527 999 379ZM1542 379C1547.28 379.075 1551.61 381.242 1555 385.5C1546.86 387.801 1538.52 389.135 1530 389.5C1527.67 387.167 1525.33 384.833 1523 382.5C1529.38 380.938 1535.71 379.772 1542 379ZM224 381C234.006 380.834 244.006 381 254 381.5C204.922 406.437 152.922 417.103 98 413.5C116.045 406.374 134.378 400.04 153 394.5C176.892 390.287 200.559 385.787 224 381ZM1008 381C1009.41 381.473 1010.07 382.473 1010 384C1008.59 383.527 1007.93 382.527 1008 381ZM1602 381C1602.88 380.869 1603.54 381.202 1604 382C1601.69 383.373 1601.02 383.04 1602 381ZM1872 421C1834.6 405.815 1795.93 394.982 1756 388.5C1722.17 383.264 1688.34 382.764 1654.5 387C1653.1 386.273 1651.6 385.773 1650 385.5C1665.96 382.271 1682.13 380.771 1698.5 381C1759.19 382.465 1817.02 395.799 1872 421ZM256 382C263.851 382.106 271.518 383.272 279 385.5C264.974 394.516 250.307 402.516 235 409.5C201.135 414.883 168.135 423.549 136 435.5C108.463 438.207 81.1296 436.874 54 431.5C65.9189 426.305 77.9189 421.305 90 416.5C134.513 419.019 177.846 413.019 220 398.5C232.449 393.772 244.449 388.272 256 382ZM1518 382C1522.18 383.509 1525.52 386.176 1528 390C1519.86 392.41 1511.69 394.744 1503.5 397C1501.04 393.535 1498.2 390.369 1495 387.5C1502.73 385.458 1510.4 383.624 1518 382ZM1094 456C1137.68 470.503 1182.52 479.17 1228.5 482C1255.04 480.822 1279.88 473.656 1303 460.5C1330.16 444.752 1357.16 428.752 1384 412.5C1406.81 400.12 1430.65 390.287 1455.5 383C1458.33 386.5 1461.17 390 1464 393.5C1442.59 400.749 1421.92 409.749 1402 420.5C1369.32 440.843 1335.99 460.177 1302 478.5C1276.54 491.615 1249.54 497.282 1221 495.5C1178.38 491.012 1137.71 479.679 1099 461.5C1097.13 459.796 1095.46 457.963 1094 456ZM1014 384C1015.41 384.473 1016.07 385.473 1016 387C1014.59 386.527 1013.93 385.527 1014 384ZM1011 385C1012.41 385.473 1013.07 386.473 1013 388C1011.59 387.527 1010.93 386.527 1011 385ZM1589 386C1590.79 384.878 1592.79 384.711 1595 385.5C1593.16 388.602 1591.16 388.769 1589 386ZM1598 385C1598.74 384.869 1599.41 385.036 1600 385.5C1598.42 387.795 1596.42 389.128 1594 389.5C1595.54 388.129 1596.87 386.629 1598 385ZM244 408C256.766 401.114 269.433 393.947 282 386.5C288.233 386.573 294.233 387.906 300 390.5C291.836 396.083 283.503 401.416 275 406.5C264.664 407.033 254.331 407.533 244 408ZM1572 386C1577.01 385.834 1582.01 386.001 1587 386.5C1588.05 387.885 1589.38 388.885 1591 389.5C1590 390.5 1589 391.5 1588 392.5C1581.4 394.11 1574.74 394.777 1568 394.5C1565.82 392.484 1563.82 390.317 1562 388C1565.48 387.333 1568.81 386.666 1572 386ZM1623 386C1632.25 386.027 1632.25 386.694 1623 388C1622 387.833 1621 387.667 1620 387.5C1621.24 387.268 1622.24 386.768 1623 386ZM1845 414C1786.28 394.157 1725.94 385.491 1664 388C1726.43 382.685 1786.76 391.352 1845 414ZM1020 387C1021.41 387.473 1022.07 388.473 1022 390C1020.59 389.527 1019.93 388.527 1020 387ZM1028 387C1036.14 395.136 1043.14 404.136 1049 414C1040.1 406.436 1033.1 397.436 1028 387ZM1635 387C1637.06 387.187 1639.06 387.687 1641 388.5C1636.39 389.79 1631.72 390.124 1627 389.5C1629.88 388.954 1632.55 388.121 1635 387ZM1489 388C1490.37 387.843 1491.71 388.01 1493 388.5C1495.5 391 1498 393.5 1500.5 396C1500.93 397.1 1500.43 397.767 1499 398C1491.8 400.233 1484.64 402.566 1477.5 405C1473.66 402.344 1470.5 399.011 1468 395C1475.03 392.436 1482.03 390.103 1489 388ZM1554 388C1559.1 388.574 1563.1 391.074 1566 395.5C1558.02 397.396 1550.02 399.23 1542 401C1538.88 398.377 1535.88 395.544 1533 392.5C1540.07 390.772 1547.07 389.272 1554 388ZM1617 388C1617.79 388.283 1618.46 388.783 1619 389.5C1616.68 390.337 1614.35 390.67 1612 390.5C1613.81 389.743 1615.48 388.91 1617 388ZM1649 390C1651.8 388.862 1654.8 388.695 1658 389.5C1655.08 391.318 1652.08 391.484 1649 390ZM1022 390C1023.41 390.473 1024.07 391.473 1024 393C1022.59 392.527 1021.93 391.527 1022 390ZM1829 412C1780.36 397.879 1730.7 391.045 1680 391.5C1730.96 388.755 1780.62 395.589 1829 412ZM302 391C306.953 392.15 311.62 393.984 316 396.5C310.474 400.86 304.807 405.026 299 409C292.38 407.971 285.713 407.137 279 406.5C287.078 401.806 294.744 396.639 302 391ZM1631 392C1634.35 391.835 1637.68 392.002 1641 392.5C1637.03 393.498 1633.03 393.831 1629 393.5C1629.92 393.222 1630.58 392.722 1631 392ZM1024 393C1025.41 393.473 1026.07 394.473 1026 396C1024.59 395.527 1023.93 394.527 1024 393ZM1525 393C1527.03 392.838 1529.03 393.005 1531 393.5C1533.67 396.167 1536.33 398.833 1539 401.5C1530.36 403.618 1521.86 406.118 1513.5 409C1510.67 405.5 1507.83 402 1505 398.5C1511.79 396.639 1518.46 394.806 1525 393ZM1618 393C1613.23 394.941 1608.23 396.108 1603 396.5C1607.8 394.397 1612.8 393.231 1618 393ZM1648 393C1650.25 392.681 1652.25 393.181 1654 394.5C1647 395.585 1640 396.251 1633 396.5C1638.06 395.108 1643.06 393.941 1648 393ZM1607 399C1613.32 396.254 1619.99 394.754 1627 394.5C1620.42 396.448 1613.76 397.948 1607 399ZM1818 412C1776.99 401.546 1735.32 395.712 1693 394.5C1735.69 393.861 1777.36 399.695 1818 412ZM1107 468C1147.47 484.991 1189.63 494.991 1233.5 498C1251.64 497.757 1269.14 494.257 1286 487.5C1298.91 482.046 1311.58 476.046 1324 469.5C1349.17 454.752 1374.17 439.752 1399 424.5C1420.27 412.615 1442.43 402.782 1465.5 395C1468.33 398.5 1471.17 402 1474 405.5C1458.46 411.935 1443.13 418.935 1428 426.5C1399.67 442.663 1371.67 459.33 1344 476.5C1319.29 491.403 1292.96 502.403 1265 509.5C1251.09 511.865 1237.09 512.532 1223 511.5C1187.42 507.192 1153.76 496.859 1122 480.5C1116.56 476.791 1111.56 472.625 1107 468ZM1583 395C1584.88 394.893 1585.21 395.393 1584 396.5C1581.08 398.209 1578.25 400.042 1575.5 402C1574 400.5 1572.5 399 1571 397.5C1575.17 396.795 1579.17 395.961 1583 395ZM1664 395C1668.68 394.834 1673.35 395.001 1678 395.5C1672.7 396.645 1667.37 396.978 1662 396.5C1662.92 396.222 1663.58 395.722 1664 395ZM1629 396C1629.79 396.283 1630.46 396.783 1631 397.5C1626.06 398.935 1621.06 399.602 1616 399.5C1620.54 398.633 1624.87 397.467 1629 396ZM1653 396C1658.71 395.992 1659.04 396.492 1654 397.5C1651 398.167 1648 398.167 1645 397.5C1647.86 397.317 1650.53 396.817 1653 396ZM318 397C322.586 398.626 326.919 400.793 331 403.5C327.392 406.951 323.392 409.784 319 412C313.927 411.045 308.927 409.878 304 408.5C309.147 405.18 313.814 401.347 318 397ZM1563 398C1567.41 397.123 1570.74 398.623 1573 402.5C1566.51 408.583 1558.84 411.583 1550 411.5C1547.9 408.646 1545.57 405.979 1543 403.5C1549.64 401.342 1556.31 399.509 1563 398ZM1779 406C1757.41 402.878 1735.74 400.378 1714 398.5C1736.04 398.798 1757.71 401.298 1779 406ZM822 399C880.159 398.333 932.825 414.833 980 448.5C988.288 454.453 996.288 460.786 1004 467.5C1032.33 496.5 1060.67 525.5 1089 554.5C1109.11 574.063 1132.11 589.396 1158 600.5C1193.06 612.487 1228.4 613.154 1264 602.5C1289.78 595.278 1314.45 585.278 1338 572.5C1370.56 553.727 1401.56 532.727 1431 509.5C1456.23 488.972 1481.73 468.805 1507.5 449C1508 449.5 1508.5 450 1509 450.5C1471.63 484.87 1433.97 518.87 1396 552.5C1368.58 575.72 1338.91 595.72 1307 612.5C1282.67 624.609 1257 632.276 1230 635.5C1190.5 638.554 1155.5 627.554 1125 602.5C1096.49 577.321 1069.99 550.154 1045.5 521C1008.59 478.787 963.425 448.954 910 431.5C838.197 411.411 771.864 422.745 711 465.5C685.867 483.622 662.2 503.622 640 525.5C624.339 530.31 608.339 532.644 592 532.5C621.891 502.597 653.557 474.93 687 449.5C727.172 419.721 772.172 402.888 822 399ZM1501 399C1502.87 399.359 1504.37 400.359 1505.5 402C1507.33 404.5 1509.17 407 1511 409.5C1503.01 411.94 1495.18 414.773 1487.5 418C1484.01 414.885 1480.84 411.385 1478 407.5C1485.63 404.349 1493.29 401.516 1501 399ZM1641 402C1648.13 400.319 1655.46 399.485 1663 399.5C1655.74 400.926 1648.4 401.76 1641 402ZM1033 401C1034.41 401.473 1035.07 402.473 1035 404C1033.59 403.527 1032.93 402.527 1033 401ZM1010 403C1012.77 404.223 1015.44 405.723 1018 407.5C1029 415.833 1040 424.167 1051 432.5C1062.6 445.235 1073.6 458.402 1084 472C1075.56 465.402 1067.23 458.569 1059 451.5C1042.59 435.318 1026.26 419.151 1010 403ZM333 404C341.482 408.408 349.482 413.575 357 419.5C355.771 421.029 354.271 422.196 352.5 423C342.965 418.71 333.131 415.21 323 412.5C326.525 409.802 329.858 406.969 333 404ZM1035 404C1036.41 404.473 1037.07 405.473 1037 407C1035.59 406.527 1034.93 405.527 1035 404ZM1536 404C1537.7 403.84 1539.37 404.006 1541 404.5C1543.69 407.057 1546.02 409.891 1548 413C1540.01 415.666 1532.01 418.332 1524 421C1520.42 418.006 1517.42 414.506 1515 410.5C1522.14 408.394 1529.14 406.227 1536 404ZM1681 406C1688.01 405.834 1695.01 406 1702 406.5C1709.33 411.833 1716.67 417.167 1724 422.5C1737 434.167 1750 445.833 1763 457.5C1754.24 459.524 1745.58 461.524 1737 463.5C1717.6 444.1 1697.6 425.433 1677 407.5C1678.56 407.29 1679.89 406.79 1681 406ZM1705 407C1718.14 404.895 1730.47 407.395 1742 414.5C1761.86 428.019 1780.86 442.685 1799 458.5C1788.01 457.226 1777.01 456.893 1766 457.5C1752.67 445.5 1739.33 433.5 1726 421.5C1719.29 416.153 1712.29 411.32 1705 407ZM1662 407C1667.92 406.088 1673.26 407.255 1678 410.5C1697.3 428.134 1716.3 446.134 1735 464.5C1729.58 466.639 1724.25 468.972 1719 471.5C1716.75 472.65 1714.41 472.984 1712 472.5C1707.67 468.833 1703.33 465.167 1699 461.5C1682.36 443.862 1665.36 426.528 1648 409.5C1652.74 408.449 1657.41 407.615 1662 407ZM1474 408C1475.52 408.011 1476.68 408.677 1477.5 410C1479.5 412.667 1481.5 415.333 1483.5 418C1469.76 425.121 1455.6 432.288 1441 439.5C1406.59 460.232 1371.93 480.565 1337 500.5C1311.6 514.3 1284.6 523.3 1256 527.5C1210.94 530.911 1170.94 518.578 1136 490.5C1159.83 499.961 1184.49 506.961 1210 511.5C1235.65 516.185 1260.82 514.352 1285.5 506C1309.8 497.101 1332.96 485.935 1355 472.5C1377.4 458.436 1400.07 444.769 1423 431.5C1439.61 422.523 1456.61 414.69 1474 408ZM1735 409C1735.6 408.361 1736.43 408.028 1737.5 408C1754.66 410.499 1770.83 415.999 1786 424.5C1808.51 439.921 1830.84 455.587 1853 471.5C1837.01 468.172 1821.01 464.505 1805 460.5C1789.62 447.454 1773.96 434.788 1758 422.5C1750.69 417.347 1743.02 412.847 1735 409ZM256 409C261.011 408.834 266.011 409.001 271 409.5C218.431 441.769 161.264 458.603 99.5 460C93.6267 459.943 87.7933 459.443 82 458.5C100.223 451.222 118.556 444.222 137 437.5C171.374 433.99 204.374 425.323 236 411.5C242.829 410.77 249.496 409.937 256 409ZM275 409C282.36 409.058 289.694 409.558 297 410.5C282.341 421.167 267.008 430.833 251 439.5C204.921 450.082 159.921 464.082 116 481.5C88.7985 484.368 61.7985 483.035 35 477.5C48.3333 472.167 61.6667 466.833 75 461.5C147.409 465.233 214.076 447.733 275 409ZM1641 409C1642.37 408.843 1643.71 409.01 1645 409.5C1662.36 426.528 1679.36 443.862 1696 461.5C1701.04 466.212 1706.38 470.545 1712 474.5C1705.09 477.538 1698.26 480.705 1691.5 484C1674.68 472.189 1659.35 458.522 1645.5 443C1637.04 432.868 1628.2 423.035 1619 413.5C1626.31 411.578 1633.64 410.078 1641 409ZM300 411C305.904 411.315 311.571 412.482 317 414.5C308.614 421.22 299.947 427.553 291 433.5C279.741 435.825 268.407 437.492 257 438.5C272.044 430.259 286.377 421.093 300 411ZM1511 411C1514.75 413.925 1518.09 417.425 1521 421.5C1512.77 424.801 1504.6 428.301 1496.5 432C1493.54 428.256 1490.71 424.422 1488 420.5C1495.69 417.219 1503.36 414.052 1511 411ZM1818 412C1820.65 411.91 1822.99 412.576 1825 414C1822.35 414.09 1820.01 413.424 1818 412ZM1614 413C1618.24 415.728 1622.07 419.061 1625.5 423C1644.08 446.243 1665.24 466.743 1689 484.5C1682.74 488.251 1676.08 490.584 1669 491.5C1656.63 485.319 1645.3 477.652 1635 468.5C1619.03 453.041 1604.37 436.541 1591 419C1598.71 416.731 1606.38 414.731 1614 413ZM1832 413C1836.42 413.361 1840.42 414.694 1844 417C1839.72 416.239 1835.72 414.905 1832 413ZM223 414C199.082 424.397 174.082 430.897 148 433.5C172.459 424.846 197.459 418.346 223 414ZM320 414C330.543 416.792 340.876 420.292 351 424.5C346.046 427.785 341.38 431.452 337 435.5C322.351 435.315 307.685 434.982 293 434.5C302.468 428.187 311.468 421.354 320 414ZM1045 414C1045.79 414.283 1046.46 414.783 1047 415.5C1045.68 416.028 1045.02 415.528 1045 414ZM1825 414C1827.65 413.91 1829.99 414.576 1832 416C1829.35 416.09 1827.01 415.424 1825 414ZM1548 415C1551.5 414.759 1551.83 415.592 1549 417.5C1542.25 420.955 1535.75 424.789 1529.5 429C1527.88 427.259 1526.38 425.425 1525 423.5C1532.63 420.349 1540.29 417.516 1548 415ZM1848 415C1851.04 415.233 1853.71 416.233 1856 418C1852.96 417.767 1850.29 416.767 1848 415ZM1586 419C1587.87 419.359 1589.37 420.359 1590.5 422C1603.22 438.393 1617.05 453.893 1632 468.5C1642.62 478.782 1654.62 487.116 1668 493.5C1662.56 495.867 1657.06 498.034 1651.5 500C1634.44 494.724 1619.27 486.224 1606 474.5C1590 460.011 1575.67 444.178 1563 427C1570.58 423.862 1578.24 421.196 1586 419ZM1859 419C1861.05 418.902 1862.72 419.569 1864 421C1861.95 421.098 1860.28 420.431 1859 419ZM373 432C366.901 429.451 360.901 426.618 355 423.5C356.466 422.865 357.8 422.031 359 421C364.099 424.204 368.766 427.871 373 432ZM1203 526C1240.59 534.093 1276.92 530.26 1312 514.5C1323.79 509.106 1335.46 503.439 1347 497.5C1377.5 479.752 1407.83 461.752 1438 443.5C1453.33 435.332 1469 427.832 1485 421C1488.35 424.351 1491.35 428.018 1494 432C1479.87 438.896 1465.87 446.063 1452 453.5C1422 470.833 1392 488.167 1362 505.5C1339.37 517.982 1315.7 527.982 1291 535.5C1278.27 540.112 1265.27 541.112 1252 538.5C1235.02 536.34 1218.69 532.173 1203 526ZM1864 421C1866.05 420.902 1867.72 421.569 1869 423C1866.95 423.098 1865.28 422.431 1864 421ZM1872 421C1874.05 420.902 1875.72 421.569 1877 423C1874.95 423.098 1873.28 422.431 1872 421ZM1880 421C1882.74 421.207 1885.07 422.207 1887 424C1884.26 423.793 1881.93 422.793 1880 421ZM1892 423C1896.59 423.96 1900.59 425.96 1904 429C1899.68 427.508 1895.68 425.508 1892 423ZM825 424C884.103 421.022 937.769 436.522 986 470.5C1002.38 482.541 1017.88 495.708 1032.5 510C1051.83 531.333 1071.17 552.667 1090.5 574C1111.41 596.359 1135.58 614.192 1163 627.5C1196.93 640.407 1231.26 641.407 1266 630.5C1302.01 618.997 1335.01 601.997 1365 579.5C1376.18 571.074 1387.18 562.408 1398 553.5C1435.8 520.037 1473.3 486.203 1510.5 452C1511.14 453.466 1511.97 454.8 1513 456C1473.55 498.288 1433.55 540.121 1393 581.5C1370.49 603.082 1345.82 621.748 1319 637.5C1289.59 654.58 1257.93 664.08 1224 666C1195.2 665.233 1169.2 656.399 1146 639.5C1130.64 628.145 1116.47 615.312 1103.5 601C1086.93 582.186 1070.6 563.186 1054.5 544C1021.31 507.133 981.811 479.3 936 460.5C861.996 433.882 792.996 443.216 729 488.5C716.541 494.563 704.208 500.896 692 507.5C681.093 511.247 670.426 515.58 660 520.5C655.037 522.026 650.037 523.026 645 523.5C677.909 489.588 715.576 462.255 758 441.5C779.602 432.351 801.935 426.518 825 424ZM1520 424C1523.51 424.505 1525.85 426.505 1527 430C1520.08 434.71 1512.92 439.044 1505.5 443C1503 439.833 1500.5 436.667 1498 433.5C1505.48 430.406 1512.81 427.24 1520 424ZM1879 424C1881.05 423.902 1882.72 424.569 1884 426C1881.95 426.098 1880.28 425.431 1879 424ZM353 425C361.766 429.217 370.432 433.717 379 438.5C377.097 440.905 374.764 442.739 372 444C361.198 440.673 350.198 438.173 339 436.5C343.921 432.887 348.588 429.054 353 425ZM1891 426C1895.59 426.96 1899.59 428.96 1903 432C1898.68 430.508 1894.68 428.508 1891 426ZM1054 427C1056.59 426.961 1058.59 427.961 1060 430C1057.68 429.508 1055.68 428.508 1054 427ZM1888 428C1893.25 429.293 1897.92 431.626 1902 435C1897.02 433.174 1892.35 430.841 1888 428ZM1560 429C1561.52 429.011 1562.68 429.677 1563.5 431C1580.37 453.54 1600.21 473.04 1623 489.5C1630.98 493.991 1639.31 497.658 1648 500.5C1637.79 504.701 1627.45 505.035 1617 501.5C1602.21 497.108 1588.88 490.108 1577 480.5C1564.45 469.781 1553.11 457.947 1543 445C1548.69 439.645 1554.35 434.312 1560 429ZM1883 429C1889.59 430.96 1895.59 433.96 1901 438C1894.68 435.508 1888.68 432.508 1883 429ZM1878 430C1880.05 429.902 1881.72 430.569 1883 432C1880.95 432.098 1879.28 431.431 1878 430ZM1908 431C1910.83 431.579 1913.16 432.912 1915 435C1912.17 434.421 1909.84 433.088 1908 431ZM49 433C75.1359 437.82 101.469 439.653 128 438.5C110.01 444.941 92.1769 451.774 74.5 459C54.9781 456.962 35.8114 453.129 17 447.5C27.8758 442.891 38.5424 438.058 49 433ZM1060 433C1062.59 432.961 1064.59 433.961 1066 436C1063.68 435.508 1061.68 434.508 1060 433ZM1495 434C1497.99 437.001 1500.66 440.335 1503 444C1460.05 471.07 1415.72 495.903 1370 518.5C1342.68 531.163 1314.01 538.163 1284 539.5C1317.45 529.939 1349.12 516.273 1379 498.5C1416.63 475.183 1455.3 453.683 1495 434ZM1907 434C1909.83 434.579 1912.16 435.912 1914 438C1911.17 437.421 1908.84 436.088 1907 434ZM289 437C303.725 436.568 318.392 437.068 333 438.5C320.174 447.747 307.174 456.747 294 465.5C269.992 469.752 246.325 475.419 223 482.5C179.045 496.707 135.379 511.707 92 527.5C65.3168 528.053 39.3168 524.053 14 515.5C25.1091 513.678 36.1091 511.345 47 508.5C120.798 514.216 189.465 498.216 253 460.5C265.445 453.197 277.445 445.364 289 437ZM1530 437C1531.05 436.851 1532.05 437.017 1533 437.5C1527.14 442.602 1521.48 447.935 1516 453.5C1514.3 453.845 1512.97 453.178 1512 451.5C1517.61 446.044 1523.61 441.21 1530 437ZM275 438C278.018 437.835 281.018 438.002 284 438.5C239.33 470.29 189.997 491.624 136 502.5C109.991 507.407 83.9907 508.407 58 505.5C76.7442 498.697 95.4109 491.697 114 484.5C162.369 480.154 207.702 466.154 250 442.5C258.472 440.979 266.806 439.479 275 438ZM336 438C347.615 439.523 358.949 442.189 370 446C364.145 451.023 358.145 455.856 352 460.5C334.531 461.176 317.198 462.509 300 464.5C312.245 455.89 324.245 447.056 336 438ZM1908 438C1910.17 438.25 1911.84 439.25 1913 441C1910.83 440.75 1909.16 439.75 1908 438ZM393 451C387.114 449.39 381.447 447.223 376 444.5C377.543 442.622 379.376 441.122 381.5 440C385.835 443.169 389.668 446.836 393 451ZM1901 441C1902.53 440.927 1903.53 441.594 1904 443C1902.47 443.073 1901.47 442.406 1901 441ZM1909 442C1911.17 442.25 1912.84 443.25 1914 445C1911.83 444.75 1910.16 443.75 1909 442ZM1518 443C1515.9 444.599 1513.9 446.432 1512 448.5C1509.53 448.243 1509.53 447.243 1512 445.5C1513.91 444.378 1515.91 443.545 1518 443ZM239 444C240.052 443.851 241.052 444.017 242 444.5C205.291 464.092 166.291 476.092 125 480.5C162.304 465.786 200.304 453.619 239 444ZM1896 445C1897.53 444.927 1898.53 445.594 1899 447C1897.47 447.073 1896.47 446.406 1896 445ZM373 446C382.749 449.302 392.082 453.469 401 458.5C398.073 460.882 395.239 463.382 392.5 466C380.133 463.474 367.633 461.641 355 460.5C361.188 455.803 367.188 450.969 373 446ZM1904 446C1905.53 445.927 1906.53 446.594 1907 448C1905.47 448.073 1904.47 447.406 1904 446ZM1540 447C1549.36 456.864 1559.03 466.697 1569 476.5C1585.6 491.465 1604.93 501.132 1627 505.5C1597.45 510.113 1570.79 503.447 1547 485.5C1538.4 478.904 1530.4 471.57 1523 463.5C1528.56 457.77 1534.23 452.27 1540 447ZM1912 447C1913.53 446.927 1914.53 447.594 1915 449C1913.47 449.073 1912.47 448.406 1912 447ZM1312 644C1279.38 665.151 1243.54 676.818 1204.5 679C1169.48 677.729 1138.31 666.229 1111 644.5C1083.49 622 1057.49 597.667 1033 571.5C990.269 529.784 940.269 499.784 883 481.5C835.817 467.308 788.817 467.808 742 483C796.435 447.43 855.102 438.597 918 456.5C952.571 467.447 983.904 484.114 1012 506.5C1026.44 518.936 1040.27 532.103 1053.5 546C1074.52 572.358 1097.02 597.525 1121 621.5C1134.94 634.439 1150.27 645.439 1167 654.5C1198 668.833 1230 671.5 1263 662.5C1279.85 657.607 1296.18 651.44 1312 644ZM1076 451C1079.39 452.029 1082.06 454.029 1084 457C1080.97 455.484 1078.3 453.484 1076 451ZM1909 452C1910.53 451.927 1911.53 452.594 1912 454C1910.47 454.073 1909.47 453.406 1909 452ZM399 453C400.696 453.185 402.029 454.019 403 455.5C401.088 455.779 399.754 454.946 399 453ZM1498 453C1497.24 454.762 1495.9 455.762 1494 456C1494.76 454.238 1496.1 453.238 1498 453ZM1105 471C1098.33 468.318 1092.66 464.151 1088 458.5C1090.31 459.142 1092.64 460.142 1095 461.5C1098.83 464.168 1102.17 467.335 1105 471ZM1768 460C1778.92 458.652 1789.92 459.152 1801 461.5C1792.63 461.952 1784.29 462.785 1776 464C1773.11 463.105 1770.44 461.771 1768 460ZM409 469C404.417 468.605 400.084 467.438 396 465.5C398.46 464.042 400.627 462.209 402.5 460C404.91 462.897 407.077 465.897 409 469ZM424 474C420.932 473.478 417.932 472.645 415 471.5C412.036 467.534 408.703 463.867 405 460.5C412.503 463.142 418.836 467.642 424 474ZM1760 460C1764.58 459.293 1768.25 460.793 1771 464.5C1763.09 467.474 1755.09 469.807 1747 471.5C1744.48 469.737 1742.15 467.737 1740 465.5C1746.7 463.329 1753.36 461.495 1760 460ZM1080 462C1089.76 469.725 1099.76 477.225 1110 484.5C1115.74 490.016 1121.41 495.516 1127 501C1121.56 498.447 1116.23 495.613 1111 492.5C1100.16 482.828 1089.83 472.661 1080 462ZM333 463C338.011 462.834 343.011 463.001 348 463.5C330.477 476.68 312.144 488.68 293 499.5C240.45 514.016 188.45 530.35 137 548.5C105.307 551.109 73.9735 548.776 43 541.5C58.8256 538.601 74.4922 534.934 90 530.5C164.025 530.155 231.691 509.488 293 468.5C306.363 465.889 319.696 464.056 333 463ZM302 497C318.704 486.478 335.037 475.311 351 463.5C364.122 463.459 377.122 464.792 390 467.5C381.333 474.167 372.667 480.833 364 487.5C343.17 489.694 322.503 492.861 302 497ZM1787 464C1793.67 463.834 1800.34 464 1807 464.5C1807.83 465.415 1808.83 466.081 1810 466.5C1801.31 467.572 1792.81 469.405 1784.5 472C1782 470.167 1779.5 468.333 1777 466.5C1780.41 465.504 1783.74 464.671 1787 464ZM1812 466C1814.23 464.941 1816.56 465.108 1819 466.5C1816.57 467.203 1814.24 467.037 1812 466ZM1736 466C1739.45 468.239 1742.79 470.739 1746 473.5C1739.22 476.058 1732.55 478.891 1726 482C1722.8 479.636 1719.47 477.47 1716 475.5C1722.61 472.029 1729.27 468.862 1736 466ZM1770 467C1774.56 467.444 1778.56 469.277 1782 472.5C1774.77 474.799 1767.6 477.299 1760.5 480C1757.1 478.381 1753.93 476.381 1751 474C1757.21 471.043 1763.55 468.71 1770 467ZM392 468C398.954 469.113 405.788 470.78 412.5 473C415.349 475.516 417.849 478.349 420 481.5C417.708 482.79 415.708 484.457 414 486.5C398.985 486.21 383.985 486.21 369 486.5C377.144 480.849 384.81 474.682 392 468ZM284 469C285.373 468.843 286.707 469.01 288 469.5C230.662 507.167 167.662 526.501 99 527.5C137.108 513.575 175.441 500.242 214 487.5C237.205 480.367 260.539 474.2 284 469ZM1805 469C1810.19 468.034 1814.53 469.368 1818 473C1810.73 474.61 1803.56 476.61 1796.5 479C1792.94 477.805 1789.77 475.971 1787 473.5C1793.01 471.537 1799.01 470.037 1805 469ZM1817 470C1822.05 468.505 1827.05 469.005 1832 471.5C1829.13 471.815 1826.3 472.315 1823.5 473C1821.22 472.109 1819.05 471.109 1817 470ZM1466 472C1465.53 473.406 1464.53 474.073 1463 474C1463.47 472.594 1464.47 471.927 1466 472ZM1299 655C1264.33 677.835 1226.16 690.168 1184.5 692C1151.23 691.356 1120.73 681.856 1093 663.5C1062.61 643.118 1033.94 620.452 1007 595.5C959.389 555.663 905.722 526.329 846 507.5C803.575 494.505 760.575 492.005 717 500C723.497 493.705 731.163 489.205 740 486.5C785.874 470.201 832.207 468.867 879 482.5C931.034 497.838 977.034 523.505 1017 559.5C1037.31 578.805 1057.31 598.471 1077 618.5C1091.91 632.612 1107.91 645.278 1125 656.5C1166.1 682.148 1209.77 687.481 1256 672.5C1270.8 667.736 1285.13 661.902 1299 655ZM1463 474C1462.53 475.406 1461.53 476.073 1460 476C1460.47 474.594 1461.47 473.927 1463 474ZM1782 474C1785.88 475.274 1789.55 477.107 1793 479.5C1786.61 482.187 1780.11 484.687 1773.5 487C1769.78 485.557 1766.28 483.723 1763 481.5C1769.42 478.946 1775.76 476.446 1782 474ZM1825 475C1831.07 473.363 1837.07 473.863 1843 476.5C1840.18 477.754 1837.18 478.587 1834 479C1830.84 477.915 1827.84 476.582 1825 475ZM1844 475C1844.42 474.376 1845.08 474.043 1846 474C1848.33 474.83 1850.66 475.663 1853 476.5C1849.82 477.097 1846.82 476.597 1844 475ZM418 475C420.516 475.255 422.85 476.089 425 477.5C421.618 480.716 419.284 479.883 418 475ZM434 478C431.7 477.978 430.533 476.978 430.5 475C432.018 475.663 433.185 476.663 434 478ZM1106 475C1107.53 474.927 1108.53 475.594 1109 477C1107.47 477.073 1106.47 476.406 1106 475ZM1746 475C1750.11 476.095 1753.78 478.095 1757 481C1751.25 483.872 1745.25 486.206 1739 488C1735.11 487.39 1731.78 485.724 1729 483C1734.87 480.563 1740.54 477.896 1746 475ZM1818 475C1822.51 475.088 1826.51 476.588 1830 479.5C1823.07 481.44 1816.23 483.606 1809.5 486C1805.62 484.311 1801.79 482.478 1798 480.5C1804.79 478.639 1811.46 476.806 1818 475ZM1712 476C1715.44 477.555 1718.77 479.388 1722 481.5C1723.33 482.167 1723.33 482.833 1722 483.5C1716.45 485.963 1710.78 488.129 1705 490C1701.11 489.39 1697.78 487.724 1695 485C1700.83 482.179 1706.49 479.179 1712 476ZM1109 477C1112.87 477.763 1115.87 479.763 1118 483C1114.48 481.741 1111.48 479.741 1109 477ZM440 491C436.312 490.719 432.645 490.219 429 489.5C427 486.833 425 484.167 423 481.5C424.869 479.898 426.869 478.898 429 478.5C433.27 482.261 436.937 486.428 440 491ZM1852 479C1856.16 477.97 1860.16 478.803 1864 481.5C1862 482.167 1860 482.167 1858 481.5C1856.09 480.378 1854.09 479.545 1852 479ZM1842 479C1846.79 478.47 1851.12 479.637 1855 482.5C1852.19 483.411 1849.36 484.244 1846.5 485C1842.83 483.913 1839.33 482.413 1836 480.5C1838.21 480.309 1840.21 479.809 1842 479ZM1831 481C1834.86 481.928 1838.53 483.428 1842 485.5C1836.16 487.626 1830.16 489.126 1824 490C1820.02 489.727 1816.35 488.561 1813 486.5C1819.14 484.727 1825.14 482.894 1831 481ZM436 482C442.616 483.974 448.282 487.474 453 492.5C452.392 493.37 451.559 493.87 450.5 494C448.689 493.422 446.855 492.922 445 492.5C442.164 488.833 439.164 485.333 436 482ZM1793 482C1797.69 482.341 1802.03 483.841 1806 486.5C1799.96 488.234 1793.96 490.068 1788 492C1784.31 490.936 1780.64 489.769 1777 488.5C1782.36 486.218 1787.69 484.051 1793 482ZM421 483C422.279 484.623 423.613 486.29 425 488C424.5 488.333 424 488.667 423.5 489C421.036 488.339 418.536 487.839 416 487.5C417.74 485.983 419.406 484.483 421 483ZM1112 483C1120.68 487.002 1128.68 492.002 1136 498C1127.32 493.998 1119.32 488.998 1112 483ZM1758 483C1762.28 483.636 1766.28 485.136 1770 487.5C1760.96 493.439 1751.63 494.106 1742 489.5C1747.54 487.557 1752.87 485.39 1758 483ZM1866 483C1868.98 484.154 1871.98 485.32 1875 486.5C1873.57 487.94 1871.9 488.274 1870 487.5C1868 486.5 1866 485.5 1864 484.5C1864.92 484.222 1865.58 483.722 1866 483ZM1873 484C1875.53 483.051 1877.86 483.718 1880 486C1879.83 486.333 1879.67 486.667 1879.5 487C1877.51 485.586 1875.34 484.586 1873 484ZM1883 484C1883.42 483.376 1884.08 483.043 1885 483C1887.33 483.83 1889.66 484.663 1892 485.5C1888.91 485.751 1885.91 485.251 1883 484ZM1725 484C1728.61 485.807 1732.28 487.64 1736 489.5C1730.23 491.536 1724.39 493.369 1718.5 495C1714.76 494.525 1711.26 493.358 1708 491.5C1713.89 489.268 1719.56 486.768 1725 484ZM1858 484C1860.97 485.487 1863.97 486.987 1867 488.5C1861.19 489.977 1855.52 489.311 1850 486.5C1852.81 485.718 1855.48 484.884 1858 484ZM1690 486C1694.06 487.525 1698.06 489.359 1702 491.5C1696.49 493.836 1690.83 495.669 1685 497C1681.08 496.604 1677.41 495.437 1674 493.5C1679.65 491.461 1684.98 488.961 1690 486ZM1844 487C1848.07 487.856 1852.07 489.023 1856 490.5C1847.07 493.131 1838.07 493.465 1829 491.5C1834.16 490.131 1839.16 488.631 1844 487ZM287 537C314.436 523.452 340.436 507.619 365 489.5C380.01 487.794 395.01 487.794 410 489.5C398.615 498.552 386.949 507.219 375 515.5C345.338 521.416 316.004 528.582 287 537ZM1807 488C1811.19 488.453 1815.19 489.619 1819 491.5C1810.38 494.139 1801.72 494.472 1793 492.5C1797.87 491.263 1802.54 489.763 1807 488ZM1883 489C1886.67 487.98 1890.34 488.48 1894 490.5C1892.4 490.773 1890.9 491.273 1889.5 492C1887.51 490.586 1885.34 489.586 1883 489ZM1895 489C1896.93 487.791 1898.93 487.958 1901 489.5C1899.01 489.68 1897.01 489.514 1895 489ZM1904 489C1904.24 488.403 1904.74 488.07 1905.5 488C1907 488.5 1908.5 489 1910 489.5C1907.95 489.99 1905.95 489.823 1904 489ZM1772 489C1775.67 490.056 1779.33 491.222 1783 492.5C1774.89 496.031 1766.55 496.698 1758 494.5C1762.81 492.737 1767.47 490.904 1772 489ZM1874 490C1877.77 488.56 1881.43 489.06 1885 491.5C1883.4 491.773 1881.9 492.273 1880.5 493C1878.51 491.586 1876.34 490.586 1874 490ZM355 490C356.699 489.84 358.366 490.006 360 490.5C275.193 553.539 180.193 578.872 75 566.5C96.4334 562.892 117.433 557.558 138 550.5C193.885 545.426 246.219 529.093 295 501.5C314.928 496.547 334.928 492.713 355 490ZM382 514C392.1 506.412 402.1 498.579 412 490.5C417.058 489.839 422.058 490.172 427 491.5C430.579 495.991 433.912 500.657 437 505.5C435.667 506.833 434.333 508.167 433 509.5C415.925 510.249 398.925 511.749 382 514ZM1868 491C1869.59 489.879 1871.26 490.046 1873 491.5C1871.23 492.14 1869.57 491.973 1868 491ZM1132 491C1133.53 490.927 1134.53 491.594 1135 493C1133.47 493.073 1132.47 492.406 1132 491ZM1737 491C1741.05 491.85 1745.05 493.016 1749 494.5C1740.52 497.978 1731.85 498.645 1723 496.5C1727.81 494.737 1732.47 492.904 1737 491ZM431 493C431.417 492.376 432.084 492.043 433 492C436.681 492.77 440.348 493.603 444 494.5C445 495.5 446 496.5 447 497.5C444.517 499.906 441.85 502.073 439 504C436.277 500.292 433.61 496.625 431 493ZM1106 492C1116.82 499.977 1127.82 507.811 1139 515.5C1151.81 522.902 1164.81 529.735 1178 536C1166.89 534.352 1156.22 531.186 1146 526.5C1131.29 516.631 1117.96 505.131 1106 492ZM1857 492C1861.06 491.985 1865.06 492.485 1869 493.5C1863.33 494.167 1857.67 494.167 1852 493.5C1853.88 493.302 1855.55 492.802 1857 492ZM458 493C461.011 494.169 463.678 495.836 466 498C462.359 497.848 459.693 496.182 458 493ZM1135 493C1136.53 492.927 1137.53 493.594 1138 495C1136.47 495.073 1135.47 494.406 1135 493ZM1702 493C1706.23 493.278 1710.23 494.444 1714 496.5C1705.85 499.904 1697.52 500.57 1689 498.5C1693.56 496.934 1697.89 495.101 1702 493ZM1819 493C1822.4 492.68 1825.73 493.013 1829 494C1824.03 495.162 1819.03 495.329 1814 494.5C1815.88 494.302 1817.55 493.802 1819 493ZM1785 494C1788.72 494.064 1792.39 494.564 1796 495.5C1789.66 496.223 1783.33 496.557 1777 496.5C1779.88 495.954 1782.55 495.121 1785 494ZM1125 495C1132.64 498.822 1140.31 502.656 1148 506.5C1152.52 509.53 1156.85 512.697 1161 516C1153.58 513.457 1146.24 510.624 1139 507.5C1134.14 503.468 1129.47 499.301 1125 495ZM1669 495C1673.05 495.85 1677.05 497.016 1681 498.5C1672.87 502.034 1664.54 502.7 1656 500.5C1660.56 498.934 1664.89 497.101 1669 495ZM1746 498C1748.18 496.574 1750.68 495.908 1753.5 496C1755.55 495.923 1757.38 496.423 1759 497.5C1754.68 497.999 1750.35 498.166 1746 498ZM450 497C453.91 496.763 457.577 497.596 461 499.5C465.3 502.798 469.3 506.465 473 510.5C468.22 511.153 463.553 510.653 459 509C455.951 504.963 452.951 500.963 450 497ZM1284 667C1250.76 688.271 1214.43 701.105 1175 705.5C1143.92 707.283 1114.25 701.617 1086 688.5C1047.61 668.654 1011.61 645.32 978 618.5C924.075 580.204 865.408 550.871 802 530.5C768.124 519.994 733.458 514.994 698 515.5C702.711 511.12 707.711 507.12 713 503.5C756.399 493.824 799.399 495.49 842 508.5C898.351 525.503 949.351 552.17 995 588.5C1022.42 612.698 1050.75 635.698 1080 657.5C1106.83 677.24 1136.83 689.24 1170 693.5C1198.62 695.341 1226.29 691.008 1253 680.5C1263.48 676.286 1273.81 671.786 1284 667ZM1718 497C1720.46 497.523 1722.79 498.356 1725 499.5C1718.98 500.092 1712.98 500.425 1707 500.5C1710.93 499.776 1714.59 498.609 1718 497ZM715 498C712.782 501.109 709.782 502.609 706 502.5C708.743 500.462 711.743 498.962 715 498ZM447 500C447.739 499.869 448.406 500.036 449 500.5C451.667 503.5 454.333 506.5 457 509.5C451.882 510.388 446.882 510.055 442 508.5C441.333 507.833 440.667 507.167 440 506.5C442.407 504.317 444.74 502.15 447 500ZM1678 502C1682.23 499.765 1686.56 499.598 1691 501.5C1686.68 501.999 1682.35 502.166 1678 502ZM1415 501C1414.53 502.406 1413.53 503.073 1412 503C1412.47 501.594 1413.47 500.927 1415 501ZM468 502C473.118 502.476 477.451 504.476 481 508C479.667 509 478.333 510 477 511C473.646 508.312 470.646 505.312 468 502ZM1649 502C1652.44 501.801 1655.77 502.301 1659 503.5C1653.35 504.426 1647.68 504.759 1642 504.5C1644.5 503.802 1646.84 502.969 1649 502ZM283 505C241.568 527.945 197.235 541.778 150 546.5C193.84 530.941 238.174 517.108 283 505ZM1128 505C1136.66 507.67 1143.99 512.336 1150 519C1141.98 515.329 1134.65 510.662 1128 505ZM1408 505C1394.5 514.086 1380.16 521.586 1365 527.5C1379.07 519.464 1393.41 511.964 1408 505ZM705 506C701.562 508.935 698.229 512.101 695 515.5C690.759 516.957 686.426 517.291 682 516.5C688.964 511.35 696.631 507.85 705 506ZM488 513C485.18 513.252 482.514 512.752 480 511.5C483.088 508.504 485.755 509.004 488 513ZM390 544C405.119 533.388 420.119 522.555 435 511.5C437.269 510.742 439.436 510.909 441.5 512C445.333 518.333 449.167 524.667 453 531C431.973 535.205 410.973 539.539 390 544ZM444 511C448.951 511.728 453.951 512.228 459 512.5C461.817 515.266 463.651 518.432 464.5 522C461.5 524.667 458.5 527.333 455.5 530C451.142 523.944 447.308 517.61 444 511ZM491 511C494.873 511.934 498.539 513.434 502 515.5C497.483 515.96 493.816 514.46 491 511ZM415 512C419.679 511.834 424.345 512.001 429 512.5C413.864 524.568 398.197 535.901 382 546.5C311.726 567.369 241.393 588.036 171 608.5C154.224 613.189 137.224 614.189 120 611.5C94.0283 608.674 68.6949 603.007 44 594.5C63.5296 594.306 83.0296 593.473 102.5 592C203.18 600.292 294.68 575.459 377 517.5C389.766 515.327 402.432 513.494 415 512ZM462 513C462.235 512.403 462.735 512.07 463.5 512C467.014 512.558 470.514 513.224 474 514C471.683 515.816 469.516 517.816 467.5 520C465.803 517.48 463.97 515.147 462 513ZM681 513C681.739 512.869 682.406 513.036 683 513.5C679.085 517.36 674.418 519.027 669 518.5C673.21 516.891 677.21 515.058 681 513ZM1162 514C1162.06 513.457 1162.39 513.124 1163 513C1173.75 517.542 1184.42 522.376 1195 527.5C1182.94 525.646 1171.94 521.146 1162 514ZM480 515C480.06 514.457 480.393 514.124 481 514C484.964 514.939 488.964 515.772 493 516.5C497.618 519.45 501.952 522.784 506 526.5C501.517 528.101 496.851 528.434 492 527.5C488.497 522.831 484.497 518.664 480 515ZM1148 514C1156 516.724 1164 519.557 1172 522.5C1185.28 529.813 1198.95 535.98 1213 541C1188.31 538.785 1166.65 529.785 1148 514ZM476 515C481.103 518.268 485.437 522.435 489 527.5C484.089 528.992 479.089 529.326 474 528.5C472.454 526.243 470.788 524.076 469 522C471.048 519.285 473.382 516.952 476 515ZM500 519C500.235 518.403 500.735 518.07 501.5 518C504.749 518.77 507.915 519.77 511 521C510.02 522.481 508.853 523.815 507.5 525C505.414 522.406 502.914 520.406 500 519ZM1271 678C1230.86 704.321 1186.7 718.321 1138.5 720C1108.76 719.586 1080.26 713.419 1053 701.5C1039.21 695.105 1025.54 688.439 1012 681.5C976.163 659.078 939.829 637.411 903 616.5C851.582 587.957 797.916 564.624 742 546.5C721.386 540.097 700.386 535.43 679 532.5C684.191 528.065 689.191 523.399 694 518.5C731.919 516.583 768.919 521.583 805 533.5C859.363 551.517 910.363 576.184 958 607.5C977.529 620.431 996.529 634.098 1015 648.5C1040.07 666.374 1066.73 681.708 1095 694.5C1142.08 712.672 1189.08 712.339 1236 693.5C1247.92 688.871 1259.59 683.704 1271 678ZM366 519C367.373 518.843 368.707 519.01 370 519.5C292.053 573.24 205.72 596.906 111 590.5C125.195 588.394 139.195 585.394 153 581.5C197.678 567.498 242.345 553.498 287 539.5C313.25 531.855 339.583 525.022 366 519ZM682 519C684.687 518.836 687.354 519.003 690 519.5C685.477 523.267 681.143 527.267 677 531.5C671.942 532.161 666.942 531.828 662 530.5C666.667 527.167 671.333 523.833 676 520.5C678.208 520.309 680.208 519.809 682 519ZM668 521C669.052 520.851 670.052 521.017 671 521.5C667 524.5 663 527.5 659 530.5C654.612 531.077 650.279 530.744 646 529.5C652.918 525.192 660.252 522.359 668 521ZM513 522C527.945 527.578 527.278 529.412 511 527.5C510.543 527.086 510.209 526.586 510 526C511.024 524.648 512.024 523.315 513 522ZM466 523C468.502 524.67 470.502 526.836 472 529.5C467.324 530.206 462.657 530.54 458 530.5C460.932 528.215 463.598 525.715 466 523ZM523 524C528.403 525.185 533.737 526.685 539 528.5C532.922 529.221 527.589 527.721 523 524ZM644 526C645.052 525.851 646.052 526.017 647 526.5C644.422 528.165 641.755 529.165 639 529.5C640.455 527.874 642.122 526.708 644 526ZM486 530C490.673 529.009 494.006 530.676 496 535C492.624 538.378 488.957 541.378 485 544C481.877 539.922 478.877 535.755 476 531.5C479.525 531.321 482.859 530.821 486 530ZM495 531C496.788 529.878 498.788 529.711 501 530.5C499.163 533.602 497.163 533.769 495 531ZM504 530C506.357 529.837 508.69 530.003 511 530.5C515.667 534.5 520.333 538.5 525 542.5C519.36 544.03 513.693 545.03 508 545.5C505.37 541.868 502.37 538.535 499 535.5C500.873 533.796 502.54 531.963 504 530ZM514 531C523.461 528.19 531.794 530.19 539 537C536.621 540.365 533.287 542.032 529 542C523.708 538.704 518.708 535.037 514 531ZM1192 530C1209.91 534.476 1227.91 538.643 1246 542.5C1226.74 543.574 1208.74 539.407 1192 530ZM535 532C538.476 530.857 542.142 530.69 546 531.5C544.333 532.667 542.667 533.833 541 535C538.966 533.941 536.966 532.941 535 532ZM463 532C466.682 531.835 470.348 532.001 474 532.5C477.196 536.864 480.196 541.364 483 546C479.814 549.021 476.48 551.854 473 554.5C471.556 555.281 470.223 555.114 469 554C465.378 546.92 461.378 540.087 457 533.5C459.208 533.309 461.208 532.809 463 532ZM548 532C552.738 533.198 557.405 534.698 562 536.5C557.144 537.241 552.311 538.074 547.5 539C546.01 538.183 544.51 537.35 543 536.5C544.563 534.764 546.23 533.264 548 532ZM623 532C626.018 531.835 629.018 532.002 632 532.5C625.466 540.674 617.466 542.341 608 537.5C613.071 535.535 618.071 533.702 623 532ZM640 532C645.099 531.675 650.099 532.175 655 533.5C649.833 537.333 644.667 541.167 639.5 545C635.327 543.747 631.16 542.414 627 541C631.188 537.743 635.521 534.743 640 532ZM560 533C565.698 533.096 571.365 533.596 577 534.5C573.818 534.907 570.651 535.407 567.5 536C564.633 535.661 562.133 534.661 560 533ZM606 533C608.357 532.837 610.69 533.003 613 533.5C609.74 534.475 606.573 535.642 603.5 537C600.641 536.327 597.808 535.493 595 534.5C598.856 534.323 602.523 533.823 606 533ZM658 533C663.387 532.905 668.72 533.405 674 534.5C668.198 539.3 662.698 544.467 657.5 550C652.755 548.308 647.921 546.808 643 545.5C647.898 541.092 652.898 536.926 658 533ZM1303 550C1251.77 567.289 1203.1 561.789 1157 533.5C1182.66 539.811 1208.33 546.477 1234 553.5C1257.2 556.154 1280.2 554.987 1303 550ZM453 534C454.517 534.011 455.684 534.677 456.5 536C460 542.333 463.5 548.667 467 555C441.385 563.151 415.718 570.984 390 578.5C412.119 565.12 433.119 550.286 453 534ZM443 535C444.699 534.84 446.366 535.006 448 535.5C425.632 553.854 401.632 569.854 376 583.5C319.97 602.341 263.303 619.007 206 633.5C158.787 637.612 112.454 632.945 67 619.5C84 619.167 101 618.833 118 618.5C140.565 615.608 163.232 614.274 186 614.5C257.332 609.056 322.998 587.056 383 548.5C402.989 543.333 422.989 538.833 443 535ZM1256 690C1212.27 718.241 1164.27 733.241 1112 735C1082.79 734.659 1054.46 729.492 1027 719.5C1013.51 714.558 1000.17 709.225 987 703.5C920.05 667.858 852.383 633.525 784 600.5C743.615 581.483 702.282 564.816 660 550.5C665.032 545.133 670.365 540.133 676 535.5C693.669 536.299 711.002 539.299 728 544.5C780.692 560.179 831.359 580.845 880 606.5C918.321 626.988 955.655 648.988 992 672.5C1017.14 687.571 1043.48 700.238 1071 710.5C1120.79 726.903 1170.12 725.569 1219 706.5C1231.59 701.537 1243.92 696.037 1256 690ZM578 536C586.698 535.565 586.864 537.232 578.5 541C575.94 539.97 573.44 538.803 571 537.5C573.536 537.314 575.869 536.814 578 536ZM588 536C591.52 536.305 594.853 537.138 598 538.5C593.487 540.004 588.987 541.504 584.5 543C583.667 542.667 582.833 542.333 582 542C584.033 539.993 586.033 537.993 588 536ZM496 537C500.101 539.265 503.434 542.432 506 546.5C500.365 548.029 494.698 549.029 489 549.5C487.289 548.367 486.789 546.867 487.5 545C490.833 542.833 493.666 540.166 496 537ZM541 538C541.876 537.869 542.543 538.202 543 539C540.692 540.373 540.025 540.04 541 538ZM563 538C568.058 538.527 572.724 540.193 577 543C573.553 547.762 568.886 549.928 563 549.5C558.667 546.5 554.333 543.5 550 540.5C554.515 539.886 558.848 539.052 563 538ZM602 539C607.478 539.229 612.811 540.229 618 542C613.063 545.386 607.896 548.386 602.5 551C597.276 548.971 592.109 546.805 587 544.5C592.214 542.932 597.214 541.099 602 539ZM543 541C549.672 542.979 555.672 546.312 561 551C555.573 553.462 550.073 555.796 544.5 558C540.633 553.798 536.467 549.965 532 546.5C533.849 545.407 535.516 544.074 537 542.5C539.208 542.309 541.208 541.809 543 541ZM27 542C31.0138 541.834 35.0138 542.001 39 542.5C68.2325 549.657 97.8992 552.657 128 551.5C107.957 558.042 87.4569 562.542 66.5 565C44.7976 560.766 23.9643 553.932 4 544.5C11.8045 543.568 19.4711 542.735 27 542ZM1320 542C1317.99 543.424 1315.65 544.09 1313 544C1315.01 542.576 1317.35 541.91 1320 542ZM624 543C628.728 543.849 633.395 545.015 638 546.5C632.167 551 626.333 555.5 620.5 560C617.746 558.373 614.912 556.873 612 555.5C616.204 551.464 620.204 547.298 624 543ZM526 544C527.127 544.622 528.127 545.455 529 546.5C525.261 550.117 521.428 553.617 517.5 557C515.874 554.372 513.874 552.039 511.5 550C511.017 549.052 510.851 548.052 511 547C516.244 546.618 521.244 545.618 526 544ZM620 544C616.704 547.798 613.204 551.464 609.5 555C608.081 554.04 606.581 553.207 605 552.5C609.73 549.136 614.73 546.303 620 544ZM1313 544C1277.17 555.76 1241.17 555.927 1205 544.5C1225.57 546.769 1246.24 548.269 1267 549C1282.52 548.942 1297.85 547.276 1313 544ZM1254 544C1260.41 543.683 1266.74 544.183 1273 545.5C1262.67 546.167 1252.33 546.167 1242 545.5C1246.19 545.324 1250.19 544.824 1254 544ZM582 546C588.277 547.301 594.277 549.467 600 552.5C593.918 555.623 588.085 559.123 582.5 563C578.064 560.197 573.897 557.031 570 553.5C573.291 549.697 577.291 547.197 582 546ZM640 547C645.345 548.392 650.678 549.892 656 551.5C650.667 556.833 645.333 562.167 640 567.5C639 568.167 638 568.167 637 567.5C632.302 565.151 627.636 562.818 623 560.5C628.854 556.136 634.521 551.636 640 547ZM480 552C481.761 547.757 484.094 547.257 487 550.5C484.76 551.477 482.427 551.977 480 552ZM507 548C510.135 551.308 513.135 554.808 516 558.5C511.5 562.333 507 566.167 502.5 570C498.667 564.333 494.833 558.667 491 553C496.296 551.013 501.629 549.346 507 548ZM530 548C534.424 550.918 538.424 554.418 542 558.5C536.579 560.863 531.079 563.029 525.5 565C522.679 563.513 520.513 561.346 519 558.5C522.741 554.984 526.408 551.484 530 548ZM1310 548C1307.99 549.424 1305.65 550.09 1303 550C1305.01 548.576 1307.35 547.91 1310 548ZM372 551C373.879 550.893 374.212 551.393 373 552.5C306.616 592.514 234.616 612.847 157 613.5C180.271 608.52 203.271 602.52 226 595.5C274.692 580.333 323.359 565.5 372 551ZM1241 702C1192.81 732.895 1139.97 749.228 1082.5 751C1043.81 750.128 1006.31 742.962 970 729.5C948.259 721.475 926.926 712.475 906 702.5C816.674 660.004 728.34 615.67 641 569.5C646.848 563.485 652.848 557.652 659 552C710.919 570.125 761.586 591.292 811 615.5C867.803 643.734 924.137 672.734 980 702.5C1006.31 714.987 1033.65 724.654 1062 731.5C1106.85 741.089 1150.85 738.089 1194 722.5C1210.06 716.536 1225.73 709.703 1241 702ZM485 553C486.478 552.738 487.811 553.071 489 554C492.916 559.496 496.582 565.163 500 571C496.127 575.774 491.127 578.774 485 580C483.051 578.793 481.551 577.127 480.5 575C477.787 569.406 474.953 563.906 472 558.5C472.405 557.555 473.072 556.888 474 556.5C477.833 555.466 481.499 554.3 485 553ZM562 553C563.603 552.812 564.937 553.312 566 554.5C561.533 557.965 557.367 561.798 553.5 566C551.295 563.46 548.795 561.293 546 559.5C551.554 557.6 556.887 555.434 562 553ZM601 554C603.726 553.764 606.059 554.597 608 556.5C603.667 560.833 599.333 565.167 595 569.5C591.08 569.035 587.747 567.201 585 564C590.398 560.642 595.731 557.308 601 554ZM567 556C571.659 557.801 575.992 560.301 580 563.5C574.164 567.252 568.164 570.752 562 574C559.516 572.017 557.183 569.85 555 567.5C558.895 563.435 562.895 559.602 567 556ZM610 557C612.801 558.235 615.468 559.735 618 561.5C612.698 566.481 607.031 570.981 601 575C598.87 574.033 596.87 572.866 595 571.5C600.503 567.163 605.503 562.33 610 557ZM466 558C467.879 557.893 468.212 558.393 467 559.5C355.664 645.496 230.998 673.83 93 644.5C117.037 645.565 141.037 644.899 165 642.5C188.536 638.26 212.203 634.926 236 632.5C285.722 624.815 332.722 609.148 377 585.5C406.628 575.788 436.295 566.621 466 558ZM361 625C400.099 608.034 436.265 586.367 469.5 560C473.793 567.085 477.96 574.251 482 581.5C442.066 597.135 401.733 611.635 361 625ZM517 560C518.533 561.855 520.2 563.688 522 565.5C516.266 568.191 510.432 570.691 504.5 573C503.833 572.333 503.833 571.667 504.5 571C508.86 567.468 513.027 563.801 517 560ZM543 560C546.419 561.912 549.419 564.412 552 567.5C547.146 571.855 542.146 576.022 537 580C533.176 576.007 529.509 571.84 526 567.5C531.692 564.887 537.359 562.387 543 560ZM621 562C626.465 564.566 631.798 567.399 637 570.5C631.167 576.333 625.333 582.167 619.5 588C613.738 584.536 608.238 580.703 603 576.5C609.188 571.803 615.188 566.969 621 562ZM582 565C585.181 567.337 588.514 569.504 592 571.5C586.819 576.848 581.485 582.015 576 587C572 583.333 568 579.667 564 576C570.04 572.272 576.04 568.605 582 565ZM188 568C160.212 578.367 131.545 585.7 102 590C74.8137 586.453 48.4804 579.62 23 569.5C37.0275 569.115 51.0275 568.281 65 567C85.6787 570.575 106.512 572.575 127.5 573C147.776 572.556 167.943 570.889 188 568ZM522 568C524.216 568.703 526.049 570.036 527.5 572C530.192 575.192 532.692 578.525 535 582C530.286 586.881 525.119 591.215 519.5 595C514.763 588.536 510.263 581.869 506 575C511.425 572.645 516.758 570.312 522 568ZM553 569C555.463 570.961 557.797 573.128 560 575.5C554.333 578.5 548.667 581.5 543 584.5C539.833 585.333 538.667 584.167 539.5 581C544.194 577.135 548.694 573.135 553 569ZM1228 713C1135.57 771.143 1037.24 783.31 933 749.5C821.236 710.625 717.569 657.125 622 589C627.652 582.848 633.485 576.848 639.5 571C729.109 618.721 819.942 664.221 912 707.5C945.886 724.106 981.22 736.772 1018 745.5C1071.22 757.869 1123.56 754.869 1175 736.5C1193.19 729.736 1210.86 721.903 1228 713ZM593 573C595.112 573.94 597.112 575.106 599 576.5C592.766 582.114 586.099 586.78 579 590.5C578.049 589.782 577.883 588.949 578.5 588C583.537 583.131 588.37 578.131 593 573ZM501 576C502.322 575.83 503.489 576.163 504.5 577C508.917 583.498 513.084 590.165 517 597C511.756 601.21 505.923 604.543 499.5 607C498.728 606.855 498.061 606.522 497.5 606C493.793 599.086 489.96 592.252 486 585.5C490.422 581.296 495.422 578.13 501 576ZM560 577C565.355 579.842 570.022 583.675 574 588.5C568.782 594.22 563.116 599.387 557 604C551.8 598.965 547.133 593.465 543 587.5C548.731 583.975 554.397 580.475 560 577ZM600 578C606.099 581.583 612.099 585.417 618 589.5C611.819 595.848 605.486 602.015 599 608C592.884 603.387 587.218 598.22 582 592.5C588.188 587.803 594.188 582.969 600 578ZM482 583C482.597 583.235 482.93 583.735 483 584.5C416.928 635.177 342.261 665.51 259 675.5C212.691 680.82 166.691 678.82 121 669.5C169.754 672.625 217.754 667.958 265 655.5C339.109 636.186 411.442 612.019 482 583ZM528 592C530.334 588.834 533.167 586.167 536.5 584C537.333 584.833 538.167 585.667 539 586.5C535.59 588.872 531.923 590.705 528 592ZM483 587C483.996 586.914 484.829 587.248 485.5 588C488.798 594.791 492.298 601.458 496 608C415.102 649.021 329.769 676.521 240 690.5C200.594 695.053 161.261 694.386 122 688.5C86.9734 680.16 53.6401 667.493 22 650.5C39.1762 654.792 56.5096 658.792 74 662.5C93.1524 665.327 112.152 668.994 131 673.5C255.63 693.113 369.63 667.113 473 595.5C476.525 592.802 479.858 589.969 483 587ZM540 588C544.761 593.936 549.761 599.769 555 605.5C549.147 610.854 543.147 616.02 537 621C531.116 613.94 525.783 606.44 521 598.5C527.717 595.48 534.051 591.98 540 588ZM0 591C0.41695 590.376 1.08362 590.043 2 590C12.9387 591.694 23.9387 592.861 35 593.5C66.3303 605.082 98.664 612.082 132 614.5C106.37 618.139 80.7033 618.472 55 615.5C35.9328 608.966 17.5994 600.799 0 591ZM575 590C578.078 591.164 578.412 592.664 576 594.5C571 598.167 566 601.833 561 605.5C560.333 606.167 559.667 606.167 559 605.5C564.837 600.83 570.17 595.663 575 590ZM361 591C317.537 612.874 271.537 626.374 223 631.5C269.344 619.107 315.344 605.607 361 591ZM1208 728C1107.97 788.693 1001.63 802.526 889 769.5C780.942 736.829 684.942 683.495 601 609.5C607.181 603.152 613.514 596.985 620 591C709.531 653.776 805.864 704.61 909 743.5C959.942 762.768 1012.61 771.435 1067 769.5C1098.63 767.259 1129.3 760.593 1159 749.5C1175.59 742.871 1191.92 735.704 1208 728ZM579 594C585.283 598.946 591.283 604.28 597 610C590.676 616.156 584.176 622.156 577.5 628C571.667 621.5 565.833 615 560 608.5C566.762 604.131 573.095 599.298 579 594ZM517 600C518.175 599.781 519.175 600.114 520 601C524.805 608.305 529.805 615.471 535 622.5C528.131 626.866 521.131 631.032 514 635C509.54 627.582 505.207 620.082 501 612.5C506.52 608.47 511.853 604.303 517 600ZM497 610C498.145 611.293 497.811 612.459 496 613.5C392.19 685.449 277.523 712.449 152 694.5C202 697.889 251.333 693.555 300 681.5C368.5 665.059 434.167 641.226 497 610ZM557 610C559.216 610.703 561.049 612.036 562.5 614C567 619.167 571.5 624.333 576 629.5C569.144 635.191 562.144 640.691 555 646C548.737 638.987 543.071 631.487 538 623.5C544.514 619.137 550.847 614.637 557 610ZM1193 740C1067.37 815.649 935.699 827.815 798 776.5C713.102 744.885 640.102 695.885 579 629.5C585.833 623.333 592.667 617.167 599.5 611C672.028 675.215 754.194 724.048 846 757.5C897.772 777.688 951.439 788.188 1007 789C1051.39 788.821 1094.39 780.988 1136 765.5C1155.48 758.062 1174.48 749.562 1193 740ZM11 613C11.2352 612.403 11.7352 612.07 12.5 612C27.5807 614.726 42.7473 616.892 58 618.5C99.608 631.825 142.275 638.158 186 637.5C150.474 643.433 114.807 644.433 79 640.5C55.3149 633.774 32.6482 624.607 11 613ZM498 614C498.876 613.869 499.543 614.202 500 615C503.873 622.247 507.873 629.414 512 636.5C434.094 681.135 350.427 708.135 261 717.5C172.203 725.609 89.536 706.943 13 661.5C31.2878 668.261 49.9544 674.261 69 679.5C111.145 689.929 153.812 697.263 197 701.5C299.736 706.485 394.403 681.485 481 626.5C486.734 622.312 492.401 618.146 498 614ZM535 625C541.238 631.933 546.905 639.433 552 647.5C545.441 653.22 538.441 658.387 531 663C525.639 655.457 520.639 647.624 516 639.5C522.402 634.646 528.735 629.813 535 625ZM1173 755C1093.73 803.251 1007.56 828.584 914.5 831C781.488 826.929 670.154 776.262 580.5 679C572.333 668.833 564.167 658.667 556 648.5C563 642.667 570 636.833 577 631C661.687 721.7 765.354 779.2 888 803.5C974.553 817.897 1057.89 807.23 1138 771.5C1149.69 765.988 1161.36 760.488 1173 755ZM20 633C39.1932 636.921 58.5265 640.088 78 642.5C139.212 659.694 201.212 663.194 264 653C210.266 668.12 155.6 671.953 100 664.5C71.9611 657.215 45.2944 646.715 20 633ZM507 642C506.527 643.406 505.527 644.073 504 644C504.473 642.594 505.473 641.927 507 642ZM504 644C415.414 701.651 318.081 727.484 212 721.5C297.135 720.549 378.468 702.549 456 667.5C472.176 659.912 488.176 652.078 504 644ZM1160 766C1088.55 809.988 1011.22 838.488 928 851.5C828.118 864.859 735.785 844.526 651 790.5C602.396 757.232 562.729 715.565 532 665.5C539.195 660.139 546.528 654.972 554 650C636.981 757.014 746.314 817.514 882 831.5C964.459 836.408 1043.13 821.408 1118 786.5C1132.18 779.912 1146.18 773.078 1160 766ZM1213 725C1211.84 726.75 1210.17 727.75 1208 728C1209.16 726.25 1210.83 725.25 1213 725ZM1180 751C1178.84 752.75 1177.17 753.75 1175 754C1176.16 752.25 1177.83 751.25 1180 751Z" fill="#570AD4" fill-opacity="0.25"/>
</svg>
