<svg xmlns="http://www.w3.org/2000/svg" width="1920" height="858" fill="none" viewBox="0 0 1920 858"><path fill="#570AD4" fill-opacity=".3" fill-rule="evenodd" d="M605 0C611.333 0 617.667 0 624 0C692.022 2.83619 752.356 25.6695 805 68.5C825.563 86.8432 842.396 108.01 855.5 132C864.482 151.303 874.482 169.969 885.5 188C897.858 204.985 911.858 220.652 927.5 235C956.121 269.568 981.788 306.234 1004.5 345C1017.83 363.667 1031.17 382.333 1044.5 401C1049.67 406.833 1054.83 412.667 1060 418.5C1091.24 424.244 1121.91 421.91 1152 411.5C1168.47 405.6 1184.47 398.6 1200 390.5C1227.57 373.881 1255.9 358.548 1285 344.5C1308.08 334.188 1332.25 328.355 1357.5 327C1371.05 327.509 1384.22 330.009 1397 334.5C1409.3 335.328 1421.3 337.661 1433 341.5C1490.43 352.461 1547.76 363.961 1605 376C1630.46 350.041 1656.13 324.207 1682 298.5C1701.07 281.107 1722.07 266.441 1745 254.5C1778.08 241.287 1810.08 243.62 1841 261.5C1854.84 269.67 1867.84 279.004 1880 289.5C1893.87 302.2 1907.2 315.367 1920 329C1920 330 1920 331 1920 332C1907.2 318.367 1893.87 305.2 1880 292.5C1863.72 278.019 1845.72 266.019 1826 256.5C1791.25 242.379 1758.25 245.712 1727 266.5C1710.58 277.052 1695.25 289.052 1681 302.5C1656.46 326.543 1632.46 351.043 1609 376C1609.86 377.083 1610.86 377.249 1612 376.5C1643.52 345.967 1676.52 317.3 1711 290.5C1730.32 276.507 1751.66 266.84 1775 261.5C1801.03 258.089 1825.36 263.089 1848 276.5C1874.48 292.804 1898.48 312.304 1920 335C1920 336 1920 337 1920 338C1898.54 315.691 1874.87 296.191 1849 279.5C1816.13 259.437 1782.13 257.104 1747 272.5C1720.41 285.955 1696.08 302.621 1674 322.5C1653.7 340.465 1633.7 358.798 1614 377.5C1615 378.167 1616 378.167 1617 377.5C1647.86 351.302 1679.86 326.636 1713 303.5C1734.17 289.665 1757.17 280.331 1782 275.5C1802.49 273.193 1822.15 276.193 1841 284.5C1854.82 290.906 1867.82 298.573 1880 307.5C1893.92 318.298 1907.26 329.798 1920 342C1920 343 1920 344 1920 345C1897.32 321.815 1871.65 302.648 1843 287.5C1811.35 273.501 1779.68 273.501 1748 287.5C1724.08 298.786 1701.75 312.453 1681 328.5C1662.04 343.12 1643.38 358.12 1625 373.5C1626.41 373.815 1627.74 373.482 1629 372.5C1657.98 350.536 1688.31 330.536 1720 312.5C1741.32 300.838 1763.99 293.171 1788 289.5C1810.74 287.715 1832.41 291.715 1853 301.5C1877.16 314.833 1899.49 330.667 1920 349C1920 350 1920 351 1920 352C1898.77 332.61 1875.43 316.11 1850 302.5C1817.65 287.934 1784.98 287.268 1752 300.5C1728.16 310.418 1705.49 322.418 1684 336.5C1669.49 346.254 1655.16 356.254 1641 366.5C1642.41 366.815 1643.74 366.482 1645 365.5C1674.36 346.319 1705.36 329.986 1738 316.5C1787.4 295.226 1834.74 298.893 1880 327.5C1893.77 336.779 1907.11 346.612 1920 357C1920 358 1920 359 1920 360C1899.72 342.249 1877.39 327.416 1853 315.5C1826.78 304.35 1799.78 302.016 1772 308.5C1747.16 314.42 1723.49 323.42 1701 335.5C1685.17 344.247 1669.5 353.247 1654 362.5C1669.22 355.561 1684.55 348.561 1700 341.5C1732.9 326.484 1767.4 317.984 1803.5 316C1835.83 317.445 1865.33 327.278 1892 345.5C1901.49 352.165 1910.83 358.998 1920 366C1920 366.667 1920 367.333 1920 368C1902.74 354.692 1884.41 342.859 1865 332.5C1836.94 319.161 1807.61 315.161 1777 320.5C1740.54 327.321 1705.87 339.321 1673 356.5C1688.23 351.568 1703.57 346.568 1719 341.5C1758.39 328.883 1798.39 326.217 1839 333.5C1868.83 342.081 1895.83 355.915 1920 375C1920 375.667 1920 376.333 1920 377C1903.55 365.266 1886.22 354.766 1868 345.5C1830.79 330.041 1792.45 326.708 1753 335.5C1730.47 340.01 1708.47 346.343 1687 354.5C1699 352.17 1711 349.503 1723 346.5C1765.19 337.226 1807.19 337.893 1849 348.5C1862.4 352.856 1875.4 358.19 1888 364.5C1898.89 370.771 1909.56 377.271 1920 384C1920 385 1920 386 1920 387C1866.52 347.55 1806.85 333.717 1741 345.5C1729.23 347.321 1717.56 349.654 1706 352.5C1724.73 350.245 1743.56 348.745 1762.5 348C1819.82 347.503 1872.32 362.836 1920 394C1920 395 1920 396 1920 397C1875.78 366.984 1826.78 351.484 1773 350.5C1757.3 350.11 1741.63 350.777 1726 352.5C1795.83 351.621 1860.5 369.121 1920 405C1920 405.667 1920 406.333 1920 407C1865.47 373.55 1806.14 356.383 1742 355.5C1786.91 360.145 1829.91 371.811 1871 390.5C1887.67 398.166 1904 406.333 1920 415C1920 416 1920 417 1920 418C1874.64 390.82 1825.97 372.32 1774 362.5C1795.5 368.419 1816.5 375.752 1837 384.5C1865.25 397.292 1892.92 411.125 1920 426C1920 426.667 1920 427.333 1920 428C1918.67 427.667 1917.33 427.333 1916 427C1916.94 428.474 1918.27 429.474 1920 430C1920 430.667 1920 431.333 1920 432C1872.2 405.344 1821.87 384.844 1769 370.5C1729.97 360.682 1690.97 360.682 1652 370.5C1649.08 372.028 1646.08 373.361 1643 374.5C1685.67 365.589 1728.34 365.922 1771 375.5C1823.11 388.48 1872.78 407.646 1920 433C1920 434 1920 435 1920 436C1918.67 436.333 1918.67 436.667 1920 437C1920 437.667 1920 438.333 1920 439C1917.57 439.286 1917.57 439.952 1920 441C1920 441.667 1920 442.333 1920 443C1918.67 443.333 1918.67 443.667 1920 444C1920 444.667 1920 445.333 1920 446C1917.33 446.333 1917.33 446.667 1920 447C1920 448 1920 449 1920 450C1918.67 450.333 1918.67 450.667 1920 451C1920 451.667 1920 452.333 1920 453C1919.08 452.197 1918.08 452.03 1917 452.5C1917.74 453.539 1918.74 454.039 1920 454C1920 454.667 1920 455.333 1920 456C1917.33 456.333 1917.33 456.667 1920 457C1920 458 1920 459 1920 460C1918.67 460.333 1918.67 460.667 1920 461C1920 461.667 1920 462.333 1920 463C1918.67 463.333 1918.67 463.667 1920 464C1920 464.667 1920 465.333 1920 466C1889.16 447.75 1856.49 433.583 1822 423.5C1815.73 421.514 1809.4 420.181 1803 419.5C1813.25 423.25 1823.25 427.583 1833 432.5C1851.93 443.771 1870.6 455.438 1889 467.5C1899.11 473.22 1909.44 478.387 1920 483C1920 483.667 1920 484.333 1920 485C1910.29 481.313 1900.96 476.813 1892 471.5C1870.17 457.08 1847.83 443.414 1825 430.5C1806.06 421.851 1786.39 415.851 1766 412.5C1776.34 415.837 1786.01 420.503 1795 426.5C1812.02 438.01 1828.69 450.01 1845 462.5C1851.34 467.003 1858 471.003 1865 474.5C1883.41 478.853 1901.74 483.353 1920 488C1920 489.333 1920 490.667 1920 492C1913.51 492.058 1913.51 492.724 1920 494C1920 494.667 1920 495.333 1920 496C1912.33 495.871 1912.33 496.871 1920 499C1920 499.667 1920 500.333 1920 501C1916.35 499.513 1912.69 498.013 1909 496.5C1906.67 495.833 1904.33 495.833 1902 496.5C1907.84 499.17 1913.84 501.336 1920 503C1920 503.667 1920 504.333 1920 505C1912.37 503.019 1905.03 500.185 1898 496.5C1895.67 495.833 1893.33 495.833 1891 496.5C1900.28 501.093 1909.95 504.593 1920 507C1920 507.667 1920 508.333 1920 509C1907.61 505.591 1895.61 501.091 1884 495.5C1881.67 495.333 1879.33 495.167 1877 495C1865.66 496.223 1854.32 496.223 1843 495C1830.48 496.988 1817.98 497.321 1805.5 496C1794.92 498.083 1784.26 498.75 1773.5 498C1730.3 500.52 1687.13 503.52 1644 507C1641.46 506.914 1638.96 506.58 1636.5 506C1601.66 513.498 1570.5 505.998 1543 483.5C1536.2 477.699 1529.7 471.532 1523.5 465C1465.84 524.994 1406.01 582.494 1344 637.5C1282.73 691.1 1216.73 738.1 1146 778.5C1086.46 812.236 1023.13 835.903 956 849.5C930.048 854.217 904.048 857.051 878 858C874.333 858 870.667 858 867 858C721.891 851.917 610.058 788.25 531.5 667C411.523 741.913 282.356 763.747 144 732.5C92.5032 719.846 44.5032 699.346 0 671C0 670.333 0 669.667 0 669C116.386 740.175 241.386 761.009 375 731.5C431.067 718.268 483.067 695.935 531 664.5C525.947 656.551 520.78 648.718 515.5 641C417.449 706.137 309.616 732.971 192 721.5C124.441 714.447 60.4414 695.614 0 665C0 664 0 663 0 662C25.076 676.076 51.4093 686.909 79 694.5C51.2457 683.956 24.9124 670.79 0 655C0 654.333 0 653.667 0 653C26.9872 664.051 54.6539 673.218 83 680.5C85.9853 681.368 88.9853 681.701 92 681.5C62.7203 672.073 34.7203 659.74 8 644.5C5.34605 643.559 2.67938 642.726 0 642C0 640.333 0 638.667 0 637C6.86336 642.096 14.53 645.596 23 647.5C42.0425 653.429 61.3759 657.762 81 660.5C56.3064 652.492 32.6398 642.159 10 629.5C6.73209 628.35 3.39876 627.516 0 627C0 626.333 0 625.667 0 625C2.66667 624.667 2.66667 624.333 0 624C0 623 0 622 0 621C4.29232 624.108 8.95898 626.608 14 628.5C30.7748 633.056 47.7748 636.056 65 637.5C54.5555 633.777 44.2222 629.777 34 625.5C22.7214 619.693 11.3881 614.193 0 609C0 608 0 607 0 606C15.9452 610.922 32.2786 613.755 49 614.5C32.0532 608.244 15.7199 600.744 0 592C0 590.667 0 589.333 0 588C9.987 589.299 19.987 590.132 30 590.5C19.8515 585.925 9.8515 581.092 0 576C0 575.333 0 574.667 0 574C12.2815 580.64 24.9482 586.474 38 591.5C57.3562 592.326 76.6896 591.992 96 590.5C69.7047 586.927 44.3713 579.927 20 569.5C13.3639 568.548 6.69719 568.048 0 568C0 567.333 0 566.667 0 566C3.68174 566.165 7.34841 565.999 11 565.5C7.30678 563.653 3.64011 561.82 0 560C0 559.333 0 558.667 0 558C5.85279 561.092 11.8528 563.926 18 566.5C32.6876 567.188 47.3542 566.855 62 565.5C40.4271 560.81 19.7604 553.643 0 544C0 543.333 0 542.667 0 542C10.4104 541.81 20.7438 540.976 31 539.5C20.3791 536.35 10.0458 532.516 0 528C0 527.333 0 526.667 0 526C12.8117 531.937 26.1451 536.271 40 539C54.9024 537.386 69.5691 534.553 84 530.5C59.7068 528.951 36.0402 524.285 13 516.5C8.66489 516.237 4.33156 516.403 0 517C0 516.333 0 515.667 0 515C6.49598 514.529 6.49598 513.529 0 512C0 511.333 0 510.667 0 510C3.91078 511.026 7.74412 512.36 11.5 514C22.5257 512.495 33.359 510.162 44 507C28.9634 504.242 14.2968 500.242 0 495C0 494.333 0 493.667 0 493C16.7159 499.137 33.8826 503.471 51.5 506C70.4708 499.6 89.3041 492.767 108 485.5C82.9186 486.063 58.0853 483.896 33.5 479C22.4919 482.377 11.3252 485.044 0 487C0 486.333 0 485.667 0 485C9.62713 483.427 18.9605 480.927 28 477.5C18.5587 474.964 9.22542 472.13 0 469C0 468.333 0 467.667 0 467C10.7521 470.64 21.5854 473.973 32.5 477C46.3165 471.505 60.1498 466.005 74 460.5C54.316 458.397 34.9826 454.563 16 449C10.6658 450.667 5.33243 452.334 0 454C0 453.333 0 452.667 0 452C4.01021 450.607 8.01021 449.107 12 447.5C8.08852 445.709 4.08852 444.209 0 443C0 442.333 0 441.667 0 441C5.05591 442.463 10.0559 444.13 15 446C26.0346 441.599 37.0346 437.099 48 432.5C31.5471 428.626 15.5471 423.46 0 417C0 416.333 0 415.667 0 415C16.5363 421.719 33.5363 427.052 51 431C63.553 425.557 76.2197 420.39 89 415.5C58.1809 411.879 28.5142 404.046 0 392C0 391 0 390 0 389C29.574 402.478 60.574 410.811 93 414C110.928 406.413 129.261 399.913 148 394.5C96.367 397.606 47.0337 388.44 0 367C0 366 0 365 0 364C49.6873 387.837 102.021 397.004 157 391.5C174.816 386.937 192.816 383.27 211 380.5C262.163 364.432 306.496 337.432 344 299.5C375.333 267.5 406.667 235.5 438 203.5C464.776 177.714 494.109 155.381 526 136.5C601.978 95.1693 681.978 84.5026 766 104.5C797.587 114.118 825.921 129.118 851 149.5C819.614 117.966 781.947 97.6331 738 88.5C644.176 71.2935 558.843 90.6269 482 146.5C455.41 167.92 430.243 191.087 406.5 216C378.703 246.798 349.869 276.631 320 305.5C241.905 368.684 153.905 388.017 56 363.5C36.6551 357.998 17.9884 350.831 0 342C0 341.333 0 340.667 0 340C80.2763 379.066 161.943 382.233 245 349.5C287.719 330.466 324.553 303.299 355.5 268C382.937 237.894 411.104 208.394 440 179.5C471.192 149.23 506.526 124.897 546 106.5C607.974 80.3547 671.974 73.6881 738 86.5C782.466 96.3847 820.799 116.551 853 147C812.175 102.419 761.509 76.5855 701 69.5C602.038 58.7086 516.705 87.3753 445 155.5C407.401 193.428 370.901 232.261 335.5 272C267.519 338.101 186.352 363.934 92 349.5C59.7553 343.474 29.0886 332.974 0 318C0 317 0 316 0 315C81.55 358.493 165.217 362.993 251 328.5C282.769 313.723 310.936 293.889 335.5 269C370.234 229.928 406.068 191.762 443 154.5C527.993 75.4139 627.326 49.0806 741 75.5C782.87 87.4209 818.87 108.254 849 138C811.973 94.9692 765.307 68.1359 709 57.5C609.141 39.2868 521.808 63.9535 447 131.5C410.326 167.832 375.493 205.666 342.5 245C283.73 309.604 210.563 338.77 123 332.5C79.142 328.602 38.142 315.768 0 294C0 293.333 0 292.667 0 292C45.4168 317.564 94.2501 330.897 146.5 332C224.751 330.828 289.751 301.161 341.5 243C373.92 204.41 408.086 167.243 444 131.5C519.411 62.5512 607.744 37.2179 709 55.5C762.365 65.6737 807.698 90.1737 845 129C838.941 120.765 832.275 112.931 825 105.5C778.085 63.8423 723.085 40.8423 660 36.5C579.263 30.3001 508.93 53.9668 449 107.5C436.5 120 424 132.5 411.5 145C388.126 171.372 365.126 198.038 342.5 225C284.889 291.364 212.056 320.531 124 312.5C90.4385 308.979 58.4385 299.979 28 285.5C18.7702 280.386 9.43683 275.552 0 271C0 270 0 269 0 268C77.5309 315.233 159.198 324.067 245 294.5C283.087 278.758 315.254 254.925 341.5 223C364.46 195.705 387.793 168.705 411.5 142C434.967 116.516 460.801 94.0155 489 74.5C541.313 43.2569 597.98 29.9236 659 34.5C725.078 38.9745 782.245 63.4745 830.5 108C834.833 113 839.167 118 843.5 123C843.667 122.667 843.833 122.333 844 122C815.146 83.0044 777.813 55.1711 732 38.5C660.358 11.8682 589.025 12.5349 518 40.5C482.145 57.6843 450.645 80.851 423.5 110C393.792 144.039 364.459 178.372 335.5 213C288.507 267.32 228.841 294.653 156.5 295C117.01 294.369 79.1764 286.202 43 270.5C28.2978 263.484 13.9645 255.984 0 248C0 247 0 246 0 245C65.0052 287.415 135.672 301.248 212 286.5C264.935 273.628 308.101 245.794 341.5 203C371.174 165.984 402.341 130.151 435 95.5C495.478 36.3349 568.144 10.6682 653 18.5C716.333 24.1842 771.666 47.8509 819 89.5C825.866 97.1971 832.866 104.697 840 112C820.289 83.1218 795.289 59.9551 765 42.5C695.373 3.41039 621.706 -6.92294 544 11.5C505.128 22.5932 471.128 41.9265 442 69.5C434.167 77.3333 426.333 85.1667 418.5 93C390.356 125.964 362.69 159.298 335.5 193C290.351 248.151 231.851 275.817 160 276C101.556 274.628 48.2228 257.628 0 225C0 224.333 0 223.667 0 223C48.198 255.62 101.531 272.62 160 274C231.424 273.532 289.591 245.866 334.5 191C361.785 156.779 389.785 123.113 418.5 90C447.485 57.6731 481.985 33.1731 522 16.5C548.995 6.89406 576.662 1.39406 605 0ZM856 159C811.169 123.779 760.003 106.779 702.5 108C619.908 109.905 546.408 136.405 482 187.5C466.96 199.694 452.293 212.361 438 225.5C404.972 258.861 371.639 291.861 338 324.5C314.017 346.577 287.517 365.077 258.5 380C245.993 378.887 233.493 378.72 221 379.5C261.29 365.476 297.29 344.476 329 316.5C366.361 279.472 403.361 242.139 440 204.5C471.036 174.464 505.703 149.464 544 129.5C604.365 100.686 667.699 90.686 734 99.5C781.319 106.329 821.985 126.162 856 159ZM858 165C815.926 134.677 768.759 119.677 716.5 120C630.408 123.466 553.908 151.966 487 205.5C470.372 219.126 454.039 233.126 438 247.5C404.667 279.5 371.333 311.5 338 343.5C322.052 357.138 305.385 369.804 288 381.5C286.466 382.423 284.799 382.923 283 383C276.613 382.064 270.279 380.897 264 379.5C287.897 366.389 310.231 351.056 331 333.5C367.77 298.309 404.103 262.642 440 226.5C470.787 196.782 504.787 171.448 542 150.5C605.777 116.878 673.443 104.211 745 112.5C788.166 118.757 825.832 136.257 858 165ZM840 112C841.406 112.473 842.073 113.473 842 115C840.594 114.527 839.927 113.527 840 112ZM863 173C818.487 142.561 769.154 129.061 715 132.5C643.231 138.732 577.898 162.398 519 203.5C500.428 216.736 482.428 230.736 465 245.5C428.065 278.432 391.732 312.098 356 346.5C340.069 361.123 323.402 374.79 306 387.5C300.142 387.498 294.476 386.331 289 384C306.405 371.438 323.405 358.271 340 344.5C373.333 312.5 406.667 280.5 440 248.5C472.465 217.945 507.799 191.278 546 168.5C599.222 139.111 656.222 123.611 717 122C763.314 121.742 805.981 133.909 845 158.5C851.253 163.113 857.253 167.946 863 173ZM845 129C846.762 129.762 847.762 131.096 848 133C846.238 132.238 845.238 130.904 845 129ZM863 177C817.797 149.657 768.797 138.823 716 144.5C657.818 151.782 603.818 170.782 554 201.5C519.968 223.527 487.634 247.86 457 274.5C413.559 314.948 369.225 354.281 324 392.5C322.569 392.965 321.403 393.799 320.5 395C316.097 392.976 311.597 391.142 307 389.5C320.85 378.74 334.516 367.74 348 356.5C379 327.5 410 298.5 441 269.5C474.104 238.718 509.77 211.385 548 187.5C598.96 157.403 653.96 139.736 713 134.5C765.305 130.575 813.305 142.909 857 171.5C859.263 173.117 861.263 174.95 863 177ZM869 185C821.515 157.417 770.515 147.917 716 156.5C674.112 163.28 634.446 176.613 597 196.5C568.978 211.503 542.312 228.503 517 247.5C471.528 283.294 427.528 320.961 385 360.5C368.5 374.333 352 388.167 335.5 402C331.381 399.691 327.214 397.524 323 395.5C336.291 385.211 349.291 374.545 362 363.5C394.034 333.797 426.368 304.464 459 275.5C494.54 243.96 532.873 216.293 574 192.5C622.249 165.528 673.915 149.861 729 145.5C772.266 142.886 812.933 151.886 851 172.5C857.59 175.95 863.59 180.116 869 185ZM733 156C787.803 151.334 837.47 164.834 882 196.5C886.499 205.01 889.999 213.843 892.5 223C845.497 191.291 793.664 178.458 737 184.5C683.739 191.142 634.072 208.142 588 235.5C548.686 259.662 511.686 286.995 477 317.5C438.962 351.206 400.629 384.54 362 417.5C354.019 412.993 346.019 408.16 338 403C385.123 362.382 432.123 321.549 479 280.5C520.715 244.458 566.381 214.125 616 189.5C653.295 171.93 692.295 160.764 733 156ZM859 166C860.527 165.927 861.527 166.594 862 168C860.473 168.073 859.473 167.406 859 166ZM863 177C864.527 176.927 865.527 177.594 866 179C864.473 179.073 863.473 178.406 863 177ZM904 252C843.184 213.087 777.518 202.253 707 219.5C655.762 232.29 608.762 253.957 566 284.5C544.094 300.403 522.76 317.07 502 334.5C463.962 368.206 425.629 401.54 387 434.5C385.741 435.482 384.408 435.815 383 435.5C376.333 430.167 369.667 424.833 363 419.5C404.041 384.639 444.707 349.305 485 313.5C521.552 281.618 560.886 253.618 603 229.5C648.504 204.332 697.17 189.665 749 185.5C802.544 182.173 851.044 196.006 894.5 227C898.168 235.174 901.335 243.507 904 252ZM754 214C809.325 210.283 859.658 224.117 905 255.5C909.257 264.016 913.257 272.683 917 281.5C855.135 242.021 788.135 230.688 716 247.5C669.34 259.002 626.34 278.336 587 305.5C564.278 321.532 542.278 338.532 521 356.5C484.333 388.5 447.667 420.5 411 452.5C409.456 453.687 407.789 454.02 406 453.5C399.782 448.281 393.282 443.448 386.5 439C428.841 400.687 472.008 362.854 516 325.5C539.877 305.622 564.877 287.288 591 270.5C641.007 238.998 695.341 220.165 754 214ZM901 236C904.225 242.121 907.225 248.455 910 255C909.667 255.333 909.333 255.667 909 256C905.746 249.57 903.079 242.904 901 236ZM766 242C822.277 239.313 873.277 254.146 919 286.5C923.631 295.585 927.798 304.752 931.5 314C883.329 279.493 829.495 264.326 770 268.5C710.841 273.761 656.841 293.094 608 326.5C590.718 338.781 573.718 351.448 557 364.5C516 400.167 475 435.833 434 471.5C433 472.167 432 472.167 431 471.5C423.25 467.297 416.25 462.131 410 456C449.519 421.313 489.185 386.813 529 352.5C555.211 330.954 582.544 310.954 611 292.5C658.882 263.705 710.549 246.872 766 242ZM911 243C912.431 244.28 913.098 245.947 913 248C911.569 246.72 910.902 245.053 911 243ZM908 244C911.062 249.454 913.562 255.12 915.5 261C911.917 255.832 909.417 250.165 908 244ZM916 254C918.099 257.356 920.099 260.856 922 264.5C921.168 265.188 920.502 265.021 920 264C918.094 260.86 916.76 257.527 916 254ZM924 256C928.171 262.338 931.837 269.004 935 276C930.322 269.984 926.655 263.317 924 256ZM922 259C924.758 262.178 926.758 265.845 928 270C924.885 267.032 922.885 263.366 922 259ZM929 259C930.406 259.473 931.073 260.473 931 262C929.594 261.527 928.927 260.527 929 259ZM910 261C910.689 259.726 911.523 259.726 912.5 261C915.93 269.693 919.764 278.193 924 286.5C922.504 287.007 921.337 286.507 920.5 285C917.224 276.793 913.724 268.793 910 261ZM930 292C927.792 290.606 926.292 288.606 925.5 286C921.881 278.783 918.881 271.45 916.5 264C921.802 272.938 926.302 282.272 930 292ZM936 265C937.406 265.473 938.073 266.473 938 268C936.594 267.527 935.927 266.527 936 265ZM933 266C937.017 271.516 940.684 277.35 944 283.5C943.051 284.117 942.218 283.951 941.5 283C938.406 277.422 935.572 271.756 933 266ZM769 270C830.422 266.015 885.755 282.181 935 318.5C941.948 330.382 949.115 341.882 956.5 353C901.461 307.771 838.294 288.938 767 296.5C710.169 303.88 658.836 324.546 613 358.5C596.381 370.784 580.047 383.451 564 396.5C529.333 427.167 494.667 457.833 460 488.5C456.119 488.073 452.453 486.74 449 484.5C444.333 480.833 439.667 477.167 435 473.5C474.037 438.794 513.371 404.461 553 370.5C586.351 342.18 622.684 318.18 662 298.5C696.174 282.934 731.841 273.434 769 270ZM923 270C923.876 269.869 924.543 270.202 925 271C929.012 279.688 933.012 288.355 937 297C936.124 297.131 935.457 296.798 935 296C930.441 287.551 926.441 278.884 923 270ZM943 271C944.406 271.473 945.073 272.473 945 274C943.594 273.527 942.927 272.527 943 271ZM940 272C941.75 273.159 942.75 274.826 943 277C941.25 275.841 940.25 274.174 940 272ZM945 274C946.75 275.159 947.75 276.826 948 279C946.25 277.841 945.25 276.174 945 274ZM930 276C930.876 275.869 931.543 276.202 932 277C936.693 286.386 941.36 295.72 946 305C944.706 304.21 943.539 303.21 942.5 302C938.049 293.433 933.883 284.767 930 276ZM943 277C946.751 281.495 949.751 286.495 952 292C947.815 287.792 944.815 282.792 943 277ZM954 277C955.406 277.473 956.073 278.473 956 280C954.594 279.527 953.927 278.527 954 277ZM948 279C953.417 286.159 958.083 293.825 962 302C960.049 300.784 958.549 299.118 957.5 297C954.053 291.104 950.886 285.104 948 279ZM956 280C957.406 280.473 958.073 281.473 958 283C956.594 282.527 955.927 281.527 956 280ZM938 283C938.958 283.453 939.792 284.119 940.5 285C945.027 294.053 949.527 303.053 954 312C947.401 303.145 942.068 293.479 938 283ZM954 283C955.406 283.473 956.073 284.473 956 286C954.594 285.527 953.927 284.527 954 283ZM958 283C959.406 283.473 960.073 284.473 960 286C958.594 285.527 957.927 284.527 958 283ZM963 285C964.406 285.473 965.073 286.473 965 288C963.594 287.527 962.927 286.527 963 285ZM956 286C962.748 295.155 968.748 304.822 974 315C972.706 314.21 971.539 313.21 970.5 312C965.389 303.44 960.556 294.774 956 286ZM965 288C966.406 288.473 967.073 289.473 967 291C965.594 290.527 964.927 289.527 965 288ZM946 290C952.754 299.834 958.754 310.167 964 321C961.134 318.954 958.967 316.287 957.5 313C953.128 305.59 949.295 297.923 946 290ZM924 291C924.876 290.869 925.543 291.202 926 292C930.847 301.356 935.347 310.689 939.5 320C932.766 311.201 927.6 301.535 924 291ZM967 291C968.406 291.473 969.073 292.473 969 294C967.594 293.527 966.927 292.527 967 291ZM969 294C973.075 298.476 976.408 303.476 979 309C974.89 304.549 971.556 299.549 969 294ZM931 296C937.676 305.343 943.342 315.343 948 326C940.818 316.982 935.152 306.982 931 296ZM1139 523C1119.04 514.023 1100.71 502.523 1084 488.5C1051.76 459.93 1020.43 430.263 990 399.5C910.199 324.139 817.865 303.472 713 337.5C688.442 346.279 665.442 357.945 644 372.5C617.428 391.292 591.761 411.292 567 432.5C540.333 456.5 513.667 480.5 487 504.5C483.798 504.414 480.798 503.414 478 501.5C472.504 497.584 466.837 493.918 461 490.5C499.074 455.756 537.74 421.756 577 388.5C600.952 368.886 626.286 351.219 653 335.5C716.399 299.752 783.733 289.085 855 303.5C907.761 317.28 952.094 344.613 988 385.5C991.49 388.411 995.156 391.078 999 393.5C1026.06 420.563 1053.73 446.897 1082 472.5C1087 476.167 1092 479.833 1097 483.5C1110.24 497.576 1124.24 510.743 1139 523ZM955 299C956.951 300.216 958.451 301.882 959.5 304C964.924 313.24 970.09 322.573 975 332C972.664 330.496 970.831 328.496 969.5 326C964.408 317.092 959.575 308.092 955 299ZM957 333C956.004 333.086 955.171 332.752 954.5 332C948.873 322.247 943.373 312.414 938 302.5C939.496 301.993 940.663 302.493 941.5 304C946.692 313.721 951.858 323.387 957 333ZM971 304C972.951 305.216 974.451 306.882 975.5 309C979.944 316.226 984.11 323.559 988 331C981.155 322.805 975.488 313.805 971 304ZM947 309C954.417 319.493 961.084 330.493 967 342C958.752 332.057 952.086 321.057 947 309ZM967 312C968.951 313.216 970.451 314.882 971.5 317C976.611 325.56 981.444 334.226 986 343C978.415 333.51 972.082 323.177 967 312ZM956 317C957.294 317.79 958.461 318.79 959.5 320C965.522 330.83 971.689 341.497 978 352C969.093 341.404 961.759 329.738 956 317ZM795 323C861.696 321.95 920.363 342.783 971 385.5C1000.94 412.77 1030.27 440.77 1059 469.5C1077.56 486.772 1097.56 502.105 1119 515.5C1128.76 520.713 1138.76 525.38 1149 529.5C1170.84 544.56 1194.84 554.56 1221 559.5C1178.24 560.354 1139.57 548.354 1105 523.5C1097.15 517.741 1089.49 511.741 1082 505.5C1050 474.833 1018 444.167 986 413.5C907.112 347.325 818.779 330.992 721 364.5C703.497 371.252 686.83 379.585 671 389.5C639.283 410.541 609.283 433.874 581 459.5C559.967 479.535 538.634 499.201 517 518.5C516 519.167 515 519.167 514 518.5C506.122 514.394 498.122 510.561 490 507C488.789 506.226 488.789 505.393 490 504.5C521 476.833 552 449.167 583 421.5C605.537 402.293 629.204 384.627 654 368.5C697.289 341.57 744.289 326.403 795 323ZM942 325C943.574 325.437 944.741 326.437 945.5 328C950.772 336.892 956.272 345.559 962 354C953.78 345.439 947.113 335.773 942 325ZM979 325C981.387 327.413 983.554 330.08 985.5 333C990.357 341.388 995.19 349.722 1000 358C991.755 347.855 984.755 336.855 979 325ZM967 328C968.294 328.79 969.461 329.79 970.5 331C977.189 342.499 984.022 353.833 991 365C986.702 360.429 982.869 355.429 979.5 350C975.056 342.774 970.89 335.441 967 328ZM1351 329C1363.53 328.92 1375.86 330.42 1388 333.5C1355.28 335.431 1324.28 343.764 1295 358.5C1267.49 372.756 1239.82 386.756 1212 400.5C1177.22 417.196 1140.55 426.362 1102 428C1089.52 427.669 1077.19 426.169 1065 423.5C1063.83 423.081 1062.83 422.415 1062 421.5C1090.34 425.695 1118.34 423.695 1146 415.5C1159.31 411.285 1172.31 406.285 1185 400.5C1206.66 389.007 1227.99 377.007 1249 364.5C1270.34 352.498 1292.68 342.831 1316 335.5C1327.66 332.467 1339.32 330.3 1351 329ZM950 331C951.294 331.79 952.461 332.79 953.5 334C958.916 341.901 964.083 349.901 969 358C961.507 349.836 955.174 340.836 950 331ZM993 333C998.326 338.976 1002.66 345.643 1006 353C1000.67 347.024 996.341 340.357 993 333ZM1382 336C1391.28 334.988 1399.95 336.821 1408 341.5C1377.21 344.197 1347.88 352.197 1320 365.5C1294 378.5 1268 391.5 1242 404.5C1202.6 423.226 1161.1 433.393 1117.5 435C1100.99 435.3 1084.83 433.133 1069 428.5C1068.33 427.833 1067.67 427.167 1067 426.5C1099.68 431.857 1132.01 429.857 1164 420.5C1178.96 415.957 1193.63 410.624 1208 404.5C1243.72 386.305 1279.72 368.639 1316 351.5C1337.35 342.935 1359.35 337.769 1382 336ZM1404 338C1410.21 337.915 1416.54 338.748 1423 340.5C1416.34 341.671 1410.01 340.837 1404 338ZM978 339C980.336 340.504 982.169 342.504 983.5 345C990.355 356.056 997.189 367.056 1004 378C994.096 365.868 985.429 352.868 978 339ZM960 340C964.73 344.086 968.396 349.086 971 355C966.979 350.304 963.312 345.304 960 340ZM1072 432C1113.61 440.264 1154.61 437.764 1195 424.5C1213.55 418.873 1231.55 411.873 1249 403.5C1274.36 390.818 1299.7 378.151 1325 365.5C1352.11 352.763 1380.61 345.263 1410.5 343C1414.24 344.784 1417.74 346.951 1421 349.5C1393.31 354.396 1366.64 362.729 1341 374.5C1312.98 388.534 1284.98 402.534 1257 416.5C1212.16 436.8 1165.16 445.8 1116 443.5C1102.35 442.371 1089.02 439.704 1076 435.5C1074.18 434.84 1072.84 433.673 1072 432ZM1415 344C1425.44 341.905 1435.44 343.405 1445 348.5C1438.8 348.727 1432.63 349.227 1426.5 350C1422.71 347.854 1418.87 345.854 1415 344ZM995 344C1001.99 352.646 1007.99 361.979 1013 372C1011.71 371.21 1010.54 370.21 1009.5 369C1004.41 360.762 999.579 352.428 995 344ZM1444 346C1444.42 345.376 1445.08 345.043 1446 345C1451.35 346.103 1456.68 347.269 1462 348.5C1455.83 348.812 1449.83 347.978 1444 346ZM1462 476C1415.77 511.636 1365.77 541.47 1312 565.5C1259.64 586.995 1206.97 587.995 1154 568.5C1139.26 562.071 1125.26 554.404 1112 545.5C1097.09 534.591 1082.75 522.924 1069 510.5C1044.33 486.5 1019.67 462.5 995 438.5C912.039 369.285 820.373 354.952 720 395.5C686.603 412.251 655.936 432.917 628 457.5C601.733 480.431 576.066 504.097 551 528.5C540.236 526.138 529.569 523.138 519 519.5C558.185 481.971 598.852 446.305 641 412.5C670.432 389.446 703.099 372.113 739 360.5C830.381 335.505 912.047 353.505 984 414.5C1010.28 438.774 1035.94 463.774 1061 489.5C1078.85 506.024 1097.85 521.024 1118 534.5C1147.81 552.37 1180.14 561.37 1215 561.5C1244.08 563.885 1272.74 561.552 1301 554.5C1341.17 543.077 1379.17 526.743 1415 505.5C1430.72 495.645 1446.39 485.812 1462 476ZM981 363C976.551 359.072 973.385 354.405 971.5 349C975.429 353.205 978.596 357.872 981 363ZM1442 350C1448.08 349.554 1453.41 351.388 1458 355.5C1450.83 357.334 1443.5 358.334 1436 358.5C1433.04 356.539 1430.37 354.206 1428 351.5C1432.85 351.326 1437.52 350.826 1442 350ZM1454 351C1463.09 350.055 1472.09 351.221 1481 354.5C1471.29 357.608 1462.29 356.441 1454 351ZM1079 439C1118.67 448.371 1158.34 448.205 1198 438.5C1216.94 434.298 1235.27 428.298 1253 420.5C1284.79 405.105 1316.46 389.438 1348 373.5C1371.81 362.838 1396.65 355.671 1422.5 352C1426.83 353.654 1430.67 356.154 1434 359.5C1413.77 363.687 1394.11 369.687 1375 377.5C1342.05 393.306 1309.39 409.639 1277 426.5C1219.38 454.37 1159.38 461.37 1097 447.5C1092.62 446.322 1088.29 444.988 1084 443.5C1081.84 442.504 1080.17 441.004 1079 439ZM1484 354C1484.24 353.403 1484.74 353.07 1485.5 353C1489 353.833 1492.5 354.666 1496 355.5C1491.85 356.169 1487.85 355.669 1484 354ZM962 354C963.762 354.762 964.762 356.096 965 358C963.238 357.238 962.238 355.904 962 354ZM992 354C998.323 361.304 1003.66 369.304 1008 378C1001.68 370.696 996.344 362.696 992 354ZM971 355C972.762 355.762 973.762 357.096 974 359C972.238 358.238 971.238 356.904 971 355ZM1471 357C1480.47 355.552 1489.14 357.385 1497 362.5C1489.78 362.974 1482.61 363.807 1475.5 365C1472.07 363.239 1468.9 361.072 1466 358.5C1467.88 358.302 1469.55 357.802 1471 357ZM1916 427C1891.05 414.358 1865.72 402.525 1840 391.5C1797.9 373.141 1753.9 362.974 1708 361C1695.96 361.836 1683.96 362.669 1672 363.5C1707.48 354.408 1742.82 355.074 1778 365.5C1826.53 380.502 1872.53 401.002 1916 427ZM1457 358C1459.03 357.838 1461.03 358.005 1463 358.5C1465.67 360.5 1468.33 362.5 1471 364.5C1463.2 366.858 1455.2 368.191 1447 368.5C1444.63 365.794 1441.96 363.461 1439 361.5C1445.05 360.003 1451.05 358.837 1457 358ZM1494 359C1501.75 357.455 1509.42 358.289 1517 361.5C1511.75 361.693 1506.58 362.193 1501.5 363C1499.03 361.514 1496.53 360.181 1494 359ZM966 359C967.406 359.473 968.073 360.473 968 362C966.594 361.527 965.927 360.527 966 359ZM970 359C971.406 359.473 972.073 360.473 972 362C970.594 361.527 969.927 360.527 970 359ZM974 359C975.762 359.762 976.762 361.096 977 363C975.238 362.238 974.238 360.904 974 359ZM1523 362C1523.24 361.403 1523.74 361.07 1524.5 361C1526.64 361.627 1528.8 362.127 1531 362.5C1528.28 363.102 1525.61 362.935 1523 362ZM1087 447C1150.11 463.574 1211.44 458.408 1271 431.5C1300.23 417.272 1329.23 402.605 1358 387.5C1382.01 375.608 1407.18 367.108 1433.5 362C1438.32 362.838 1442.16 365.338 1445 369.5C1426.69 374.827 1408.69 381.16 1391 388.5C1351.95 408.694 1312.61 428.361 1273 447.5C1224.11 467.556 1173.77 472.222 1122 461.5C1114.26 459.031 1106.59 456.364 1099 453.5C1094.54 451.976 1090.54 449.809 1087 447ZM977 363C978.406 363.473 979.073 364.473 979 366C977.594 365.527 976.927 364.527 977 363ZM981 363C982.762 363.762 983.762 365.096 984 367C982.238 366.238 981.238 364.904 981 363ZM985 363C986.762 363.762 987.762 365.096 988 367C986.238 366.238 985.238 364.904 985 363ZM974 364C975.406 364.473 976.073 365.473 976 367C974.594 366.527 973.927 365.527 974 364ZM1504 365C1510.82 363.845 1517.82 363.679 1525 364.5C1527.83 365.747 1530.5 367.247 1533 369C1526.67 369.745 1520.33 370.411 1514 371C1510.41 369.408 1507.08 367.408 1504 365ZM1486 365C1491.01 364.834 1496.01 365.001 1501 365.5C1503.51 366.921 1505.84 368.588 1508 370.5C1500.51 372.094 1493.01 373.594 1485.5 375C1482.79 372.122 1479.96 369.456 1477 367C1480.14 366.333 1483.14 365.666 1486 365ZM1553 369C1547.66 369.166 1542.32 368.999 1537 368.5C1535.17 367.752 1533.5 366.752 1532 365.5C1539.4 364.962 1546.4 366.128 1553 369ZM1013 366C1018.66 372.648 1023.33 379.981 1027 388C1021.34 381.352 1016.67 374.019 1013 366ZM984 367C985.762 367.762 986.762 369.096 987 371C985.238 370.238 984.238 368.904 984 367ZM988 367C989.762 367.762 990.762 369.096 991 371C989.238 370.238 988.238 368.904 988 367ZM1470 367C1474.69 368.189 1478.69 370.689 1482 374.5C1474.43 376.81 1466.77 378.977 1459 381C1455.48 378.313 1452.48 375.147 1450 371.5C1456.77 369.879 1463.44 368.379 1470 367ZM1006 369C1010.11 373.451 1013.44 378.451 1016 384C1011.93 379.524 1008.59 374.524 1006 369ZM1892 422C1857.74 406.636 1822.41 394.136 1786 384.5C1735.66 371.599 1685.16 370.765 1634.5 382C1633.44 381.87 1632.61 381.37 1632 380.5C1682.62 366.617 1733.28 366.617 1784 380.5C1821.52 390.722 1857.52 404.555 1892 422ZM991 371C992.406 371.473 993.073 372.473 993 374C991.594 373.527 990.927 372.527 991 371ZM1530 371C1532.69 370.836 1535.35 371.003 1538 371.5C1540.67 373.167 1543.33 374.833 1546 376.5C1538.16 378.314 1530.16 379.314 1522 379.5C1519.82 377.15 1517.48 374.983 1515 373C1520.15 372.333 1525.15 371.666 1530 371ZM1542 372C1551.89 370.277 1561.55 371.444 1571 375.5C1563.69 376.61 1556.36 376.943 1549 376.5C1546.78 374.777 1544.45 373.277 1542 372ZM988 372C989.406 372.473 990.073 373.473 990 375C988.594 374.527 987.927 373.527 988 372ZM1444 372C1445.37 371.843 1446.71 372.01 1448 372.5C1450.3 375.797 1452.96 378.797 1456 381.5C1426.77 389.952 1399.1 401.952 1373 417.5C1344.27 436.539 1314.27 453.539 1283 468.5C1262.56 477.454 1241.23 481.121 1219 479.5C1195.46 477.132 1172.13 473.465 1149 468.5C1184.01 471.196 1218.34 467.529 1252 457.5C1266.99 452.282 1281.66 446.282 1296 439.5C1326.18 423.578 1356.51 407.911 1387 392.5C1405.56 384.149 1424.56 377.316 1444 372ZM1506 373C1511.85 373.092 1516.51 375.592 1520 380.5C1512.3 381.808 1504.63 383.308 1497 385C1493.25 382.761 1489.92 379.927 1487 376.5C1493.47 375.313 1499.81 374.146 1506 373ZM1571 373C1578.22 372.87 1585.22 374.037 1592 376.5C1586.35 376.447 1580.69 376.114 1575 375.5C1573.43 374.892 1572.1 374.058 1571 373ZM1496 456C1455.84 489.753 1414.17 521.586 1371 551.5C1336.01 574.99 1298.01 591.99 1257 602.5C1207.97 615.165 1162.97 606.831 1122 577.5C1100 560.508 1079.5 541.675 1060.5 521C1044.06 502.56 1026.89 484.726 1009 467.5C959.52 423.104 901.354 399.604 834.5 397C786.769 398.023 742.935 411.523 703 437.5C663.025 465.789 625.691 497.456 591 532.5C589.734 532.809 588.567 533.309 587.5 534C576.105 532.066 564.605 530.566 553 529.5C589.222 493.932 627.222 460.599 667 429.5C698.022 406.492 732.355 390.158 770 380.5C853.971 364.407 928.305 384.074 993 439.5C1017.33 463.167 1041.67 486.833 1066 510.5C1090.63 534.117 1118.29 553.45 1149 568.5C1193.4 586.119 1238.74 588.785 1285 576.5C1322.86 564.403 1358.52 547.737 1392 526.5C1403 519.5 1414 512.5 1425 505.5C1448.38 488.488 1472.04 471.988 1496 456ZM1882 421C1841.52 403.562 1799.52 391.062 1756 383.5C1718.96 377.335 1681.96 377.501 1645 384C1643.3 383.601 1641.64 383.101 1640 382.5C1688.95 372.84 1737.61 374.173 1786 386.5C1819.22 394.96 1851.22 406.46 1882 421ZM1481 377C1482.37 376.843 1483.71 377.01 1485 377.5C1487.67 380.167 1490.33 382.833 1493 385.5C1484.75 387.771 1476.58 390.271 1468.5 393C1465.67 389.5 1462.83 386 1460 382.5C1467.16 380.794 1474.16 378.96 1481 377ZM1008 378C1009.41 378.473 1010.07 379.473 1010 381C1008.59 380.527 1007.93 379.527 1008 378ZM1559 378C1565.01 377.834 1571.01 378.001 1577 378.5C1579.33 380.167 1581.67 381.833 1584 383.5C1576.65 384.244 1569.32 385.077 1562 386C1558.89 384.061 1555.89 381.894 1553 379.5C1555.21 379.309 1557.21 378.809 1559 378ZM1580 379C1581.29 378.342 1582.79 378.008 1584.5 378C1590.5 378.314 1596.34 379.147 1602 380.5C1601.33 381.167 1600.67 381.833 1600 382.5C1596.64 382.837 1593.31 383.337 1590 384C1586.66 382.315 1583.32 380.648 1580 379ZM1001 379C1002.41 379.473 1003.07 380.473 1003 382C1001.59 381.527 1000.93 380.527 1001 379ZM1544 379C1549.28 379.075 1553.61 381.242 1557 385.5C1548.86 387.801 1540.52 389.135 1532 389.5C1529.67 387.167 1527.33 384.833 1525 382.5C1531.38 380.938 1537.71 379.772 1544 379ZM226 381C236.006 380.834 246.006 381 256 381.5C206.922 406.437 154.922 417.103 100 413.5C118.045 406.374 136.378 400.04 155 394.5C178.892 390.287 202.559 385.787 226 381ZM1010 381C1011.41 381.473 1012.07 382.473 1012 384C1010.59 383.527 1009.93 382.527 1010 381ZM1604 381C1604.88 380.869 1605.54 381.202 1606 382C1603.69 383.373 1603.02 383.04 1604 381ZM1874 421C1836.6 405.815 1797.93 394.982 1758 388.5C1724.17 383.264 1690.34 382.764 1656.5 387C1655.1 386.273 1653.6 385.773 1652 385.5C1667.96 382.271 1684.13 380.771 1700.5 381C1761.19 382.465 1819.02 395.799 1874 421ZM258 382C265.851 382.106 273.518 383.272 281 385.5C266.974 394.516 252.307 402.516 237 409.5C203.135 414.883 170.135 423.549 138 435.5C110.463 438.207 83.1296 436.874 56 431.5C67.9189 426.305 79.9189 421.305 92 416.5C136.513 419.019 179.846 413.019 222 398.5C234.449 393.772 246.449 388.272 258 382ZM1520 382C1524.18 383.509 1527.52 386.176 1530 390C1521.86 392.41 1513.69 394.744 1505.5 397C1503.04 393.535 1500.2 390.369 1497 387.5C1504.73 385.458 1512.4 383.624 1520 382ZM1096 456C1139.68 470.503 1184.52 479.17 1230.5 482C1257.04 480.822 1281.88 473.656 1305 460.5C1332.16 444.752 1359.16 428.752 1386 412.5C1408.81 400.12 1432.65 390.287 1457.5 383C1460.33 386.5 1463.17 390 1466 393.5C1444.59 400.749 1423.92 409.749 1404 420.5C1371.32 440.843 1337.99 460.177 1304 478.5C1278.54 491.615 1251.54 497.282 1223 495.5C1180.38 491.012 1139.71 479.679 1101 461.5C1099.13 459.796 1097.46 457.963 1096 456ZM1016 384C1017.41 384.473 1018.07 385.473 1018 387C1016.59 386.527 1015.93 385.527 1016 384ZM1013 385C1014.41 385.473 1015.07 386.473 1015 388C1013.59 387.527 1012.93 386.527 1013 385ZM1591 386C1592.79 384.878 1594.79 384.711 1597 385.5C1595.16 388.602 1593.16 388.769 1591 386ZM1600 385C1600.74 384.869 1601.41 385.036 1602 385.5C1600.42 387.795 1598.42 389.128 1596 389.5C1597.54 388.129 1598.87 386.629 1600 385ZM246 408C258.766 401.114 271.433 393.947 284 386.5C290.233 386.573 296.233 387.906 302 390.5C293.836 396.083 285.503 401.416 277 406.5C266.664 407.033 256.331 407.533 246 408ZM1574 386C1579.01 385.834 1584.01 386.001 1589 386.5C1590.05 387.885 1591.38 388.885 1593 389.5C1592 390.5 1591 391.5 1590 392.5C1583.4 394.11 1576.74 394.777 1570 394.5C1567.82 392.484 1565.82 390.317 1564 388C1567.48 387.333 1570.81 386.666 1574 386ZM1625 386C1634.25 386.027 1634.25 386.694 1625 388C1624 387.833 1623 387.667 1622 387.5C1623.24 387.268 1624.24 386.768 1625 386ZM1847 414C1788.28 394.157 1727.94 385.491 1666 388C1728.43 382.685 1788.76 391.352 1847 414ZM1022 387C1023.41 387.473 1024.07 388.473 1024 390C1022.59 389.527 1021.93 388.527 1022 387ZM1030 387C1038.14 395.136 1045.14 404.136 1051 414C1042.1 406.436 1035.1 397.436 1030 387ZM1637 387C1639.06 387.187 1641.06 387.687 1643 388.5C1638.39 389.79 1633.72 390.124 1629 389.5C1631.88 388.954 1634.55 388.121 1637 387ZM1491 388C1492.37 387.843 1493.71 388.01 1495 388.5C1497.5 391 1500 393.5 1502.5 396C1502.93 397.1 1502.43 397.767 1501 398C1493.8 400.233 1486.64 402.566 1479.5 405C1475.66 402.344 1472.5 399.011 1470 395C1477.03 392.436 1484.03 390.103 1491 388ZM1556 388C1561.1 388.574 1565.1 391.074 1568 395.5C1560.02 397.396 1552.02 399.23 1544 401C1540.88 398.377 1537.88 395.544 1535 392.5C1542.07 390.772 1549.07 389.272 1556 388ZM1619 388C1619.79 388.283 1620.46 388.783 1621 389.5C1618.68 390.337 1616.35 390.67 1614 390.5C1615.81 389.743 1617.48 388.91 1619 388ZM1651 390C1653.8 388.862 1656.8 388.695 1660 389.5C1657.08 391.318 1654.08 391.484 1651 390ZM1024 390C1025.41 390.473 1026.07 391.473 1026 393C1024.59 392.527 1023.93 391.527 1024 390ZM1831 412C1782.36 397.879 1732.7 391.045 1682 391.5C1732.96 388.755 1782.62 395.589 1831 412ZM304 391C308.953 392.15 313.62 393.984 318 396.5C312.474 400.86 306.807 405.026 301 409C294.38 407.971 287.713 407.137 281 406.5C289.078 401.806 296.744 396.639 304 391ZM1633 392C1636.35 391.835 1639.68 392.002 1643 392.5C1639.03 393.498 1635.03 393.831 1631 393.5C1631.92 393.222 1632.58 392.722 1633 392ZM1026 393C1027.41 393.473 1028.07 394.473 1028 396C1026.59 395.527 1025.93 394.527 1026 393ZM1527 393C1529.03 392.838 1531.03 393.005 1533 393.5C1535.67 396.167 1538.33 398.833 1541 401.5C1532.36 403.618 1523.86 406.118 1515.5 409C1512.67 405.5 1509.83 402 1507 398.5C1513.79 396.639 1520.46 394.806 1527 393ZM1620 393C1615.23 394.941 1610.23 396.108 1605 396.5C1609.8 394.397 1614.8 393.231 1620 393ZM1650 393C1652.25 392.681 1654.25 393.181 1656 394.5C1649 395.585 1642 396.251 1635 396.5C1640.06 395.108 1645.06 393.941 1650 393ZM1609 399C1615.32 396.254 1621.99 394.754 1629 394.5C1622.42 396.448 1615.76 397.948 1609 399ZM1820 412C1778.99 401.546 1737.32 395.712 1695 394.5C1737.69 393.861 1779.36 399.695 1820 412ZM1109 468C1149.47 484.991 1191.63 494.991 1235.5 498C1253.64 497.757 1271.14 494.257 1288 487.5C1300.91 482.046 1313.58 476.046 1326 469.5C1351.17 454.752 1376.17 439.752 1401 424.5C1422.27 412.615 1444.43 402.782 1467.5 395C1470.33 398.5 1473.17 402 1476 405.5C1460.46 411.935 1445.13 418.935 1430 426.5C1401.67 442.663 1373.67 459.33 1346 476.5C1321.29 491.403 1294.96 502.403 1267 509.5C1253.09 511.865 1239.09 512.532 1225 511.5C1189.42 507.192 1155.76 496.859 1124 480.5C1118.56 476.791 1113.56 472.625 1109 468ZM1585 395C1586.88 394.893 1587.21 395.393 1586 396.5C1583.08 398.209 1580.25 400.042 1577.5 402C1576 400.5 1574.5 399 1573 397.5C1577.17 396.795 1581.17 395.961 1585 395ZM1666 395C1670.68 394.834 1675.35 395.001 1680 395.5C1674.7 396.645 1669.37 396.978 1664 396.5C1664.92 396.222 1665.58 395.722 1666 395ZM1631 396C1631.79 396.283 1632.46 396.783 1633 397.5C1628.06 398.935 1623.06 399.602 1618 399.5C1622.54 398.633 1626.87 397.467 1631 396ZM1655 396C1660.71 395.992 1661.04 396.492 1656 397.5C1653 398.167 1650 398.167 1647 397.5C1649.86 397.317 1652.53 396.817 1655 396ZM320 397C324.586 398.626 328.919 400.793 333 403.5C329.392 406.951 325.392 409.784 321 412C315.927 411.045 310.927 409.878 306 408.5C311.147 405.18 315.814 401.347 320 397ZM1565 398C1569.41 397.123 1572.74 398.623 1575 402.5C1568.51 408.583 1560.84 411.583 1552 411.5C1549.9 408.646 1547.57 405.979 1545 403.5C1551.64 401.342 1558.31 399.509 1565 398ZM1781 406C1759.41 402.878 1737.74 400.378 1716 398.5C1738.04 398.798 1759.71 401.298 1781 406ZM824 399C882.159 398.333 934.825 414.833 982 448.5C990.288 454.453 998.288 460.786 1006 467.5C1034.33 496.5 1062.67 525.5 1091 554.5C1111.11 574.063 1134.11 589.396 1160 600.5C1195.06 612.487 1230.4 613.154 1266 602.5C1291.78 595.278 1316.45 585.278 1340 572.5C1372.56 553.727 1403.56 532.727 1433 509.5C1458.23 488.972 1483.73 468.805 1509.5 449C1510 449.5 1510.5 450 1511 450.5C1473.63 484.87 1435.97 518.87 1398 552.5C1370.58 575.72 1340.91 595.72 1309 612.5C1284.67 624.609 1259 632.276 1232 635.5C1192.5 638.554 1157.5 627.554 1127 602.5C1098.49 577.321 1071.99 550.154 1047.5 521C1010.59 478.787 965.425 448.954 912 431.5C840.197 411.411 773.864 422.745 713 465.5C687.867 483.622 664.2 503.622 642 525.5C626.339 530.31 610.339 532.644 594 532.5C623.891 502.597 655.557 474.93 689 449.5C729.172 419.721 774.172 402.888 824 399ZM1503 399C1504.87 399.359 1506.37 400.359 1507.5 402C1509.33 404.5 1511.17 407 1513 409.5C1505.01 411.94 1497.18 414.773 1489.5 418C1486.01 414.885 1482.84 411.385 1480 407.5C1487.63 404.349 1495.29 401.516 1503 399ZM1643 402C1650.13 400.319 1657.46 399.485 1665 399.5C1657.74 400.926 1650.4 401.76 1643 402ZM1035 401C1036.41 401.473 1037.07 402.473 1037 404C1035.59 403.527 1034.93 402.527 1035 401ZM1012 403C1014.77 404.223 1017.44 405.723 1020 407.5C1031 415.833 1042 424.167 1053 432.5C1064.6 445.235 1075.6 458.402 1086 472C1077.56 465.402 1069.23 458.569 1061 451.5C1044.59 435.318 1028.26 419.151 1012 403ZM335 404C343.482 408.408 351.482 413.575 359 419.5C357.771 421.029 356.271 422.196 354.5 423C344.965 418.71 335.131 415.21 325 412.5C328.525 409.802 331.858 406.969 335 404ZM1037 404C1038.41 404.473 1039.07 405.473 1039 407C1037.59 406.527 1036.93 405.527 1037 404ZM1538 404C1539.7 403.84 1541.37 404.006 1543 404.5C1545.69 407.057 1548.02 409.891 1550 413C1542.01 415.666 1534.01 418.332 1526 421C1522.42 418.006 1519.42 414.506 1517 410.5C1524.14 408.394 1531.14 406.227 1538 404ZM1683 406C1690.01 405.834 1697.01 406 1704 406.5C1711.33 411.833 1718.67 417.167 1726 422.5C1739 434.167 1752 445.833 1765 457.5C1756.24 459.524 1747.58 461.524 1739 463.5C1719.6 444.1 1699.6 425.433 1679 407.5C1680.56 407.29 1681.89 406.79 1683 406ZM1707 407C1720.14 404.895 1732.47 407.395 1744 414.5C1763.86 428.019 1782.86 442.685 1801 458.5C1790.01 457.226 1779.01 456.893 1768 457.5C1754.67 445.5 1741.33 433.5 1728 421.5C1721.29 416.153 1714.29 411.32 1707 407ZM1664 407C1669.92 406.088 1675.26 407.255 1680 410.5C1699.3 428.134 1718.3 446.134 1737 464.5C1731.58 466.639 1726.25 468.972 1721 471.5C1718.75 472.65 1716.41 472.984 1714 472.5C1709.67 468.833 1705.33 465.167 1701 461.5C1684.36 443.862 1667.36 426.528 1650 409.5C1654.74 408.449 1659.41 407.615 1664 407ZM1476 408C1477.52 408.011 1478.68 408.677 1479.5 410C1481.5 412.667 1483.5 415.333 1485.5 418C1471.76 425.121 1457.6 432.288 1443 439.5C1408.59 460.232 1373.93 480.565 1339 500.5C1313.6 514.3 1286.6 523.3 1258 527.5C1212.94 530.911 1172.94 518.578 1138 490.5C1161.83 499.961 1186.49 506.961 1212 511.5C1237.65 516.185 1262.82 514.352 1287.5 506C1311.8 497.101 1334.96 485.935 1357 472.5C1379.4 458.436 1402.07 444.769 1425 431.5C1441.61 422.523 1458.61 414.69 1476 408ZM1737 409C1737.6 408.361 1738.43 408.028 1739.5 408C1756.66 410.499 1772.83 415.999 1788 424.5C1810.51 439.921 1832.84 455.587 1855 471.5C1839.01 468.172 1823.01 464.505 1807 460.5C1791.62 447.454 1775.96 434.788 1760 422.5C1752.69 417.347 1745.02 412.847 1737 409ZM258 409C263.011 408.834 268.011 409.001 273 409.5C220.431 441.769 163.264 458.603 101.5 460C95.6267 459.943 89.7933 459.443 84 458.5C102.223 451.222 120.556 444.222 139 437.5C173.374 433.99 206.374 425.323 238 411.5C244.829 410.77 251.496 409.937 258 409ZM277 409C284.36 409.058 291.694 409.558 299 410.5C284.341 421.167 269.008 430.833 253 439.5C206.921 450.082 161.921 464.082 118 481.5C90.7985 484.368 63.7985 483.035 37 477.5C50.3333 472.167 63.6667 466.833 77 461.5C149.409 465.233 216.076 447.733 277 409ZM1643 409C1644.37 408.843 1645.71 409.01 1647 409.5C1664.36 426.528 1681.36 443.862 1698 461.5C1703.04 466.212 1708.38 470.545 1714 474.5C1707.09 477.538 1700.26 480.705 1693.5 484C1676.68 472.189 1661.35 458.522 1647.5 443C1639.04 432.868 1630.2 423.035 1621 413.5C1628.31 411.578 1635.64 410.078 1643 409ZM302 411C307.904 411.315 313.571 412.482 319 414.5C310.614 421.22 301.947 427.553 293 433.5C281.741 435.825 270.407 437.492 259 438.5C274.044 430.259 288.377 421.093 302 411ZM1513 411C1516.75 413.925 1520.09 417.425 1523 421.5C1514.77 424.801 1506.6 428.301 1498.5 432C1495.54 428.256 1492.71 424.422 1490 420.5C1497.69 417.219 1505.36 414.052 1513 411ZM1820 412C1822.65 411.91 1824.99 412.576 1827 414C1824.35 414.09 1822.01 413.424 1820 412ZM1616 413C1620.24 415.728 1624.07 419.061 1627.5 423C1646.08 446.243 1667.24 466.743 1691 484.5C1684.74 488.251 1678.08 490.584 1671 491.5C1658.63 485.319 1647.3 477.652 1637 468.5C1621.03 453.041 1606.37 436.541 1593 419C1600.71 416.731 1608.38 414.731 1616 413ZM1834 413C1838.42 413.361 1842.42 414.694 1846 417C1841.72 416.239 1837.72 414.905 1834 413ZM225 414C201.082 424.397 176.082 430.897 150 433.5C174.459 424.846 199.459 418.346 225 414ZM322 414C332.543 416.792 342.876 420.292 353 424.5C348.046 427.785 343.38 431.452 339 435.5C324.351 435.315 309.685 434.982 295 434.5C304.468 428.187 313.468 421.354 322 414ZM1047 414C1047.79 414.283 1048.46 414.783 1049 415.5C1047.68 416.028 1047.02 415.528 1047 414ZM1827 414C1829.65 413.91 1831.99 414.576 1834 416C1831.35 416.09 1829.01 415.424 1827 414ZM1550 415C1553.5 414.759 1553.83 415.592 1551 417.5C1544.25 420.955 1537.75 424.789 1531.5 429C1529.88 427.259 1528.38 425.425 1527 423.5C1534.63 420.349 1542.29 417.516 1550 415ZM1850 415C1853.04 415.233 1855.71 416.233 1858 418C1854.96 417.767 1852.29 416.767 1850 415ZM1588 419C1589.87 419.359 1591.37 420.359 1592.5 422C1605.22 438.393 1619.05 453.893 1634 468.5C1644.62 478.782 1656.62 487.116 1670 493.5C1664.56 495.867 1659.06 498.034 1653.5 500C1636.44 494.724 1621.27 486.224 1608 474.5C1592 460.011 1577.67 444.178 1565 427C1572.58 423.862 1580.24 421.196 1588 419ZM1861 419C1863.05 418.902 1864.72 419.569 1866 421C1863.95 421.098 1862.28 420.431 1861 419ZM375 432C368.901 429.451 362.901 426.618 357 423.5C358.466 422.865 359.8 422.031 361 421C366.099 424.204 370.766 427.871 375 432ZM1205 526C1242.59 534.093 1278.92 530.26 1314 514.5C1325.79 509.106 1337.46 503.439 1349 497.5C1379.5 479.752 1409.83 461.752 1440 443.5C1455.33 435.332 1471 427.832 1487 421C1490.35 424.351 1493.35 428.018 1496 432C1481.87 438.896 1467.87 446.063 1454 453.5C1424 470.833 1394 488.167 1364 505.5C1341.37 517.982 1317.7 527.982 1293 535.5C1280.27 540.112 1267.27 541.112 1254 538.5C1237.02 536.34 1220.69 532.173 1205 526ZM1866 421C1868.05 420.902 1869.72 421.569 1871 423C1868.95 423.098 1867.28 422.431 1866 421ZM1874 421C1876.05 420.902 1877.72 421.569 1879 423C1876.95 423.098 1875.28 422.431 1874 421ZM1882 421C1884.74 421.207 1887.07 422.207 1889 424C1886.26 423.793 1883.93 422.793 1882 421ZM1894 423C1898.59 423.96 1902.59 425.96 1906 429C1901.68 427.508 1897.68 425.508 1894 423ZM827 424C886.103 421.022 939.769 436.522 988 470.5C1004.38 482.541 1019.88 495.708 1034.5 510C1053.83 531.333 1073.17 552.667 1092.5 574C1113.41 596.359 1137.58 614.192 1165 627.5C1198.93 640.407 1233.26 641.407 1268 630.5C1304.01 618.997 1337.01 601.997 1367 579.5C1378.18 571.074 1389.18 562.408 1400 553.5C1437.8 520.037 1475.3 486.203 1512.5 452C1513.14 453.466 1513.97 454.8 1515 456C1475.55 498.288 1435.55 540.121 1395 581.5C1372.49 603.082 1347.82 621.748 1321 637.5C1291.59 654.58 1259.93 664.08 1226 666C1197.2 665.233 1171.2 656.399 1148 639.5C1132.64 628.145 1118.47 615.312 1105.5 601C1088.93 582.186 1072.6 563.186 1056.5 544C1023.31 507.133 983.811 479.3 938 460.5C863.996 433.882 794.996 443.216 731 488.5C718.541 494.563 706.208 500.896 694 507.5C683.093 511.247 672.426 515.58 662 520.5C657.037 522.026 652.037 523.026 647 523.5C679.909 489.588 717.576 462.255 760 441.5C781.602 432.351 803.935 426.518 827 424ZM1522 424C1525.51 424.505 1527.85 426.505 1529 430C1522.08 434.71 1514.92 439.044 1507.5 443C1505 439.833 1502.5 436.667 1500 433.5C1507.48 430.406 1514.81 427.24 1522 424ZM1881 424C1883.05 423.902 1884.72 424.569 1886 426C1883.95 426.098 1882.28 425.431 1881 424ZM355 425C363.766 429.217 372.432 433.717 381 438.5C379.097 440.905 376.764 442.739 374 444C363.198 440.673 352.198 438.173 341 436.5C345.921 432.887 350.588 429.054 355 425ZM1893 426C1897.59 426.96 1901.59 428.96 1905 432C1900.68 430.508 1896.68 428.508 1893 426ZM1056 427C1058.59 426.961 1060.59 427.961 1062 430C1059.68 429.508 1057.68 428.508 1056 427ZM1890 428C1895.25 429.293 1899.92 431.626 1904 435C1899.02 433.174 1894.35 430.841 1890 428ZM1562 429C1563.52 429.011 1564.68 429.677 1565.5 431C1582.37 453.54 1602.21 473.04 1625 489.5C1632.98 493.991 1641.31 497.658 1650 500.5C1639.79 504.701 1629.45 505.035 1619 501.5C1604.21 497.108 1590.88 490.108 1579 480.5C1566.45 469.781 1555.11 457.947 1545 445C1550.69 439.645 1556.35 434.312 1562 429ZM1885 429C1891.59 430.96 1897.59 433.96 1903 438C1896.68 435.508 1890.68 432.508 1885 429ZM1880 430C1882.05 429.902 1883.72 430.569 1885 432C1882.95 432.098 1881.28 431.431 1880 430ZM1910 431C1912.83 431.579 1915.16 432.912 1917 435C1914.17 434.421 1911.84 433.088 1910 431ZM51 433C77.1359 437.82 103.469 439.653 130 438.5C112.01 444.941 94.1769 451.774 76.5 459C56.9781 456.962 37.8114 453.129 19 447.5C29.8758 442.891 40.5424 438.058 51 433ZM1062 433C1064.59 432.961 1066.59 433.961 1068 436C1065.68 435.508 1063.68 434.508 1062 433ZM1497 434C1499.99 437.001 1502.66 440.335 1505 444C1462.05 471.07 1417.72 495.903 1372 518.5C1344.68 531.163 1316.01 538.163 1286 539.5C1319.45 529.939 1351.12 516.273 1381 498.5C1418.63 475.183 1457.3 453.683 1497 434ZM1909 434C1911.83 434.579 1914.16 435.912 1916 438C1913.17 437.421 1910.84 436.088 1909 434ZM291 437C305.725 436.568 320.392 437.068 335 438.5C322.174 447.747 309.174 456.747 296 465.5C271.992 469.752 248.325 475.419 225 482.5C181.045 496.707 137.379 511.707 94 527.5C67.3168 528.053 41.3168 524.053 16 515.5C27.1091 513.678 38.1091 511.345 49 508.5C122.798 514.216 191.465 498.216 255 460.5C267.445 453.197 279.445 445.364 291 437ZM1532 437C1533.05 436.851 1534.05 437.017 1535 437.5C1529.14 442.602 1523.48 447.935 1518 453.5C1516.3 453.845 1514.97 453.178 1514 451.5C1519.61 446.044 1525.61 441.21 1532 437ZM277 438C280.018 437.835 283.018 438.002 286 438.5C241.33 470.29 191.997 491.624 138 502.5C111.991 507.407 85.9907 508.407 60 505.5C78.7442 498.697 97.4109 491.697 116 484.5C164.369 480.154 209.702 466.154 252 442.5C260.472 440.979 268.806 439.479 277 438ZM338 438C349.615 439.523 360.949 442.189 372 446C366.145 451.023 360.145 455.856 354 460.5C336.531 461.176 319.198 462.509 302 464.5C314.245 455.89 326.245 447.056 338 438ZM1910 438C1912.17 438.25 1913.84 439.25 1915 441C1912.83 440.75 1911.16 439.75 1910 438ZM395 451C389.114 449.39 383.447 447.223 378 444.5C379.543 442.622 381.376 441.122 383.5 440C387.835 443.169 391.668 446.836 395 451ZM1903 441C1904.53 440.927 1905.53 441.594 1906 443C1904.47 443.073 1903.47 442.406 1903 441ZM1911 442C1913.17 442.25 1914.84 443.25 1916 445C1913.83 444.75 1912.16 443.75 1911 442ZM1520 443C1517.9 444.599 1515.9 446.432 1514 448.5C1511.53 448.243 1511.53 447.243 1514 445.5C1515.91 444.378 1517.91 443.545 1520 443ZM241 444C242.052 443.851 243.052 444.017 244 444.5C207.291 464.092 168.291 476.092 127 480.5C164.304 465.786 202.304 453.619 241 444ZM1898 445C1899.53 444.927 1900.53 445.594 1901 447C1899.47 447.073 1898.47 446.406 1898 445ZM375 446C384.749 449.302 394.082 453.469 403 458.5C400.073 460.882 397.239 463.382 394.5 466C382.133 463.474 369.633 461.641 357 460.5C363.188 455.803 369.188 450.969 375 446ZM1906 446C1907.53 445.927 1908.53 446.594 1909 448C1907.47 448.073 1906.47 447.406 1906 446ZM1542 447C1551.36 456.864 1561.03 466.697 1571 476.5C1587.6 491.465 1606.93 501.132 1629 505.5C1599.45 510.113 1572.79 503.447 1549 485.5C1540.4 478.904 1532.4 471.57 1525 463.5C1530.56 457.77 1536.23 452.27 1542 447ZM1914 447C1915.53 446.927 1916.53 447.594 1917 449C1915.47 449.073 1914.47 448.406 1914 447ZM1314 644C1281.38 665.151 1245.54 676.818 1206.5 679C1171.48 677.729 1140.31 666.229 1113 644.5C1085.49 622 1059.49 597.667 1035 571.5C992.269 529.784 942.269 499.784 885 481.5C837.817 467.308 790.817 467.808 744 483C798.435 447.43 857.102 438.597 920 456.5C954.571 467.447 985.904 484.114 1014 506.5C1028.44 518.936 1042.27 532.103 1055.5 546C1076.52 572.358 1099.02 597.525 1123 621.5C1136.94 634.439 1152.27 645.439 1169 654.5C1200 668.833 1232 671.5 1265 662.5C1281.85 657.607 1298.18 651.44 1314 644ZM1078 451C1081.39 452.029 1084.06 454.029 1086 457C1082.97 455.484 1080.3 453.484 1078 451ZM1911 452C1912.53 451.927 1913.53 452.594 1914 454C1912.47 454.073 1911.47 453.406 1911 452ZM401 453C402.696 453.185 404.029 454.019 405 455.5C403.088 455.779 401.754 454.946 401 453ZM1500 453C1499.24 454.762 1497.9 455.762 1496 456C1496.76 454.238 1498.1 453.238 1500 453ZM1107 471C1100.33 468.318 1094.66 464.151 1090 458.5C1092.31 459.142 1094.64 460.142 1097 461.5C1100.83 464.168 1104.17 467.335 1107 471ZM1770 460C1780.92 458.652 1791.92 459.152 1803 461.5C1794.63 461.952 1786.29 462.785 1778 464C1775.11 463.105 1772.44 461.771 1770 460ZM411 469C406.417 468.605 402.084 467.438 398 465.5C400.46 464.042 402.627 462.209 404.5 460C406.91 462.897 409.077 465.897 411 469ZM426 474C422.932 473.478 419.932 472.645 417 471.5C414.036 467.534 410.703 463.867 407 460.5C414.503 463.142 420.836 467.642 426 474ZM1762 460C1766.58 459.293 1770.25 460.793 1773 464.5C1765.09 467.474 1757.09 469.807 1749 471.5C1746.48 469.737 1744.15 467.737 1742 465.5C1748.7 463.329 1755.36 461.495 1762 460ZM1082 462C1091.76 469.725 1101.76 477.225 1112 484.5C1117.74 490.016 1123.41 495.516 1129 501C1123.56 498.447 1118.23 495.613 1113 492.5C1102.16 482.828 1091.83 472.661 1082 462ZM335 463C340.011 462.834 345.011 463.001 350 463.5C332.477 476.68 314.144 488.68 295 499.5C242.45 514.016 190.45 530.35 139 548.5C107.307 551.109 75.9735 548.776 45 541.5C60.8256 538.601 76.4922 534.934 92 530.5C166.025 530.155 233.691 509.488 295 468.5C308.363 465.889 321.696 464.056 335 463ZM304 497C320.704 486.478 337.037 475.311 353 463.5C366.122 463.459 379.122 464.792 392 467.5C383.333 474.167 374.667 480.833 366 487.5C345.17 489.694 324.503 492.861 304 497ZM1789 464C1795.67 463.834 1802.34 464 1809 464.5C1809.83 465.415 1810.83 466.081 1812 466.5C1803.31 467.572 1794.81 469.405 1786.5 472C1784 470.167 1781.5 468.333 1779 466.5C1782.41 465.504 1785.74 464.671 1789 464ZM1814 466C1816.23 464.941 1818.56 465.108 1821 466.5C1818.57 467.203 1816.24 467.037 1814 466ZM1738 466C1741.45 468.239 1744.79 470.739 1748 473.5C1741.22 476.058 1734.55 478.891 1728 482C1724.8 479.636 1721.47 477.47 1718 475.5C1724.61 472.029 1731.27 468.862 1738 466ZM1772 467C1776.56 467.444 1780.56 469.277 1784 472.5C1776.77 474.799 1769.6 477.299 1762.5 480C1759.1 478.381 1755.93 476.381 1753 474C1759.21 471.043 1765.55 468.71 1772 467ZM394 468C400.954 469.113 407.788 470.78 414.5 473C417.349 475.516 419.849 478.349 422 481.5C419.708 482.79 417.708 484.457 416 486.5C400.985 486.21 385.985 486.21 371 486.5C379.144 480.849 386.81 474.682 394 468ZM286 469C287.373 468.843 288.707 469.01 290 469.5C232.662 507.167 169.662 526.501 101 527.5C139.108 513.575 177.441 500.242 216 487.5C239.205 480.367 262.539 474.2 286 469ZM1807 469C1812.19 468.034 1816.53 469.368 1820 473C1812.73 474.61 1805.56 476.61 1798.5 479C1794.94 477.805 1791.77 475.971 1789 473.5C1795.01 471.537 1801.01 470.037 1807 469ZM1819 470C1824.05 468.505 1829.05 469.005 1834 471.5C1831.13 471.815 1828.3 472.315 1825.5 473C1823.22 472.109 1821.05 471.109 1819 470ZM1468 472C1467.53 473.406 1466.53 474.073 1465 474C1465.47 472.594 1466.47 471.927 1468 472ZM1301 655C1266.33 677.835 1228.16 690.168 1186.5 692C1153.23 691.356 1122.73 681.856 1095 663.5C1064.61 643.118 1035.94 620.452 1009 595.5C961.389 555.663 907.722 526.329 848 507.5C805.575 494.505 762.575 492.005 719 500C725.497 493.705 733.163 489.205 742 486.5C787.874 470.201 834.207 468.867 881 482.5C933.034 497.838 979.034 523.505 1019 559.5C1039.31 578.805 1059.31 598.471 1079 618.5C1093.91 632.612 1109.91 645.278 1127 656.5C1168.1 682.148 1211.77 687.481 1258 672.5C1272.8 667.736 1287.13 661.902 1301 655ZM1465 474C1464.53 475.406 1463.53 476.073 1462 476C1462.47 474.594 1463.47 473.927 1465 474ZM1784 474C1787.88 475.274 1791.55 477.107 1795 479.5C1788.61 482.187 1782.11 484.687 1775.5 487C1771.78 485.557 1768.28 483.723 1765 481.5C1771.42 478.946 1777.76 476.446 1784 474ZM1827 475C1833.07 473.363 1839.07 473.863 1845 476.5C1842.18 477.754 1839.18 478.587 1836 479C1832.84 477.915 1829.84 476.582 1827 475ZM1846 475C1846.42 474.376 1847.08 474.043 1848 474C1850.33 474.83 1852.66 475.663 1855 476.5C1851.82 477.097 1848.82 476.597 1846 475ZM420 475C422.516 475.255 424.85 476.089 427 477.5C423.618 480.716 421.284 479.883 420 475ZM436 478C433.7 477.978 432.533 476.978 432.5 475C434.018 475.663 435.185 476.663 436 478ZM1108 475C1109.53 474.927 1110.53 475.594 1111 477C1109.47 477.073 1108.47 476.406 1108 475ZM1748 475C1752.11 476.095 1755.78 478.095 1759 481C1753.25 483.872 1747.25 486.206 1741 488C1737.11 487.39 1733.78 485.724 1731 483C1736.87 480.563 1742.54 477.896 1748 475ZM1820 475C1824.51 475.088 1828.51 476.588 1832 479.5C1825.07 481.44 1818.23 483.606 1811.5 486C1807.62 484.311 1803.79 482.478 1800 480.5C1806.79 478.639 1813.46 476.806 1820 475ZM1714 476C1717.44 477.555 1720.77 479.388 1724 481.5C1725.33 482.167 1725.33 482.833 1724 483.5C1718.45 485.963 1712.78 488.129 1707 490C1703.11 489.39 1699.78 487.724 1697 485C1702.83 482.179 1708.49 479.179 1714 476ZM1111 477C1114.87 477.763 1117.87 479.763 1120 483C1116.48 481.741 1113.48 479.741 1111 477ZM442 491C438.312 490.719 434.645 490.219 431 489.5C429 486.833 427 484.167 425 481.5C426.869 479.898 428.869 478.898 431 478.5C435.27 482.261 438.937 486.428 442 491ZM1854 479C1858.16 477.97 1862.16 478.803 1866 481.5C1864 482.167 1862 482.167 1860 481.5C1858.09 480.378 1856.09 479.545 1854 479ZM1844 479C1848.79 478.47 1853.12 479.637 1857 482.5C1854.19 483.411 1851.36 484.244 1848.5 485C1844.83 483.913 1841.33 482.413 1838 480.5C1840.21 480.309 1842.21 479.809 1844 479ZM1833 481C1836.86 481.928 1840.53 483.428 1844 485.5C1838.16 487.626 1832.16 489.126 1826 490C1822.02 489.727 1818.35 488.561 1815 486.5C1821.14 484.727 1827.14 482.894 1833 481ZM438 482C444.616 483.974 450.282 487.474 455 492.5C454.392 493.37 453.559 493.87 452.5 494C450.689 493.422 448.855 492.922 447 492.5C444.164 488.833 441.164 485.333 438 482ZM1795 482C1799.69 482.341 1804.03 483.841 1808 486.5C1801.96 488.234 1795.96 490.068 1790 492C1786.31 490.936 1782.64 489.769 1779 488.5C1784.36 486.218 1789.69 484.051 1795 482ZM423 483C424.279 484.623 425.613 486.29 427 488C426.5 488.333 426 488.667 425.5 489C423.036 488.339 420.536 487.839 418 487.5C419.74 485.983 421.406 484.483 423 483ZM1114 483C1122.68 487.002 1130.68 492.002 1138 498C1129.32 493.998 1121.32 488.998 1114 483ZM1760 483C1764.28 483.636 1768.28 485.136 1772 487.5C1762.96 493.439 1753.63 494.106 1744 489.5C1749.54 487.557 1754.87 485.39 1760 483ZM1868 483C1870.98 484.154 1873.98 485.32 1877 486.5C1875.57 487.94 1873.9 488.274 1872 487.5C1870 486.5 1868 485.5 1866 484.5C1866.92 484.222 1867.58 483.722 1868 483ZM1875 484C1877.53 483.051 1879.86 483.718 1882 486C1881.83 486.333 1881.67 486.667 1881.5 487C1879.51 485.586 1877.34 484.586 1875 484ZM1885 484C1885.42 483.376 1886.08 483.043 1887 483C1889.33 483.83 1891.66 484.663 1894 485.5C1890.91 485.751 1887.91 485.251 1885 484ZM1727 484C1730.61 485.807 1734.28 487.64 1738 489.5C1732.23 491.536 1726.39 493.369 1720.5 495C1716.76 494.525 1713.26 493.358 1710 491.5C1715.89 489.268 1721.56 486.768 1727 484ZM1860 484C1862.97 485.487 1865.97 486.987 1869 488.5C1863.19 489.977 1857.52 489.311 1852 486.5C1854.81 485.718 1857.48 484.884 1860 484ZM1692 486C1696.06 487.525 1700.06 489.359 1704 491.5C1698.49 493.836 1692.83 495.669 1687 497C1683.08 496.604 1679.41 495.437 1676 493.5C1681.65 491.461 1686.98 488.961 1692 486ZM1846 487C1850.07 487.856 1854.07 489.023 1858 490.5C1849.07 493.131 1840.07 493.465 1831 491.5C1836.16 490.131 1841.16 488.631 1846 487ZM289 537C316.436 523.452 342.436 507.619 367 489.5C382.01 487.794 397.01 487.794 412 489.5C400.615 498.552 388.949 507.219 377 515.5C347.338 521.416 318.004 528.582 289 537ZM1809 488C1813.19 488.453 1817.19 489.619 1821 491.5C1812.38 494.139 1803.72 494.472 1795 492.5C1799.87 491.263 1804.54 489.763 1809 488ZM1885 489C1888.67 487.98 1892.34 488.48 1896 490.5C1894.4 490.773 1892.9 491.273 1891.5 492C1889.51 490.586 1887.34 489.586 1885 489ZM1897 489C1898.93 487.791 1900.93 487.958 1903 489.5C1901.01 489.68 1899.01 489.514 1897 489ZM1906 489C1906.24 488.403 1906.74 488.07 1907.5 488C1909 488.5 1910.5 489 1912 489.5C1909.95 489.99 1907.95 489.823 1906 489ZM1774 489C1777.67 490.056 1781.33 491.222 1785 492.5C1776.89 496.031 1768.55 496.698 1760 494.5C1764.81 492.737 1769.47 490.904 1774 489ZM1876 490C1879.77 488.56 1883.43 489.06 1887 491.5C1885.4 491.773 1883.9 492.273 1882.5 493C1880.51 491.586 1878.34 490.586 1876 490ZM357 490C358.699 489.84 360.366 490.006 362 490.5C277.193 553.539 182.193 578.872 77 566.5C98.4334 562.892 119.433 557.558 140 550.5C195.885 545.426 248.219 529.093 297 501.5C316.928 496.547 336.928 492.713 357 490ZM384 514C394.1 506.412 404.1 498.579 414 490.5C419.058 489.839 424.058 490.172 429 491.5C432.579 495.991 435.912 500.657 439 505.5C437.667 506.833 436.333 508.167 435 509.5C417.925 510.249 400.925 511.749 384 514ZM1870 491C1871.59 489.879 1873.26 490.046 1875 491.5C1873.23 492.14 1871.57 491.973 1870 491ZM1134 491C1135.53 490.927 1136.53 491.594 1137 493C1135.47 493.073 1134.47 492.406 1134 491ZM1739 491C1743.05 491.85 1747.05 493.016 1751 494.5C1742.52 497.978 1733.85 498.645 1725 496.5C1729.81 494.737 1734.47 492.904 1739 491ZM433 493C433.417 492.376 434.084 492.043 435 492C438.681 492.77 442.348 493.603 446 494.5C447 495.5 448 496.5 449 497.5C446.517 499.906 443.85 502.073 441 504C438.277 500.292 435.61 496.625 433 493ZM1108 492C1118.82 499.977 1129.82 507.811 1141 515.5C1153.81 522.902 1166.81 529.735 1180 536C1168.89 534.352 1158.22 531.186 1148 526.5C1133.29 516.631 1119.96 505.131 1108 492ZM1859 492C1863.06 491.985 1867.06 492.485 1871 493.5C1865.33 494.167 1859.67 494.167 1854 493.5C1855.88 493.302 1857.55 492.802 1859 492ZM460 493C463.011 494.169 465.678 495.836 468 498C464.359 497.848 461.693 496.182 460 493ZM1137 493C1138.53 492.927 1139.53 493.594 1140 495C1138.47 495.073 1137.47 494.406 1137 493ZM1704 493C1708.23 493.278 1712.23 494.444 1716 496.5C1707.85 499.904 1699.52 500.57 1691 498.5C1695.56 496.934 1699.89 495.101 1704 493ZM1821 493C1824.4 492.68 1827.73 493.013 1831 494C1826.03 495.162 1821.03 495.329 1816 494.5C1817.88 494.302 1819.55 493.802 1821 493ZM1787 494C1790.72 494.064 1794.39 494.564 1798 495.5C1791.66 496.223 1785.33 496.557 1779 496.5C1781.88 495.954 1784.55 495.121 1787 494ZM1127 495C1134.64 498.822 1142.31 502.656 1150 506.5C1154.52 509.53 1158.85 512.697 1163 516C1155.58 513.457 1148.24 510.624 1141 507.5C1136.14 503.468 1131.47 499.301 1127 495ZM1671 495C1675.05 495.85 1679.05 497.016 1683 498.5C1674.87 502.034 1666.54 502.7 1658 500.5C1662.56 498.934 1666.89 497.101 1671 495ZM1748 498C1750.18 496.574 1752.68 495.908 1755.5 496C1757.55 495.923 1759.38 496.423 1761 497.5C1756.68 497.999 1752.35 498.166 1748 498ZM452 497C455.91 496.763 459.577 497.596 463 499.5C467.3 502.798 471.3 506.465 475 510.5C470.22 511.153 465.553 510.653 461 509C457.951 504.963 454.951 500.963 452 497ZM1286 667C1252.76 688.271 1216.43 701.105 1177 705.5C1145.92 707.283 1116.25 701.617 1088 688.5C1049.61 668.654 1013.61 645.32 980 618.5C926.075 580.204 867.408 550.871 804 530.5C770.124 519.994 735.458 514.994 700 515.5C704.711 511.12 709.711 507.12 715 503.5C758.399 493.824 801.399 495.49 844 508.5C900.351 525.503 951.351 552.17 997 588.5C1024.42 612.698 1052.75 635.698 1082 657.5C1108.83 677.24 1138.83 689.24 1172 693.5C1200.62 695.341 1228.29 691.008 1255 680.5C1265.48 676.286 1275.81 671.786 1286 667ZM1720 497C1722.46 497.523 1724.79 498.356 1727 499.5C1720.98 500.092 1714.98 500.425 1709 500.5C1712.93 499.776 1716.59 498.609 1720 497ZM717 498C714.782 501.109 711.782 502.609 708 502.5C710.743 500.462 713.743 498.962 717 498ZM449 500C449.739 499.869 450.406 500.036 451 500.5C453.667 503.5 456.333 506.5 459 509.5C453.882 510.388 448.882 510.055 444 508.5C443.333 507.833 442.667 507.167 442 506.5C444.407 504.317 446.74 502.15 449 500ZM1680 502C1684.23 499.765 1688.56 499.598 1693 501.5C1688.68 501.999 1684.35 502.166 1680 502ZM1417 501C1416.53 502.406 1415.53 503.073 1414 503C1414.47 501.594 1415.47 500.927 1417 501ZM470 502C475.118 502.476 479.451 504.476 483 508C481.667 509 480.333 510 479 511C475.646 508.312 472.646 505.312 470 502ZM1651 502C1654.44 501.801 1657.77 502.301 1661 503.5C1655.35 504.426 1649.68 504.759 1644 504.5C1646.5 503.802 1648.84 502.969 1651 502ZM285 505C243.568 527.945 199.235 541.778 152 546.5C195.84 530.941 240.174 517.108 285 505ZM1130 505C1138.66 507.67 1145.99 512.336 1152 519C1143.98 515.329 1136.65 510.662 1130 505ZM1410 505C1396.5 514.086 1382.16 521.586 1367 527.5C1381.07 519.464 1395.41 511.964 1410 505ZM707 506C703.562 508.935 700.229 512.101 697 515.5C692.759 516.957 688.426 517.291 684 516.5C690.964 511.35 698.631 507.85 707 506ZM490 513C487.18 513.252 484.514 512.752 482 511.5C485.088 508.504 487.755 509.004 490 513ZM392 544C407.119 533.388 422.119 522.555 437 511.5C439.269 510.742 441.436 510.909 443.5 512C447.333 518.333 451.167 524.667 455 531C433.973 535.205 412.973 539.539 392 544ZM446 511C450.951 511.728 455.951 512.228 461 512.5C463.817 515.266 465.651 518.432 466.5 522C463.5 524.667 460.5 527.333 457.5 530C453.142 523.944 449.308 517.61 446 511ZM493 511C496.873 511.934 500.539 513.434 504 515.5C499.483 515.96 495.816 514.46 493 511ZM417 512C421.679 511.834 426.345 512.001 431 512.5C415.864 524.568 400.197 535.901 384 546.5C313.726 567.369 243.393 588.036 173 608.5C156.224 613.189 139.224 614.189 122 611.5C96.0283 608.674 70.6949 603.007 46 594.5C65.5296 594.306 85.0296 593.473 104.5 592C205.18 600.292 296.68 575.459 379 517.5C391.766 515.327 404.432 513.494 417 512ZM464 513C464.235 512.403 464.735 512.07 465.5 512C469.014 512.558 472.514 513.224 476 514C473.683 515.816 471.516 517.816 469.5 520C467.803 517.48 465.97 515.147 464 513ZM683 513C683.739 512.869 684.406 513.036 685 513.5C681.085 517.36 676.418 519.027 671 518.5C675.21 516.891 679.21 515.058 683 513ZM1164 514C1164.06 513.457 1164.39 513.124 1165 513C1175.75 517.542 1186.42 522.376 1197 527.5C1184.94 525.646 1173.94 521.146 1164 514ZM482 515C482.06 514.457 482.393 514.124 483 514C486.964 514.939 490.964 515.772 495 516.5C499.618 519.45 503.952 522.784 508 526.5C503.517 528.101 498.851 528.434 494 527.5C490.497 522.831 486.497 518.664 482 515ZM1150 514C1158 516.724 1166 519.557 1174 522.5C1187.28 529.813 1200.95 535.98 1215 541C1190.31 538.785 1168.65 529.785 1150 514ZM478 515C483.103 518.268 487.437 522.435 491 527.5C486.089 528.992 481.089 529.326 476 528.5C474.454 526.243 472.788 524.076 471 522C473.048 519.285 475.382 516.952 478 515ZM502 519C502.235 518.403 502.735 518.07 503.5 518C506.749 518.77 509.915 519.77 513 521C512.02 522.481 510.853 523.815 509.5 525C507.414 522.406 504.914 520.406 502 519ZM1273 678C1232.86 704.321 1188.7 718.321 1140.5 720C1110.76 719.586 1082.26 713.419 1055 701.5C1041.21 695.105 1027.54 688.439 1014 681.5C978.163 659.078 941.829 637.411 905 616.5C853.582 587.957 799.916 564.624 744 546.5C723.386 540.097 702.386 535.43 681 532.5C686.191 528.065 691.191 523.399 696 518.5C733.919 516.583 770.919 521.583 807 533.5C861.363 551.517 912.363 576.184 960 607.5C979.529 620.431 998.529 634.098 1017 648.5C1042.07 666.374 1068.73 681.708 1097 694.5C1144.08 712.672 1191.08 712.339 1238 693.5C1249.92 688.871 1261.59 683.704 1273 678ZM368 519C369.373 518.843 370.707 519.01 372 519.5C294.053 573.24 207.72 596.906 113 590.5C127.195 588.394 141.195 585.394 155 581.5C199.678 567.498 244.345 553.498 289 539.5C315.25 531.855 341.583 525.022 368 519ZM684 519C686.687 518.836 689.354 519.003 692 519.5C687.477 523.267 683.143 527.267 679 531.5C673.942 532.161 668.942 531.828 664 530.5C668.667 527.167 673.333 523.833 678 520.5C680.208 520.309 682.208 519.809 684 519ZM670 521C671.052 520.851 672.052 521.017 673 521.5C669 524.5 665 527.5 661 530.5C656.612 531.077 652.279 530.744 648 529.5C654.918 525.192 662.252 522.359 670 521ZM515 522C529.945 527.578 529.278 529.412 513 527.5C512.543 527.086 512.209 526.586 512 526C513.024 524.648 514.024 523.315 515 522ZM468 523C470.502 524.67 472.502 526.836 474 529.5C469.324 530.206 464.657 530.54 460 530.5C462.932 528.215 465.598 525.715 468 523ZM525 524C530.403 525.185 535.737 526.685 541 528.5C534.922 529.221 529.589 527.721 525 524ZM646 526C647.052 525.851 648.052 526.017 649 526.5C646.422 528.165 643.755 529.165 641 529.5C642.455 527.874 644.122 526.708 646 526ZM488 530C492.673 529.009 496.006 530.676 498 535C494.624 538.378 490.957 541.378 487 544C483.877 539.922 480.877 535.755 478 531.5C481.525 531.321 484.859 530.821 488 530ZM497 531C498.788 529.878 500.788 529.711 503 530.5C501.163 533.602 499.163 533.769 497 531ZM506 530C508.357 529.837 510.69 530.003 513 530.5C517.667 534.5 522.333 538.5 527 542.5C521.36 544.03 515.693 545.03 510 545.5C507.37 541.868 504.37 538.535 501 535.5C502.873 533.796 504.54 531.963 506 530ZM516 531C525.461 528.19 533.794 530.19 541 537C538.621 540.365 535.287 542.032 531 542C525.708 538.704 520.708 535.037 516 531ZM1194 530C1211.91 534.476 1229.91 538.643 1248 542.5C1228.74 543.574 1210.74 539.407 1194 530ZM537 532C540.476 530.857 544.142 530.69 548 531.5C546.333 532.667 544.667 533.833 543 535C540.966 533.941 538.966 532.941 537 532ZM465 532C468.682 531.835 472.348 532.001 476 532.5C479.196 536.864 482.196 541.364 485 546C481.814 549.021 478.48 551.854 475 554.5C473.556 555.281 472.223 555.114 471 554C467.378 546.92 463.378 540.087 459 533.5C461.208 533.309 463.208 532.809 465 532ZM550 532C554.738 533.198 559.405 534.698 564 536.5C559.144 537.241 554.311 538.074 549.5 539C548.01 538.183 546.51 537.35 545 536.5C546.563 534.764 548.23 533.264 550 532ZM625 532C628.018 531.835 631.018 532.002 634 532.5C627.466 540.674 619.466 542.341 610 537.5C615.071 535.535 620.071 533.702 625 532ZM642 532C647.099 531.675 652.099 532.175 657 533.5C651.833 537.333 646.667 541.167 641.5 545C637.327 543.747 633.16 542.414 629 541C633.188 537.743 637.521 534.743 642 532ZM562 533C567.698 533.096 573.365 533.596 579 534.5C575.818 534.907 572.651 535.407 569.5 536C566.633 535.661 564.133 534.661 562 533ZM608 533C610.357 532.837 612.69 533.003 615 533.5C611.74 534.475 608.573 535.642 605.5 537C602.641 536.327 599.808 535.493 597 534.5C600.856 534.323 604.523 533.823 608 533ZM660 533C665.387 532.905 670.72 533.405 676 534.5C670.198 539.3 664.698 544.467 659.5 550C654.755 548.308 649.921 546.808 645 545.5C649.898 541.092 654.898 536.926 660 533ZM1305 550C1253.77 567.289 1205.1 561.789 1159 533.5C1184.66 539.811 1210.33 546.477 1236 553.5C1259.2 556.154 1282.2 554.987 1305 550ZM455 534C456.517 534.011 457.684 534.677 458.5 536C462 542.333 465.5 548.667 469 555C443.385 563.151 417.718 570.984 392 578.5C414.119 565.12 435.119 550.286 455 534ZM445 535C446.699 534.84 448.366 535.006 450 535.5C427.632 553.854 403.632 569.854 378 583.5C321.97 602.341 265.303 619.007 208 633.5C160.787 637.612 114.454 632.945 69 619.5C86 619.167 103 618.833 120 618.5C142.565 615.608 165.232 614.274 188 614.5C259.332 609.056 324.998 587.056 385 548.5C404.989 543.333 424.989 538.833 445 535ZM1258 690C1214.27 718.241 1166.27 733.241 1114 735C1084.79 734.659 1056.46 729.492 1029 719.5C1015.51 714.558 1002.17 709.225 989 703.5C922.05 667.858 854.383 633.525 786 600.5C745.615 581.483 704.282 564.816 662 550.5C667.032 545.133 672.365 540.133 678 535.5C695.669 536.299 713.002 539.299 730 544.5C782.692 560.179 833.359 580.845 882 606.5C920.321 626.988 957.655 648.988 994 672.5C1019.14 687.571 1045.48 700.238 1073 710.5C1122.79 726.903 1172.12 725.569 1221 706.5C1233.59 701.537 1245.92 696.037 1258 690ZM580 536C588.698 535.565 588.864 537.232 580.5 541C577.94 539.97 575.44 538.803 573 537.5C575.536 537.314 577.869 536.814 580 536ZM590 536C593.52 536.305 596.853 537.138 600 538.5C595.487 540.004 590.987 541.504 586.5 543C585.667 542.667 584.833 542.333 584 542C586.033 539.993 588.033 537.993 590 536ZM498 537C502.101 539.265 505.434 542.432 508 546.5C502.365 548.029 496.698 549.029 491 549.5C489.289 548.367 488.789 546.867 489.5 545C492.833 542.833 495.666 540.166 498 537ZM543 538C543.876 537.869 544.543 538.202 545 539C542.692 540.373 542.025 540.04 543 538ZM565 538C570.058 538.527 574.724 540.193 579 543C575.553 547.762 570.886 549.928 565 549.5C560.667 546.5 556.333 543.5 552 540.5C556.515 539.886 560.848 539.052 565 538ZM604 539C609.478 539.229 614.811 540.229 620 542C615.063 545.386 609.896 548.386 604.5 551C599.276 548.971 594.109 546.805 589 544.5C594.214 542.932 599.214 541.099 604 539ZM545 541C551.672 542.979 557.672 546.312 563 551C557.573 553.462 552.073 555.796 546.5 558C542.633 553.798 538.467 549.965 534 546.5C535.849 545.407 537.516 544.074 539 542.5C541.208 542.309 543.208 541.809 545 541ZM29 542C33.0138 541.834 37.0138 542.001 41 542.5C70.2325 549.657 99.8992 552.657 130 551.5C109.957 558.042 89.4569 562.542 68.5 565C46.7976 560.766 25.9643 553.932 6 544.5C13.8045 543.568 21.4711 542.735 29 542ZM1322 542C1319.99 543.424 1317.65 544.09 1315 544C1317.01 542.576 1319.35 541.91 1322 542ZM626 543C630.728 543.849 635.395 545.015 640 546.5C634.167 551 628.333 555.5 622.5 560C619.746 558.373 616.912 556.873 614 555.5C618.204 551.464 622.204 547.298 626 543ZM528 544C529.127 544.622 530.127 545.455 531 546.5C527.261 550.117 523.428 553.617 519.5 557C517.874 554.372 515.874 552.039 513.5 550C513.017 549.052 512.851 548.052 513 547C518.244 546.618 523.244 545.618 528 544ZM622 544C618.704 547.798 615.204 551.464 611.5 555C610.081 554.04 608.581 553.207 607 552.5C611.73 549.136 616.73 546.303 622 544ZM1315 544C1279.17 555.76 1243.17 555.927 1207 544.5C1227.57 546.769 1248.24 548.269 1269 549C1284.52 548.942 1299.85 547.276 1315 544ZM1256 544C1262.41 543.683 1268.74 544.183 1275 545.5C1264.67 546.167 1254.33 546.167 1244 545.5C1248.19 545.324 1252.19 544.824 1256 544ZM584 546C590.277 547.301 596.277 549.467 602 552.5C595.918 555.623 590.085 559.123 584.5 563C580.064 560.197 575.897 557.031 572 553.5C575.291 549.697 579.291 547.197 584 546ZM642 547C647.345 548.392 652.678 549.892 658 551.5C652.667 556.833 647.333 562.167 642 567.5C641 568.167 640 568.167 639 567.5C634.302 565.151 629.636 562.818 625 560.5C630.854 556.136 636.521 551.636 642 547ZM482 552C483.761 547.757 486.094 547.257 489 550.5C486.76 551.477 484.427 551.977 482 552ZM509 548C512.135 551.308 515.135 554.808 518 558.5C513.5 562.333 509 566.167 504.5 570C500.667 564.333 496.833 558.667 493 553C498.296 551.013 503.629 549.346 509 548ZM532 548C536.424 550.918 540.424 554.418 544 558.5C538.579 560.863 533.079 563.029 527.5 565C524.679 563.513 522.513 561.346 521 558.5C524.741 554.984 528.408 551.484 532 548ZM1312 548C1309.99 549.424 1307.65 550.09 1305 550C1307.01 548.576 1309.35 547.91 1312 548ZM374 551C375.879 550.893 376.212 551.393 375 552.5C308.616 592.514 236.616 612.847 159 613.5C182.271 608.52 205.271 602.52 228 595.5C276.692 580.333 325.359 565.5 374 551ZM1243 702C1194.81 732.895 1141.97 749.228 1084.5 751C1045.81 750.128 1008.31 742.962 972 729.5C950.259 721.475 928.926 712.475 908 702.5C818.674 660.004 730.34 615.67 643 569.5C648.848 563.485 654.848 557.652 661 552C712.919 570.125 763.586 591.292 813 615.5C869.803 643.734 926.137 672.734 982 702.5C1008.31 714.987 1035.65 724.654 1064 731.5C1108.85 741.089 1152.85 738.089 1196 722.5C1212.06 716.536 1227.73 709.703 1243 702ZM487 553C488.478 552.738 489.811 553.071 491 554C494.916 559.496 498.582 565.163 502 571C498.127 575.774 493.127 578.774 487 580C485.051 578.793 483.551 577.127 482.5 575C479.787 569.406 476.953 563.906 474 558.5C474.405 557.555 475.072 556.888 476 556.5C479.833 555.466 483.499 554.3 487 553ZM564 553C565.603 552.812 566.937 553.312 568 554.5C563.533 557.965 559.367 561.798 555.5 566C553.295 563.46 550.795 561.293 548 559.5C553.554 557.6 558.887 555.434 564 553ZM603 554C605.726 553.764 608.059 554.597 610 556.5C605.667 560.833 601.333 565.167 597 569.5C593.08 569.035 589.747 567.201 587 564C592.398 560.642 597.731 557.308 603 554ZM569 556C573.659 557.801 577.992 560.301 582 563.5C576.164 567.252 570.164 570.752 564 574C561.516 572.017 559.183 569.85 557 567.5C560.895 563.435 564.895 559.602 569 556ZM612 557C614.801 558.235 617.468 559.735 620 561.5C614.698 566.481 609.031 570.981 603 575C600.87 574.033 598.87 572.866 597 571.5C602.503 567.163 607.503 562.33 612 557ZM468 558C469.879 557.893 470.212 558.393 469 559.5C357.664 645.496 232.998 673.83 95 644.5C119.037 645.565 143.037 644.899 167 642.5C190.536 638.26 214.203 634.926 238 632.5C287.722 624.815 334.722 609.148 379 585.5C408.628 575.788 438.295 566.621 468 558ZM363 625C402.099 608.034 438.265 586.367 471.5 560C475.793 567.085 479.96 574.251 484 581.5C444.066 597.135 403.733 611.635 363 625ZM519 560C520.533 561.855 522.2 563.688 524 565.5C518.266 568.191 512.432 570.691 506.5 573C505.833 572.333 505.833 571.667 506.5 571C510.86 567.468 515.027 563.801 519 560ZM545 560C548.419 561.912 551.419 564.412 554 567.5C549.146 571.855 544.146 576.022 539 580C535.176 576.007 531.509 571.84 528 567.5C533.692 564.887 539.359 562.387 545 560ZM623 562C628.465 564.566 633.798 567.399 639 570.5C633.167 576.333 627.333 582.167 621.5 588C615.738 584.536 610.238 580.703 605 576.5C611.188 571.803 617.188 566.969 623 562ZM584 565C587.181 567.337 590.514 569.504 594 571.5C588.819 576.848 583.485 582.015 578 587C574 583.333 570 579.667 566 576C572.04 572.272 578.04 568.605 584 565ZM190 568C162.212 578.367 133.545 585.7 104 590C76.8137 586.453 50.4804 579.62 25 569.5C39.0275 569.115 53.0275 568.281 67 567C87.6787 570.575 108.512 572.575 129.5 573C149.776 572.556 169.943 570.889 190 568ZM524 568C526.216 568.703 528.049 570.036 529.5 572C532.192 575.192 534.692 578.525 537 582C532.286 586.881 527.119 591.215 521.5 595C516.763 588.536 512.263 581.869 508 575C513.425 572.645 518.758 570.312 524 568ZM555 569C557.463 570.961 559.797 573.128 562 575.5C556.333 578.5 550.667 581.5 545 584.5C541.833 585.333 540.667 584.167 541.5 581C546.194 577.135 550.694 573.135 555 569ZM1230 713C1137.57 771.143 1039.24 783.31 935 749.5C823.236 710.625 719.569 657.125 624 589C629.652 582.848 635.485 576.848 641.5 571C731.109 618.721 821.942 664.221 914 707.5C947.886 724.106 983.22 736.772 1020 745.5C1073.22 757.869 1125.56 754.869 1177 736.5C1195.19 729.736 1212.86 721.903 1230 713ZM595 573C597.112 573.94 599.112 575.106 601 576.5C594.766 582.114 588.099 586.78 581 590.5C580.049 589.782 579.883 588.949 580.5 588C585.537 583.131 590.37 578.131 595 573ZM503 576C504.322 575.83 505.489 576.163 506.5 577C510.917 583.498 515.084 590.165 519 597C513.756 601.21 507.923 604.543 501.5 607C500.728 606.855 500.061 606.522 499.5 606C495.793 599.086 491.96 592.252 488 585.5C492.422 581.296 497.422 578.13 503 576ZM562 577C567.355 579.842 572.022 583.675 576 588.5C570.782 594.22 565.116 599.387 559 604C553.8 598.965 549.133 593.465 545 587.5C550.731 583.975 556.397 580.475 562 577ZM602 578C608.099 581.583 614.099 585.417 620 589.5C613.819 595.848 607.486 602.015 601 608C594.884 603.387 589.218 598.22 584 592.5C590.188 587.803 596.188 582.969 602 578ZM484 583C484.597 583.235 484.93 583.735 485 584.5C418.928 635.177 344.261 665.51 261 675.5C214.691 680.82 168.691 678.82 123 669.5C171.754 672.625 219.754 667.958 267 655.5C341.109 636.186 413.442 612.019 484 583ZM530 592C532.334 588.834 535.167 586.167 538.5 584C539.333 584.833 540.167 585.667 541 586.5C537.59 588.872 533.923 590.705 530 592ZM485 587C485.996 586.914 486.829 587.248 487.5 588C490.798 594.791 494.298 601.458 498 608C417.102 649.021 331.769 676.521 242 690.5C202.594 695.053 163.261 694.386 124 688.5C88.9734 680.16 55.6401 667.493 24 650.5C41.1762 654.792 58.5096 658.792 76 662.5C95.1524 665.327 114.152 668.994 133 673.5C257.63 693.113 371.63 667.113 475 595.5C478.525 592.802 481.858 589.969 485 587ZM542 588C546.761 593.936 551.761 599.769 557 605.5C551.147 610.854 545.147 616.02 539 621C533.116 613.94 527.783 606.44 523 598.5C529.717 595.48 536.051 591.98 542 588ZM2 591C2.41695 590.376 3.08362 590.043 4 590C14.9387 591.694 25.9387 592.861 37 593.5C68.3303 605.082 100.664 612.082 134 614.5C108.37 618.139 82.7033 618.472 57 615.5C37.9328 608.966 19.5994 600.799 2 591ZM577 590C580.078 591.164 580.412 592.664 578 594.5C573 598.167 568 601.833 563 605.5C562.333 606.167 561.667 606.167 561 605.5C566.837 600.83 572.17 595.663 577 590ZM363 591C319.537 612.874 273.537 626.374 225 631.5C271.344 619.107 317.344 605.607 363 591ZM1210 728C1109.97 788.693 1003.63 802.526 891 769.5C782.942 736.829 686.942 683.495 603 609.5C609.181 603.152 615.514 596.985 622 591C711.531 653.776 807.864 704.61 911 743.5C961.942 762.768 1014.61 771.435 1069 769.5C1100.63 767.259 1131.3 760.593 1161 749.5C1177.59 742.871 1193.92 735.704 1210 728ZM581 594C587.283 598.946 593.283 604.28 599 610C592.676 616.156 586.176 622.156 579.5 628C573.667 621.5 567.833 615 562 608.5C568.762 604.131 575.095 599.298 581 594ZM519 600C520.175 599.781 521.175 600.114 522 601C526.805 608.305 531.805 615.471 537 622.5C530.131 626.866 523.131 631.032 516 635C511.54 627.582 507.207 620.082 503 612.5C508.52 608.47 513.853 604.303 519 600ZM499 610C500.145 611.293 499.811 612.459 498 613.5C394.19 685.449 279.523 712.449 154 694.5C204 697.889 253.333 693.555 302 681.5C370.5 665.059 436.167 641.226 499 610ZM559 610C561.216 610.703 563.049 612.036 564.5 614C569 619.167 573.5 624.333 578 629.5C571.144 635.191 564.144 640.691 557 646C550.737 638.987 545.071 631.487 540 623.5C546.514 619.137 552.847 614.637 559 610ZM1195 740C1069.37 815.649 937.699 827.815 800 776.5C715.102 744.885 642.102 695.885 581 629.5C587.833 623.333 594.667 617.167 601.5 611C674.028 675.215 756.194 724.048 848 757.5C899.772 777.688 953.439 788.188 1009 789C1053.39 788.821 1096.39 780.988 1138 765.5C1157.48 758.062 1176.48 749.562 1195 740ZM13 613C13.2352 612.403 13.7352 612.07 14.5 612C29.5807 614.726 44.7473 616.892 60 618.5C101.608 631.825 144.275 638.158 188 637.5C152.474 643.433 116.807 644.433 81 640.5C57.3149 633.774 34.6482 624.607 13 613ZM500 614C500.876 613.869 501.543 614.202 502 615C505.873 622.247 509.873 629.414 514 636.5C436.094 681.135 352.427 708.135 263 717.5C174.203 725.609 91.536 706.943 15 661.5C33.2878 668.261 51.9544 674.261 71 679.5C113.145 689.929 155.812 697.263 199 701.5C301.736 706.485 396.403 681.485 483 626.5C488.734 622.312 494.401 618.146 500 614ZM537 625C543.238 631.933 548.905 639.433 554 647.5C547.441 653.22 540.441 658.387 533 663C527.639 655.457 522.639 647.624 518 639.5C524.402 634.646 530.735 629.813 537 625ZM1175 755C1095.73 803.251 1009.56 828.584 916.5 831C783.488 826.929 672.154 776.262 582.5 679C574.333 668.833 566.167 658.667 558 648.5C565 642.667 572 636.833 579 631C663.687 721.7 767.354 779.2 890 803.5C976.553 817.897 1059.89 807.23 1140 771.5C1151.69 765.988 1163.36 760.488 1175 755ZM22 633C41.1932 636.921 60.5265 640.088 80 642.5C141.212 659.694 203.212 663.194 266 653C212.266 668.12 157.6 671.953 102 664.5C73.9611 657.215 47.2944 646.715 22 633ZM509 642C508.527 643.406 507.527 644.073 506 644C506.473 642.594 507.473 641.927 509 642ZM506 644C417.414 701.651 320.081 727.484 214 721.5C299.135 720.549 380.468 702.549 458 667.5C474.176 659.912 490.176 652.078 506 644ZM1162 766C1090.55 809.988 1013.22 838.488 930 851.5C830.118 864.859 737.785 844.526 653 790.5C604.396 757.232 564.729 715.565 534 665.5C541.195 660.139 548.528 654.972 556 650C638.981 757.014 748.314 817.514 884 831.5C966.459 836.408 1045.13 821.408 1120 786.5C1134.18 779.912 1148.18 773.078 1162 766ZM1215 725C1213.84 726.75 1212.17 727.75 1210 728C1211.16 726.25 1212.83 725.25 1215 725ZM1182 751C1180.84 752.75 1179.17 753.75 1177 754C1178.16 752.25 1179.83 751.25 1182 751Z" clip-rule="evenodd" opacity=".54"/></svg>