<svg width="1440" height="441" viewBox="0 0 1440 441" fill="none" xmlns="http://www.w3.org/2000/svg">
<path d="M478.542 4.22859C693.233 3.3295 907.924 2.25328 1122.61 1C1210.71 91.2361 1270.78 221.686 1380.47 259.284C1473.75 291.325 1552.62 319.442 1638.33 385.975C1025.85 384.994 413.406 384.994 -199 385.975C-139.682 351.033 -81.1116 314.987 -16.9631 304.239C35.3104 295.33 87.5263 304.811 139.857 300.397C283.94 288.015 365.427 107.624 478.542 4.22859Z" stroke="#7f4EFF" stroke-opacity="0.2" stroke-width="0.867407" stroke-miterlimit="10"/>
<path d="M-49.3252 310.781C213.422 346.867 471.684 445.358 736.904 442.007C1002.12 438.656 1259.87 336.527 1523.13 305.713" stroke="#7f4EFF" stroke-opacity="0.2" stroke-width="0.867407" stroke-miterlimit="10"/>
<path d="M62.9467 299.705C284.347 387.285 515.408 546.097 750.15 529.055C986.962 511.891 1209.71 355.98 1437.35 276.084" stroke="#7f4EFF" stroke-opacity="0.2" stroke-width="0.867407" stroke-miterlimit="10"/>
<path d="M150.33 299.707C344.386 400.936 548.39 543.034 760.59 521.864C973.392 500.572 1171.07 350.955 1370.76 256.959" stroke="#7f4EFF" stroke-opacity="0.2" stroke-width="0.867407" stroke-miterlimit="10"/>
<path d="M220.056 278.458C394.991 357.783 582.06 457.459 768.898 434.614C957.779 411.524 1137.69 307.352 1317.71 230.275" stroke="#7f4EFF" stroke-opacity="0.2" stroke-width="0.867407" stroke-miterlimit="10"/>
<path d="M277.159 234.561C439.903 290.182 607.16 347.601 775.798 330.477C945.213 313.272 1109.91 245.554 1274.44 189.974" stroke="#7f4EFF" stroke-opacity="0.2" stroke-width="0.867407" stroke-miterlimit="10"/>
<path d="M324.714 182.862C476.215 218.171 627.773 245.798 781.575 235.745C935.376 225.691 1087.11 183.066 1238.44 146.04" stroke="#7f4EFF" stroke-opacity="0.2" stroke-width="0.867407" stroke-miterlimit="10"/>
<path d="M364.969 132.436C649.626 173.304 924.651 151.195 1208.04 104.646" stroke="#7f4EFF" stroke-opacity="0.2" stroke-width="0.867407" stroke-miterlimit="10"/>
<path d="M399.45 88.0972C660.875 108.245 921.092 95.1265 1182.06 68.8076" stroke="#7f4EFF" stroke-opacity="0.2" stroke-width="0.867407" stroke-miterlimit="10"/>
<path d="M429.237 51.7573C672.576 59.563 916.26 52.8607 1159.57 39.4969" stroke="#7f4EFF" stroke-opacity="0.2" stroke-width="0.867407" stroke-miterlimit="10"/>
<path d="M455.452 24.0116C683.551 25.442 911.766 22.5812 1139.78 17.2275" stroke="#7f4EFF" stroke-opacity="0.2" stroke-width="0.867407" stroke-miterlimit="10"/>
<path d="M1063.63 1.28699C1127.32 94.5064 1173.55 273.303 1265.96 315.397C1294.95 328.638 1323.47 321.527 1353 324.796C1399.01 329.905 1430 349.317 1468.3 385.648" stroke="#7f4EFF" stroke-opacity="0.2" stroke-width="0.867407" stroke-miterlimit="10"/>
<path d="M1004.8 1.61475C1037.23 75.4628 1058.36 149.638 1083.87 228.676C1095.14 263.536 1120.79 359.453 1151.93 378.048C1207.56 411.396 1238.56 329.374 1299.03 385.731" stroke="#7f4EFF" stroke-opacity="0.2" stroke-width="0.867407" stroke-miterlimit="10"/>
<path d="M946.054 1.94165C966.182 84.0859 981.047 166.966 995.424 251.644C1000.92 283.929 1014.52 422.144 1038.18 438.123C1075.13 463.094 1095.69 329.293 1130.19 385.894" stroke="#7f4EFF" stroke-opacity="0.2" stroke-width="0.867407" stroke-miterlimit="10"/>
<path d="M887.358 2.2301C896.616 102.683 903.057 203.3 909.412 304.202C913.265 365.504 912.431 437.431 928.475 495.627C939.142 472.496 941.73 381.769 962.145 386.019" stroke="#7f4EFF" stroke-opacity="0.2" stroke-width="0.867407" stroke-miterlimit="10"/>
<path d="M828.726 2.4762C821.624 176.491 827.719 357.822 809.921 530.325C803.624 493.789 812.279 411.808 794.538 385.98" stroke="#7f4EFF" stroke-opacity="0.2" stroke-width="0.867407" stroke-miterlimit="10"/>
<path d="M770.196 2.63647C749.321 121.848 739.286 240.569 724.996 361.701C722.724 381.072 715.622 521.862 698.859 531.221C661.624 552.063 669.56 382.871 627.522 385.976" stroke="#7f4EFF" stroke-opacity="0.2" stroke-width="0.867407" stroke-miterlimit="10"/>
<path d="M711.738 2.71521C678.93 106.397 660.442 213.266 638.848 322.179C634.219 345.473 614.552 484.383 586.402 505.021C533.238 543.927 520.27 342.245 461.067 386.014" stroke="#7f4EFF" stroke-opacity="0.2" stroke-width="0.867407" stroke-miterlimit="10"/>
<path d="M653.332 3.21118C605.17 102.602 579.953 213.067 544.731 321.98C535.185 351.486 504.85 460.481 474.256 472.986C407.031 500.449 368.559 315.196 295.152 385.815" stroke="#7f4EFF" stroke-opacity="0.2" stroke-width="0.867407" stroke-miterlimit="10"/>
<path d="M594.991 3.57739C540.36 85.313 506.891 183.641 463.445 277.105C439.522 328.558 408.612 403.796 362.406 416.955C321.979 428.275 285.261 388.593 248.14 372.246C203.63 352.629 171.714 357.697 129.82 385.65" stroke="#7f4EFF" stroke-opacity="0.2" stroke-width="0.867407" stroke-miterlimit="10"/>
<path d="M536.756 3.9845C449.375 105.091 374.616 340.694 250.977 358.513C204.339 365.215 157.673 339.386 111.294 335.668C57.87 331.376 13.0149 352.75 -34.8593 385.649" stroke="#7f4EFF" stroke-opacity="0.2" stroke-width="0.867407" stroke-miterlimit="10"/>
</svg>
