<svg xmlns="http://www.w3.org/2000/svg" width="1920" height="858" fill="none" viewBox="0 0 1920 858"><path fill="#7f4EFF" fill-rule="evenodd" d="M604.5 -0.5C610.833 -0.5 617.167 -0.5 623.5 -0.5C691.522 2.33619 751.856 25.1695 804.5 68C825.063 86.3432 841.896 107.51 855 131.5C863.982 150.803 873.982 169.469 885 187.5C897.358 204.485 911.358 220.152 927 234.5C955.621 269.068 981.288 305.734 1004 344.5C1017.33 363.167 1030.67 381.833 1044 400.5C1049.17 406.333 1054.33 412.167 1059.5 418C1090.74 423.744 1121.41 421.41 1151.5 411C1167.97 405.1 1183.97 398.1 1199.5 390C1227.07 373.381 1255.4 358.048 1284.5 344C1307.58 333.688 1331.75 327.855 1357 326.5C1370.55 327.009 1383.72 329.509 1396.5 334C1408.8 334.828 1420.8 337.161 1432.5 341C1489.93 351.961 1547.26 363.461 1604.5 375.5C1629.96 349.541 1655.63 323.707 1681.5 298C1700.57 280.607 1721.57 265.941 1744.5 254C1777.58 240.787 1809.58 243.12 1840.5 261C1854.34 269.17 1867.34 278.504 1879.5 289C1893.37 301.7 1906.7 314.867 1919.5 328.5C1919.5 329.5 1919.5 330.5 1919.5 331.5C1906.7 317.867 1893.37 304.7 1879.5 292C1863.22 277.519 1845.22 265.519 1825.5 256C1790.75 241.879 1757.75 245.212 1726.5 266C1710.08 276.552 1694.75 288.552 1680.5 302C1655.96 326.043 1631.96 350.543 1608.5 375.5C1609.36 376.583 1610.36 376.749 1611.5 376C1643.02 345.467 1676.02 316.8 1710.5 290C1729.82 276.007 1751.16 266.34 1774.5 261C1800.53 257.589 1824.86 262.589 1847.5 276C1873.98 292.304 1897.98 311.804 1919.5 334.5C1919.5 335.5 1919.5 336.5 1919.5 337.5C1898.04 315.191 1874.37 295.691 1848.5 279C1815.63 258.937 1781.63 256.604 1746.5 272C1719.91 285.455 1695.58 302.121 1673.5 322C1653.2 339.965 1633.2 358.298 1613.5 377C1614.5 377.667 1615.5 377.667 1616.5 377C1647.36 350.802 1679.36 326.136 1712.5 303C1733.67 289.165 1756.67 279.831 1781.5 275C1801.99 272.693 1821.65 275.693 1840.5 284C1854.32 290.406 1867.32 298.073 1879.5 307C1893.42 317.798 1906.76 329.298 1919.5 341.5C1919.5 342.5 1919.5 343.5 1919.5 344.5C1896.82 321.315 1871.15 302.148 1842.5 287C1810.85 273.001 1779.18 273.001 1747.5 287C1723.58 298.286 1701.25 311.953 1680.5 328C1661.54 342.62 1642.88 357.62 1624.5 373C1625.91 373.315 1627.24 372.982 1628.5 372C1657.48 350.036 1687.81 330.036 1719.5 312C1740.82 300.338 1763.49 292.671 1787.5 289C1810.24 287.215 1831.91 291.215 1852.5 301C1876.66 314.333 1898.99 330.167 1919.5 348.5C1919.5 349.5 1919.5 350.5 1919.5 351.5C1898.27 332.11 1874.93 315.61 1849.5 302C1817.15 287.434 1784.48 286.768 1751.5 300C1727.66 309.918 1704.99 321.918 1683.5 336C1668.99 345.754 1654.66 355.754 1640.5 366C1641.91 366.315 1643.24 365.982 1644.5 365C1673.86 345.819 1704.86 329.486 1737.5 316C1786.9 294.726 1834.24 298.393 1879.5 327C1893.27 336.279 1906.61 346.112 1919.5 356.5C1919.5 357.5 1919.5 358.5 1919.5 359.5C1899.22 341.749 1876.89 326.916 1852.5 315C1826.28 303.85 1799.28 301.516 1771.5 308C1746.66 313.92 1722.99 322.92 1700.5 335C1684.67 343.747 1669 352.747 1653.5 362C1668.72 355.061 1684.05 348.061 1699.5 341C1732.4 325.984 1766.9 317.484 1803 315.5C1835.33 316.945 1864.83 326.778 1891.5 345C1900.99 351.665 1910.33 358.498 1919.5 365.5C1919.5 366.167 1919.5 366.833 1919.5 367.5C1902.24 354.192 1883.91 342.359 1864.5 332C1836.44 318.661 1807.11 314.661 1776.5 320C1740.04 326.821 1705.37 338.821 1672.5 356C1687.73 351.068 1703.07 346.068 1718.5 341C1757.89 328.383 1797.89 325.717 1838.5 333C1868.33 341.581 1895.33 355.415 1919.5 374.5C1919.5 375.167 1919.5 375.833 1919.5 376.5C1903.05 364.766 1885.72 354.266 1867.5 345C1830.29 329.541 1791.95 326.208 1752.5 335C1729.97 339.51 1707.97 345.843 1686.5 354C1698.5 351.67 1710.5 349.003 1722.5 346C1764.69 336.726 1806.69 337.393 1848.5 348C1861.9 352.356 1874.9 357.69 1887.5 364C1898.39 370.271 1909.06 376.771 1919.5 383.5C1919.5 384.5 1919.5 385.5 1919.5 386.5C1866.02 347.05 1806.35 333.217 1740.5 345C1728.73 346.821 1717.06 349.154 1705.5 352C1724.23 349.745 1743.06 348.245 1762 347.5C1819.32 347.003 1871.82 362.336 1919.5 393.5C1919.5 394.5 1919.5 395.5 1919.5 396.5C1875.28 366.484 1826.28 350.984 1772.5 350C1756.8 349.61 1741.13 350.277 1725.5 352C1795.33 351.121 1860 368.621 1919.5 404.5C1919.5 405.167 1919.5 405.833 1919.5 406.5C1864.97 373.05 1805.64 355.883 1741.5 355C1786.41 359.645 1829.41 371.311 1870.5 390C1887.17 397.666 1903.5 405.833 1919.5 414.5C1919.5 415.5 1919.5 416.5 1919.5 417.5C1874.14 390.32 1825.47 371.82 1773.5 362C1795 367.919 1816 375.252 1836.5 384C1864.75 396.792 1892.42 410.625 1919.5 425.5C1919.5 426.167 1919.5 426.833 1919.5 427.5C1918.17 427.167 1916.83 426.833 1915.5 426.5C1916.44 427.974 1917.77 428.974 1919.5 429.5C1919.5 430.167 1919.5 430.833 1919.5 431.5C1871.7 404.844 1821.37 384.344 1768.5 370C1729.47 360.182 1690.47 360.182 1651.5 370C1648.58 371.528 1645.58 372.861 1642.5 374C1685.17 365.089 1727.84 365.422 1770.5 375C1822.61 387.98 1872.28 407.146 1919.5 432.5C1919.5 433.5 1919.5 434.5 1919.5 435.5C1918.17 435.833 1918.17 436.167 1919.5 436.5C1919.5 437.167 1919.5 437.833 1919.5 438.5C1917.07 438.786 1917.07 439.452 1919.5 440.5C1919.5 441.167 1919.5 441.833 1919.5 442.5C1918.17 442.833 1918.17 443.167 1919.5 443.5C1919.5 444.167 1919.5 444.833 1919.5 445.5C1916.83 445.833 1916.83 446.167 1919.5 446.5C1919.5 447.5 1919.5 448.5 1919.5 449.5C1918.17 449.833 1918.17 450.167 1919.5 450.5C1919.5 451.167 1919.5 451.833 1919.5 452.5C1918.58 451.697 1917.58 451.53 1916.5 452C1917.24 453.039 1918.24 453.539 1919.5 453.5C1919.5 454.167 1919.5 454.833 1919.5 455.5C1916.83 455.833 1916.83 456.167 1919.5 456.5C1919.5 457.5 1919.5 458.5 1919.5 459.5C1918.17 459.833 1918.17 460.167 1919.5 460.5C1919.5 461.167 1919.5 461.833 1919.5 462.5C1918.17 462.833 1918.17 463.167 1919.5 463.5C1919.5 464.167 1919.5 464.833 1919.5 465.5C1888.66 447.25 1855.99 433.083 1821.5 423C1815.23 421.014 1808.9 419.681 1802.5 419C1812.75 422.75 1822.75 427.083 1832.5 432C1851.43 443.271 1870.1 454.938 1888.5 467C1898.61 472.72 1908.94 477.887 1919.5 482.5C1919.5 483.167 1919.5 483.833 1919.5 484.5C1909.79 480.813 1900.46 476.313 1891.5 471C1869.67 456.58 1847.33 442.914 1824.5 430C1805.56 421.351 1785.89 415.351 1765.5 412C1775.84 415.337 1785.51 420.003 1794.5 426C1811.52 437.51 1828.19 449.51 1844.5 462C1850.84 466.503 1857.5 470.503 1864.5 474C1882.91 478.353 1901.24 482.853 1919.5 487.5C1919.5 488.833 1919.5 490.167 1919.5 491.5C1913.01 491.558 1913.01 492.224 1919.5 493.5C1919.5 494.167 1919.5 494.833 1919.5 495.5C1911.83 495.371 1911.83 496.371 1919.5 498.5C1919.5 499.167 1919.5 499.833 1919.5 500.5C1915.85 499.013 1912.19 497.513 1908.5 496C1906.17 495.333 1903.83 495.333 1901.5 496C1907.34 498.67 1913.34 500.836 1919.5 502.5C1919.5 503.167 1919.5 503.833 1919.5 504.5C1911.87 502.519 1904.53 499.685 1897.5 496C1895.17 495.333 1892.83 495.333 1890.5 496C1899.78 500.593 1909.45 504.093 1919.5 506.5C1919.5 507.167 1919.5 507.833 1919.5 508.5C1907.11 505.091 1895.11 500.591 1883.5 495C1881.17 494.833 1878.83 494.667 1876.5 494.5C1865.16 495.723 1853.82 495.723 1842.5 494.5C1829.98 496.488 1817.48 496.821 1805 495.5C1794.42 497.583 1783.76 498.25 1773 497.5C1729.8 500.02 1686.63 503.02 1643.5 506.5C1640.96 506.414 1638.46 506.08 1636 505.5C1601.16 512.998 1570 505.498 1542.5 483C1535.7 477.199 1529.2 471.032 1523 464.5C1465.34 524.494 1405.51 581.994 1343.5 637C1282.23 690.6 1216.23 737.6 1145.5 778C1085.96 811.736 1022.63 835.403 955.5 849C929.548 853.717 903.548 856.551 877.5 857.5C873.833 857.5 870.167 857.5 866.5 857.5C721.391 851.417 609.558 787.75 531 666.5C411.023 741.413 281.856 763.247 143.5 732C92.0032 719.346 44.0032 698.846 -0.5 670.5C-0.5 669.833 -0.5 669.167 -0.5 668.5C115.886 739.675 240.886 760.509 374.5 731C430.567 717.768 482.567 695.435 530.5 664C525.447 656.051 520.28 648.218 515 640.5C416.949 705.637 309.116 732.471 191.5 721C123.941 713.947 59.9414 695.114 -0.5 664.5C-0.5 663.5 -0.5 662.5 -0.5 661.5C24.576 675.576 50.9093 686.409 78.5 694C50.7457 683.456 24.4124 670.29 -0.5 654.5C-0.5 653.833 -0.5 653.167 -0.5 652.5C26.4872 663.551 54.1539 672.718 82.5 680C85.4853 680.868 88.4853 681.201 91.5 681C62.2203 671.573 34.2203 659.24 7.5 644C4.84605 643.059 2.17938 642.226 -0.5 641.5C-0.5 639.833 -0.5 638.167 -0.5 636.5C6.36336 641.596 14.03 645.096 22.5 647C41.5425 652.929 60.8759 657.262 80.5 660C55.8064 651.992 32.1398 641.659 9.5 629C6.23209 627.85 2.89876 627.016 -0.5 626.5C-0.5 625.833 -0.5 625.167 -0.5 624.5C2.16667 624.167 2.16667 623.833 -0.5 623.5C-0.5 622.5 -0.5 621.5 -0.5 620.5C3.79232 623.608 8.45898 626.108 13.5 628C30.2748 632.556 47.2748 635.556 64.5 637C54.0555 633.277 43.7222 629.277 33.5 625C22.2214 619.193 10.8881 613.693 -0.5 608.5C-0.5 607.5 -0.5 606.5 -0.5 605.5C15.4452 610.422 31.7786 613.255 48.5 614C31.5532 607.744 15.2199 600.244 -0.5 591.5C-0.5 590.167 -0.5 588.833 -0.5 587.5C9.487 588.799 19.487 589.632 29.5 590C19.3515 585.425 9.3515 580.592 -0.5 575.5C-0.5 574.833 -0.5 574.167 -0.5 573.5C11.7815 580.14 24.4482 585.974 37.5 591C56.8562 591.826 76.1896 591.492 95.5 590C69.2047 586.427 43.8713 579.427 19.5 569C12.8639 568.048 6.19719 567.548 -0.5 567.5C-0.5 566.833 -0.5 566.167 -0.5 565.5C3.18174 565.665 6.84841 565.499 10.5 565C6.80678 563.153 3.14011 561.32 -0.5 559.5C-0.5 558.833 -0.5 558.167 -0.5 557.5C5.35279 560.592 11.3528 563.426 17.5 566C32.1876 566.688 46.8542 566.355 61.5 565C39.9271 560.31 19.2604 553.143 -0.5 543.5C-0.5 542.833 -0.5 542.167 -0.5 541.5C9.91042 541.31 20.2438 540.476 30.5 539C19.8791 535.85 9.54578 532.016 -0.5 527.5C-0.5 526.833 -0.5 526.167 -0.5 525.5C12.3117 531.437 25.6451 535.771 39.5 538.5C54.4024 536.886 69.0691 534.053 83.5 530C59.2068 528.451 35.5402 523.785 12.5 516C8.16489 515.737 3.83156 515.903 -0.5 516.5C-0.5 515.833 -0.5 515.167 -0.5 514.5C5.99598 514.029 5.99598 513.029 -0.5 511.5C-0.5 510.833 -0.5 510.167 -0.5 509.5C3.41078 510.526 7.24412 511.86 11 513.5C22.0257 511.995 32.859 509.662 43.5 506.5C28.4634 503.742 13.7968 499.742 -0.5 494.5C-0.5 493.833 -0.5 493.167 -0.5 492.5C16.2159 498.637 33.3826 502.971 51 505.5C69.9708 499.1 88.8041 492.267 107.5 485C82.4186 485.563 57.5853 483.396 33 478.5C21.9919 481.877 10.8252 484.544 -0.5 486.5C-0.5 485.833 -0.5 485.167 -0.5 484.5C9.12713 482.927 18.4605 480.427 27.5 477C18.0587 474.464 8.72542 471.63 -0.5 468.5C-0.5 467.833 -0.5 467.167 -0.5 466.5C10.2521 470.14 21.0854 473.473 32 476.5C45.8165 471.005 59.6498 465.505 73.5 460C53.816 457.897 34.4826 454.063 15.5 448.5C10.1658 450.167 4.83243 451.834 -0.5 453.5C-0.5 452.833 -0.5 452.167 -0.5 451.5C3.51021 450.107 7.51021 448.607 11.5 447C7.58852 445.209 3.58852 443.709 -0.5 442.5C-0.5 441.833 -0.5 441.167 -0.5 440.5C4.55591 441.963 9.55591 443.63 14.5 445.5C25.5346 441.099 36.5346 436.599 47.5 432C31.0471 428.126 15.0471 422.96 -0.5 416.5C-0.5 415.833 -0.5 415.167 -0.5 414.5C16.0363 421.219 33.0363 426.552 50.5 430.5C63.053 425.057 75.7197 419.89 88.5 415C57.6809 411.379 28.0142 403.546 -0.5 391.5C-0.5 390.5 -0.5 389.5 -0.5 388.5C29.074 401.978 60.074 410.311 92.5 413.5C110.428 405.913 128.761 399.413 147.5 394C95.867 397.106 46.5337 387.94 -0.5 366.5C-0.5 365.5 -0.5 364.5 -0.5 363.5C49.1873 387.337 101.521 396.504 156.5 391C174.316 386.437 192.316 382.77 210.5 380C261.663 363.932 305.996 336.932 343.5 299C374.833 267 406.167 235 437.5 203C464.276 177.214 493.609 154.881 525.5 136C601.478 94.6693 681.478 84.0026 765.5 104C797.087 113.618 825.421 128.618 850.5 149C819.114 117.466 781.447 97.1331 737.5 88C643.676 70.7935 558.343 90.1269 481.5 146C454.91 167.42 429.743 190.587 406 215.5C378.203 246.298 349.369 276.131 319.5 305C241.405 368.184 153.405 387.517 55.5 363C36.1551 357.498 17.4884 350.331 -0.5 341.5C-0.5 340.833 -0.5 340.167 -0.5 339.5C79.7763 378.566 161.443 381.733 244.5 349C287.219 329.966 324.053 302.799 355 267.5C382.437 237.394 410.604 207.894 439.5 179C470.692 148.73 506.026 124.397 545.5 106C607.474 79.8547 671.474 73.1881 737.5 86C781.966 95.8847 820.299 116.051 852.5 146.5C811.675 101.919 761.009 76.0855 700.5 69C601.538 58.2086 516.205 86.8753 444.5 155C406.901 192.928 370.401 231.761 335 271.5C267.019 337.601 185.852 363.434 91.5 349C59.2553 342.974 28.5886 332.474 -0.5 317.5C-0.5 316.5 -0.5 315.5 -0.5 314.5C81.05 357.993 164.717 362.493 250.5 328C282.269 313.223 310.436 293.389 335 268.5C369.734 229.428 405.568 191.262 442.5 154C527.493 74.9139 626.826 48.5806 740.5 75C782.37 86.9209 818.37 107.754 848.5 137.5C811.473 94.4692 764.807 67.6359 708.5 57C608.641 38.7868 521.308 63.4535 446.5 131C409.826 167.332 374.993 205.166 342 244.5C283.23 309.104 210.063 338.27 122.5 332C78.642 328.102 37.642 315.268 -0.5 293.5C-0.5 292.833 -0.5 292.167 -0.5 291.5C44.9168 317.064 93.7501 330.397 146 331.5C224.251 330.328 289.251 300.661 341 242.5C373.42 203.91 407.586 166.743 443.5 131C518.911 62.0512 607.244 36.7179 708.5 55C761.865 65.1737 807.198 89.6737 844.5 128.5C838.441 120.265 831.775 112.431 824.5 105C777.585 63.3423 722.585 40.3423 659.5 36C578.763 29.8001 508.43 53.4668 448.5 107C436 119.5 423.5 132 411 144.5C387.626 170.872 364.626 197.538 342 224.5C284.389 290.864 211.556 320.031 123.5 312C89.9385 308.479 57.9385 299.479 27.5 285C18.2702 279.886 8.93683 275.052 -0.5 270.5C-0.5 269.5 -0.5 268.5 -0.5 267.5C77.0309 314.733 158.698 323.567 244.5 294C282.587 278.258 314.754 254.425 341 222.5C363.96 195.205 387.293 168.205 411 141.5C434.467 116.016 460.301 93.5155 488.5 74C540.813 42.7569 597.48 29.4236 658.5 34C724.578 38.4745 781.745 62.9745 830 107.5C834.333 112.5 838.667 117.5 843 122.5C843.167 122.167 843.333 121.833 843.5 121.5C814.646 82.5044 777.313 54.6711 731.5 38C659.858 11.3682 588.525 12.0349 517.5 40C481.645 57.1843 450.145 80.351 423 109.5C393.292 143.539 363.959 177.872 335 212.5C288.007 266.82 228.341 294.153 156 294.5C116.51 293.869 78.6764 285.702 42.5 270C27.7978 262.984 13.4645 255.484 -0.5 247.5C-0.5 246.5 -0.5 245.5 -0.5 244.5C64.5052 286.915 135.172 300.748 211.5 286C264.435 273.128 307.601 245.294 341 202.5C370.674 165.484 401.841 129.651 434.5 95C494.978 35.8349 567.644 10.1682 652.5 18C715.833 23.6842 771.166 47.3509 818.5 89C825.366 96.6971 832.366 104.197 839.5 111.5C819.789 82.6218 794.789 59.4551 764.5 42C694.873 2.91039 621.206 -7.42294 543.5 11C504.628 22.0932 470.628 41.4265 441.5 69C433.667 76.8333 425.833 84.6667 418 92.5C389.856 125.464 362.19 158.798 335 192.5C289.851 247.651 231.351 275.317 159.5 275.5C101.056 274.128 47.7228 257.128 -0.5 224.5C-0.5 223.833 -0.5 223.167 -0.5 222.5C47.698 255.12 101.031 272.12 159.5 273.5C230.924 273.032 289.091 245.366 334 190.5C361.285 156.279 389.285 122.613 418 89.5C446.985 57.1731 481.485 32.6731 521.5 16C548.495 6.39406 576.162 0.894057 604.5 -0.5ZM855.5 158.5C810.669 123.279 759.503 106.279 702 107.5C619.408 109.405 545.908 135.905 481.5 187C466.46 199.194 451.793 211.861 437.5 225C404.472 258.361 371.139 291.361 337.5 324C313.517 346.077 287.017 364.577 258 379.5C245.493 378.387 232.993 378.22 220.5 379C260.79 364.976 296.79 343.976 328.5 316C365.861 278.972 402.861 241.639 439.5 204C470.536 173.964 505.203 148.964 543.5 129C603.865 100.186 667.199 90.186 733.5 99C780.819 105.829 821.485 125.662 855.5 158.5ZM857.5 164.5C815.426 134.177 768.259 119.177 716 119.5C629.908 122.966 553.408 151.466 486.5 205C469.872 218.626 453.539 232.626 437.5 247C404.167 279 370.833 311 337.5 343C321.552 356.638 304.885 369.304 287.5 381C285.966 381.923 284.299 382.423 282.5 382.5C276.113 381.564 269.779 380.397 263.5 379C287.397 365.889 309.731 350.556 330.5 333C367.27 297.809 403.603 262.142 439.5 226C470.287 196.282 504.287 170.948 541.5 150C605.277 116.378 672.943 103.711 744.5 112C787.666 118.257 825.332 135.757 857.5 164.5ZM839.5 111.5C840.906 111.973 841.573 112.973 841.5 114.5C840.094 114.027 839.427 113.027 839.5 111.5ZM862.5 172.5C817.987 142.061 768.654 128.561 714.5 132C642.731 138.232 577.398 161.898 518.5 203C499.928 216.236 481.928 230.236 464.5 245C427.565 277.932 391.232 311.598 355.5 346C339.569 360.623 322.902 374.29 305.5 387C299.642 386.998 293.976 385.831 288.5 383.5C305.905 370.938 322.905 357.771 339.5 344C372.833 312 406.167 280 439.5 248C471.965 217.445 507.299 190.778 545.5 168C598.722 138.611 655.722 123.111 716.5 121.5C762.814 121.242 805.481 133.409 844.5 158C850.753 162.613 856.753 167.446 862.5 172.5ZM844.5 128.5C846.262 129.262 847.262 130.596 847.5 132.5C845.738 131.738 844.738 130.404 844.5 128.5ZM862.5 176.5C817.297 149.157 768.297 138.323 715.5 144C657.318 151.282 603.318 170.282 553.5 201C519.468 223.027 487.134 247.36 456.5 274C413.059 314.448 368.725 353.781 323.5 392C322.069 392.465 320.903 393.299 320 394.5C315.597 392.476 311.097 390.642 306.5 389C320.35 378.24 334.016 367.24 347.5 356C378.5 327 409.5 298 440.5 269C473.604 238.218 509.27 210.885 547.5 187C598.46 156.903 653.46 139.236 712.5 134C764.805 130.075 812.805 142.409 856.5 171C858.763 172.617 860.763 174.45 862.5 176.5ZM868.5 184.5C821.015 156.917 770.015 147.417 715.5 156C673.612 162.78 633.946 176.113 596.5 196C568.478 211.003 541.812 228.003 516.5 247C471.028 282.794 427.028 320.461 384.5 360C368 373.833 351.5 387.667 335 401.5C330.881 399.191 326.714 397.024 322.5 395C335.791 384.711 348.791 374.045 361.5 363C393.534 333.297 425.868 303.964 458.5 275C494.04 243.46 532.373 215.793 573.5 192C621.749 165.028 673.415 149.361 728.5 145C771.766 142.386 812.433 151.386 850.5 172C857.09 175.45 863.09 179.616 868.5 184.5ZM732.5 155.5C787.303 150.834 836.97 164.334 881.5 196C885.999 204.51 889.499 213.343 892 222.5C844.997 190.791 793.164 177.958 736.5 184C683.239 190.642 633.572 207.642 587.5 235C548.186 259.162 511.186 286.495 476.5 317C438.462 350.706 400.129 384.04 361.5 417C353.519 412.493 345.519 407.66 337.5 402.5C384.623 361.882 431.623 321.049 478.5 280C520.215 243.958 565.881 213.625 615.5 189C652.795 171.43 691.795 160.264 732.5 155.5ZM858.5 165.5C860.027 165.427 861.027 166.094 861.5 167.5C859.973 167.573 858.973 166.906 858.5 165.5ZM862.5 176.5C864.027 176.427 865.027 177.094 865.5 178.5C863.973 178.573 862.973 177.906 862.5 176.5ZM903.5 251.5C842.684 212.587 777.018 201.753 706.5 219C655.262 231.79 608.262 253.457 565.5 284C543.594 299.903 522.26 316.57 501.5 334C463.462 367.706 425.129 401.04 386.5 434C385.241 434.982 383.908 435.315 382.5 435C375.833 429.667 369.167 424.333 362.5 419C403.541 384.139 444.207 348.805 484.5 313C521.052 281.118 560.386 253.118 602.5 229C648.004 203.832 696.67 189.165 748.5 185C802.044 181.673 850.544 195.506 894 226.5C897.668 234.674 900.835 243.007 903.5 251.5ZM753.5 213.5C808.825 209.783 859.158 223.617 904.5 255C908.757 263.516 912.757 272.183 916.5 281C854.635 241.521 787.635 230.188 715.5 247C668.84 258.502 625.84 277.836 586.5 305C563.778 321.032 541.778 338.032 520.5 356C483.833 388 447.167 420 410.5 452C408.956 453.187 407.289 453.52 405.5 453C399.282 447.781 392.782 442.948 386 438.5C428.341 400.187 471.508 362.354 515.5 325C539.377 305.122 564.377 286.788 590.5 270C640.507 238.498 694.841 219.665 753.5 213.5ZM900.5 235.5C903.725 241.621 906.725 247.955 909.5 254.5C909.167 254.833 908.833 255.167 908.5 255.5C905.246 249.07 902.579 242.404 900.5 235.5ZM765.5 241.5C821.777 238.813 872.777 253.646 918.5 286C923.131 295.085 927.298 304.252 931 313.5C882.829 278.993 828.995 263.826 769.5 268C710.341 273.261 656.341 292.594 607.5 326C590.218 338.281 573.218 350.948 556.5 364C515.5 399.667 474.5 435.333 433.5 471C432.5 471.667 431.5 471.667 430.5 471C422.75 466.797 415.75 461.631 409.5 455.5C449.019 420.813 488.685 386.313 528.5 352C554.711 330.454 582.044 310.454 610.5 292C658.382 263.205 710.049 246.372 765.5 241.5ZM910.5 242.5C911.931 243.78 912.598 245.447 912.5 247.5C911.069 246.22 910.402 244.553 910.5 242.5ZM907.5 243.5C910.562 248.954 913.062 254.62 915 260.5C911.417 255.332 908.917 249.665 907.5 243.5ZM915.5 253.5C917.599 256.856 919.599 260.356 921.5 264C920.668 264.688 920.002 264.521 919.5 263.5C917.594 260.36 916.26 257.027 915.5 253.5ZM923.5 255.5C927.671 261.838 931.337 268.504 934.5 275.5C929.822 269.484 926.155 262.817 923.5 255.5ZM921.5 258.5C924.258 261.678 926.258 265.345 927.5 269.5C924.385 266.532 922.385 262.866 921.5 258.5ZM928.5 258.5C929.906 258.973 930.573 259.973 930.5 261.5C929.094 261.027 928.427 260.027 928.5 258.5ZM909.5 260.5C910.189 259.226 911.023 259.226 912 260.5C915.43 269.193 919.264 277.693 923.5 286C922.004 286.507 920.837 286.007 920 284.5C916.724 276.293 913.224 268.293 909.5 260.5ZM929.5 291.5C927.292 290.106 925.792 288.106 925 285.5C921.381 278.283 918.381 270.95 916 263.5C921.302 272.438 925.802 281.772 929.5 291.5ZM935.5 264.5C936.906 264.973 937.573 265.973 937.5 267.5C936.094 267.027 935.427 266.027 935.5 264.5ZM932.5 265.5C936.517 271.016 940.184 276.85 943.5 283C942.551 283.617 941.718 283.451 941 282.5C937.906 276.922 935.072 271.256 932.5 265.5ZM768.5 269.5C829.922 265.515 885.255 281.681 934.5 318C941.448 329.882 948.615 341.382 956 352.5C900.961 307.271 837.794 288.438 766.5 296C709.669 303.38 658.336 324.046 612.5 358C595.881 370.284 579.547 382.951 563.5 396C528.833 426.667 494.167 457.333 459.5 488C455.619 487.573 451.953 486.24 448.5 484C443.833 480.333 439.167 476.667 434.5 473C473.537 438.294 512.871 403.961 552.5 370C585.851 341.68 622.184 317.68 661.5 298C695.674 282.434 731.341 272.934 768.5 269.5ZM922.5 269.5C923.376 269.369 924.043 269.702 924.5 270.5C928.512 279.188 932.512 287.855 936.5 296.5C935.624 296.631 934.957 296.298 934.5 295.5C929.941 287.051 925.941 278.384 922.5 269.5ZM942.5 270.5C943.906 270.973 944.573 271.973 944.5 273.5C943.094 273.027 942.427 272.027 942.5 270.5ZM939.5 271.5C941.25 272.659 942.25 274.326 942.5 276.5C940.75 275.341 939.75 273.674 939.5 271.5ZM944.5 273.5C946.25 274.659 947.25 276.326 947.5 278.5C945.75 277.341 944.75 275.674 944.5 273.5ZM929.5 275.5C930.376 275.369 931.043 275.702 931.5 276.5C936.193 285.886 940.86 295.22 945.5 304.5C944.206 303.71 943.039 302.71 942 301.5C937.549 292.933 933.383 284.267 929.5 275.5ZM942.5 276.5C946.251 280.995 949.251 285.995 951.5 291.5C947.315 287.292 944.315 282.292 942.5 276.5ZM953.5 276.5C954.906 276.973 955.573 277.973 955.5 279.5C954.094 279.027 953.427 278.027 953.5 276.5ZM947.5 278.5C952.917 285.659 957.583 293.325 961.5 301.5C959.549 300.284 958.049 298.618 957 296.5C953.553 290.604 950.386 284.604 947.5 278.5ZM955.5 279.5C956.906 279.973 957.573 280.973 957.5 282.5C956.094 282.027 955.427 281.027 955.5 279.5ZM937.5 282.5C938.458 282.953 939.292 283.619 940 284.5C944.527 293.553 949.027 302.553 953.5 311.5C946.901 302.645 941.568 292.979 937.5 282.5ZM953.5 282.5C954.906 282.973 955.573 283.973 955.5 285.5C954.094 285.027 953.427 284.027 953.5 282.5ZM957.5 282.5C958.906 282.973 959.573 283.973 959.5 285.5C958.094 285.027 957.427 284.027 957.5 282.5ZM962.5 284.5C963.906 284.973 964.573 285.973 964.5 287.5C963.094 287.027 962.427 286.027 962.5 284.5ZM955.5 285.5C962.248 294.655 968.248 304.322 973.5 314.5C972.206 313.71 971.039 312.71 970 311.5C964.889 302.94 960.056 294.274 955.5 285.5ZM964.5 287.5C965.906 287.973 966.573 288.973 966.5 290.5C965.094 290.027 964.427 289.027 964.5 287.5ZM945.5 289.5C952.254 299.334 958.254 309.667 963.5 320.5C960.634 318.454 958.467 315.787 957 312.5C952.628 305.09 948.795 297.423 945.5 289.5ZM923.5 290.5C924.376 290.369 925.043 290.702 925.5 291.5C930.347 300.856 934.847 310.189 939 319.5C932.266 310.701 927.1 301.035 923.5 290.5ZM966.5 290.5C967.906 290.973 968.573 291.973 968.5 293.5C967.094 293.027 966.427 292.027 966.5 290.5ZM968.5 293.5C972.575 297.976 975.908 302.976 978.5 308.5C974.39 304.049 971.056 299.049 968.5 293.5ZM930.5 295.5C937.176 304.843 942.842 314.843 947.5 325.5C940.318 316.482 934.652 306.482 930.5 295.5ZM1138.5 522.5C1118.54 513.523 1100.21 502.023 1083.5 488C1051.26 459.43 1019.93 429.763 989.5 399C909.699 323.639 817.365 302.972 712.5 337C687.942 345.779 664.942 357.445 643.5 372C616.928 390.792 591.261 410.792 566.5 432C539.833 456 513.167 480 486.5 504C483.298 503.914 480.298 502.914 477.5 501C472.004 497.084 466.337 493.418 460.5 490C498.574 455.256 537.24 421.256 576.5 388C600.452 368.386 625.786 350.719 652.5 335C715.899 299.252 783.233 288.585 854.5 303C907.261 316.78 951.594 344.113 987.5 385C990.99 387.911 994.656 390.578 998.5 393C1025.56 420.063 1053.23 446.397 1081.5 472C1086.5 475.667 1091.5 479.333 1096.5 483C1109.74 497.076 1123.74 510.243 1138.5 522.5ZM954.5 298.5C956.451 299.716 957.951 301.382 959 303.5C964.424 312.74 969.59 322.073 974.5 331.5C972.164 329.996 970.331 327.996 969 325.5C963.908 316.592 959.075 307.592 954.5 298.5ZM956.5 332.5C955.504 332.586 954.671 332.252 954 331.5C948.373 321.747 942.873 311.914 937.5 302C938.996 301.493 940.163 301.993 941 303.5C946.192 313.221 951.358 322.887 956.5 332.5ZM970.5 303.5C972.451 304.716 973.951 306.382 975 308.5C979.444 315.726 983.61 323.059 987.5 330.5C980.655 322.305 974.988 313.305 970.5 303.5ZM946.5 308.5C953.917 318.993 960.584 329.993 966.5 341.5C958.252 331.557 951.586 320.557 946.5 308.5ZM966.5 311.5C968.451 312.716 969.951 314.382 971 316.5C976.111 325.06 980.944 333.726 985.5 342.5C977.915 333.01 971.582 322.677 966.5 311.5ZM955.5 316.5C956.794 317.29 957.961 318.29 959 319.5C965.022 330.33 971.189 340.997 977.5 351.5C968.593 340.904 961.259 329.238 955.5 316.5ZM794.5 322.5C861.196 321.45 919.863 342.283 970.5 385C1000.44 412.27 1029.77 440.27 1058.5 469C1077.06 486.272 1097.06 501.605 1118.5 515C1128.26 520.213 1138.26 524.88 1148.5 529C1170.34 544.06 1194.34 554.06 1220.5 559C1177.74 559.854 1139.07 547.854 1104.5 523C1096.65 517.241 1088.99 511.241 1081.5 505C1049.5 474.333 1017.5 443.667 985.5 413C906.612 346.825 818.279 330.492 720.5 364C702.997 370.752 686.33 379.085 670.5 389C638.783 410.041 608.783 433.374 580.5 459C559.467 479.035 538.134 498.701 516.5 518C515.5 518.667 514.5 518.667 513.5 518C505.622 513.894 497.622 510.061 489.5 506.5C488.289 505.726 488.289 504.893 489.5 504C520.5 476.333 551.5 448.667 582.5 421C605.037 401.793 628.704 384.127 653.5 368C696.789 341.07 743.789 325.903 794.5 322.5ZM941.5 324.5C943.074 324.937 944.241 325.937 945 327.5C950.272 336.392 955.772 345.059 961.5 353.5C953.28 344.939 946.613 335.273 941.5 324.5ZM978.5 324.5C980.887 326.913 983.054 329.58 985 332.5C989.857 340.888 994.69 349.222 999.5 357.5C991.255 347.355 984.255 336.355 978.5 324.5ZM966.5 327.5C967.794 328.29 968.961 329.29 970 330.5C976.689 341.999 983.522 353.333 990.5 364.5C986.202 359.929 982.369 354.929 979 349.5C974.556 342.274 970.39 334.941 966.5 327.5ZM1350.5 328.5C1363.03 328.42 1375.36 329.92 1387.5 333C1354.78 334.931 1323.78 343.264 1294.5 358C1266.99 372.256 1239.32 386.256 1211.5 400C1176.72 416.696 1140.05 425.862 1101.5 427.5C1089.02 427.169 1076.69 425.669 1064.5 423C1063.33 422.581 1062.33 421.915 1061.5 421C1089.84 425.195 1117.84 423.195 1145.5 415C1158.81 410.785 1171.81 405.785 1184.5 400C1206.16 388.507 1227.49 376.507 1248.5 364C1269.84 351.998 1292.18 342.331 1315.5 335C1327.16 331.967 1338.82 329.8 1350.5 328.5ZM949.5 330.5C950.794 331.29 951.961 332.29 953 333.5C958.416 341.401 963.583 349.401 968.5 357.5C961.007 349.336 954.674 340.336 949.5 330.5ZM992.5 332.5C997.826 338.476 1002.16 345.143 1005.5 352.5C1000.17 346.524 995.841 339.857 992.5 332.5ZM1381.5 335.5C1390.78 334.488 1399.45 336.321 1407.5 341C1376.71 343.697 1347.38 351.697 1319.5 365C1293.5 378 1267.5 391 1241.5 404C1202.1 422.726 1160.6 432.893 1117 434.5C1100.49 434.8 1084.33 432.633 1068.5 428C1067.83 427.333 1067.17 426.667 1066.5 426C1099.18 431.357 1131.51 429.357 1163.5 420C1178.46 415.457 1193.13 410.124 1207.5 404C1243.22 385.805 1279.22 368.139 1315.5 351C1336.85 342.435 1358.85 337.269 1381.5 335.5ZM1403.5 337.5C1409.71 337.415 1416.04 338.248 1422.5 340C1415.84 341.171 1409.51 340.337 1403.5 337.5ZM977.5 338.5C979.836 340.004 981.669 342.004 983 344.5C989.855 355.556 996.689 366.556 1003.5 377.5C993.596 365.368 984.929 352.368 977.5 338.5ZM959.5 339.5C964.23 343.586 967.896 348.586 970.5 354.5C966.479 349.804 962.812 344.804 959.5 339.5ZM1071.5 431.5C1113.11 439.764 1154.11 437.264 1194.5 424C1213.05 418.373 1231.05 411.373 1248.5 403C1273.86 390.318 1299.2 377.651 1324.5 365C1351.61 352.263 1380.11 344.763 1410 342.5C1413.74 344.284 1417.24 346.451 1420.5 349C1392.81 353.896 1366.14 362.229 1340.5 374C1312.48 388.034 1284.48 402.034 1256.5 416C1211.66 436.3 1164.66 445.3 1115.5 443C1101.85 441.871 1088.52 439.204 1075.5 435C1073.68 434.34 1072.34 433.173 1071.5 431.5ZM1414.5 343.5C1424.94 341.405 1434.94 342.905 1444.5 348C1438.3 348.227 1432.13 348.727 1426 349.5C1422.21 347.354 1418.37 345.354 1414.5 343.5ZM994.5 343.5C1001.49 352.146 1007.49 361.479 1012.5 371.5C1011.21 370.71 1010.04 369.71 1009 368.5C1003.91 360.262 999.079 351.928 994.5 343.5ZM1443.5 345.5C1443.92 344.876 1444.58 344.543 1445.5 344.5C1450.85 345.603 1456.18 346.769 1461.5 348C1455.33 348.312 1449.33 347.478 1443.5 345.5ZM1461.5 475.5C1415.27 511.136 1365.27 540.97 1311.5 565C1259.14 586.495 1206.47 587.495 1153.5 568C1138.76 561.571 1124.76 553.904 1111.5 545C1096.59 534.091 1082.25 522.424 1068.5 510C1043.83 486 1019.17 462 994.5 438C911.539 368.785 819.873 354.452 719.5 395C686.103 411.751 655.436 432.417 627.5 457C601.233 479.931 575.566 503.597 550.5 528C539.736 525.638 529.069 522.638 518.5 519C557.685 481.471 598.352 445.805 640.5 412C669.932 388.946 702.599 371.613 738.5 360C829.881 335.005 911.547 353.005 983.5 414C1009.78 438.274 1035.44 463.274 1060.5 489C1078.35 505.524 1097.35 520.524 1117.5 534C1147.31 551.87 1179.64 560.87 1214.5 561C1243.58 563.385 1272.24 561.052 1300.5 554C1340.67 542.577 1378.67 526.243 1414.5 505C1430.22 495.145 1445.89 485.312 1461.5 475.5ZM980.5 362.5C976.051 358.572 972.885 353.905 971 348.5C974.929 352.705 978.096 357.372 980.5 362.5ZM1441.5 349.5C1447.58 349.054 1452.91 350.888 1457.5 355C1450.33 356.834 1443 357.834 1435.5 358C1432.54 356.039 1429.87 353.706 1427.5 351C1432.35 350.826 1437.02 350.326 1441.5 349.5ZM1453.5 350.5C1462.59 349.555 1471.59 350.721 1480.5 354C1470.79 357.108 1461.79 355.941 1453.5 350.5ZM1078.5 438.5C1118.17 447.871 1157.84 447.705 1197.5 438C1216.44 433.798 1234.77 427.798 1252.5 420C1284.29 404.605 1315.96 388.938 1347.5 373C1371.31 362.338 1396.15 355.171 1422 351.5C1426.33 353.154 1430.17 355.654 1433.5 359C1413.27 363.187 1393.61 369.187 1374.5 377C1341.55 392.806 1308.89 409.139 1276.5 426C1218.88 453.87 1158.88 460.87 1096.5 447C1092.12 445.822 1087.79 444.488 1083.5 443C1081.34 442.004 1079.67 440.504 1078.5 438.5ZM1483.5 353.5C1483.74 352.903 1484.24 352.57 1485 352.5C1488.5 353.333 1492 354.166 1495.5 355C1491.35 355.669 1487.35 355.169 1483.5 353.5ZM961.5 353.5C963.262 354.262 964.262 355.596 964.5 357.5C962.738 356.738 961.738 355.404 961.5 353.5ZM991.5 353.5C997.823 360.804 1003.16 368.804 1007.5 377.5C1001.18 370.196 995.844 362.196 991.5 353.5ZM970.5 354.5C972.262 355.262 973.262 356.596 973.5 358.5C971.738 357.738 970.738 356.404 970.5 354.5ZM1470.5 356.5C1479.97 355.052 1488.64 356.885 1496.5 362C1489.28 362.474 1482.11 363.307 1475 364.5C1471.57 362.739 1468.4 360.572 1465.5 358C1467.38 357.802 1469.05 357.302 1470.5 356.5ZM1915.5 426.5C1890.55 413.858 1865.22 402.025 1839.5 391C1797.4 372.641 1753.4 362.474 1707.5 360.5C1695.46 361.336 1683.46 362.169 1671.5 363C1706.98 353.908 1742.32 354.574 1777.5 365C1826.03 380.002 1872.03 400.502 1915.5 426.5ZM1456.5 357.5C1458.53 357.338 1460.53 357.505 1462.5 358C1465.17 360 1467.83 362 1470.5 364C1462.7 366.358 1454.7 367.691 1446.5 368C1444.13 365.294 1441.46 362.961 1438.5 361C1444.55 359.503 1450.55 358.337 1456.5 357.5ZM1493.5 358.5C1501.25 356.955 1508.92 357.789 1516.5 361C1511.25 361.193 1506.08 361.693 1501 362.5C1498.53 361.014 1496.03 359.681 1493.5 358.5ZM965.5 358.5C966.906 358.973 967.573 359.973 967.5 361.5C966.094 361.027 965.427 360.027 965.5 358.5ZM969.5 358.5C970.906 358.973 971.573 359.973 971.5 361.5C970.094 361.027 969.427 360.027 969.5 358.5ZM973.5 358.5C975.262 359.262 976.262 360.596 976.5 362.5C974.738 361.738 973.738 360.404 973.5 358.5ZM1522.5 361.5C1522.74 360.903 1523.24 360.57 1524 360.5C1526.14 361.127 1528.3 361.627 1530.5 362C1527.78 362.602 1525.11 362.435 1522.5 361.5ZM1086.5 446.5C1149.61 463.074 1210.94 457.908 1270.5 431C1299.73 416.772 1328.73 402.105 1357.5 387C1381.51 375.108 1406.68 366.608 1433 361.5C1437.82 362.338 1441.66 364.838 1444.5 369C1426.19 374.327 1408.19 380.66 1390.5 388C1351.45 408.194 1312.11 427.861 1272.5 447C1223.61 467.056 1173.27 471.722 1121.5 461C1113.76 458.531 1106.09 455.864 1098.5 453C1094.04 451.476 1090.04 449.309 1086.5 446.5ZM976.5 362.5C977.906 362.973 978.573 363.973 978.5 365.5C977.094 365.027 976.427 364.027 976.5 362.5ZM980.5 362.5C982.262 363.262 983.262 364.596 983.5 366.5C981.738 365.738 980.738 364.404 980.5 362.5ZM984.5 362.5C986.262 363.262 987.262 364.596 987.5 366.5C985.738 365.738 984.738 364.404 984.5 362.5ZM973.5 363.5C974.906 363.973 975.573 364.973 975.5 366.5C974.094 366.027 973.427 365.027 973.5 363.5ZM1503.5 364.5C1510.32 363.345 1517.32 363.179 1524.5 364C1527.33 365.247 1530 366.747 1532.5 368.5C1526.17 369.245 1519.83 369.911 1513.5 370.5C1509.91 368.908 1506.58 366.908 1503.5 364.5ZM1485.5 364.5C1490.51 364.334 1495.51 364.501 1500.5 365C1503.01 366.421 1505.34 368.088 1507.5 370C1500.01 371.594 1492.51 373.094 1485 374.5C1482.29 371.622 1479.46 368.956 1476.5 366.5C1479.64 365.833 1482.64 365.166 1485.5 364.5ZM1552.5 368.5C1547.16 368.666 1541.82 368.499 1536.5 368C1534.67 367.252 1533 366.252 1531.5 365C1538.9 364.462 1545.9 365.628 1552.5 368.5ZM1012.5 365.5C1018.16 372.148 1022.83 379.481 1026.5 387.5C1020.84 380.852 1016.17 373.519 1012.5 365.5ZM983.5 366.5C985.262 367.262 986.262 368.596 986.5 370.5C984.738 369.738 983.738 368.404 983.5 366.5ZM987.5 366.5C989.262 367.262 990.262 368.596 990.5 370.5C988.738 369.738 987.738 368.404 987.5 366.5ZM1469.5 366.5C1474.19 367.689 1478.19 370.189 1481.5 374C1473.93 376.31 1466.27 378.477 1458.5 380.5C1454.98 377.813 1451.98 374.647 1449.5 371C1456.27 369.379 1462.94 367.879 1469.5 366.5ZM1005.5 368.5C1009.61 372.951 1012.94 377.951 1015.5 383.5C1011.43 379.024 1008.09 374.024 1005.5 368.5ZM1891.5 421.5C1857.24 406.136 1821.91 393.636 1785.5 384C1735.16 371.099 1684.66 370.265 1634 381.5C1632.94 381.37 1632.11 380.87 1631.5 380C1682.12 366.117 1732.78 366.117 1783.5 380C1821.02 390.222 1857.02 404.055 1891.5 421.5ZM990.5 370.5C991.906 370.973 992.573 371.973 992.5 373.5C991.094 373.027 990.427 372.027 990.5 370.5ZM1529.5 370.5C1532.19 370.336 1534.85 370.503 1537.5 371C1540.17 372.667 1542.83 374.333 1545.5 376C1537.66 377.814 1529.66 378.814 1521.5 379C1519.32 376.65 1516.98 374.483 1514.5 372.5C1519.65 371.833 1524.65 371.166 1529.5 370.5ZM1541.5 371.5C1551.39 369.777 1561.05 370.944 1570.5 375C1563.19 376.11 1555.86 376.443 1548.5 376C1546.28 374.277 1543.95 372.777 1541.5 371.5ZM987.5 371.5C988.906 371.973 989.573 372.973 989.5 374.5C988.094 374.027 987.427 373.027 987.5 371.5ZM1443.5 371.5C1444.87 371.343 1446.21 371.51 1447.5 372C1449.8 375.297 1452.46 378.297 1455.5 381C1426.27 389.452 1398.6 401.452 1372.5 417C1343.77 436.039 1313.77 453.039 1282.5 468C1262.06 476.954 1240.73 480.621 1218.5 479C1194.96 476.632 1171.63 472.965 1148.5 468C1183.51 470.696 1217.84 467.029 1251.5 457C1266.49 451.782 1281.16 445.782 1295.5 439C1325.68 423.078 1356.01 407.411 1386.5 392C1405.06 383.649 1424.06 376.816 1443.5 371.5ZM1505.5 372.5C1511.35 372.592 1516.01 375.092 1519.5 380C1511.8 381.308 1504.13 382.808 1496.5 384.5C1492.75 382.261 1489.42 379.427 1486.5 376C1492.97 374.813 1499.31 373.646 1505.5 372.5ZM1570.5 372.5C1577.72 372.37 1584.72 373.537 1591.5 376C1585.85 375.947 1580.19 375.614 1574.5 375C1572.93 374.392 1571.6 373.558 1570.5 372.5ZM1495.5 455.5C1455.34 489.253 1413.67 521.086 1370.5 551C1335.51 574.49 1297.51 591.49 1256.5 602C1207.47 614.665 1162.47 606.331 1121.5 577C1099.5 560.008 1079 541.175 1060 520.5C1043.56 502.06 1026.39 484.226 1008.5 467C959.02 422.604 900.854 399.104 834 396.5C786.269 397.523 742.435 411.023 702.5 437C662.525 465.289 625.191 496.956 590.5 532C589.234 532.309 588.067 532.809 587 533.5C575.605 531.566 564.105 530.066 552.5 529C588.722 493.432 626.722 460.099 666.5 429C697.522 405.992 731.855 389.658 769.5 380C853.471 363.907 927.805 383.574 992.5 439C1016.83 462.667 1041.17 486.333 1065.5 510C1090.13 533.617 1117.79 552.95 1148.5 568C1192.9 585.619 1238.24 588.285 1284.5 576C1322.36 563.903 1358.02 547.237 1391.5 526C1402.5 519 1413.5 512 1424.5 505C1447.88 487.988 1471.54 471.488 1495.5 455.5ZM1881.5 420.5C1841.02 403.062 1799.02 390.562 1755.5 383C1718.46 376.835 1681.46 377.001 1644.5 383.5C1642.8 383.101 1641.14 382.601 1639.5 382C1688.45 372.34 1737.11 373.673 1785.5 386C1818.72 394.46 1850.72 405.96 1881.5 420.5ZM1480.5 376.5C1481.87 376.343 1483.21 376.51 1484.5 377C1487.17 379.667 1489.83 382.333 1492.5 385C1484.25 387.271 1476.08 389.771 1468 392.5C1465.17 389 1462.33 385.5 1459.5 382C1466.66 380.294 1473.66 378.46 1480.5 376.5ZM1007.5 377.5C1008.91 377.973 1009.57 378.973 1009.5 380.5C1008.09 380.027 1007.43 379.027 1007.5 377.5ZM1558.5 377.5C1564.51 377.334 1570.51 377.501 1576.5 378C1578.83 379.667 1581.17 381.333 1583.5 383C1576.15 383.744 1568.82 384.577 1561.5 385.5C1558.39 383.561 1555.39 381.394 1552.5 379C1554.71 378.809 1556.71 378.309 1558.5 377.5ZM1579.5 378.5C1580.79 377.842 1582.29 377.508 1584 377.5C1590 377.814 1595.84 378.647 1601.5 380C1600.83 380.667 1600.17 381.333 1599.5 382C1596.14 382.337 1592.81 382.837 1589.5 383.5C1586.16 381.815 1582.82 380.148 1579.5 378.5ZM1000.5 378.5C1001.91 378.973 1002.57 379.973 1002.5 381.5C1001.09 381.027 1000.43 380.027 1000.5 378.5ZM1543.5 378.5C1548.78 378.575 1553.11 380.742 1556.5 385C1548.36 387.301 1540.02 388.635 1531.5 389C1529.17 386.667 1526.83 384.333 1524.5 382C1530.88 380.438 1537.21 379.272 1543.5 378.5ZM225.5 380.5C235.506 380.334 245.506 380.5 255.5 381C206.422 405.937 154.422 416.603 99.5 413C117.545 405.874 135.878 399.54 154.5 394C178.392 389.787 202.059 385.287 225.5 380.5ZM1009.5 380.5C1010.91 380.973 1011.57 381.973 1011.5 383.5C1010.09 383.027 1009.43 382.027 1009.5 380.5ZM1603.5 380.5C1604.38 380.369 1605.04 380.702 1605.5 381.5C1603.19 382.873 1602.52 382.54 1603.5 380.5ZM1873.5 420.5C1836.1 405.315 1797.43 394.482 1757.5 388C1723.67 382.764 1689.84 382.264 1656 386.5C1654.6 385.773 1653.1 385.273 1651.5 385C1667.46 381.771 1683.63 380.271 1700 380.5C1760.69 381.965 1818.52 395.299 1873.5 420.5ZM257.5 381.5C265.351 381.606 273.018 382.772 280.5 385C266.474 394.016 251.807 402.016 236.5 409C202.635 414.383 169.635 423.049 137.5 435C109.963 437.707 82.6296 436.374 55.5 431C67.4189 425.805 79.4189 420.805 91.5 416C136.013 418.519 179.346 412.519 221.5 398C233.949 393.272 245.949 387.772 257.5 381.5ZM1519.5 381.5C1523.68 383.009 1527.02 385.676 1529.5 389.5C1521.36 391.91 1513.19 394.244 1505 396.5C1502.54 393.035 1499.7 389.869 1496.5 387C1504.23 384.958 1511.9 383.124 1519.5 381.5ZM1095.5 455.5C1139.18 470.003 1184.02 478.67 1230 481.5C1256.54 480.322 1281.38 473.156 1304.5 460C1331.66 444.252 1358.66 428.252 1385.5 412C1408.31 399.62 1432.15 389.787 1457 382.5C1459.83 386 1462.67 389.5 1465.5 393C1444.09 400.249 1423.42 409.249 1403.5 420C1370.82 440.343 1337.49 459.677 1303.5 478C1278.04 491.115 1251.04 496.782 1222.5 495C1179.88 490.512 1139.21 479.179 1100.5 461C1098.63 459.296 1096.96 457.463 1095.5 455.5ZM1015.5 383.5C1016.91 383.973 1017.57 384.973 1017.5 386.5C1016.09 386.027 1015.43 385.027 1015.5 383.5ZM1012.5 384.5C1013.91 384.973 1014.57 385.973 1014.5 387.5C1013.09 387.027 1012.43 386.027 1012.5 384.5ZM1590.5 385.5C1592.29 384.378 1594.29 384.211 1596.5 385C1594.66 388.102 1592.66 388.269 1590.5 385.5ZM1599.5 384.5C1600.24 384.369 1600.91 384.536 1601.5 385C1599.92 387.295 1597.92 388.628 1595.5 389C1597.04 387.629 1598.37 386.129 1599.5 384.5ZM245.5 407.5C258.266 400.614 270.933 393.447 283.5 386C289.733 386.073 295.733 387.406 301.5 390C293.336 395.583 285.003 400.916 276.5 406C266.164 406.533 255.831 407.033 245.5 407.5ZM1573.5 385.5C1578.51 385.334 1583.51 385.501 1588.5 386C1589.55 387.385 1590.88 388.385 1592.5 389C1591.5 390 1590.5 391 1589.5 392C1582.9 393.61 1576.24 394.277 1569.5 394C1567.32 391.984 1565.32 389.817 1563.5 387.5C1566.98 386.833 1570.31 386.166 1573.5 385.5ZM1624.5 385.5C1633.75 385.527 1633.75 386.194 1624.5 387.5C1623.5 387.333 1622.5 387.167 1621.5 387C1622.74 386.768 1623.74 386.268 1624.5 385.5ZM1846.5 413.5C1787.78 393.657 1727.44 384.991 1665.5 387.5C1727.93 382.185 1788.26 390.852 1846.5 413.5ZM1021.5 386.5C1022.91 386.973 1023.57 387.973 1023.5 389.5C1022.09 389.027 1021.43 388.027 1021.5 386.5ZM1029.5 386.5C1037.64 394.636 1044.64 403.636 1050.5 413.5C1041.6 405.936 1034.6 396.936 1029.5 386.5ZM1636.5 386.5C1638.56 386.687 1640.56 387.187 1642.5 388C1637.89 389.29 1633.22 389.624 1628.5 389C1631.38 388.454 1634.05 387.621 1636.5 386.5ZM1490.5 387.5C1491.87 387.343 1493.21 387.51 1494.5 388C1497 390.5 1499.5 393 1502 395.5C1502.43 396.6 1501.93 397.267 1500.5 397.5C1493.3 399.733 1486.14 402.066 1479 404.5C1475.16 401.844 1472 398.511 1469.5 394.5C1476.53 391.936 1483.53 389.603 1490.5 387.5ZM1555.5 387.5C1560.6 388.074 1564.6 390.574 1567.5 395C1559.52 396.896 1551.52 398.73 1543.5 400.5C1540.38 397.877 1537.38 395.044 1534.5 392C1541.57 390.272 1548.57 388.772 1555.5 387.5ZM1618.5 387.5C1619.29 387.783 1619.96 388.283 1620.5 389C1618.18 389.837 1615.85 390.17 1613.5 390C1615.31 389.243 1616.98 388.41 1618.5 387.5ZM1650.5 389.5C1653.3 388.362 1656.3 388.195 1659.5 389C1656.58 390.818 1653.58 390.984 1650.5 389.5ZM1023.5 389.5C1024.91 389.973 1025.57 390.973 1025.5 392.5C1024.09 392.027 1023.43 391.027 1023.5 389.5ZM1830.5 411.5C1781.86 397.379 1732.2 390.545 1681.5 391C1732.46 388.255 1782.12 395.089 1830.5 411.5ZM303.5 390.5C308.453 391.65 313.12 393.484 317.5 396C311.974 400.36 306.307 404.526 300.5 408.5C293.88 407.471 287.213 406.637 280.5 406C288.578 401.306 296.244 396.139 303.5 390.5ZM1632.5 391.5C1635.85 391.335 1639.18 391.502 1642.5 392C1638.53 392.998 1634.53 393.331 1630.5 393C1631.42 392.722 1632.08 392.222 1632.5 391.5ZM1025.5 392.5C1026.91 392.973 1027.57 393.973 1027.5 395.5C1026.09 395.027 1025.43 394.027 1025.5 392.5ZM1526.5 392.5C1528.53 392.338 1530.53 392.505 1532.5 393C1535.17 395.667 1537.83 398.333 1540.5 401C1531.86 403.118 1523.36 405.618 1515 408.5C1512.17 405 1509.33 401.5 1506.5 398C1513.29 396.139 1519.96 394.306 1526.5 392.5ZM1619.5 392.5C1614.73 394.441 1609.73 395.608 1604.5 396C1609.3 393.897 1614.3 392.731 1619.5 392.5ZM1649.5 392.5C1651.75 392.181 1653.75 392.681 1655.5 394C1648.5 395.085 1641.5 395.751 1634.5 396C1639.56 394.608 1644.56 393.441 1649.5 392.5ZM1608.5 398.5C1614.82 395.754 1621.49 394.254 1628.5 394C1621.92 395.948 1615.26 397.448 1608.5 398.5ZM1819.5 411.5C1778.49 401.046 1736.82 395.212 1694.5 394C1737.19 393.361 1778.86 399.195 1819.5 411.5ZM1108.5 467.5C1148.97 484.491 1191.13 494.491 1235 497.5C1253.14 497.257 1270.64 493.757 1287.5 487C1300.41 481.546 1313.08 475.546 1325.5 469C1350.67 454.252 1375.67 439.252 1400.5 424C1421.77 412.115 1443.93 402.282 1467 394.5C1469.83 398 1472.67 401.5 1475.5 405C1459.96 411.435 1444.63 418.435 1429.5 426C1401.17 442.163 1373.17 458.83 1345.5 476C1320.79 490.903 1294.46 501.903 1266.5 509C1252.59 511.365 1238.59 512.032 1224.5 511C1188.92 506.692 1155.26 496.359 1123.5 480C1118.06 476.291 1113.06 472.125 1108.5 467.5ZM1584.5 394.5C1586.38 394.393 1586.71 394.893 1585.5 396C1582.58 397.709 1579.75 399.542 1577 401.5C1575.5 400 1574 398.5 1572.5 397C1576.67 396.295 1580.67 395.461 1584.5 394.5ZM1665.5 394.5C1670.18 394.334 1674.85 394.501 1679.5 395C1674.2 396.145 1668.87 396.478 1663.5 396C1664.42 395.722 1665.08 395.222 1665.5 394.5ZM1630.5 395.5C1631.29 395.783 1631.96 396.283 1632.5 397C1627.56 398.435 1622.56 399.102 1617.5 399C1622.04 398.133 1626.37 396.967 1630.5 395.5ZM1654.5 395.5C1660.21 395.492 1660.54 395.992 1655.5 397C1652.5 397.667 1649.5 397.667 1646.5 397C1649.36 396.817 1652.03 396.317 1654.5 395.5ZM319.5 396.5C324.086 398.126 328.419 400.293 332.5 403C328.892 406.451 324.892 409.284 320.5 411.5C315.427 410.545 310.427 409.378 305.5 408C310.647 404.68 315.314 400.847 319.5 396.5ZM1564.5 397.5C1568.91 396.623 1572.24 398.123 1574.5 402C1568.01 408.083 1560.34 411.083 1551.5 411C1549.4 408.146 1547.07 405.479 1544.5 403C1551.14 400.842 1557.81 399.009 1564.5 397.5ZM1780.5 405.5C1758.91 402.378 1737.24 399.878 1715.5 398C1737.54 398.298 1759.21 400.798 1780.5 405.5ZM823.5 398.5C881.659 397.833 934.325 414.333 981.5 448C989.788 453.953 997.788 460.286 1005.5 467C1033.83 496 1062.17 525 1090.5 554C1110.61 573.563 1133.61 588.896 1159.5 600C1194.56 611.987 1229.9 612.654 1265.5 602C1291.28 594.778 1315.95 584.778 1339.5 572C1372.06 553.227 1403.06 532.227 1432.5 509C1457.73 488.472 1483.23 468.305 1509 448.5C1509.5 449 1510 449.5 1510.5 450C1473.13 484.37 1435.47 518.37 1397.5 552C1370.08 575.22 1340.41 595.22 1308.5 612C1284.17 624.109 1258.5 631.776 1231.5 635C1192 638.054 1157 627.054 1126.5 602C1097.99 576.821 1071.49 549.654 1047 520.5C1010.09 478.287 964.925 448.454 911.5 431C839.697 410.911 773.364 422.245 712.5 465C687.367 483.122 663.7 503.122 641.5 525C625.839 529.81 609.839 532.144 593.5 532C623.391 502.097 655.057 474.43 688.5 449C728.672 419.221 773.672 402.388 823.5 398.5ZM1502.5 398.5C1504.37 398.859 1505.87 399.859 1507 401.5C1508.83 404 1510.67 406.5 1512.5 409C1504.51 411.44 1496.68 414.273 1489 417.5C1485.51 414.385 1482.34 410.885 1479.5 407C1487.13 403.849 1494.79 401.016 1502.5 398.5ZM1642.5 401.5C1649.63 399.819 1656.96 398.985 1664.5 399C1657.24 400.426 1649.9 401.26 1642.5 401.5ZM1034.5 400.5C1035.91 400.973 1036.57 401.973 1036.5 403.5C1035.09 403.027 1034.43 402.027 1034.5 400.5ZM1011.5 402.5C1014.27 403.723 1016.94 405.223 1019.5 407C1030.5 415.333 1041.5 423.667 1052.5 432C1064.1 444.735 1075.1 457.902 1085.5 471.5C1077.06 464.902 1068.73 458.069 1060.5 451C1044.09 434.818 1027.76 418.651 1011.5 402.5ZM334.5 403.5C342.982 407.908 350.982 413.075 358.5 419C357.271 420.529 355.771 421.696 354 422.5C344.465 418.21 334.631 414.71 324.5 412C328.025 409.302 331.358 406.469 334.5 403.5ZM1036.5 403.5C1037.91 403.973 1038.57 404.973 1038.5 406.5C1037.09 406.027 1036.43 405.027 1036.5 403.5ZM1537.5 403.5C1539.2 403.34 1540.87 403.506 1542.5 404C1545.19 406.557 1547.52 409.391 1549.5 412.5C1541.51 415.166 1533.51 417.832 1525.5 420.5C1521.92 417.506 1518.92 414.006 1516.5 410C1523.64 407.894 1530.64 405.727 1537.5 403.5ZM1682.5 405.5C1689.51 405.334 1696.51 405.5 1703.5 406C1710.83 411.333 1718.17 416.667 1725.5 422C1738.5 433.667 1751.5 445.333 1764.5 457C1755.74 459.024 1747.08 461.024 1738.5 463C1719.1 443.6 1699.1 424.933 1678.5 407C1680.06 406.79 1681.39 406.29 1682.5 405.5ZM1706.5 406.5C1719.64 404.395 1731.97 406.895 1743.5 414C1763.36 427.519 1782.36 442.185 1800.5 458C1789.51 456.726 1778.51 456.393 1767.5 457C1754.17 445 1740.83 433 1727.5 421C1720.79 415.653 1713.79 410.82 1706.5 406.5ZM1663.5 406.5C1669.42 405.588 1674.76 406.755 1679.5 410C1698.8 427.634 1717.8 445.634 1736.5 464C1731.08 466.139 1725.75 468.472 1720.5 471C1718.25 472.15 1715.91 472.484 1713.5 472C1709.17 468.333 1704.83 464.667 1700.5 461C1683.86 443.362 1666.86 426.028 1649.5 409C1654.24 407.949 1658.91 407.115 1663.5 406.5ZM1475.5 407.5C1477.02 407.511 1478.18 408.177 1479 409.5C1481 412.167 1483 414.833 1485 417.5C1471.26 424.621 1457.1 431.788 1442.5 439C1408.09 459.732 1373.43 480.065 1338.5 500C1313.1 513.8 1286.1 522.8 1257.5 527C1212.44 530.411 1172.44 518.078 1137.5 490C1161.33 499.461 1185.99 506.461 1211.5 511C1237.15 515.685 1262.32 513.852 1287 505.5C1311.3 496.601 1334.46 485.435 1356.5 472C1378.9 457.936 1401.57 444.269 1424.5 431C1441.11 422.023 1458.11 414.19 1475.5 407.5ZM1736.5 408.5C1737.1 407.861 1737.93 407.528 1739 407.5C1756.16 409.999 1772.33 415.499 1787.5 424C1810.01 439.421 1832.34 455.087 1854.5 471C1838.51 467.672 1822.51 464.005 1806.5 460C1791.12 446.954 1775.46 434.288 1759.5 422C1752.19 416.847 1744.52 412.347 1736.5 408.5ZM257.5 408.5C262.511 408.334 267.511 408.501 272.5 409C219.931 441.269 162.764 458.103 101 459.5C95.1267 459.443 89.2933 458.943 83.5 458C101.723 450.722 120.056 443.722 138.5 437C172.874 433.49 205.874 424.823 237.5 411C244.329 410.27 250.996 409.437 257.5 408.5ZM276.5 408.5C283.86 408.558 291.194 409.058 298.5 410C283.841 420.667 268.508 430.333 252.5 439C206.421 449.582 161.421 463.582 117.5 481C90.2985 483.868 63.2985 482.535 36.5 477C49.8333 471.667 63.1667 466.333 76.5 461C148.909 464.733 215.576 447.233 276.5 408.5ZM1642.5 408.5C1643.87 408.343 1645.21 408.51 1646.5 409C1663.86 426.028 1680.86 443.362 1697.5 461C1702.54 465.712 1707.88 470.045 1713.5 474C1706.59 477.038 1699.76 480.205 1693 483.5C1676.18 471.689 1660.85 458.022 1647 442.5C1638.54 432.368 1629.7 422.535 1620.5 413C1627.81 411.078 1635.14 409.578 1642.5 408.5ZM301.5 410.5C307.404 410.815 313.071 411.982 318.5 414C310.114 420.72 301.447 427.053 292.5 433C281.241 435.325 269.907 436.992 258.5 438C273.544 429.759 287.877 420.593 301.5 410.5ZM1512.5 410.5C1516.25 413.425 1519.59 416.925 1522.5 421C1514.27 424.301 1506.1 427.801 1498 431.5C1495.04 427.756 1492.21 423.922 1489.5 420C1497.19 416.719 1504.86 413.552 1512.5 410.5ZM1819.5 411.5C1822.15 411.41 1824.49 412.076 1826.5 413.5C1823.85 413.59 1821.51 412.924 1819.5 411.5ZM1615.5 412.5C1619.74 415.228 1623.57 418.561 1627 422.5C1645.58 445.743 1666.74 466.243 1690.5 484C1684.24 487.751 1677.58 490.084 1670.5 491C1658.13 484.819 1646.8 477.152 1636.5 468C1620.53 452.541 1605.87 436.041 1592.5 418.5C1600.21 416.231 1607.88 414.231 1615.5 412.5ZM1833.5 412.5C1837.92 412.861 1841.92 414.194 1845.5 416.5C1841.22 415.739 1837.22 414.405 1833.5 412.5ZM224.5 413.5C200.582 423.897 175.582 430.397 149.5 433C173.959 424.346 198.959 417.846 224.5 413.5ZM321.5 413.5C332.043 416.292 342.376 419.792 352.5 424C347.546 427.285 342.88 430.952 338.5 435C323.851 434.815 309.185 434.482 294.5 434C303.968 427.687 312.968 420.854 321.5 413.5ZM1046.5 413.5C1047.29 413.783 1047.96 414.283 1048.5 415C1047.18 415.528 1046.52 415.028 1046.5 413.5ZM1826.5 413.5C1829.15 413.41 1831.49 414.076 1833.5 415.5C1830.85 415.59 1828.51 414.924 1826.5 413.5ZM1549.5 414.5C1553 414.259 1553.33 415.092 1550.5 417C1543.75 420.455 1537.25 424.289 1531 428.5C1529.38 426.759 1527.88 424.925 1526.5 423C1534.13 419.849 1541.79 417.016 1549.5 414.5ZM1849.5 414.5C1852.54 414.733 1855.21 415.733 1857.5 417.5C1854.46 417.267 1851.79 416.267 1849.5 414.5ZM1587.5 418.5C1589.37 418.859 1590.87 419.859 1592 421.5C1604.72 437.893 1618.55 453.393 1633.5 468C1644.12 478.282 1656.12 486.616 1669.5 493C1664.06 495.367 1658.56 497.534 1653 499.5C1635.94 494.224 1620.77 485.724 1607.5 474C1591.5 459.511 1577.17 443.678 1564.5 426.5C1572.08 423.362 1579.74 420.696 1587.5 418.5ZM1860.5 418.5C1862.55 418.402 1864.22 419.069 1865.5 420.5C1863.45 420.598 1861.78 419.931 1860.5 418.5ZM374.5 431.5C368.401 428.951 362.401 426.118 356.5 423C357.966 422.365 359.3 421.531 360.5 420.5C365.599 423.704 370.266 427.371 374.5 431.5ZM1204.5 525.5C1242.09 533.593 1278.42 529.76 1313.5 514C1325.29 508.606 1336.96 502.939 1348.5 497C1379 479.252 1409.33 461.252 1439.5 443C1454.83 434.832 1470.5 427.332 1486.5 420.5C1489.85 423.851 1492.85 427.518 1495.5 431.5C1481.37 438.396 1467.37 445.563 1453.5 453C1423.5 470.333 1393.5 487.667 1363.5 505C1340.87 517.482 1317.2 527.482 1292.5 535C1279.77 539.612 1266.77 540.612 1253.5 538C1236.52 535.84 1220.19 531.673 1204.5 525.5ZM1865.5 420.5C1867.55 420.402 1869.22 421.069 1870.5 422.5C1868.45 422.598 1866.78 421.931 1865.5 420.5ZM1873.5 420.5C1875.55 420.402 1877.22 421.069 1878.5 422.5C1876.45 422.598 1874.78 421.931 1873.5 420.5ZM1881.5 420.5C1884.24 420.707 1886.57 421.707 1888.5 423.5C1885.76 423.293 1883.43 422.293 1881.5 420.5ZM1893.5 422.5C1898.09 423.46 1902.09 425.46 1905.5 428.5C1901.18 427.008 1897.18 425.008 1893.5 422.5ZM826.5 423.5C885.603 420.522 939.269 436.022 987.5 470C1003.88 482.041 1019.38 495.208 1034 509.5C1053.33 530.833 1072.67 552.167 1092 573.5C1112.91 595.859 1137.08 613.692 1164.5 627C1198.43 639.907 1232.76 640.907 1267.5 630C1303.51 618.497 1336.51 601.497 1366.5 579C1377.68 570.574 1388.68 561.908 1399.5 553C1437.3 519.537 1474.8 485.703 1512 451.5C1512.64 452.966 1513.47 454.3 1514.5 455.5C1475.05 497.788 1435.05 539.621 1394.5 581C1371.99 602.582 1347.32 621.248 1320.5 637C1291.09 654.08 1259.43 663.58 1225.5 665.5C1196.7 664.733 1170.7 655.899 1147.5 639C1132.14 627.645 1117.97 614.812 1105 600.5C1088.43 581.686 1072.1 562.686 1056 543.5C1022.81 506.633 983.311 478.8 937.5 460C863.496 433.382 794.496 442.716 730.5 488C718.041 494.063 705.708 500.396 693.5 507C682.593 510.747 671.926 515.08 661.5 520C656.537 521.526 651.537 522.526 646.5 523C679.409 489.088 717.076 461.755 759.5 441C781.102 431.851 803.435 426.018 826.5 423.5ZM1521.5 423.5C1525.01 424.005 1527.35 426.005 1528.5 429.5C1521.58 434.21 1514.42 438.544 1507 442.5C1504.5 439.333 1502 436.167 1499.5 433C1506.98 429.906 1514.31 426.74 1521.5 423.5ZM1880.5 423.5C1882.55 423.402 1884.22 424.069 1885.5 425.5C1883.45 425.598 1881.78 424.931 1880.5 423.5ZM354.5 424.5C363.266 428.717 371.932 433.217 380.5 438C378.597 440.405 376.264 442.239 373.5 443.5C362.698 440.173 351.698 437.673 340.5 436C345.421 432.387 350.088 428.554 354.5 424.5ZM1892.5 425.5C1897.09 426.46 1901.09 428.46 1904.5 431.5C1900.18 430.008 1896.18 428.008 1892.5 425.5ZM1055.5 426.5C1058.09 426.461 1060.09 427.461 1061.5 429.5C1059.18 429.008 1057.18 428.008 1055.5 426.5ZM1889.5 427.5C1894.75 428.793 1899.42 431.126 1903.5 434.5C1898.52 432.674 1893.85 430.341 1889.5 427.5ZM1561.5 428.5C1563.02 428.511 1564.18 429.177 1565 430.5C1581.87 453.04 1601.71 472.54 1624.5 489C1632.48 493.491 1640.81 497.158 1649.5 500C1639.29 504.201 1628.95 504.535 1618.5 501C1603.71 496.608 1590.38 489.608 1578.5 480C1565.95 469.281 1554.61 457.447 1544.5 444.5C1550.19 439.145 1555.85 433.812 1561.5 428.5ZM1884.5 428.5C1891.09 430.46 1897.09 433.46 1902.5 437.5C1896.18 435.008 1890.18 432.008 1884.5 428.5ZM1879.5 429.5C1881.55 429.402 1883.22 430.069 1884.5 431.5C1882.45 431.598 1880.78 430.931 1879.5 429.5ZM1909.5 430.5C1912.33 431.079 1914.66 432.412 1916.5 434.5C1913.67 433.921 1911.34 432.588 1909.5 430.5ZM50.5 432.5C76.6359 437.32 102.969 439.153 129.5 438C111.51 444.441 93.6769 451.274 76 458.5C56.4781 456.462 37.3114 452.629 18.5 447C29.3758 442.391 40.0424 437.558 50.5 432.5ZM1061.5 432.5C1064.09 432.461 1066.09 433.461 1067.5 435.5C1065.18 435.008 1063.18 434.008 1061.5 432.5ZM1496.5 433.5C1499.49 436.501 1502.16 439.835 1504.5 443.5C1461.55 470.57 1417.22 495.403 1371.5 518C1344.18 530.663 1315.51 537.663 1285.5 539C1318.95 529.439 1350.62 515.773 1380.5 498C1418.13 474.683 1456.8 453.183 1496.5 433.5ZM1908.5 433.5C1911.33 434.079 1913.66 435.412 1915.5 437.5C1912.67 436.921 1910.34 435.588 1908.5 433.5ZM290.5 436.5C305.225 436.068 319.892 436.568 334.5 438C321.674 447.247 308.674 456.247 295.5 465C271.492 469.252 247.825 474.919 224.5 482C180.545 496.207 136.879 511.207 93.5 527C66.8168 527.553 40.8168 523.553 15.5 515C26.6091 513.178 37.6091 510.845 48.5 508C122.298 513.716 190.965 497.716 254.5 460C266.945 452.697 278.945 444.864 290.5 436.5ZM1531.5 436.5C1532.55 436.351 1533.55 436.517 1534.5 437C1528.64 442.102 1522.98 447.435 1517.5 453C1515.8 453.345 1514.47 452.678 1513.5 451C1519.11 445.544 1525.11 440.71 1531.5 436.5ZM276.5 437.5C279.518 437.335 282.518 437.502 285.5 438C240.83 469.79 191.497 491.124 137.5 502C111.491 506.907 85.4907 507.907 59.5 505C78.2442 498.197 96.9109 491.197 115.5 484C163.869 479.654 209.202 465.654 251.5 442C259.972 440.479 268.306 438.979 276.5 437.5ZM337.5 437.5C349.115 439.023 360.449 441.689 371.5 445.5C365.645 450.523 359.645 455.356 353.5 460C336.031 460.676 318.698 462.009 301.5 464C313.745 455.39 325.745 446.556 337.5 437.5ZM1909.5 437.5C1911.67 437.75 1913.34 438.75 1914.5 440.5C1912.33 440.25 1910.66 439.25 1909.5 437.5ZM394.5 450.5C388.614 448.89 382.947 446.723 377.5 444C379.043 442.122 380.876 440.622 383 439.5C387.335 442.669 391.168 446.336 394.5 450.5ZM1902.5 440.5C1904.03 440.427 1905.03 441.094 1905.5 442.5C1903.97 442.573 1902.97 441.906 1902.5 440.5ZM1910.5 441.5C1912.67 441.75 1914.34 442.75 1915.5 444.5C1913.33 444.25 1911.66 443.25 1910.5 441.5ZM1519.5 442.5C1517.4 444.099 1515.4 445.932 1513.5 448C1511.03 447.743 1511.03 446.743 1513.5 445C1515.41 443.878 1517.41 443.045 1519.5 442.5ZM240.5 443.5C241.552 443.351 242.552 443.517 243.5 444C206.791 463.592 167.791 475.592 126.5 480C163.804 465.286 201.804 453.119 240.5 443.5ZM1897.5 444.5C1899.03 444.427 1900.03 445.094 1900.5 446.5C1898.97 446.573 1897.97 445.906 1897.5 444.5ZM374.5 445.5C384.249 448.802 393.582 452.969 402.5 458C399.573 460.382 396.739 462.882 394 465.5C381.633 462.974 369.133 461.141 356.5 460C362.688 455.303 368.688 450.469 374.5 445.5ZM1905.5 445.5C1907.03 445.427 1908.03 446.094 1908.5 447.5C1906.97 447.573 1905.97 446.906 1905.5 445.5ZM1541.5 446.5C1550.86 456.364 1560.53 466.197 1570.5 476C1587.1 490.965 1606.43 500.632 1628.5 505C1598.95 509.613 1572.29 502.947 1548.5 485C1539.9 478.404 1531.9 471.07 1524.5 463C1530.06 457.27 1535.73 451.77 1541.5 446.5ZM1913.5 446.5C1915.03 446.427 1916.03 447.094 1916.5 448.5C1914.97 448.573 1913.97 447.906 1913.5 446.5ZM1313.5 643.5C1280.88 664.651 1245.04 676.318 1206 678.5C1170.98 677.229 1139.81 665.729 1112.5 644C1084.99 621.5 1058.99 597.167 1034.5 571C991.769 529.284 941.769 499.284 884.5 481C837.317 466.808 790.317 467.308 743.5 482.5C797.935 446.93 856.602 438.097 919.5 456C954.071 466.947 985.404 483.614 1013.5 506C1027.94 518.436 1041.77 531.603 1055 545.5C1076.02 571.858 1098.52 597.025 1122.5 621C1136.44 633.939 1151.77 644.939 1168.5 654C1199.5 668.333 1231.5 671 1264.5 662C1281.35 657.107 1297.68 650.94 1313.5 643.5ZM1077.5 450.5C1080.89 451.529 1083.56 453.529 1085.5 456.5C1082.47 454.984 1079.8 452.984 1077.5 450.5ZM1910.5 451.5C1912.03 451.427 1913.03 452.094 1913.5 453.5C1911.97 453.573 1910.97 452.906 1910.5 451.5ZM400.5 452.5C402.196 452.685 403.529 453.519 404.5 455C402.588 455.279 401.254 454.446 400.5 452.5ZM1499.5 452.5C1498.74 454.262 1497.4 455.262 1495.5 455.5C1496.26 453.738 1497.6 452.738 1499.5 452.5ZM1106.5 470.5C1099.83 467.818 1094.16 463.651 1089.5 458C1091.81 458.642 1094.14 459.642 1096.5 461C1100.33 463.668 1103.67 466.835 1106.5 470.5ZM1769.5 459.5C1780.42 458.152 1791.42 458.652 1802.5 461C1794.13 461.452 1785.79 462.285 1777.5 463.5C1774.61 462.605 1771.94 461.271 1769.5 459.5ZM410.5 468.5C405.917 468.105 401.584 466.938 397.5 465C399.96 463.542 402.127 461.709 404 459.5C406.41 462.397 408.577 465.397 410.5 468.5ZM425.5 473.5C422.432 472.978 419.432 472.145 416.5 471C413.536 467.034 410.203 463.367 406.5 460C414.003 462.642 420.336 467.142 425.5 473.5ZM1761.5 459.5C1766.08 458.793 1769.75 460.293 1772.5 464C1764.59 466.974 1756.59 469.307 1748.5 471C1745.98 469.237 1743.65 467.237 1741.5 465C1748.2 462.829 1754.86 460.995 1761.5 459.5ZM1081.5 461.5C1091.26 469.225 1101.26 476.725 1111.5 484C1117.24 489.516 1122.91 495.016 1128.5 500.5C1123.06 497.947 1117.73 495.113 1112.5 492C1101.66 482.328 1091.33 472.161 1081.5 461.5ZM334.5 462.5C339.511 462.334 344.511 462.501 349.5 463C331.977 476.18 313.644 488.18 294.5 499C241.95 513.516 189.95 529.85 138.5 548C106.807 550.609 75.4735 548.276 44.5 541C60.3256 538.101 75.9922 534.434 91.5 530C165.525 529.655 233.191 508.988 294.5 468C307.863 465.389 321.196 463.556 334.5 462.5ZM303.5 496.5C320.204 485.978 336.537 474.811 352.5 463C365.622 462.959 378.622 464.292 391.5 467C382.833 473.667 374.167 480.333 365.5 487C344.67 489.194 324.003 492.361 303.5 496.5ZM1788.5 463.5C1795.17 463.334 1801.84 463.5 1808.5 464C1809.33 464.915 1810.33 465.581 1811.5 466C1802.81 467.072 1794.31 468.905 1786 471.5C1783.5 469.667 1781 467.833 1778.5 466C1781.91 465.004 1785.24 464.171 1788.5 463.5ZM1813.5 465.5C1815.73 464.441 1818.06 464.608 1820.5 466C1818.07 466.703 1815.74 466.537 1813.5 465.5ZM1737.5 465.5C1740.95 467.739 1744.29 470.239 1747.5 473C1740.72 475.558 1734.05 478.391 1727.5 481.5C1724.3 479.136 1720.97 476.97 1717.5 475C1724.11 471.529 1730.77 468.362 1737.5 465.5ZM1771.5 466.5C1776.06 466.944 1780.06 468.777 1783.5 472C1776.27 474.299 1769.1 476.799 1762 479.5C1758.6 477.881 1755.43 475.881 1752.5 473.5C1758.71 470.543 1765.05 468.21 1771.5 466.5ZM393.5 467.5C400.454 468.613 407.288 470.28 414 472.5C416.849 475.016 419.349 477.849 421.5 481C419.208 482.29 417.208 483.957 415.5 486C400.485 485.71 385.485 485.71 370.5 486C378.644 480.349 386.31 474.182 393.5 467.5ZM285.5 468.5C286.873 468.343 288.207 468.51 289.5 469C232.162 506.667 169.162 526.001 100.5 527C138.608 513.075 176.941 499.742 215.5 487C238.705 479.867 262.039 473.7 285.5 468.5ZM1806.5 468.5C1811.69 467.534 1816.03 468.868 1819.5 472.5C1812.23 474.11 1805.06 476.11 1798 478.5C1794.44 477.305 1791.27 475.471 1788.5 473C1794.51 471.037 1800.51 469.537 1806.5 468.5ZM1818.5 469.5C1823.55 468.005 1828.55 468.505 1833.5 471C1830.63 471.315 1827.8 471.815 1825 472.5C1822.72 471.609 1820.55 470.609 1818.5 469.5ZM1467.5 471.5C1467.03 472.906 1466.03 473.573 1464.5 473.5C1464.97 472.094 1465.97 471.427 1467.5 471.5ZM1300.5 654.5C1265.83 677.335 1227.66 689.668 1186 691.5C1152.73 690.856 1122.23 681.356 1094.5 663C1064.11 642.618 1035.44 619.952 1008.5 595C960.889 555.163 907.222 525.829 847.5 507C805.075 494.005 762.075 491.505 718.5 499.5C724.997 493.205 732.663 488.705 741.5 486C787.374 469.701 833.707 468.367 880.5 482C932.534 497.338 978.534 523.005 1018.5 559C1038.81 578.305 1058.81 597.971 1078.5 618C1093.41 632.112 1109.41 644.778 1126.5 656C1167.6 681.648 1211.27 686.981 1257.5 672C1272.3 667.236 1286.63 661.402 1300.5 654.5ZM1464.5 473.5C1464.03 474.906 1463.03 475.573 1461.5 475.5C1461.97 474.094 1462.97 473.427 1464.5 473.5ZM1783.5 473.5C1787.38 474.774 1791.05 476.607 1794.5 479C1788.11 481.687 1781.61 484.187 1775 486.5C1771.28 485.057 1767.78 483.223 1764.5 481C1770.92 478.446 1777.26 475.946 1783.5 473.5ZM1826.5 474.5C1832.57 472.863 1838.57 473.363 1844.5 476C1841.68 477.254 1838.68 478.087 1835.5 478.5C1832.34 477.415 1829.34 476.082 1826.5 474.5ZM1845.5 474.5C1845.92 473.876 1846.58 473.543 1847.5 473.5C1849.83 474.33 1852.16 475.163 1854.5 476C1851.32 476.597 1848.32 476.097 1845.5 474.5ZM419.5 474.5C422.016 474.755 424.35 475.589 426.5 477C423.118 480.216 420.784 479.383 419.5 474.5ZM435.5 477.5C433.2 477.478 432.033 476.478 432 474.5C433.518 475.163 434.685 476.163 435.5 477.5ZM1107.5 474.5C1109.03 474.427 1110.03 475.094 1110.5 476.5C1108.97 476.573 1107.97 475.906 1107.5 474.5ZM1747.5 474.5C1751.61 475.595 1755.28 477.595 1758.5 480.5C1752.75 483.372 1746.75 485.706 1740.5 487.5C1736.61 486.89 1733.28 485.224 1730.5 482.5C1736.37 480.063 1742.04 477.396 1747.5 474.5ZM1819.5 474.5C1824.01 474.588 1828.01 476.088 1831.5 479C1824.57 480.94 1817.73 483.106 1811 485.5C1807.12 483.811 1803.29 481.978 1799.5 480C1806.29 478.139 1812.96 476.306 1819.5 474.5ZM1713.5 475.5C1716.94 477.055 1720.27 478.888 1723.5 481C1724.83 481.667 1724.83 482.333 1723.5 483C1717.95 485.463 1712.28 487.629 1706.5 489.5C1702.61 488.89 1699.28 487.224 1696.5 484.5C1702.33 481.679 1707.99 478.679 1713.5 475.5ZM1110.5 476.5C1114.37 477.263 1117.37 479.263 1119.5 482.5C1115.98 481.241 1112.98 479.241 1110.5 476.5ZM441.5 490.5C437.812 490.219 434.145 489.719 430.5 489C428.5 486.333 426.5 483.667 424.5 481C426.369 479.398 428.369 478.398 430.5 478C434.77 481.761 438.437 485.928 441.5 490.5ZM1853.5 478.5C1857.66 477.47 1861.66 478.303 1865.5 481C1863.5 481.667 1861.5 481.667 1859.5 481C1857.59 479.878 1855.59 479.045 1853.5 478.5ZM1843.5 478.5C1848.29 477.97 1852.62 479.137 1856.5 482C1853.69 482.911 1850.86 483.744 1848 484.5C1844.33 483.413 1840.83 481.913 1837.5 480C1839.71 479.809 1841.71 479.309 1843.5 478.5ZM1832.5 480.5C1836.36 481.428 1840.03 482.928 1843.5 485C1837.66 487.126 1831.66 488.626 1825.5 489.5C1821.52 489.227 1817.85 488.061 1814.5 486C1820.64 484.227 1826.64 482.394 1832.5 480.5ZM437.5 481.5C444.116 483.474 449.782 486.974 454.5 492C453.892 492.87 453.059 493.37 452 493.5C450.189 492.922 448.355 492.422 446.5 492C443.664 488.333 440.664 484.833 437.5 481.5ZM1794.5 481.5C1799.19 481.841 1803.53 483.341 1807.5 486C1801.46 487.734 1795.46 489.568 1789.5 491.5C1785.81 490.436 1782.14 489.269 1778.5 488C1783.86 485.718 1789.19 483.551 1794.5 481.5ZM422.5 482.5C423.779 484.123 425.113 485.79 426.5 487.5C426 487.833 425.5 488.167 425 488.5C422.536 487.839 420.036 487.339 417.5 487C419.24 485.483 420.906 483.983 422.5 482.5ZM1113.5 482.5C1122.18 486.502 1130.18 491.502 1137.5 497.5C1128.82 493.498 1120.82 488.498 1113.5 482.5ZM1759.5 482.5C1763.78 483.136 1767.78 484.636 1771.5 487C1762.46 492.939 1753.13 493.606 1743.5 489C1749.04 487.057 1754.37 484.89 1759.5 482.5ZM1867.5 482.5C1870.48 483.654 1873.48 484.82 1876.5 486C1875.07 487.44 1873.4 487.774 1871.5 487C1869.5 486 1867.5 485 1865.5 484C1866.42 483.722 1867.08 483.222 1867.5 482.5ZM1874.5 483.5C1877.03 482.551 1879.36 483.218 1881.5 485.5C1881.33 485.833 1881.17 486.167 1881 486.5C1879.01 485.086 1876.84 484.086 1874.5 483.5ZM1884.5 483.5C1884.92 482.876 1885.58 482.543 1886.5 482.5C1888.83 483.33 1891.16 484.163 1893.5 485C1890.41 485.251 1887.41 484.751 1884.5 483.5ZM1726.5 483.5C1730.11 485.307 1733.78 487.14 1737.5 489C1731.73 491.036 1725.89 492.869 1720 494.5C1716.26 494.025 1712.76 492.858 1709.5 491C1715.39 488.768 1721.06 486.268 1726.5 483.5ZM1859.5 483.5C1862.47 484.987 1865.47 486.487 1868.5 488C1862.69 489.477 1857.02 488.811 1851.5 486C1854.31 485.218 1856.98 484.384 1859.5 483.5ZM1691.5 485.5C1695.56 487.025 1699.56 488.859 1703.5 491C1697.99 493.336 1692.33 495.169 1686.5 496.5C1682.58 496.104 1678.91 494.937 1675.5 493C1681.15 490.961 1686.48 488.461 1691.5 485.5ZM1845.5 486.5C1849.57 487.356 1853.57 488.523 1857.5 490C1848.57 492.631 1839.57 492.965 1830.5 491C1835.66 489.631 1840.66 488.131 1845.5 486.5ZM288.5 536.5C315.936 522.952 341.936 507.119 366.5 489C381.51 487.294 396.51 487.294 411.5 489C400.115 498.052 388.449 506.719 376.5 515C346.838 520.916 317.504 528.082 288.5 536.5ZM1808.5 487.5C1812.69 487.953 1816.69 489.119 1820.5 491C1811.88 493.639 1803.22 493.972 1794.5 492C1799.37 490.763 1804.04 489.263 1808.5 487.5ZM1884.5 488.5C1888.17 487.48 1891.84 487.98 1895.5 490C1893.9 490.273 1892.4 490.773 1891 491.5C1889.01 490.086 1886.84 489.086 1884.5 488.5ZM1896.5 488.5C1898.43 487.291 1900.43 487.458 1902.5 489C1900.51 489.18 1898.51 489.014 1896.5 488.5ZM1905.5 488.5C1905.74 487.903 1906.24 487.57 1907 487.5C1908.5 488 1910 488.5 1911.5 489C1909.45 489.49 1907.45 489.323 1905.5 488.5ZM1773.5 488.5C1777.17 489.556 1780.83 490.722 1784.5 492C1776.39 495.531 1768.05 496.198 1759.5 494C1764.31 492.237 1768.97 490.404 1773.5 488.5ZM1875.5 489.5C1879.27 488.06 1882.93 488.56 1886.5 491C1884.9 491.273 1883.4 491.773 1882 492.5C1880.01 491.086 1877.84 490.086 1875.5 489.5ZM356.5 489.5C358.199 489.34 359.866 489.506 361.5 490C276.693 553.039 181.693 578.372 76.5 566C97.9334 562.392 118.933 557.058 139.5 550C195.385 544.926 247.719 528.593 296.5 501C316.428 496.047 336.428 492.213 356.5 489.5ZM383.5 513.5C393.6 505.912 403.6 498.079 413.5 490C418.558 489.339 423.558 489.672 428.5 491C432.079 495.491 435.412 500.157 438.5 505C437.167 506.333 435.833 507.667 434.5 509C417.425 509.749 400.425 511.249 383.5 513.5ZM1869.5 490.5C1871.09 489.379 1872.76 489.546 1874.5 491C1872.73 491.64 1871.07 491.473 1869.5 490.5ZM1133.5 490.5C1135.03 490.427 1136.03 491.094 1136.5 492.5C1134.97 492.573 1133.97 491.906 1133.5 490.5ZM1738.5 490.5C1742.55 491.35 1746.55 492.516 1750.5 494C1742.02 497.478 1733.35 498.145 1724.5 496C1729.31 494.237 1733.97 492.404 1738.5 490.5ZM432.5 492.5C432.917 491.876 433.584 491.543 434.5 491.5C438.181 492.27 441.848 493.103 445.5 494C446.5 495 447.5 496 448.5 497C446.017 499.406 443.35 501.573 440.5 503.5C437.777 499.792 435.11 496.125 432.5 492.5ZM1107.5 491.5C1118.32 499.477 1129.32 507.311 1140.5 515C1153.31 522.402 1166.31 529.235 1179.5 535.5C1168.39 533.852 1157.72 530.686 1147.5 526C1132.79 516.131 1119.46 504.631 1107.5 491.5ZM1858.5 491.5C1862.56 491.485 1866.56 491.985 1870.5 493C1864.83 493.667 1859.17 493.667 1853.5 493C1855.38 492.802 1857.05 492.302 1858.5 491.5ZM459.5 492.5C462.511 493.669 465.178 495.336 467.5 497.5C463.859 497.348 461.193 495.682 459.5 492.5ZM1136.5 492.5C1138.03 492.427 1139.03 493.094 1139.5 494.5C1137.97 494.573 1136.97 493.906 1136.5 492.5ZM1703.5 492.5C1707.73 492.778 1711.73 493.944 1715.5 496C1707.35 499.404 1699.02 500.07 1690.5 498C1695.06 496.434 1699.39 494.601 1703.5 492.5ZM1820.5 492.5C1823.9 492.18 1827.23 492.513 1830.5 493.5C1825.53 494.662 1820.53 494.829 1815.5 494C1817.38 493.802 1819.05 493.302 1820.5 492.5ZM1786.5 493.5C1790.22 493.564 1793.89 494.064 1797.5 495C1791.16 495.723 1784.83 496.057 1778.5 496C1781.38 495.454 1784.05 494.621 1786.5 493.5ZM1126.5 494.5C1134.14 498.322 1141.81 502.156 1149.5 506C1154.02 509.03 1158.35 512.197 1162.5 515.5C1155.08 512.957 1147.74 510.124 1140.5 507C1135.64 502.968 1130.97 498.801 1126.5 494.5ZM1670.5 494.5C1674.55 495.35 1678.55 496.516 1682.5 498C1674.37 501.534 1666.04 502.2 1657.5 500C1662.06 498.434 1666.39 496.601 1670.5 494.5ZM1747.5 497.5C1749.68 496.074 1752.18 495.408 1755 495.5C1757.05 495.423 1758.88 495.923 1760.5 497C1756.18 497.499 1751.85 497.666 1747.5 497.5ZM451.5 496.5C455.41 496.263 459.077 497.096 462.5 499C466.8 502.298 470.8 505.965 474.5 510C469.72 510.653 465.053 510.153 460.5 508.5C457.451 504.463 454.451 500.463 451.5 496.5ZM1285.5 666.5C1252.26 687.771 1215.93 700.605 1176.5 705C1145.42 706.783 1115.75 701.117 1087.5 688C1049.11 668.154 1013.11 644.82 979.5 618C925.575 579.704 866.908 550.371 803.5 530C769.624 519.494 734.958 514.494 699.5 515C704.211 510.62 709.211 506.62 714.5 503C757.899 493.324 800.899 494.99 843.5 508C899.851 525.003 950.851 551.67 996.5 588C1023.92 612.198 1052.25 635.198 1081.5 657C1108.33 676.74 1138.33 688.74 1171.5 693C1200.12 694.841 1227.79 690.508 1254.5 680C1264.98 675.786 1275.31 671.286 1285.5 666.5ZM1719.5 496.5C1721.96 497.023 1724.29 497.856 1726.5 499C1720.48 499.592 1714.48 499.925 1708.5 500C1712.43 499.276 1716.09 498.109 1719.5 496.5ZM716.5 497.5C714.282 500.609 711.282 502.109 707.5 502C710.243 499.962 713.243 498.462 716.5 497.5ZM448.5 499.5C449.239 499.369 449.906 499.536 450.5 500C453.167 503 455.833 506 458.5 509C453.382 509.888 448.382 509.555 443.5 508C442.833 507.333 442.167 506.667 441.5 506C443.907 503.817 446.24 501.65 448.5 499.5ZM1679.5 501.5C1683.73 499.265 1688.06 499.098 1692.5 501C1688.18 501.499 1683.85 501.666 1679.5 501.5ZM1416.5 500.5C1416.03 501.906 1415.03 502.573 1413.5 502.5C1413.97 501.094 1414.97 500.427 1416.5 500.5ZM469.5 501.5C474.618 501.976 478.951 503.976 482.5 507.5C481.167 508.5 479.833 509.5 478.5 510.5C475.146 507.812 472.146 504.812 469.5 501.5ZM1650.5 501.5C1653.94 501.301 1657.27 501.801 1660.5 503C1654.85 503.926 1649.18 504.259 1643.5 504C1646 503.302 1648.34 502.469 1650.5 501.5ZM284.5 504.5C243.068 527.445 198.735 541.278 151.5 546C195.34 530.441 239.674 516.608 284.5 504.5ZM1129.5 504.5C1138.16 507.17 1145.49 511.836 1151.5 518.5C1143.48 514.829 1136.15 510.162 1129.5 504.5ZM1409.5 504.5C1396 513.586 1381.66 521.086 1366.5 527C1380.57 518.964 1394.91 511.464 1409.5 504.5ZM706.5 505.5C703.062 508.435 699.729 511.601 696.5 515C692.259 516.457 687.926 516.791 683.5 516C690.464 510.85 698.131 507.35 706.5 505.5ZM489.5 512.5C486.68 512.752 484.014 512.252 481.5 511C484.588 508.004 487.255 508.504 489.5 512.5ZM391.5 543.5C406.619 532.888 421.619 522.055 436.5 511C438.769 510.242 440.936 510.409 443 511.5C446.833 517.833 450.667 524.167 454.5 530.5C433.473 534.705 412.473 539.039 391.5 543.5ZM445.5 510.5C450.451 511.228 455.451 511.728 460.5 512C463.317 514.766 465.151 517.932 466 521.5C463 524.167 460 526.833 457 529.5C452.642 523.444 448.808 517.11 445.5 510.5ZM492.5 510.5C496.373 511.434 500.039 512.934 503.5 515C498.983 515.46 495.316 513.96 492.5 510.5ZM416.5 511.5C421.179 511.334 425.845 511.501 430.5 512C415.364 524.068 399.697 535.401 383.5 546C313.226 566.869 242.893 587.536 172.5 608C155.724 612.689 138.724 613.689 121.5 611C95.5283 608.174 70.1949 602.507 45.5 594C65.0296 593.806 84.5296 592.973 104 591.5C204.68 599.792 296.18 574.959 378.5 517C391.266 514.827 403.932 512.994 416.5 511.5ZM463.5 512.5C463.735 511.903 464.235 511.57 465 511.5C468.514 512.058 472.014 512.724 475.5 513.5C473.183 515.316 471.016 517.316 469 519.5C467.303 516.98 465.47 514.647 463.5 512.5ZM682.5 512.5C683.239 512.369 683.906 512.536 684.5 513C680.585 516.86 675.918 518.527 670.5 518C674.71 516.391 678.71 514.558 682.5 512.5ZM1163.5 513.5C1163.56 512.957 1163.89 512.624 1164.5 512.5C1175.25 517.042 1185.92 521.876 1196.5 527C1184.44 525.146 1173.44 520.646 1163.5 513.5ZM481.5 514.5C481.56 513.957 481.893 513.624 482.5 513.5C486.464 514.439 490.464 515.272 494.5 516C499.118 518.95 503.452 522.284 507.5 526C503.017 527.601 498.351 527.934 493.5 527C489.997 522.331 485.997 518.164 481.5 514.5ZM1149.5 513.5C1157.5 516.224 1165.5 519.057 1173.5 522C1186.78 529.313 1200.45 535.48 1214.5 540.5C1189.81 538.285 1168.15 529.285 1149.5 513.5ZM477.5 514.5C482.603 517.768 486.937 521.935 490.5 527C485.589 528.492 480.589 528.826 475.5 528C473.954 525.743 472.288 523.576 470.5 521.5C472.548 518.785 474.882 516.452 477.5 514.5ZM501.5 518.5C501.735 517.903 502.235 517.57 503 517.5C506.249 518.27 509.415 519.27 512.5 520.5C511.52 521.981 510.353 523.315 509 524.5C506.914 521.906 504.414 519.906 501.5 518.5ZM1272.5 677.5C1232.36 703.821 1188.2 717.821 1140 719.5C1110.26 719.086 1081.76 712.919 1054.5 701C1040.71 694.605 1027.04 687.939 1013.5 681C977.663 658.578 941.329 636.911 904.5 616C853.082 587.457 799.416 564.124 743.5 546C722.886 539.597 701.886 534.93 680.5 532C685.691 527.565 690.691 522.899 695.5 518C733.419 516.083 770.419 521.083 806.5 533C860.863 551.017 911.863 575.684 959.5 607C979.029 619.931 998.029 633.598 1016.5 648C1041.57 665.874 1068.23 681.208 1096.5 694C1143.58 712.172 1190.58 711.839 1237.5 693C1249.42 688.371 1261.09 683.204 1272.5 677.5ZM367.5 518.5C368.873 518.343 370.207 518.51 371.5 519C293.553 572.74 207.22 596.406 112.5 590C126.695 587.894 140.695 584.894 154.5 581C199.178 566.998 243.845 552.998 288.5 539C314.75 531.355 341.083 524.522 367.5 518.5ZM683.5 518.5C686.187 518.336 688.854 518.503 691.5 519C686.977 522.767 682.643 526.767 678.5 531C673.442 531.661 668.442 531.328 663.5 530C668.167 526.667 672.833 523.333 677.5 520C679.708 519.809 681.708 519.309 683.5 518.5ZM669.5 520.5C670.552 520.351 671.552 520.517 672.5 521C668.5 524 664.5 527 660.5 530C656.112 530.577 651.779 530.244 647.5 529C654.418 524.692 661.752 521.859 669.5 520.5ZM514.5 521.5C529.445 527.078 528.778 528.912 512.5 527C512.043 526.586 511.709 526.086 511.5 525.5C512.524 524.148 513.524 522.815 514.5 521.5ZM467.5 522.5C470.002 524.17 472.002 526.336 473.5 529C468.824 529.706 464.157 530.04 459.5 530C462.432 527.715 465.098 525.215 467.5 522.5ZM524.5 523.5C529.903 524.685 535.237 526.185 540.5 528C534.422 528.721 529.089 527.221 524.5 523.5ZM645.5 525.5C646.552 525.351 647.552 525.517 648.5 526C645.922 527.665 643.255 528.665 640.5 529C641.955 527.374 643.622 526.208 645.5 525.5ZM487.5 529.5C492.173 528.509 495.506 530.176 497.5 534.5C494.124 537.878 490.457 540.878 486.5 543.5C483.377 539.422 480.377 535.255 477.5 531C481.025 530.821 484.359 530.321 487.5 529.5ZM496.5 530.5C498.288 529.378 500.288 529.211 502.5 530C500.663 533.102 498.663 533.269 496.5 530.5ZM505.5 529.5C507.857 529.337 510.19 529.503 512.5 530C517.167 534 521.833 538 526.5 542C520.86 543.53 515.193 544.53 509.5 545C506.87 541.368 503.87 538.035 500.5 535C502.373 533.296 504.04 531.463 505.5 529.5ZM515.5 530.5C524.961 527.69 533.294 529.69 540.5 536.5C538.121 539.865 534.787 541.532 530.5 541.5C525.208 538.204 520.208 534.537 515.5 530.5ZM1193.5 529.5C1211.41 533.976 1229.41 538.143 1247.5 542C1228.24 543.074 1210.24 538.907 1193.5 529.5ZM536.5 531.5C539.976 530.357 543.642 530.19 547.5 531C545.833 532.167 544.167 533.333 542.5 534.5C540.466 533.441 538.466 532.441 536.5 531.5ZM464.5 531.5C468.182 531.335 471.848 531.501 475.5 532C478.696 536.364 481.696 540.864 484.5 545.5C481.314 548.521 477.98 551.354 474.5 554C473.056 554.781 471.723 554.614 470.5 553.5C466.878 546.42 462.878 539.587 458.5 533C460.708 532.809 462.708 532.309 464.5 531.5ZM549.5 531.5C554.238 532.698 558.905 534.198 563.5 536C558.644 536.741 553.811 537.574 549 538.5C547.51 537.683 546.01 536.85 544.5 536C546.063 534.264 547.73 532.764 549.5 531.5ZM624.5 531.5C627.518 531.335 630.518 531.502 633.5 532C626.966 540.174 618.966 541.841 609.5 537C614.571 535.035 619.571 533.202 624.5 531.5ZM641.5 531.5C646.599 531.175 651.599 531.675 656.5 533C651.333 536.833 646.167 540.667 641 544.5C636.827 543.247 632.66 541.914 628.5 540.5C632.688 537.243 637.021 534.243 641.5 531.5ZM561.5 532.5C567.198 532.596 572.865 533.096 578.5 534C575.318 534.407 572.151 534.907 569 535.5C566.133 535.161 563.633 534.161 561.5 532.5ZM607.5 532.5C609.857 532.337 612.19 532.503 614.5 533C611.24 533.975 608.073 535.142 605 536.5C602.141 535.827 599.308 534.993 596.5 534C600.356 533.823 604.023 533.323 607.5 532.5ZM659.5 532.5C664.887 532.405 670.22 532.905 675.5 534C669.698 538.8 664.198 543.967 659 549.5C654.255 547.808 649.421 546.308 644.5 545C649.398 540.592 654.398 536.426 659.5 532.5ZM1304.5 549.5C1253.27 566.789 1204.6 561.289 1158.5 533C1184.16 539.311 1209.83 545.977 1235.5 553C1258.7 555.654 1281.7 554.487 1304.5 549.5ZM454.5 533.5C456.017 533.511 457.184 534.177 458 535.5C461.5 541.833 465 548.167 468.5 554.5C442.885 562.651 417.218 570.484 391.5 578C413.619 564.62 434.619 549.786 454.5 533.5ZM444.5 534.5C446.199 534.34 447.866 534.506 449.5 535C427.132 553.354 403.132 569.354 377.5 583C321.47 601.841 264.803 618.507 207.5 633C160.287 637.112 113.954 632.445 68.5 619C85.5 618.667 102.5 618.333 119.5 618C142.065 615.108 164.732 613.774 187.5 614C258.832 608.556 324.498 586.556 384.5 548C404.489 542.833 424.489 538.333 444.5 534.5ZM1257.5 689.5C1213.77 717.741 1165.77 732.741 1113.5 734.5C1084.29 734.159 1055.96 728.992 1028.5 719C1015.01 714.058 1001.67 708.725 988.5 703C921.55 667.358 853.883 633.025 785.5 600C745.115 580.983 703.782 564.316 661.5 550C666.532 544.633 671.865 539.633 677.5 535C695.169 535.799 712.502 538.799 729.5 544C782.192 559.679 832.859 580.345 881.5 606C919.821 626.488 957.155 648.488 993.5 672C1018.64 687.071 1044.98 699.738 1072.5 710C1122.29 726.403 1171.62 725.069 1220.5 706C1233.09 701.037 1245.42 695.537 1257.5 689.5ZM579.5 535.5C588.198 535.065 588.364 536.732 580 540.5C577.44 539.47 574.94 538.303 572.5 537C575.036 536.814 577.369 536.314 579.5 535.5ZM589.5 535.5C593.02 535.805 596.353 536.638 599.5 538C594.987 539.504 590.487 541.004 586 542.5C585.167 542.167 584.333 541.833 583.5 541.5C585.533 539.493 587.533 537.493 589.5 535.5ZM497.5 536.5C501.601 538.765 504.934 541.932 507.5 546C501.865 547.529 496.198 548.529 490.5 549C488.789 547.867 488.289 546.367 489 544.5C492.333 542.333 495.166 539.666 497.5 536.5ZM542.5 537.5C543.376 537.369 544.043 537.702 544.5 538.5C542.192 539.873 541.525 539.54 542.5 537.5ZM564.5 537.5C569.558 538.027 574.224 539.693 578.5 542.5C575.053 547.262 570.386 549.428 564.5 549C560.167 546 555.833 543 551.5 540C556.015 539.386 560.348 538.552 564.5 537.5ZM603.5 538.5C608.978 538.729 614.311 539.729 619.5 541.5C614.563 544.886 609.396 547.886 604 550.5C598.776 548.471 593.609 546.305 588.5 544C593.714 542.432 598.714 540.599 603.5 538.5ZM544.5 540.5C551.172 542.479 557.172 545.812 562.5 550.5C557.073 552.962 551.573 555.296 546 557.5C542.133 553.298 537.967 549.465 533.5 546C535.349 544.907 537.016 543.574 538.5 542C540.708 541.809 542.708 541.309 544.5 540.5ZM28.5 541.5C32.5138 541.334 36.5138 541.501 40.5 542C69.7325 549.157 99.3992 552.157 129.5 551C109.457 557.542 88.9569 562.042 68 564.5C46.2976 560.266 25.4643 553.432 5.5 544C13.3045 543.068 20.9711 542.235 28.5 541.5ZM1321.5 541.5C1319.49 542.924 1317.15 543.59 1314.5 543.5C1316.51 542.076 1318.85 541.41 1321.5 541.5ZM625.5 542.5C630.228 543.349 634.895 544.515 639.5 546C633.667 550.5 627.833 555 622 559.5C619.246 557.873 616.412 556.373 613.5 555C617.704 550.964 621.704 546.798 625.5 542.5ZM527.5 543.5C528.627 544.122 529.627 544.955 530.5 546C526.761 549.617 522.928 553.117 519 556.5C517.374 553.872 515.374 551.539 513 549.5C512.517 548.552 512.351 547.552 512.5 546.5C517.744 546.118 522.744 545.118 527.5 543.5ZM621.5 543.5C618.204 547.298 614.704 550.964 611 554.5C609.581 553.54 608.081 552.707 606.5 552C611.23 548.636 616.23 545.803 621.5 543.5ZM1314.5 543.5C1278.67 555.26 1242.67 555.427 1206.5 544C1227.07 546.269 1247.74 547.769 1268.5 548.5C1284.02 548.442 1299.35 546.776 1314.5 543.5ZM1255.5 543.5C1261.91 543.183 1268.24 543.683 1274.5 545C1264.17 545.667 1253.83 545.667 1243.5 545C1247.69 544.824 1251.69 544.324 1255.5 543.5ZM583.5 545.5C589.777 546.801 595.777 548.967 601.5 552C595.418 555.123 589.585 558.623 584 562.5C579.564 559.697 575.397 556.531 571.5 553C574.791 549.197 578.791 546.697 583.5 545.5ZM641.5 546.5C646.845 547.892 652.178 549.392 657.5 551C652.167 556.333 646.833 561.667 641.5 567C640.5 567.667 639.5 567.667 638.5 567C633.802 564.651 629.136 562.318 624.5 560C630.354 555.636 636.021 551.136 641.5 546.5ZM481.5 551.5C483.261 547.257 485.594 546.757 488.5 550C486.26 550.977 483.927 551.477 481.5 551.5ZM508.5 547.5C511.635 550.808 514.635 554.308 517.5 558C513 561.833 508.5 565.667 504 569.5C500.167 563.833 496.333 558.167 492.5 552.5C497.796 550.513 503.129 548.846 508.5 547.5ZM531.5 547.5C535.924 550.418 539.924 553.918 543.5 558C538.079 560.363 532.579 562.529 527 564.5C524.179 563.013 522.013 560.846 520.5 558C524.241 554.484 527.908 550.984 531.5 547.5ZM1311.5 547.5C1309.49 548.924 1307.15 549.59 1304.5 549.5C1306.51 548.076 1308.85 547.41 1311.5 547.5ZM373.5 550.5C375.379 550.393 375.712 550.893 374.5 552C308.116 592.014 236.116 612.347 158.5 613C181.771 608.02 204.771 602.02 227.5 595C276.192 579.833 324.859 565 373.5 550.5ZM1242.5 701.5C1194.31 732.395 1141.47 748.728 1084 750.5C1045.31 749.628 1007.81 742.462 971.5 729C949.759 720.975 928.426 711.975 907.5 702C818.174 659.504 729.84 615.17 642.5 569C648.348 562.985 654.348 557.152 660.5 551.5C712.419 569.625 763.086 590.792 812.5 615C869.303 643.234 925.637 672.234 981.5 702C1007.81 714.487 1035.15 724.154 1063.5 731C1108.35 740.589 1152.35 737.589 1195.5 722C1211.56 716.036 1227.23 709.203 1242.5 701.5ZM486.5 552.5C487.978 552.238 489.311 552.571 490.5 553.5C494.416 558.996 498.082 564.663 501.5 570.5C497.627 575.274 492.627 578.274 486.5 579.5C484.551 578.293 483.051 576.627 482 574.5C479.287 568.906 476.453 563.406 473.5 558C473.905 557.055 474.572 556.388 475.5 556C479.333 554.966 482.999 553.8 486.5 552.5ZM563.5 552.5C565.103 552.312 566.437 552.812 567.5 554C563.033 557.465 558.867 561.298 555 565.5C552.795 562.96 550.295 560.793 547.5 559C553.054 557.1 558.387 554.934 563.5 552.5ZM602.5 553.5C605.226 553.264 607.559 554.097 609.5 556C605.167 560.333 600.833 564.667 596.5 569C592.58 568.535 589.247 566.701 586.5 563.5C591.898 560.142 597.231 556.808 602.5 553.5ZM568.5 555.5C573.159 557.301 577.492 559.801 581.5 563C575.664 566.752 569.664 570.252 563.5 573.5C561.016 571.517 558.683 569.35 556.5 567C560.395 562.935 564.395 559.102 568.5 555.5ZM611.5 556.5C614.301 557.735 616.968 559.235 619.5 561C614.198 565.981 608.531 570.481 602.5 574.5C600.37 573.533 598.37 572.366 596.5 571C602.003 566.663 607.003 561.83 611.5 556.5ZM467.5 557.5C469.379 557.393 469.712 557.893 468.5 559C357.164 644.996 232.498 673.33 94.5 644C118.537 645.065 142.537 644.399 166.5 642C190.036 637.76 213.703 634.426 237.5 632C287.222 624.315 334.222 608.648 378.5 585C408.128 575.288 437.795 566.121 467.5 557.5ZM362.5 624.5C401.599 607.534 437.765 585.867 471 559.5C475.293 566.585 479.46 573.751 483.5 581C443.566 596.635 403.233 611.135 362.5 624.5ZM518.5 559.5C520.033 561.355 521.7 563.188 523.5 565C517.766 567.691 511.932 570.191 506 572.5C505.333 571.833 505.333 571.167 506 570.5C510.36 566.968 514.527 563.301 518.5 559.5ZM544.5 559.5C547.919 561.412 550.919 563.912 553.5 567C548.646 571.355 543.646 575.522 538.5 579.5C534.676 575.507 531.009 571.34 527.5 567C533.192 564.387 538.859 561.887 544.5 559.5ZM622.5 561.5C627.965 564.066 633.298 566.899 638.5 570C632.667 575.833 626.833 581.667 621 587.5C615.238 584.036 609.738 580.203 604.5 576C610.688 571.303 616.688 566.469 622.5 561.5ZM583.5 564.5C586.681 566.837 590.014 569.004 593.5 571C588.319 576.348 582.985 581.515 577.5 586.5C573.5 582.833 569.5 579.167 565.5 575.5C571.54 571.772 577.54 568.105 583.5 564.5ZM189.5 567.5C161.712 577.867 133.045 585.2 103.5 589.5C76.3137 585.953 49.9804 579.12 24.5 569C38.5275 568.615 52.5275 567.781 66.5 566.5C87.1787 570.075 108.012 572.075 129 572.5C149.276 572.056 169.443 570.389 189.5 567.5ZM523.5 567.5C525.716 568.203 527.549 569.536 529 571.5C531.692 574.692 534.192 578.025 536.5 581.5C531.786 586.381 526.619 590.715 521 594.5C516.263 588.036 511.763 581.369 507.5 574.5C512.925 572.145 518.258 569.812 523.5 567.5ZM554.5 568.5C556.963 570.461 559.297 572.628 561.5 575C555.833 578 550.167 581 544.5 584C541.333 584.833 540.167 583.667 541 580.5C545.694 576.635 550.194 572.635 554.5 568.5ZM1229.5 712.5C1137.07 770.643 1038.74 782.81 934.5 749C822.736 710.125 719.069 656.625 623.5 588.5C629.152 582.348 634.985 576.348 641 570.5C730.609 618.221 821.442 663.721 913.5 707C947.386 723.606 982.72 736.272 1019.5 745C1072.72 757.369 1125.06 754.369 1176.5 736C1194.69 729.236 1212.36 721.403 1229.5 712.5ZM594.5 572.5C596.612 573.44 598.612 574.606 600.5 576C594.266 581.614 587.599 586.28 580.5 590C579.549 589.282 579.383 588.449 580 587.5C585.037 582.631 589.87 577.631 594.5 572.5ZM502.5 575.5C503.822 575.33 504.989 575.663 506 576.5C510.417 582.998 514.584 589.665 518.5 596.5C513.256 600.71 507.423 604.043 501 606.5C500.228 606.355 499.561 606.022 499 605.5C495.293 598.586 491.46 591.752 487.5 585C491.922 580.796 496.922 577.63 502.5 575.5ZM561.5 576.5C566.855 579.342 571.522 583.175 575.5 588C570.282 593.72 564.616 598.887 558.5 603.5C553.3 598.465 548.633 592.965 544.5 587C550.231 583.475 555.897 579.975 561.5 576.5ZM601.5 577.5C607.599 581.083 613.599 584.917 619.5 589C613.319 595.348 606.986 601.515 600.5 607.5C594.384 602.887 588.718 597.72 583.5 592C589.688 587.303 595.688 582.469 601.5 577.5ZM483.5 582.5C484.097 582.735 484.43 583.235 484.5 584C418.428 634.677 343.761 665.01 260.5 675C214.191 680.32 168.191 678.32 122.5 669C171.254 672.125 219.254 667.458 266.5 655C340.609 635.686 412.942 611.519 483.5 582.5ZM529.5 591.5C531.834 588.334 534.667 585.667 538 583.5C538.833 584.333 539.667 585.167 540.5 586C537.09 588.372 533.423 590.205 529.5 591.5ZM484.5 586.5C485.496 586.414 486.329 586.748 487 587.5C490.298 594.291 493.798 600.958 497.5 607.5C416.602 648.521 331.269 676.021 241.5 690C202.094 694.553 162.761 693.886 123.5 688C88.4734 679.66 55.1401 666.993 23.5 650C40.6762 654.292 58.0096 658.292 75.5 662C94.6524 664.827 113.652 668.494 132.5 673C257.13 692.613 371.13 666.613 474.5 595C478.025 592.302 481.358 589.469 484.5 586.5ZM541.5 587.5C546.261 593.436 551.261 599.269 556.5 605C550.647 610.354 544.647 615.52 538.5 620.5C532.616 613.44 527.283 605.94 522.5 598C529.217 594.98 535.551 591.48 541.5 587.5ZM1.5 590.5C1.91695 589.876 2.58362 589.543 3.5 589.5C14.4387 591.194 25.4387 592.361 36.5 593C67.8303 604.582 100.164 611.582 133.5 614C107.87 617.639 82.2033 617.972 56.5 615C37.4328 608.466 19.0994 600.299 1.5 590.5ZM576.5 589.5C579.578 590.664 579.912 592.164 577.5 594C572.5 597.667 567.5 601.333 562.5 605C561.833 605.667 561.167 605.667 560.5 605C566.337 600.33 571.67 595.163 576.5 589.5ZM362.5 590.5C319.037 612.374 273.037 625.874 224.5 631C270.844 618.607 316.844 605.107 362.5 590.5ZM1209.5 727.5C1109.47 788.193 1003.13 802.026 890.5 769C782.442 736.329 686.442 682.995 602.5 609C608.681 602.652 615.014 596.485 621.5 590.5C711.031 653.276 807.364 704.11 910.5 743C961.442 762.268 1014.11 770.935 1068.5 769C1100.13 766.759 1130.8 760.093 1160.5 749C1177.09 742.371 1193.42 735.204 1209.5 727.5ZM580.5 593.5C586.783 598.446 592.783 603.78 598.5 609.5C592.176 615.656 585.676 621.656 579 627.5C573.167 621 567.333 614.5 561.5 608C568.262 603.631 574.595 598.798 580.5 593.5ZM518.5 599.5C519.675 599.281 520.675 599.614 521.5 600.5C526.305 607.805 531.305 614.971 536.5 622C529.631 626.366 522.631 630.532 515.5 634.5C511.04 627.082 506.707 619.582 502.5 612C508.02 607.97 513.353 603.803 518.5 599.5ZM498.5 609.5C499.645 610.793 499.311 611.959 497.5 613C393.69 684.949 279.023 711.949 153.5 694C203.5 697.389 252.833 693.055 301.5 681C370 664.559 435.667 640.726 498.5 609.5ZM558.5 609.5C560.716 610.203 562.549 611.536 564 613.5C568.5 618.667 573 623.833 577.5 629C570.644 634.691 563.644 640.191 556.5 645.5C550.237 638.487 544.571 630.987 539.5 623C546.014 618.637 552.347 614.137 558.5 609.5ZM1194.5 739.5C1068.87 815.149 937.199 827.315 799.5 776C714.602 744.385 641.602 695.385 580.5 629C587.333 622.833 594.167 616.667 601 610.5C673.528 674.715 755.694 723.548 847.5 757C899.272 777.188 952.939 787.688 1008.5 788.5C1052.89 788.321 1095.89 780.488 1137.5 765C1156.98 757.562 1175.98 749.062 1194.5 739.5ZM12.5 612.5C12.7352 611.903 13.2352 611.57 14 611.5C29.0807 614.226 44.2473 616.392 59.5 618C101.108 631.325 143.775 637.658 187.5 637C151.974 642.933 116.307 643.933 80.5 640C56.8149 633.274 34.1482 624.107 12.5 612.5ZM499.5 613.5C500.376 613.369 501.043 613.702 501.5 614.5C505.373 621.747 509.373 628.914 513.5 636C435.594 680.635 351.927 707.635 262.5 717C173.703 725.109 91.036 706.443 14.5 661C32.7878 667.761 51.4544 673.761 70.5 679C112.645 689.429 155.312 696.763 198.5 701C301.236 705.985 395.903 680.985 482.5 626C488.234 621.812 493.901 617.646 499.5 613.5ZM536.5 624.5C542.738 631.433 548.405 638.933 553.5 647C546.941 652.72 539.941 657.887 532.5 662.5C527.139 654.957 522.139 647.124 517.5 639C523.902 634.146 530.235 629.313 536.5 624.5ZM1174.5 754.5C1095.23 802.751 1009.06 828.084 916 830.5C782.988 826.429 671.654 775.762 582 678.5C573.833 668.333 565.667 658.167 557.5 648C564.5 642.167 571.5 636.333 578.5 630.5C663.187 721.2 766.854 778.7 889.5 803C976.053 817.397 1059.39 806.73 1139.5 771C1151.19 765.488 1162.86 759.988 1174.5 754.5ZM21.5 632.5C40.6932 636.421 60.0265 639.588 79.5 642C140.712 659.194 202.712 662.694 265.5 652.5C211.766 667.62 157.1 671.453 101.5 664C73.4611 656.715 46.7944 646.215 21.5 632.5ZM508.5 641.5C508.027 642.906 507.027 643.573 505.5 643.5C505.973 642.094 506.973 641.427 508.5 641.5ZM505.5 643.5C416.914 701.151 319.581 726.984 213.5 721C298.635 720.049 379.968 702.049 457.5 667C473.676 659.412 489.676 651.578 505.5 643.5ZM1161.5 765.5C1090.05 809.488 1012.72 837.988 929.5 851C829.618 864.359 737.285 844.026 652.5 790C603.896 756.732 564.229 715.065 533.5 665C540.695 659.639 548.028 654.472 555.5 649.5C638.481 756.514 747.814 817.014 883.5 831C965.959 835.908 1044.63 820.908 1119.5 786C1133.68 779.412 1147.68 772.578 1161.5 765.5ZM1214.5 724.5C1213.34 726.25 1211.67 727.25 1209.5 727.5C1210.66 725.75 1212.33 724.75 1214.5 724.5ZM1181.5 750.5C1180.34 752.25 1178.67 753.25 1176.5 753.5C1177.66 751.75 1179.33 750.75 1181.5 750.5Z" clip-rule="evenodd" opacity=".54"/></svg>