<svg xmlns="http://www.w3.org/2000/svg" width="70" height="70" fill="none" viewBox="0 0 70 70"><path fill="#54E0DB" fill-rule="evenodd" d="M69.9316 66.2403C69.9316 66.5592 69.9316 66.8783 69.9316 67.1973C69.8201 67.4221 69.6377 67.5815 69.3848 67.6758C46.416 67.767 23.4473 67.767 0.478516 67.6758C0.225554 67.5815 0.0432626 67.4221 -0.0683594 67.1973C-0.0683594 66.8783 -0.0683594 66.5592 -0.0683594 66.2403C0.0497139 66.0778 0.186432 65.9183 0.341797 65.7618C1.09676 65.629 1.84871 65.515 2.59766 65.42C4.2035 62.3447 5.84412 59.2914 7.51953 56.2598C8.67706 55.0118 9.99868 53.9636 11.4844 53.1153C15.5404 45.0033 19.5963 36.8913 23.6523 28.7793C24.5863 27.736 25.6572 27.5765 26.8652 28.3008C27.3893 28.7338 27.9135 29.1667 28.4375 29.5996C29.6745 26.8925 30.8593 24.1581 31.9922 21.3965C32.3606 20.6406 32.9304 20.0937 33.7012 19.7559C33.8151 14.1054 33.8834 8.45436 33.9062 2.80277C34.2392 2.15693 34.7633 1.95186 35.4785 2.18753C35.8236 2.44497 36.006 2.78677 36.0254 3.21292C39.1247 3.19014 42.2237 3.21292 45.3223 3.28128C45.9032 3.74293 46.0171 4.31259 45.6641 4.99027C45.0944 5.83337 44.5248 6.67646 43.9551 7.51956C44.5873 8.4421 45.2025 9.37634 45.8008 10.3223C46.0496 11.1702 45.7533 11.6943 44.9121 11.8946C41.9502 11.9629 38.9879 11.9857 36.0254 11.9629C36.0254 14.5606 36.0254 17.1582 36.0254 19.7559C36.9491 19.9722 37.6098 20.5191 38.0078 21.3965C41.0644 28.2206 44.1861 35.0108 47.373 41.7676C48.8205 40.9711 50.2105 41.0623 51.543 42.041C56.7879 49.8154 62.0059 57.6084 67.1973 65.42C67.9757 65.5166 68.7505 65.6305 69.5215 65.7618C69.6768 65.9183 69.8135 66.0778 69.9316 66.2403ZM36.0254 5.2637C38.259 5.24093 40.492 5.26372 42.7246 5.33206C42.2069 6.00316 41.7967 6.73232 41.4941 7.51956C41.7967 8.3068 42.2069 9.03596 42.7246 9.70706C40.492 9.77541 38.259 9.7982 36.0254 9.77542C36.0254 8.27152 36.0254 6.76761 36.0254 5.2637ZM15.2441 50.791C18.5407 43.9245 21.9131 37.0885 25.3613 30.2832C25.43 30.1436 25.521 30.1208 25.6348 30.2149C26.2377 30.7099 26.8529 31.1884 27.4805 31.6504C27.4038 32.0462 27.3354 32.4564 27.2754 32.8809C27.4498 33.8296 27.9967 34.1257 28.916 33.7696C29.1278 33.6036 29.2872 33.3985 29.3945 33.1543C30.9519 29.4471 32.547 25.7557 34.1797 22.0801C34.686 21.5764 35.2101 21.5537 35.752 22.0117C38.1592 27.0995 40.5289 32.2037 42.8613 37.3243C42.395 37.9529 41.8026 38.3859 41.084 38.6231C40.507 38.5267 40.0513 38.2304 39.7168 37.7344C37.748 36.6486 36.1301 37.036 34.8633 38.8965C34.2629 40.4163 33.6249 41.9202 32.9492 43.4082C32.2885 43.9356 31.6961 43.8444 31.1719 43.1348C29.9009 41.3443 28.6478 39.5442 27.4121 37.7344C27.7334 37.1735 27.7562 36.6039 27.4805 36.0254C26.5474 35.425 25.8638 35.6527 25.4297 36.709C24.0574 40.1431 22.5535 43.5156 20.918 46.8262C20.3893 47.4007 19.8197 47.9247 19.209 48.3985C17.8836 49.1976 16.562 49.9951 15.2441 50.791ZM37.5293 39.3067C37.8239 39.2892 38.0974 39.3575 38.3496 39.5118C39.4111 40.7901 40.7328 41.1546 42.3145 40.6055C42.8345 40.2904 43.3357 39.9486 43.8184 39.5801C44.4686 40.8352 45.0838 42.1113 45.6641 43.4082C45.7553 43.5905 45.7553 43.7729 45.6641 43.9551C45.1583 44.5827 45.0673 45.2662 45.3906 46.0059C45.8987 46.3387 46.4227 46.3615 46.9629 46.0743C47.4759 45.2304 48.0227 44.4101 48.6035 43.6133C49.0592 43.3399 49.515 43.3399 49.9707 43.6133C54.8131 50.9286 59.6894 58.2202 64.5996 65.4883C49.9252 65.5795 35.2506 65.5795 20.5762 65.4883C22.2992 63.8985 24.1222 62.4402 26.0449 61.1133C30.2079 59.4877 34.4005 57.9383 38.623 56.4649C40.1224 55.7955 41.3756 54.8158 42.3828 53.5254C43.2374 52.2267 44.0578 50.9051 44.8438 49.5606C45.0481 48.2605 44.524 47.782 43.2715 48.125C42.238 49.5691 41.2582 51.0501 40.332 52.5684C39.8424 53.1497 39.2727 53.6282 38.623 54.0039C34.9158 55.4473 31.1787 56.8145 27.4121 58.1055C25.6039 58.7356 23.9632 59.6471 22.4902 60.8399C20.6873 62.357 18.91 63.9066 17.1582 65.4883C13.1022 65.5795 9.04623 65.5795 4.99023 65.4883C6.29569 63.1739 7.54894 60.8269 8.75 58.4473C9.08463 57.8847 9.472 57.3607 9.91211 56.875C13.4893 54.5622 17.0896 52.2836 20.7129 50.0391C21.9929 49.1242 22.9727 47.9621 23.6523 46.5528C24.5118 44.4291 25.4231 42.3328 26.3867 40.2637C27.633 42.0115 28.9319 43.7205 30.2832 45.3907C31.9215 46.3198 33.4026 46.1147 34.7266 44.7754C35.5183 43.1064 36.2703 41.4202 36.9824 39.7168C37.174 39.5772 37.3563 39.4405 37.5293 39.3067Z" clip-rule="evenodd" opacity=".932"/></svg>