<svg width="70" height="70" viewBox="0 0 70 70" fill="none" xmlns="http://www.w3.org/2000/svg">
<path fill-rule="evenodd" clip-rule="evenodd" d="M41.9043 1.29882C42.2266 1.27649 42.5455 1.29927 42.8614 1.36717C43.0518 1.52729 43.1658 1.73236 43.2032 1.98241C43.2944 2.80272 43.2944 3.62303 43.2032 4.44335C42.7138 5.29826 42.167 5.34384 41.5625 4.58007C41.4713 3.62303 41.4713 2.666 41.5625 1.70897C41.7054 1.58956 41.8193 1.45284 41.9043 1.29882Z" fill="#54E0DB"/>
<path fill-rule="evenodd" clip-rule="evenodd" d="M35.752 2.39256C36.0742 2.37024 36.3932 2.39303 36.709 2.46092C37.1793 3.32373 37.5438 4.23519 37.8027 5.1953C37.6949 5.91064 37.2847 6.18408 36.5723 6.01561C36.3217 5.94725 36.1621 5.78774 36.0938 5.53709C35.8285 4.76428 35.5779 3.98953 35.3418 3.21288C35.3593 2.87726 35.496 2.60382 35.752 2.39256Z" fill="#54E0DB"/>
<path fill-rule="evenodd" clip-rule="evenodd" d="M48.0566 2.39248C48.8124 2.19687 49.2682 2.47031 49.4238 3.21279C49.1661 4.04719 48.8698 4.8675 48.5352 5.67373C48.1689 6.12963 47.736 6.19799 47.2363 5.87881C47.034 5.70119 46.9429 5.47333 46.9629 5.19521C47.1812 4.19762 47.5457 3.26336 48.0566 2.39248Z" fill="#54E0DB"/>
<path fill-rule="evenodd" clip-rule="evenodd" d="M30.2832 5.53709C30.6054 5.51477 30.9244 5.53756 31.2402 5.60545C31.9689 6.31006 32.5615 7.1076 33.0176 7.99803C32.8304 8.70733 32.3746 8.95798 31.6504 8.74999C30.8915 8.03865 30.2991 7.21834 29.873 6.28905C29.9227 5.98932 30.0594 5.73867 30.2832 5.53709Z" fill="#54E0DB"/>
<path fill-rule="evenodd" clip-rule="evenodd" d="M53.3887 5.53706C54.4812 5.2855 54.9142 5.69565 54.6875 6.76753C54.1987 7.49208 53.629 8.15288 52.9785 8.74995C52.0443 8.90946 51.6568 8.52208 51.8164 7.58784C52.3176 6.88222 52.8417 6.19863 53.3887 5.53706Z" fill="#54E0DB"/>
<path fill-rule="evenodd" clip-rule="evenodd" d="M40.537 6.63078C47.2524 6.17816 52.0602 8.95812 54.9609 14.9706C56.5815 19.4081 56.1714 23.6464 53.7304 27.6855C53.2291 28.2323 52.7278 28.2323 52.2265 27.6855C52.1353 27.3665 52.1353 27.0474 52.2265 26.7284C55.0607 21.879 54.8328 17.1851 51.5429 12.6464C47.2379 8.07582 42.2477 7.14158 36.5722 9.84367C31.3243 13.2808 29.5241 18.0431 31.1718 24.1308C32.0677 26.3772 33.4349 28.2913 35.2734 29.873C36.9335 32.0957 37.8222 34.6022 37.9394 37.3925C39.1243 37.3925 40.3091 37.3925 41.4941 37.3925C41.4941 34.0201 41.4941 30.6478 41.4941 27.2753C37.5544 26.8438 34.4326 25.021 32.1288 21.8066C32.0092 21.6188 31.9409 21.4138 31.9238 21.1913C33.6571 18.3669 36.118 16.4528 39.3066 15.4491C44.6591 14.3924 49.0113 16.0102 52.3632 20.3027C52.7555 20.8164 52.801 21.3633 52.4999 21.9433C50.1738 25.0219 47.0976 26.7993 43.2714 27.2753C43.2714 30.6478 43.2714 34.0201 43.2714 37.3925C44.4564 37.3925 45.6412 37.3925 46.8261 37.3925C46.9375 34.1625 48.0769 31.3598 50.2441 28.9843C51.0295 28.6478 51.5309 28.8986 51.748 29.7363C50.8478 30.9433 50.0502 32.2193 49.3554 33.5644C48.8411 34.8371 48.5449 36.1588 48.4667 37.5292C49.6085 37.828 50.3149 38.5572 50.5859 39.7167C50.7007 42.0408 49.5841 43.2713 47.2363 43.4081C47.6857 44.7388 47.4122 45.9009 46.416 46.8945C46.0569 47.1879 45.6468 47.3701 45.1855 47.4413C43.2714 47.5325 41.3574 47.5325 39.4433 47.4413C37.5127 46.6791 36.8748 45.3119 37.5292 43.3398C34.6089 43.0812 33.5835 41.5546 34.4531 38.7597C34.8549 38.2042 35.3789 37.794 36.0253 37.5292C36.1444 35.2653 35.5292 33.2145 34.1796 31.3769C32.9835 30.1814 31.8897 28.9053 30.8984 27.5488C28.128 22.7465 28.0825 17.9157 30.7617 13.0566C33.1161 9.52211 36.3745 7.38019 40.537 6.63078ZM41.6308 16.748C45.4005 16.7644 48.4539 18.2456 50.791 21.1913C47.5887 25.2362 43.5327 26.4666 38.623 24.8827C36.7959 24.0369 35.2464 22.8291 33.9745 21.2597C35.9069 18.6987 38.4591 17.1948 41.6308 16.748ZM36.7089 39.0331C40.4461 39.0103 44.1832 39.0331 47.9199 39.1015C48.9245 39.565 49.1295 40.2714 48.5351 41.2206C48.2692 41.407 47.9729 41.521 47.6464 41.5624C44.0917 41.6536 40.537 41.6536 36.9824 41.5624C35.4661 40.8665 35.375 40.0235 36.7089 39.0331ZM39.9902 43.2714C41.5858 43.2486 43.1809 43.2714 44.7753 43.3398C45.9164 43.9873 46.0076 44.7619 45.0488 45.664C43.4161 45.8801 41.7754 45.9258 40.1269 45.8007C39.0718 45.4904 38.7757 44.8296 39.2382 43.8183C39.4433 43.5491 39.6939 43.3668 39.9902 43.2714Z" fill="#54E0DB"/>
<path fill-rule="evenodd" clip-rule="evenodd" d="M26.3184 10.3222C26.5955 10.3 26.869 10.3228 27.1387 10.3905C27.7311 10.7095 28.3237 11.0285 28.9161 11.3476C29.4516 11.735 29.5656 12.2135 29.2579 12.7831C28.9512 13.0267 28.6094 13.0951 28.2325 12.9882C27.5489 12.6008 26.8653 12.2134 26.1817 11.8261C25.7952 11.2767 25.8407 10.7755 26.3184 10.3222Z" fill="#54E0DB"/>
<path fill-rule="evenodd" clip-rule="evenodd" d="M57.4902 10.3223C58.6094 10.1869 58.9967 10.6427 58.6523 11.6895C57.9802 12.1739 57.2738 12.6069 56.5332 12.9884C55.4055 13.0897 55.0637 12.6112 55.5078 11.5528C56.1922 11.1614 56.8529 10.7512 57.4902 10.3223Z" fill="#54E0DB"/>
<path fill-rule="evenodd" clip-rule="evenodd" d="M24.1309 16.2012C25.0536 16.217 25.9651 16.3309 26.8652 16.543C27.6505 16.9712 27.7417 17.518 27.1387 18.1836C26.1193 18.1962 25.1167 18.0595 24.1309 17.7734C23.5951 17.2502 23.5951 16.726 24.1309 16.2012Z" fill="#54E0DB"/>
<path fill-rule="evenodd" clip-rule="evenodd" d="M59.4043 16.2011C60.7003 15.9242 61.156 16.4028 60.7715 17.6367C59.755 18.0132 58.7068 18.1954 57.627 18.1835C57.1441 17.72 57.0984 17.2187 57.4903 16.6796C58.1398 16.5042 58.7779 16.3447 59.4043 16.2011Z" fill="#54E0DB"/>
<path fill-rule="evenodd" clip-rule="evenodd" d="M41.6309 17.9784C42.1965 17.93 42.7434 17.9984 43.2716 18.1835C42.6867 19.4975 43.0968 20.295 44.502 20.5761C44.8337 20.5892 45.13 20.4982 45.3907 20.3026C45.884 22.2718 45.1776 23.6162 43.2716 24.3358C40.2866 24.6321 38.9421 23.2876 39.2384 20.3026C39.6634 19.1254 40.461 18.3506 41.6309 17.9784Z" fill="#54E0DB"/>
<path fill-rule="evenodd" clip-rule="evenodd" d="M26.0449 22.0801C27.1142 21.8522 27.5927 22.2623 27.4805 23.3106C27.3666 23.4245 27.2526 23.5385 27.1387 23.6524C26.3334 23.8853 25.5131 24.0449 24.6777 24.1309C24.0785 24.1471 23.7595 23.851 23.7207 23.2422C23.7403 22.9481 23.877 22.7202 24.1309 22.5586C24.7841 22.3879 25.4222 22.2283 26.0449 22.0801Z" fill="#54E0DB"/>
<path fill-rule="evenodd" clip-rule="evenodd" d="M57.6271 22.0801C58.6475 22.1246 59.6501 22.2842 60.6349 22.5586C60.9418 22.9545 60.9873 23.3875 60.7716 23.8574C60.5637 24.0539 60.3129 24.1451 60.0197 24.1309C59.1657 24.0227 58.3226 23.8632 57.4904 23.6523C57.2164 23.2639 57.148 22.8311 57.2853 22.3535C57.4213 22.2761 57.5352 22.1849 57.6271 22.0801Z" fill="#54E0DB"/>
<path fill-rule="evenodd" clip-rule="evenodd" d="M28.0957 27.2754C29.2149 27.1401 29.6022 27.5958 29.2578 28.6426C28.5857 29.127 27.8793 29.56 27.1387 29.9415C26.1086 30.0733 25.744 29.6404 26.0449 28.6426C26.7341 28.1789 27.4177 27.7231 28.0957 27.2754Z" fill="#54E0DB"/>
<path fill-rule="evenodd" clip-rule="evenodd" d="M55.7129 27.2753C55.9901 27.2531 56.2635 27.276 56.5332 27.3436C57.1713 27.7083 57.8092 28.0728 58.4473 28.4374C58.8785 28.8168 58.9469 29.2498 58.6524 29.7362C58.3457 29.9798 58.0039 30.0482 57.627 29.9413C56.899 29.6231 56.2154 29.2358 55.5762 28.7792C55.1883 28.2359 55.234 27.7345 55.7129 27.2753Z" fill="#54E0DB"/>
<path fill-rule="evenodd" clip-rule="evenodd" d="M4.44336 35.3418C6.90472 35.319 9.36566 35.3418 11.8262 35.4102C14.0972 36.0065 15.191 37.4878 15.1074 39.8535C16.7031 39.8307 18.2982 39.8535 19.8926 39.9219C20.9304 40.1446 21.8874 40.5548 22.7637 41.1524C25.9537 43.4766 29.1439 45.8008 32.334 48.125C32.8427 48.4705 33.3896 48.7439 33.9746 48.9453C38.0751 49.0831 42.1766 49.2199 46.2793 49.3555C48.1971 50.2041 49.0401 51.6853 48.8086 53.7988C53.4674 52.2003 58.1387 50.6281 62.8223 49.0821C65.3693 48.4306 67.215 49.2737 68.3594 51.6113C69.1156 54.3139 68.2269 56.2508 65.6934 57.4219C64.9584 57.6592 64.2291 57.91 63.5059 58.1738C62.7415 58.0165 62.4907 57.5608 62.7539 56.8067C63.6926 56.2957 64.6723 55.8628 65.6934 55.5078C67.1285 54.2581 67.288 52.8682 66.1719 51.3379C65.6333 50.8978 65.0181 50.6244 64.3262 50.5176C58.2445 52.3701 52.2289 54.3981 46.2793 56.6016C41.5397 56.6928 36.8002 56.6928 32.0605 56.6016C31.5137 56.1002 31.5137 55.599 32.0605 55.0977C36.39 55.0521 40.7194 55.0065 45.0488 54.961C46.7815 54.753 47.3967 53.8188 46.8945 52.1582C46.6149 51.5973 46.182 51.2099 45.5957 50.9961C41.9955 50.9506 38.3951 50.9049 34.7949 50.8594C33.3041 50.7121 31.9825 50.1653 30.8301 49.2188C27.5488 46.849 24.2676 44.4791 20.9863 42.1094C20.4195 41.8446 19.8271 41.6622 19.209 41.5625C17.8426 41.4942 16.4754 41.4715 15.1074 41.4942C15.1074 47.1908 15.1074 52.8873 15.1074 58.584C16.5998 58.4735 18.0582 58.6331 19.4824 59.0625C23.8574 61.569 28.2324 64.0756 32.6074 66.5821C33.0806 66.7179 33.5591 66.8318 34.043 66.9238C34.9539 66.7571 35.8426 66.5063 36.709 66.1719C44.5371 63.2739 52.3756 60.4028 60.2246 57.5586C61.3905 57.4714 61.7096 57.9499 61.1816 58.9942C52.5474 62.2292 43.8886 65.3966 35.2051 68.4961C33.5296 68.7836 31.9802 68.4645 30.5566 67.5391C26.4439 65.027 22.2511 62.6573 17.9785 60.4297C17.0226 60.3613 16.0655 60.3387 15.1074 60.3613C15.4893 62.8514 14.5322 64.5604 12.2363 65.4883C9.50195 65.5795 6.76758 65.5795 4.0332 65.4883C2.46757 64.9707 1.53331 63.8998 1.23047 62.2754C1.13932 61.4551 1.13932 60.6348 1.23047 59.8145C1.51111 59.296 1.94406 59.1366 2.5293 59.336C2.69355 59.4594 2.80749 59.6188 2.87109 59.8145C2.91666 60.6348 2.96224 61.4551 3.00781 62.2754C3.27619 63.1273 3.84584 63.6513 4.7168 63.8477C6.99545 63.9389 9.27408 63.9389 11.5527 63.8477C12.4312 63.6526 13.0008 63.1285 13.2617 62.2754C13.3529 54.3912 13.3529 46.5072 13.2617 38.6231C12.9655 37.9623 12.487 37.4838 11.8262 37.1875C9.36523 37.0963 6.9043 37.0963 4.44336 37.1875C3.72456 37.496 3.24605 38.0201 3.00781 38.7598C2.96224 44.8209 2.91666 50.8822 2.87109 56.9434C2.5251 57.5299 2.04658 57.6438 1.43555 57.2852C1.34999 57.1826 1.28163 57.0686 1.23047 56.9434C1.13932 50.8822 1.13932 44.8209 1.23047 38.7598C1.58103 36.9284 2.65199 35.7892 4.44336 35.3418Z" fill="#54E0DB"/>
</svg>
