<svg xmlns="http://www.w3.org/2000/svg" width="100" fill="none" viewBox="0 0 200 93"><path fill="#fff" d="M-0.00170898 63.7668C-0.00170898 66.2363 0.312823 68.6293 0.907884 70.9118L-0.00170898 63.7668Z"/><path fill="#fff" d="M193.759 46.0398C196.228 42.971 198.069 39.3793 199.089 35.4562C199.684 33.1737 199.998 30.7807 199.998 28.3112C199.998 25.8417 199.684 23.4487 199.089 21.1662C195.922 8.98873 184.854 -0.000946045 171.686 -0.000946045H-0.00170898V21.1662H171.686C175.631 21.1662 178.831 24.3668 178.831 28.3112C178.831 32.2556 175.631 35.4562 171.686 35.4562H136.229C123.061 35.4562 111.993 44.4459 108.831 56.6234C108.231 58.9058 107.917 61.2988 107.917 63.7683C107.917 66.2378 108.231 68.6308 108.826 70.9133C111.993 83.0908 123.061 92.0805 136.229 92.0805H171.686C184.854 92.0805 195.922 83.0908 199.089 70.9133C199.684 68.6308 199.998 66.2378 199.998 63.7683C199.998 61.2988 199.684 58.9058 199.084 56.6234C198.069 52.7002 196.224 49.1086 193.759 46.0398ZM171.686 70.9133H136.229C132.28 70.9133 129.084 67.717 129.084 63.7683C129.084 59.8197 132.28 56.6234 136.229 56.6234H171.686C175.631 56.6234 178.831 59.8239 178.831 63.7683C178.831 67.7127 175.631 70.9133 171.686 70.9133Z"/><path fill="#fff" d="M21.1612 63.7722C21.1612 67.7208 24.3618 70.9171 28.3104 70.9171H93.6268V92.0843H28.3104C15.1426 92.0843 4.07446 83.0946 0.907884 70.9171C0.312823 68.6347 -0.00170898 66.2417 -0.00170898 63.7722C-0.00170898 61.3027 0.312823 58.9097 0.912134 56.6272C4.07446 44.4497 15.1426 35.46 28.3104 35.46H93.6268V56.6272H28.3104C24.3618 56.6272 21.1612 59.8278 21.1612 63.7722Z"/></svg>