<svg width="200" viewBox="0 0 199 48" fill="none" xmlns="http://www.w3.org/2000/svg">
<g clip-path="url(#clip0_272_62)">
<path d="M-0.000793457 29.5437C-0.000793457 30.6878 0.144932 31.7965 0.420629 32.854L-0.000793457 29.5437Z" fill="white"/>
<path d="M89.77 21.3306C90.9142 19.9088 91.7668 18.2448 92.2395 16.4272C92.5152 15.3697 92.6609 14.261 92.6609 13.1168C92.6609 11.9727 92.5152 10.864 92.2395 9.8065C90.7724 4.16456 85.6444 -0.000427246 79.5436 -0.000427246H-0.000793457V9.8065H79.5436C81.3711 9.8065 82.854 11.2894 82.854 13.1168C82.854 14.9443 81.3711 16.4272 79.5436 16.4272H63.116C57.0153 16.4272 51.8873 20.5922 50.4222 26.2341C50.1445 27.2916 49.9988 28.4003 49.9988 29.5444C49.9988 30.6886 50.1445 31.7973 50.4202 32.8548C51.8873 38.4967 57.0153 42.6617 63.116 42.6617H79.5436C85.6444 42.6617 90.7724 38.4967 92.2395 32.8548C92.5152 31.7973 92.6609 30.6886 92.6609 29.5444C92.6609 28.4003 92.5152 27.2916 92.2375 26.2341C91.7668 24.4165 90.9122 22.7524 89.77 21.3306ZM79.5436 32.8548H63.116C61.2866 32.8548 59.8057 31.3739 59.8057 29.5444C59.8057 27.715 61.2866 26.2341 63.116 26.2341H79.5436C81.3711 26.2341 82.854 27.7169 82.854 29.5444C82.854 31.3719 81.3711 32.8548 79.5436 32.8548Z" fill="white"/>
<path d="M9.80416 29.5462C9.80416 31.3756 11.287 32.8565 13.1165 32.8565H43.3781V42.6634H13.1165C7.01569 42.6634 1.88773 38.4984 0.420629 32.8565C0.144932 31.799 -0.000793457 30.6903 -0.000793457 29.5462C-0.000793457 28.402 0.144932 27.2933 0.422598 26.2358C1.88773 20.5939 7.01569 16.4289 13.1165 16.4289H43.3781V26.2358H13.1165C11.287 26.2358 9.80416 27.7187 9.80416 29.5462Z" fill="white"/>
</g>
<path d="M190.512 18.4596C189.01 18.4596 187.68 18.2063 186.522 17.6995C185.363 17.1928 184.467 16.4146 183.834 15.3649C183.201 14.3153 182.884 12.9941 182.884 11.4015C182.884 9.95372 183.201 8.70497 183.834 7.65531C184.467 6.58754 185.345 5.7641 186.467 5.18497C187.607 4.60585 188.929 4.31628 190.431 4.31628C191.915 4.31628 193.209 4.56965 194.313 5.07639C195.435 5.58312 196.303 6.33418 196.919 7.32955C197.534 8.30683 197.842 9.50127 197.842 10.9129C197.842 11.1482 197.833 11.3653 197.815 11.5644C197.796 11.7635 197.769 11.9807 197.733 12.2159H185.517V10.0714H194.856L193.933 11.4015C193.933 11.2206 193.933 11.0486 193.933 10.8857C193.933 10.7229 193.933 10.56 193.933 10.3971C193.933 9.36554 193.652 8.62354 193.091 8.17109C192.53 7.71865 191.616 7.49243 190.349 7.49243C188.974 7.49243 188.015 7.76389 187.472 8.30683C186.929 8.83166 186.657 9.6732 186.657 10.8315V11.863C186.657 13.0213 186.929 13.8719 187.472 14.4148C188.015 14.9396 188.983 15.202 190.376 15.202C191.571 15.202 192.412 15.0482 192.901 14.7406C193.39 14.4329 193.634 13.9895 193.634 13.4104V13.1389H197.706V13.4375C197.706 14.4148 197.407 15.2835 196.81 16.0436C196.213 16.8037 195.371 17.4009 194.285 17.8353C193.218 18.2515 191.96 18.4596 190.512 18.4596Z" fill="white"/>
<path d="M182.58 18.1882H179.214C177.622 18.1882 176.373 17.7991 175.468 17.0209C174.563 16.2427 174.111 14.9939 174.111 13.2746V1.95453H178.183V12.8131C178.183 13.5009 178.328 13.9623 178.617 14.1976C178.925 14.4148 179.431 14.5234 180.137 14.5234H182.58V18.1882ZM182.58 7.95391H171.966V4.58774H182.58V7.95391Z" fill="white"/>
<path d="M171.748 18.1882H167.948V14.9577L167.73 14.9034V10.1528C167.73 9.266 167.504 8.66878 167.052 8.36112C166.617 8.05346 165.857 7.89963 164.771 7.89963C163.74 7.89963 162.998 8.05346 162.545 8.36112C162.093 8.66878 161.867 9.21171 161.867 9.98991V10.0985H157.768V10.0171C157.768 8.895 158.066 7.90868 158.664 7.05808C159.261 6.1894 160.102 5.51978 161.188 5.04924C162.292 4.5606 163.586 4.31628 165.07 4.31628C166.59 4.31628 167.839 4.5606 168.816 5.04924C169.812 5.53788 170.545 6.22559 171.015 7.11238C171.504 7.98107 171.748 9.01263 171.748 10.2071V18.1882ZM162.193 18.4596C160.727 18.4596 159.577 18.1339 158.745 17.4824C157.912 16.8308 157.496 15.9441 157.496 14.822C157.496 14.1343 157.659 13.5461 157.985 13.0575C158.311 12.5688 158.799 12.1797 159.451 11.8902C160.102 11.5825 160.917 11.3744 161.894 11.2658L168.002 10.6414V12.976L163.007 13.5461C162.518 13.5823 162.156 13.6818 161.921 13.8447C161.704 13.9895 161.595 14.2248 161.595 14.5505C161.595 14.9125 161.74 15.1749 162.03 15.3378C162.319 15.5007 162.763 15.5821 163.36 15.5821C164.337 15.5821 165.142 15.4916 165.776 15.3106C166.409 15.1297 166.889 14.8401 167.215 14.4419C167.559 14.0257 167.73 13.4737 167.73 12.786L168.111 12.7589V15.0663H167.73C167.423 16.116 166.798 16.9485 165.857 17.5638C164.934 18.161 163.713 18.4596 162.193 18.4596Z" fill="white"/>
<path d="M151.535 18.1882H146.513L140.323 4.58777H144.857L148.929 14.2248H149.2L153.299 4.58777H157.751L151.535 18.1882Z" fill="white"/>
<path d="M133.167 18.4596C131.665 18.4596 130.335 18.2063 129.177 17.6995C128.018 17.1928 127.122 16.4146 126.489 15.3649C125.856 14.3153 125.539 12.9941 125.539 11.4015C125.539 9.95372 125.856 8.70497 126.489 7.65531C127.122 6.58754 128 5.7641 129.122 5.18497C130.262 4.60585 131.584 4.31628 133.086 4.31628C134.57 4.31628 135.864 4.56965 136.968 5.07639C138.09 5.58312 138.958 6.33418 139.574 7.32955C140.189 8.30683 140.497 9.50127 140.497 10.9129C140.497 11.1482 140.488 11.3653 140.47 11.5644C140.451 11.7635 140.424 11.9807 140.388 12.2159H128.172V10.0714H137.511L136.588 11.4015C136.588 11.2206 136.588 11.0486 136.588 10.8857C136.588 10.7229 136.588 10.56 136.588 10.3971C136.588 9.36554 136.307 8.62354 135.746 8.17109C135.185 7.71865 134.271 7.49243 133.004 7.49243C131.629 7.49243 130.67 7.76389 130.127 8.30683C129.584 8.83166 129.312 9.6732 129.312 10.8315V11.863C129.312 13.0213 129.584 13.8719 130.127 14.4148C130.67 14.9396 131.638 15.202 133.031 15.202C134.226 15.202 135.067 15.0482 135.556 14.7406C136.045 14.4329 136.289 13.9895 136.289 13.4104V13.1389H140.361V13.4375C140.361 14.4148 140.062 15.2835 139.465 16.0436C138.868 16.8037 138.026 17.4009 136.94 17.8353C135.873 18.2515 134.615 18.4596 133.167 18.4596Z" fill="white"/>
<path d="M124.629 18.1882H120.557V0H124.629V18.1882Z" fill="white"/>
<path d="M108.212 18.1882H104.14V0H108.212V18.1882ZM119.532 18.1882H105.28V14.5234H119.532V18.1882ZM119.125 10.8586H105.28V7.22098H119.125V10.8586ZM119.532 3.66478H105.28V0H119.532V3.66478Z" fill="white"/>
<path d="M197.613 42.648H194.708C193.369 42.648 192.301 42.3313 191.505 41.6979C190.726 41.0645 190.337 39.9605 190.337 38.386V26.0344H192.292V38.4946C192.292 39.4357 192.527 40.0691 192.998 40.3949C193.468 40.7206 194.192 40.8835 195.169 40.8835H197.613V42.648ZM197.613 30.8936H187.948V29.2377H197.613V30.8936Z" fill="white"/>
<path d="M178.791 42.6478H176.863V35.1011C176.863 33.5628 176.501 32.4498 175.777 31.7621C175.053 31.0744 173.931 30.7305 172.411 30.7305C171.217 30.7305 170.248 30.9658 169.506 31.4363C168.783 31.9069 168.258 32.5674 167.932 33.418C167.606 34.2505 167.443 35.2278 167.443 36.3498L166.9 36.377L167.09 33.3366H167.552C167.715 32.5946 168.013 31.8888 168.448 31.2191C168.9 30.5495 169.515 30.0066 170.294 29.5904C171.072 29.1741 172.031 28.966 173.171 28.966C174.42 28.966 175.461 29.2284 176.293 29.7532C177.126 30.26 177.75 30.9567 178.166 31.8435C178.582 32.7303 178.791 33.7347 178.791 34.8568V42.6478ZM167.443 42.6478H165.516V24.4597H167.443V42.6478Z" fill="white"/>
<path d="M148.081 47.5342C146.869 47.5342 145.774 47.3352 144.796 46.937C143.837 46.5389 143.077 45.9778 142.516 45.2539C141.955 44.53 141.675 43.6432 141.675 42.5936H143.602C143.602 43.3718 143.774 44.0052 144.118 44.4938C144.462 44.9825 144.968 45.3354 145.638 45.5525C146.326 45.7697 147.167 45.8783 148.163 45.8783C149.321 45.8783 150.253 45.7426 150.959 45.4711C151.683 45.1996 152.198 44.7381 152.506 44.0866C152.832 43.4532 152.995 42.5845 152.995 41.4806V33.7709L153.185 33.5266V29.2375H154.922V41.372C154.922 42.856 154.633 44.0414 154.053 44.9282C153.474 45.8331 152.669 46.4936 151.637 46.9099C150.624 47.3261 149.439 47.5342 148.081 47.5342ZM147.24 41.562C145.9 41.562 144.751 41.2905 143.792 40.7476C142.833 40.2047 142.091 39.4627 141.566 38.5216C141.059 37.5805 140.806 36.4946 140.806 35.264C140.806 34.0334 141.068 32.9475 141.593 32.0064C142.136 31.0653 142.905 30.3233 143.901 29.7804C144.896 29.2375 146.081 28.966 147.457 28.966C148.868 28.966 150.081 29.2918 151.094 29.9433C152.126 30.5948 152.778 31.5087 153.049 32.6851H153.619L153.51 34.8839H152.995C152.995 33.9972 152.778 33.2461 152.343 32.6308C151.927 31.9974 151.339 31.5178 150.579 31.192C149.837 30.8482 148.941 30.6762 147.891 30.6762C146.896 30.6762 146.009 30.821 145.231 31.1106C144.453 31.4001 143.837 31.8797 143.385 32.5493C142.95 33.219 142.733 34.1238 142.733 35.264C142.733 36.4042 142.95 37.309 143.385 37.9787C143.819 38.6483 144.407 39.1279 145.149 39.4174C145.909 39.707 146.778 39.8518 147.755 39.8518C149.402 39.8518 150.687 39.4627 151.61 38.6845C152.533 37.8882 152.995 36.7752 152.995 35.3454H153.51V37.9787H152.859C152.588 39.0102 151.963 39.8699 150.986 40.5576C150.027 41.2272 148.778 41.562 147.24 41.562Z" fill="white"/>
<path d="M130.913 42.6478H128.986V29.2374H130.913V42.6478ZM130.913 27.5272H128.986V24.4597H130.913V27.5272Z" fill="white"/>
<path d="M106.067 42.6478H104.14V24.4597H106.067V42.6478ZM117.957 42.6478H104.791V40.8833H117.957V42.6478ZM117.55 34.3681H104.791V32.6308H117.55V34.3681ZM117.957 26.2242H104.791V24.4597H117.957V26.2242Z" fill="white"/>
<defs>
<clipPath id="clip0_272_62">
<rect width="92.6617" height="42.6621" fill="white"/>
</clipPath>
</defs>
</svg>
